G04 #@! TF.GenerationSoftware,KiCad,Pcbnew,(6.0.8)*
G04 #@! TF.CreationDate,2022-11-14T23:42:09+02:00*
G04 #@! TF.ProjectId,line_sensor_encoder,6c696e65-5f73-4656-9e73-6f725f656e63,rev?*
G04 #@! TF.SameCoordinates,Original*
G04 #@! TF.FileFunction,Copper,L1,Top*
G04 #@! TF.FilePolarity,Positive*
%FSLAX46Y46*%
G04 Gerber Fmt 4.6, Leading zero omitted, Abs format (unit mm)*
G04 Created by KiCad (PCBNEW (6.0.8)) date 2022-11-14 23:42:09*
%MOMM*%
%LPD*%
G01*
G04 APERTURE LIST*
G04 #@! TA.AperFunction,ComponentPad*
%ADD10R,1.600000X1.600000*%
G04 #@! TD*
G04 #@! TA.AperFunction,ComponentPad*
%ADD11C,1.600000*%
G04 #@! TD*
G04 #@! TA.AperFunction,ComponentPad*
%ADD12C,1.440000*%
G04 #@! TD*
G04 #@! TA.AperFunction,ComponentPad*
%ADD13R,1.700000X1.700000*%
G04 #@! TD*
G04 #@! TA.AperFunction,ComponentPad*
%ADD14O,1.700000X1.700000*%
G04 #@! TD*
G04 #@! TA.AperFunction,ViaPad*
%ADD15C,0.800000*%
G04 #@! TD*
G04 #@! TA.AperFunction,Conductor*
%ADD16C,0.250000*%
G04 #@! TD*
G04 APERTURE END LIST*
D10*
X151270000Y-149250000D03*
D11*
X148730000Y-149250000D03*
X148730000Y-154750000D03*
X151270000Y-154750000D03*
D10*
X151270000Y-123250000D03*
D11*
X148730000Y-123250000D03*
X148730000Y-128750000D03*
X151270000Y-128750000D03*
D10*
X151270000Y-136250000D03*
D11*
X148730000Y-136250000D03*
X148730000Y-141750000D03*
X151270000Y-141750000D03*
D10*
X151270000Y-110250000D03*
D11*
X148730000Y-110250000D03*
X148730000Y-115750000D03*
X151270000Y-115750000D03*
D10*
X151270000Y-97250000D03*
D11*
X148730000Y-97250000D03*
X148730000Y-102750000D03*
X151270000Y-102750000D03*
D12*
X127000000Y-136460000D03*
X127000000Y-139000000D03*
X127000000Y-141540000D03*
X127000000Y-123500000D03*
X127000000Y-126040000D03*
X127000000Y-128580000D03*
X127000000Y-97460000D03*
X127000000Y-100000000D03*
X127000000Y-102540000D03*
X127000000Y-110460000D03*
X127000000Y-113000000D03*
X127000000Y-115540000D03*
D13*
X120775000Y-96950000D03*
D14*
X118235000Y-96950000D03*
X120775000Y-99490000D03*
X118235000Y-99490000D03*
X120775000Y-102030000D03*
X118235000Y-102030000D03*
X120775000Y-104570000D03*
X118235000Y-104570000D03*
D13*
X120750000Y-109750000D03*
D14*
X118210000Y-109750000D03*
X120750000Y-112290000D03*
X118210000Y-112290000D03*
X120750000Y-114830000D03*
X118210000Y-114830000D03*
X120750000Y-117370000D03*
X118210000Y-117370000D03*
X120750000Y-119910000D03*
X118210000Y-119910000D03*
X120750000Y-122450000D03*
X118210000Y-122450000D03*
D12*
X127000000Y-149460000D03*
X127000000Y-152000000D03*
X127000000Y-154540000D03*
D15*
X145250000Y-94750000D03*
X136500000Y-137500000D03*
X118500000Y-156500000D03*
X125250000Y-112750000D03*
X130250000Y-136250000D03*
X126000000Y-132750000D03*
X145000000Y-155000000D03*
X155250000Y-132000000D03*
X137250000Y-156250000D03*
X118500000Y-127250000D03*
X125000000Y-100250000D03*
X131000000Y-98000000D03*
X143000000Y-123000000D03*
X130250000Y-110000000D03*
X119250000Y-94250000D03*
X145750000Y-120000000D03*
X118500000Y-144500000D03*
X123250000Y-96000000D03*
X130250000Y-153250000D03*
X136250000Y-102250000D03*
X144750000Y-139000000D03*
X158000000Y-94500000D03*
X135750000Y-123750000D03*
X144000000Y-107000000D03*
X155500000Y-106000000D03*
X122250000Y-122250000D03*
X130250000Y-126250000D03*
X158000000Y-157500000D03*
X155500000Y-118250000D03*
X156000000Y-121000000D03*
X137000000Y-122750000D03*
X126000000Y-94500000D03*
X126000000Y-107500000D03*
X128000000Y-120500000D03*
X130250000Y-123250000D03*
X124250000Y-107500000D03*
X136000000Y-132474500D03*
D16*
X121460000Y-110460000D02*
X120750000Y-109750000D01*
X137000000Y-122750000D02*
X138625000Y-124375000D01*
X127000000Y-110460000D02*
X121460000Y-110460000D01*
X152625000Y-124375000D02*
X156000000Y-121000000D01*
X138625000Y-124375000D02*
X152625000Y-124375000D01*
X126000000Y-94500000D02*
X121010000Y-99490000D01*
X121010000Y-99490000D02*
X120775000Y-99490000D01*
X123466396Y-101580000D02*
X121986701Y-101580000D01*
X126000000Y-107500000D02*
X124700000Y-106200000D01*
X124700000Y-106200000D02*
X124700000Y-102813604D01*
X121986701Y-101580000D02*
X121261701Y-100855000D01*
X119600000Y-100855000D02*
X118235000Y-99490000D01*
X121261701Y-100855000D02*
X119600000Y-100855000D01*
X124700000Y-102813604D02*
X123466396Y-101580000D01*
X124250000Y-103000000D02*
X123280000Y-102030000D01*
X124250000Y-107500000D02*
X124250000Y-103000000D01*
X123280000Y-102030000D02*
X120775000Y-102030000D01*
X130250000Y-122750000D02*
X130250000Y-123250000D01*
X128000000Y-120500000D02*
X130250000Y-122750000D01*
X122111396Y-111360000D02*
X125599354Y-111360000D01*
X148389009Y-96000000D02*
X150020000Y-96000000D01*
X120750000Y-112290000D02*
X121181396Y-112290000D01*
X121181396Y-112290000D02*
X122111396Y-111360000D01*
X126194354Y-111955000D02*
X132434009Y-111955000D01*
X125599354Y-111360000D02*
X126194354Y-111955000D01*
X150020000Y-96000000D02*
X151270000Y-97250000D01*
X132434009Y-111955000D02*
X148389009Y-96000000D01*
X119385000Y-111115000D02*
X118210000Y-112290000D01*
X128045000Y-111455000D02*
X127995000Y-111505000D01*
X125785750Y-110910000D02*
X121925000Y-110910000D01*
X121925000Y-110910000D02*
X121720000Y-111115000D01*
X126380750Y-111505000D02*
X125785750Y-110910000D01*
X127995000Y-111505000D02*
X126380750Y-111505000D01*
X127000000Y-100000000D02*
X128045000Y-101045000D01*
X121720000Y-111115000D02*
X119385000Y-111115000D01*
X128045000Y-101045000D02*
X128045000Y-111455000D01*
X120750000Y-114830000D02*
X121085000Y-114495000D01*
X150020000Y-109000000D02*
X151270000Y-110250000D01*
X121085000Y-114495000D02*
X142894009Y-114495000D01*
X148389009Y-109000000D02*
X150020000Y-109000000D01*
X142894009Y-114495000D02*
X148389009Y-109000000D01*
X119385000Y-113655000D02*
X118210000Y-114830000D01*
X121581701Y-114000000D02*
X121236701Y-113655000D01*
X127000000Y-113000000D02*
X126000000Y-114000000D01*
X126000000Y-114000000D02*
X121581701Y-114000000D01*
X121236701Y-113655000D02*
X119385000Y-113655000D01*
X120880000Y-117500000D02*
X145520000Y-117500000D01*
X145520000Y-117500000D02*
X151270000Y-123250000D01*
X120750000Y-117370000D02*
X120880000Y-117500000D01*
X121507792Y-118735000D02*
X124250000Y-121477208D01*
X118210000Y-117370000D02*
X119575000Y-118735000D01*
X119575000Y-118735000D02*
X121507792Y-118735000D01*
X124250000Y-121477208D02*
X124250000Y-124750000D01*
X125540000Y-126040000D02*
X127000000Y-126040000D01*
X124250000Y-124750000D02*
X125540000Y-126040000D01*
X122046396Y-119910000D02*
X123800000Y-121663604D01*
X120750000Y-119910000D02*
X122046396Y-119910000D01*
X123800000Y-131050000D02*
X124500000Y-131750000D01*
X123800000Y-121663604D02*
X123800000Y-131050000D01*
X124500000Y-131750000D02*
X146770000Y-131750000D01*
X146770000Y-131750000D02*
X151270000Y-136250000D01*
X136000000Y-132474500D02*
X129474500Y-139000000D01*
X118210000Y-119910000D02*
X119575000Y-121275000D01*
X123350000Y-135350000D02*
X127000000Y-139000000D01*
X122775000Y-121275000D02*
X123350000Y-121850000D01*
X123350000Y-121850000D02*
X123350000Y-135350000D01*
X129474500Y-139000000D02*
X127000000Y-139000000D01*
X119575000Y-121275000D02*
X122775000Y-121275000D01*
X120750000Y-122450000D02*
X121086396Y-122450000D01*
X122900000Y-124263604D02*
X122900000Y-144400000D01*
X121086396Y-122450000D02*
X122900000Y-124263604D01*
X124974999Y-146474999D02*
X148494999Y-146474999D01*
X122900000Y-144400000D02*
X124974999Y-146474999D01*
X148494999Y-146474999D02*
X151270000Y-149250000D01*
X128045000Y-150955000D02*
X127000000Y-152000000D01*
X126924999Y-146924999D02*
X128045000Y-148045000D01*
X124788603Y-146924999D02*
X126924999Y-146924999D01*
X122450000Y-124450000D02*
X122450000Y-144586396D01*
X118210000Y-122450000D02*
X119510000Y-123750000D01*
X121750000Y-123750000D02*
X122450000Y-124450000D01*
X128045000Y-148045000D02*
X128045000Y-150955000D01*
X122450000Y-144586396D02*
X124788603Y-146924999D01*
X119510000Y-123750000D02*
X121750000Y-123750000D01*
G04 #@! TA.AperFunction,Conductor*
G36*
X159992539Y-93220185D02*
G01*
X160038294Y-93272989D01*
X160049500Y-93324500D01*
X160049500Y-158675500D01*
X160029815Y-158742539D01*
X159977011Y-158788294D01*
X159925500Y-158799500D01*
X115574500Y-158799500D01*
X115507461Y-158779815D01*
X115461706Y-158727011D01*
X115450500Y-158675500D01*
X115450500Y-155836078D01*
X148008391Y-155836078D01*
X148017538Y-155847901D01*
X148069073Y-155883987D01*
X148078405Y-155889374D01*
X148276023Y-155981525D01*
X148286156Y-155985214D01*
X148496769Y-156041647D01*
X148507400Y-156043521D01*
X148724605Y-156062524D01*
X148735395Y-156062524D01*
X148952600Y-156043521D01*
X148963231Y-156041647D01*
X149173844Y-155985214D01*
X149183977Y-155981525D01*
X149381595Y-155889374D01*
X149390927Y-155883987D01*
X149443285Y-155847325D01*
X149451527Y-155837014D01*
X149444571Y-155823781D01*
X148742607Y-155121817D01*
X148728887Y-155114325D01*
X148727081Y-155114454D01*
X148720574Y-155118636D01*
X148014718Y-155824492D01*
X148008391Y-155836078D01*
X115450500Y-155836078D01*
X115450500Y-155568638D01*
X126335832Y-155568638D01*
X126344979Y-155580461D01*
X126379225Y-155604441D01*
X126388557Y-155609828D01*
X126573489Y-155696063D01*
X126583622Y-155699752D01*
X126780713Y-155752562D01*
X126791344Y-155754436D01*
X126994605Y-155772219D01*
X127005395Y-155772219D01*
X127208656Y-155754436D01*
X127219287Y-155752562D01*
X127416378Y-155699752D01*
X127426511Y-155696063D01*
X127611443Y-155609828D01*
X127620775Y-155604441D01*
X127655844Y-155579885D01*
X127664086Y-155569574D01*
X127657130Y-155556341D01*
X127012607Y-154911817D01*
X126998887Y-154904325D01*
X126997082Y-154904454D01*
X126990573Y-154908637D01*
X126342159Y-155557052D01*
X126335832Y-155568638D01*
X115450500Y-155568638D01*
X115450500Y-154545395D01*
X125767781Y-154545395D01*
X125785564Y-154748656D01*
X125787438Y-154759287D01*
X125840248Y-154956378D01*
X125843937Y-154966511D01*
X125930168Y-155151434D01*
X125935566Y-155160784D01*
X125960115Y-155195843D01*
X125970426Y-155204086D01*
X125983659Y-155197130D01*
X126628183Y-154552607D01*
X126634459Y-154541113D01*
X127364325Y-154541113D01*
X127364454Y-154542918D01*
X127368637Y-154549427D01*
X128017052Y-155197841D01*
X128028638Y-155204167D01*
X128040462Y-155195020D01*
X128064434Y-155160784D01*
X128069832Y-155151434D01*
X128156063Y-154966511D01*
X128159752Y-154956378D01*
X128212562Y-154759287D01*
X128213248Y-154755395D01*
X147417476Y-154755395D01*
X147436479Y-154972600D01*
X147438353Y-154983231D01*
X147494786Y-155193844D01*
X147498475Y-155203977D01*
X147590626Y-155401595D01*
X147596013Y-155410927D01*
X147632675Y-155463285D01*
X147642986Y-155471527D01*
X147656219Y-155464571D01*
X148358183Y-154762607D01*
X148364459Y-154751113D01*
X149094325Y-154751113D01*
X149094454Y-154752919D01*
X149098636Y-154759426D01*
X149804492Y-155465282D01*
X149816078Y-155471609D01*
X149827901Y-155462462D01*
X149863987Y-155410927D01*
X149869374Y-155401595D01*
X149961525Y-155203977D01*
X149965214Y-155193844D01*
X150021647Y-154983231D01*
X150023521Y-154972600D01*
X150030690Y-154890659D01*
X150056142Y-154825590D01*
X150112733Y-154784611D01*
X150182495Y-154780733D01*
X150243279Y-154815187D01*
X150275787Y-154877033D01*
X150277783Y-154891090D01*
X150278905Y-154904454D01*
X150281175Y-154931483D01*
X150335258Y-155120091D01*
X150424944Y-155294601D01*
X150428709Y-155299351D01*
X150428712Y-155299356D01*
X150517142Y-155410927D01*
X150546818Y-155448369D01*
X150696238Y-155575535D01*
X150701536Y-155578496D01*
X150747959Y-155604441D01*
X150867513Y-155671257D01*
X151054118Y-155731889D01*
X151248946Y-155755121D01*
X151254990Y-155754656D01*
X151254991Y-155754656D01*
X151346761Y-155747594D01*
X151444576Y-155740068D01*
X151633556Y-155687303D01*
X151808689Y-155598837D01*
X151963303Y-155478040D01*
X151967259Y-155473456D01*
X151967263Y-155473453D01*
X152087547Y-155334101D01*
X152091509Y-155329511D01*
X152188425Y-155158909D01*
X152219121Y-155066633D01*
X152248446Y-154978480D01*
X152248446Y-154978479D01*
X152250358Y-154972732D01*
X152258054Y-154911817D01*
X152274514Y-154781515D01*
X152274514Y-154781514D01*
X152274949Y-154778071D01*
X152275341Y-154750000D01*
X152256194Y-154554728D01*
X152199484Y-154366894D01*
X152195675Y-154359729D01*
X152110217Y-154199008D01*
X152107370Y-154193653D01*
X151983361Y-154041602D01*
X151832180Y-153916535D01*
X151659585Y-153823213D01*
X151472152Y-153765193D01*
X151277019Y-153744683D01*
X151270986Y-153745232D01*
X151270982Y-153745232D01*
X151107278Y-153760131D01*
X151081618Y-153762466D01*
X150998217Y-153787012D01*
X150899208Y-153816152D01*
X150899203Y-153816154D01*
X150893393Y-153817864D01*
X150888023Y-153820671D01*
X150888019Y-153820673D01*
X150830966Y-153850500D01*
X150719512Y-153908767D01*
X150714789Y-153912564D01*
X150714788Y-153912565D01*
X150705040Y-153920403D01*
X150566600Y-154031711D01*
X150440480Y-154182016D01*
X150345956Y-154353954D01*
X150344124Y-154359729D01*
X150288650Y-154534605D01*
X150286628Y-154540978D01*
X150285952Y-154547006D01*
X150277961Y-154618249D01*
X150250927Y-154682676D01*
X150193352Y-154722260D01*
X150123516Y-154724433D01*
X150063592Y-154688505D01*
X150032604Y-154625882D01*
X150031206Y-154615235D01*
X150023521Y-154527399D01*
X150021647Y-154516769D01*
X149965214Y-154306156D01*
X149961525Y-154296023D01*
X149869374Y-154098405D01*
X149863987Y-154089073D01*
X149827325Y-154036715D01*
X149817014Y-154028473D01*
X149803781Y-154035429D01*
X149101817Y-154737393D01*
X149094325Y-154751113D01*
X148364459Y-154751113D01*
X148365675Y-154748887D01*
X148365546Y-154747081D01*
X148361364Y-154740574D01*
X147655508Y-154034718D01*
X147643922Y-154028391D01*
X147632099Y-154037538D01*
X147596013Y-154089073D01*
X147590626Y-154098405D01*
X147498475Y-154296023D01*
X147494786Y-154306156D01*
X147438353Y-154516769D01*
X147436479Y-154527400D01*
X147417476Y-154744605D01*
X147417476Y-154755395D01*
X128213248Y-154755395D01*
X128214436Y-154748656D01*
X128232219Y-154545395D01*
X128232219Y-154534605D01*
X128214436Y-154331344D01*
X128212562Y-154320713D01*
X128159752Y-154123622D01*
X128156063Y-154113489D01*
X128069832Y-153928566D01*
X128064434Y-153919216D01*
X128039885Y-153884157D01*
X128029574Y-153875914D01*
X128016341Y-153882870D01*
X127371817Y-154527393D01*
X127364325Y-154541113D01*
X126634459Y-154541113D01*
X126635675Y-154538887D01*
X126635546Y-154537082D01*
X126631363Y-154530573D01*
X125982948Y-153882159D01*
X125971362Y-153875833D01*
X125959538Y-153884980D01*
X125935566Y-153919216D01*
X125930168Y-153928566D01*
X125843937Y-154113489D01*
X125840248Y-154123622D01*
X125787438Y-154320713D01*
X125785564Y-154331344D01*
X125767781Y-154534605D01*
X125767781Y-154545395D01*
X115450500Y-154545395D01*
X115450500Y-153510426D01*
X126335914Y-153510426D01*
X126342870Y-153523659D01*
X126987393Y-154168183D01*
X127001113Y-154175675D01*
X127002918Y-154175546D01*
X127009427Y-154171363D01*
X127657841Y-153522948D01*
X127664168Y-153511362D01*
X127655021Y-153499539D01*
X127620775Y-153475559D01*
X127611443Y-153470172D01*
X127426511Y-153383937D01*
X127416378Y-153380248D01*
X127219287Y-153327438D01*
X127208656Y-153325564D01*
X127005395Y-153307781D01*
X126994605Y-153307781D01*
X126791344Y-153325564D01*
X126780713Y-153327438D01*
X126583622Y-153380248D01*
X126573489Y-153383937D01*
X126388566Y-153470168D01*
X126379216Y-153475566D01*
X126344157Y-153500115D01*
X126335914Y-153510426D01*
X115450500Y-153510426D01*
X115450500Y-122435262D01*
X117154520Y-122435262D01*
X117171759Y-122640553D01*
X117228544Y-122838586D01*
X117231316Y-122843981D01*
X117231317Y-122843982D01*
X117267441Y-122914271D01*
X117322712Y-123021818D01*
X117326480Y-123026572D01*
X117446724Y-123178282D01*
X117450677Y-123183270D01*
X117455296Y-123187201D01*
X117602950Y-123312865D01*
X117602955Y-123312869D01*
X117607564Y-123316791D01*
X117787398Y-123417297D01*
X117859653Y-123440774D01*
X117960019Y-123473385D01*
X117983329Y-123480959D01*
X117989347Y-123481677D01*
X117989349Y-123481677D01*
X118088840Y-123493540D01*
X118187894Y-123505351D01*
X118193938Y-123504886D01*
X118193939Y-123504886D01*
X118257437Y-123500000D01*
X118393300Y-123489546D01*
X118478596Y-123465731D01*
X118585885Y-123435776D01*
X118585889Y-123435774D01*
X118591725Y-123434145D01*
X118597132Y-123431414D01*
X118597139Y-123431411D01*
X118606011Y-123426929D01*
X118674725Y-123414272D01*
X118739374Y-123440774D01*
X118749602Y-123449928D01*
X119265950Y-123966276D01*
X119273259Y-123974251D01*
X119297545Y-124003194D01*
X119306937Y-124008616D01*
X119306939Y-124008618D01*
X119330257Y-124022080D01*
X119339383Y-124027894D01*
X119346791Y-124033081D01*
X119370316Y-124049554D01*
X119380791Y-124052361D01*
X119384100Y-124053904D01*
X119387558Y-124055162D01*
X119396955Y-124060588D01*
X119420965Y-124064821D01*
X119434143Y-124067145D01*
X119444690Y-124069483D01*
X119481193Y-124079264D01*
X119518822Y-124075972D01*
X119529630Y-124075500D01*
X121563812Y-124075500D01*
X121630851Y-124095185D01*
X121651493Y-124111819D01*
X122088181Y-124548508D01*
X122121666Y-124609831D01*
X122124500Y-124636189D01*
X122124500Y-144566769D01*
X122124028Y-144577577D01*
X122120736Y-144615203D01*
X122130517Y-144651706D01*
X122132855Y-144662253D01*
X122139412Y-144699441D01*
X122144838Y-144708838D01*
X122146096Y-144712296D01*
X122147639Y-144715605D01*
X122150446Y-144726080D01*
X122156667Y-144734964D01*
X122172106Y-144757013D01*
X122177920Y-144766139D01*
X122196806Y-144798851D01*
X122205116Y-144805824D01*
X122225744Y-144823133D01*
X122233719Y-144830441D01*
X124544553Y-147141275D01*
X124551862Y-147149250D01*
X124576148Y-147178193D01*
X124585540Y-147183615D01*
X124585542Y-147183617D01*
X124608860Y-147197079D01*
X124617986Y-147202893D01*
X124648919Y-147224553D01*
X124659394Y-147227360D01*
X124662703Y-147228903D01*
X124666161Y-147230161D01*
X124675558Y-147235587D01*
X124699568Y-147239820D01*
X124712746Y-147242144D01*
X124723293Y-147244482D01*
X124759796Y-147254263D01*
X124797422Y-147250971D01*
X124808230Y-147250499D01*
X126738811Y-147250499D01*
X126805850Y-147270184D01*
X126826492Y-147286818D01*
X127683181Y-148143507D01*
X127716666Y-148204830D01*
X127719500Y-148231188D01*
X127719500Y-148601584D01*
X127699815Y-148668623D01*
X127647011Y-148714378D01*
X127577853Y-148724322D01*
X127522615Y-148701902D01*
X127512837Y-148694798D01*
X127462785Y-148658433D01*
X127286017Y-148579731D01*
X127252682Y-148572645D01*
X127103111Y-148540852D01*
X127103106Y-148540851D01*
X127096748Y-148539500D01*
X126903252Y-148539500D01*
X126896894Y-148540851D01*
X126896889Y-148540852D01*
X126747318Y-148572645D01*
X126713983Y-148579731D01*
X126537215Y-148658433D01*
X126380673Y-148772167D01*
X126251198Y-148915964D01*
X126154450Y-149083537D01*
X126143292Y-149117879D01*
X126098610Y-149255395D01*
X126094656Y-149267563D01*
X126074430Y-149460000D01*
X126094656Y-149652437D01*
X126154450Y-149836463D01*
X126251198Y-150004036D01*
X126255544Y-150008863D01*
X126255545Y-150008864D01*
X126352238Y-150116253D01*
X126380673Y-150147833D01*
X126385931Y-150151653D01*
X126385932Y-150151654D01*
X126388781Y-150153724D01*
X126537215Y-150261567D01*
X126713983Y-150340269D01*
X126720345Y-150341621D01*
X126720344Y-150341621D01*
X126896889Y-150379148D01*
X126896894Y-150379149D01*
X126903252Y-150380500D01*
X127096748Y-150380500D01*
X127103106Y-150379149D01*
X127103111Y-150379148D01*
X127279656Y-150341621D01*
X127279655Y-150341621D01*
X127286017Y-150340269D01*
X127462785Y-150261567D01*
X127522615Y-150218098D01*
X127588421Y-150194618D01*
X127656475Y-150210444D01*
X127705170Y-150260549D01*
X127719500Y-150318416D01*
X127719500Y-150768811D01*
X127699815Y-150835850D01*
X127683181Y-150856492D01*
X127438946Y-151100727D01*
X127377623Y-151134212D01*
X127307931Y-151129228D01*
X127300831Y-151126326D01*
X127291960Y-151122376D01*
X127291952Y-151122373D01*
X127286017Y-151119731D01*
X127252682Y-151112645D01*
X127103111Y-151080852D01*
X127103106Y-151080851D01*
X127096748Y-151079500D01*
X126903252Y-151079500D01*
X126896894Y-151080851D01*
X126896889Y-151080852D01*
X126747318Y-151112645D01*
X126713983Y-151119731D01*
X126608287Y-151166790D01*
X126552257Y-151191736D01*
X126537215Y-151198433D01*
X126380673Y-151312167D01*
X126251198Y-151455964D01*
X126247950Y-151461590D01*
X126189290Y-151563193D01*
X126154450Y-151623537D01*
X126094656Y-151807563D01*
X126074430Y-152000000D01*
X126094656Y-152192437D01*
X126154450Y-152376463D01*
X126251198Y-152544036D01*
X126380673Y-152687833D01*
X126537215Y-152801567D01*
X126713983Y-152880269D01*
X126720345Y-152881621D01*
X126720344Y-152881621D01*
X126896889Y-152919148D01*
X126896894Y-152919149D01*
X126903252Y-152920500D01*
X127096748Y-152920500D01*
X127103106Y-152919149D01*
X127103111Y-152919148D01*
X127279656Y-152881621D01*
X127279655Y-152881621D01*
X127286017Y-152880269D01*
X127462785Y-152801567D01*
X127619327Y-152687833D01*
X127748802Y-152544036D01*
X127845550Y-152376463D01*
X127905344Y-152192437D01*
X127921146Y-152042095D01*
X138145028Y-152042095D01*
X138145455Y-152046570D01*
X138145455Y-152046571D01*
X138159962Y-152198618D01*
X138170534Y-152309431D01*
X138234364Y-152570285D01*
X138236047Y-152574441D01*
X138236049Y-152574446D01*
X138251423Y-152612402D01*
X138335182Y-152819192D01*
X138470875Y-153050938D01*
X138638601Y-153260669D01*
X138834846Y-153443991D01*
X139055499Y-153597064D01*
X139059532Y-153599070D01*
X139059533Y-153599071D01*
X139291905Y-153714674D01*
X139291909Y-153714676D01*
X139295938Y-153716680D01*
X139300214Y-153718082D01*
X139300217Y-153718083D01*
X139486309Y-153779087D01*
X139551126Y-153800335D01*
X139631154Y-153814230D01*
X139811983Y-153845628D01*
X139811988Y-153845629D01*
X139815717Y-153846276D01*
X139849078Y-153847937D01*
X139899031Y-153850424D01*
X139899050Y-153850424D01*
X139900567Y-153850500D01*
X140068223Y-153850500D01*
X140267846Y-153836016D01*
X140272227Y-153835049D01*
X140272232Y-153835048D01*
X140380410Y-153811164D01*
X140530080Y-153778120D01*
X140781211Y-153682975D01*
X140877342Y-153629579D01*
X141012053Y-153554753D01*
X141015976Y-153552574D01*
X141229458Y-153389650D01*
X141417185Y-153197614D01*
X141575225Y-152980491D01*
X141700265Y-152742828D01*
X141718337Y-152691654D01*
X141788195Y-152493830D01*
X141789688Y-152489603D01*
X141818407Y-152343896D01*
X141840751Y-152230532D01*
X141840751Y-152230529D01*
X141841620Y-152226122D01*
X141847648Y-152105028D01*
X146598025Y-152105028D01*
X146635347Y-152348930D01*
X146712003Y-152583460D01*
X146714353Y-152587974D01*
X146823584Y-152797806D01*
X146823588Y-152797812D01*
X146825935Y-152802321D01*
X146828991Y-152806391D01*
X146962436Y-152984123D01*
X146974083Y-152999636D01*
X146977762Y-153003152D01*
X146977764Y-153003154D01*
X147031435Y-153054443D01*
X147152468Y-153170104D01*
X147156667Y-153172968D01*
X147156669Y-153172970D01*
X147335230Y-153294776D01*
X147356300Y-153309149D01*
X147580104Y-153413035D01*
X147585008Y-153414395D01*
X147812970Y-153477615D01*
X147812972Y-153477615D01*
X147817871Y-153478974D01*
X147904072Y-153488186D01*
X147968640Y-153514883D01*
X148008524Y-153572250D01*
X148010575Y-153628655D01*
X148010703Y-153628668D01*
X148010609Y-153629579D01*
X148011063Y-153642073D01*
X148008857Y-153646505D01*
X148007369Y-153660885D01*
X148015429Y-153676219D01*
X148717393Y-154378183D01*
X148731113Y-154385675D01*
X148732919Y-154385546D01*
X148739426Y-154381364D01*
X149445282Y-153675508D01*
X149451609Y-153663922D01*
X149442462Y-153652099D01*
X149390927Y-153616013D01*
X149381595Y-153610626D01*
X149183977Y-153518475D01*
X149173844Y-153514786D01*
X148981933Y-153463364D01*
X148922273Y-153426999D01*
X148891744Y-153364152D01*
X148900039Y-153294776D01*
X148946673Y-153239476D01*
X149011382Y-153197614D01*
X149018661Y-153192905D01*
X149087569Y-153130203D01*
X149197387Y-153030278D01*
X149197391Y-153030274D01*
X149201158Y-153026846D01*
X149354082Y-152833210D01*
X149432225Y-152691654D01*
X149470868Y-152621653D01*
X149470869Y-152621650D01*
X149473327Y-152617198D01*
X149555691Y-152384610D01*
X149598961Y-152141694D01*
X149599409Y-152105028D01*
X150398025Y-152105028D01*
X150435347Y-152348930D01*
X150512003Y-152583460D01*
X150514353Y-152587974D01*
X150623584Y-152797806D01*
X150623588Y-152797812D01*
X150625935Y-152802321D01*
X150628991Y-152806391D01*
X150762436Y-152984123D01*
X150774083Y-152999636D01*
X150777762Y-153003152D01*
X150777764Y-153003154D01*
X150831435Y-153054443D01*
X150952468Y-153170104D01*
X150956667Y-153172968D01*
X150956669Y-153172970D01*
X151135230Y-153294776D01*
X151156300Y-153309149D01*
X151380104Y-153413035D01*
X151385008Y-153414395D01*
X151612970Y-153477615D01*
X151612972Y-153477615D01*
X151617871Y-153478974D01*
X151819292Y-153500500D01*
X151962554Y-153500500D01*
X152145911Y-153485425D01*
X152385217Y-153425316D01*
X152410334Y-153414395D01*
X152525884Y-153364152D01*
X152611493Y-153326928D01*
X152818661Y-153192905D01*
X152887569Y-153130203D01*
X152997387Y-153030278D01*
X152997391Y-153030274D01*
X153001158Y-153026846D01*
X153154082Y-152833210D01*
X153232225Y-152691654D01*
X153270868Y-152621653D01*
X153270869Y-152621650D01*
X153273327Y-152617198D01*
X153355691Y-152384610D01*
X153398961Y-152141694D01*
X153400771Y-151993540D01*
X153401913Y-151900062D01*
X153401913Y-151900060D01*
X153401975Y-151894972D01*
X153364653Y-151651070D01*
X153287997Y-151416540D01*
X153231675Y-151308346D01*
X153176416Y-151202194D01*
X153176412Y-151202188D01*
X153174065Y-151197679D01*
X153076733Y-151068045D01*
X153028973Y-151004434D01*
X153028972Y-151004433D01*
X153025917Y-151000364D01*
X152997444Y-150973154D01*
X152875363Y-150856492D01*
X152847532Y-150829896D01*
X152812529Y-150806018D01*
X152647909Y-150693722D01*
X152647907Y-150693721D01*
X152643700Y-150690851D01*
X152419896Y-150586965D01*
X152371141Y-150573444D01*
X152187030Y-150522385D01*
X152187028Y-150522385D01*
X152182129Y-150521026D01*
X151980708Y-150499500D01*
X151837446Y-150499500D01*
X151654089Y-150514575D01*
X151649149Y-150515816D01*
X151649148Y-150515816D01*
X151531068Y-150545475D01*
X151414783Y-150574684D01*
X151410116Y-150576713D01*
X151410114Y-150576714D01*
X151352603Y-150601721D01*
X151188507Y-150673072D01*
X150981339Y-150807095D01*
X150956281Y-150829896D01*
X150802613Y-150969722D01*
X150802609Y-150969726D01*
X150798842Y-150973154D01*
X150645918Y-151166790D01*
X150643461Y-151171241D01*
X150565666Y-151312167D01*
X150526673Y-151382802D01*
X150444309Y-151615390D01*
X150401039Y-151858306D01*
X150400977Y-151863389D01*
X150398849Y-152037609D01*
X150398025Y-152105028D01*
X149599409Y-152105028D01*
X149600771Y-151993540D01*
X149601913Y-151900062D01*
X149601913Y-151900060D01*
X149601975Y-151894972D01*
X149564653Y-151651070D01*
X149487997Y-151416540D01*
X149431675Y-151308346D01*
X149376416Y-151202194D01*
X149376412Y-151202188D01*
X149374065Y-151197679D01*
X149276733Y-151068045D01*
X149228973Y-151004434D01*
X149228972Y-151004433D01*
X149225917Y-151000364D01*
X149197444Y-150973154D01*
X149075363Y-150856492D01*
X149047532Y-150829896D01*
X148943595Y-150758995D01*
X148899307Y-150704955D01*
X148891266Y-150635549D01*
X148922024Y-150572814D01*
X148981380Y-150536784D01*
X149173841Y-150485215D01*
X149183977Y-150481525D01*
X149381595Y-150389374D01*
X149390927Y-150383987D01*
X149443285Y-150347325D01*
X149451527Y-150337014D01*
X149444571Y-150323781D01*
X148742607Y-149621817D01*
X148728887Y-149614325D01*
X148727081Y-149614454D01*
X148720574Y-149618636D01*
X148014718Y-150324492D01*
X148007226Y-150338212D01*
X148008904Y-150361678D01*
X148014626Y-150376304D01*
X148000861Y-150444804D01*
X147952247Y-150494988D01*
X147901258Y-150510697D01*
X147854089Y-150514575D01*
X147849149Y-150515816D01*
X147849148Y-150515816D01*
X147731068Y-150545475D01*
X147614783Y-150574684D01*
X147610116Y-150576713D01*
X147610114Y-150576714D01*
X147552603Y-150601721D01*
X147388507Y-150673072D01*
X147181339Y-150807095D01*
X147156281Y-150829896D01*
X147002613Y-150969722D01*
X147002609Y-150969726D01*
X146998842Y-150973154D01*
X146845918Y-151166790D01*
X146843461Y-151171241D01*
X146765666Y-151312167D01*
X146726673Y-151382802D01*
X146644309Y-151615390D01*
X146601039Y-151858306D01*
X146600977Y-151863389D01*
X146598849Y-152037609D01*
X146598025Y-152105028D01*
X141847648Y-152105028D01*
X141852555Y-152006460D01*
X141854749Y-151962391D01*
X141854749Y-151962387D01*
X141854972Y-151957905D01*
X141845954Y-151863389D01*
X141829894Y-151695054D01*
X141829894Y-151695053D01*
X141829466Y-151690569D01*
X141765636Y-151429715D01*
X141758472Y-151412026D01*
X141695749Y-151257172D01*
X141664818Y-151180808D01*
X141529125Y-150949062D01*
X141361399Y-150739331D01*
X141165154Y-150556009D01*
X140944501Y-150402936D01*
X140896685Y-150379148D01*
X140708095Y-150285326D01*
X140708091Y-150285324D01*
X140704062Y-150283320D01*
X140699786Y-150281918D01*
X140699783Y-150281917D01*
X140453142Y-150201064D01*
X140453140Y-150201064D01*
X140448874Y-150199665D01*
X140360952Y-150184399D01*
X140188017Y-150154372D01*
X140188012Y-150154371D01*
X140184283Y-150153724D01*
X140150922Y-150152063D01*
X140100969Y-150149576D01*
X140100950Y-150149576D01*
X140099433Y-150149500D01*
X139931777Y-150149500D01*
X139732154Y-150163984D01*
X139727773Y-150164951D01*
X139727768Y-150164952D01*
X139639686Y-150184399D01*
X139469920Y-150221880D01*
X139218789Y-150317025D01*
X138984024Y-150447426D01*
X138770542Y-150610350D01*
X138582815Y-150802386D01*
X138424775Y-151019509D01*
X138299735Y-151257172D01*
X138298242Y-151261399D01*
X138298241Y-151261402D01*
X138259920Y-151369918D01*
X138210312Y-151510397D01*
X138209445Y-151514798D01*
X138209444Y-151514800D01*
X138175072Y-151689192D01*
X138158380Y-151773878D01*
X138158157Y-151778362D01*
X138147124Y-152000000D01*
X138145028Y-152042095D01*
X127921146Y-152042095D01*
X127925570Y-152000000D01*
X127905344Y-151807563D01*
X127868788Y-151695054D01*
X127866883Y-151689192D01*
X127864888Y-151619351D01*
X127897133Y-151563193D01*
X128072729Y-151387598D01*
X128261282Y-151199045D01*
X128269257Y-151191736D01*
X128269954Y-151191151D01*
X128298194Y-151167455D01*
X128317083Y-151134739D01*
X128322894Y-151125618D01*
X128338331Y-151103571D01*
X128344554Y-151094684D01*
X128347361Y-151084209D01*
X128348908Y-151080892D01*
X128350165Y-151077439D01*
X128355588Y-151068045D01*
X128362148Y-151030845D01*
X128364489Y-151020288D01*
X128371455Y-150994288D01*
X128371455Y-150994287D01*
X128374263Y-150983807D01*
X128371563Y-150952938D01*
X128370972Y-150946189D01*
X128370500Y-150935382D01*
X128370500Y-149255395D01*
X147417476Y-149255395D01*
X147436479Y-149472600D01*
X147438353Y-149483231D01*
X147494786Y-149693844D01*
X147498475Y-149703977D01*
X147590626Y-149901595D01*
X147596013Y-149910927D01*
X147632675Y-149963285D01*
X147642986Y-149971527D01*
X147656219Y-149964571D01*
X148358183Y-149262607D01*
X148365675Y-149248887D01*
X148365546Y-149247081D01*
X148361364Y-149240574D01*
X147655508Y-148534718D01*
X147643922Y-148528391D01*
X147632099Y-148537538D01*
X147596013Y-148589073D01*
X147590626Y-148598405D01*
X147498475Y-148796023D01*
X147494786Y-148806156D01*
X147438353Y-149016769D01*
X147436479Y-149027400D01*
X147417476Y-149244605D01*
X147417476Y-149255395D01*
X128370500Y-149255395D01*
X128370500Y-148064627D01*
X128370972Y-148053819D01*
X128373318Y-148027001D01*
X128374264Y-148016193D01*
X128364483Y-147979690D01*
X128362145Y-147969143D01*
X128357472Y-147942641D01*
X128355588Y-147931955D01*
X128350162Y-147922558D01*
X128348904Y-147919100D01*
X128347361Y-147915791D01*
X128344554Y-147905316D01*
X128322894Y-147874383D01*
X128317080Y-147865257D01*
X128303618Y-147841939D01*
X128303616Y-147841937D01*
X128298194Y-147832545D01*
X128269255Y-147808262D01*
X128261281Y-147800955D01*
X127472506Y-147012180D01*
X127439021Y-146950857D01*
X127444005Y-146881165D01*
X127485877Y-146825232D01*
X127551341Y-146800815D01*
X127560187Y-146800499D01*
X146785803Y-146800499D01*
X146852842Y-146820184D01*
X146898597Y-146872988D01*
X146908541Y-146942146D01*
X146893028Y-146986780D01*
X146857061Y-147048702D01*
X146806333Y-147216193D01*
X146795497Y-147390862D01*
X146825134Y-147563340D01*
X146893654Y-147724373D01*
X146897921Y-147730171D01*
X146897922Y-147730173D01*
X146968129Y-147825572D01*
X146997383Y-147865324D01*
X147002874Y-147869989D01*
X147002875Y-147869990D01*
X147125261Y-147973965D01*
X147125264Y-147973967D01*
X147130755Y-147978632D01*
X147137172Y-147981909D01*
X147137174Y-147981910D01*
X147201558Y-148014786D01*
X147286616Y-148058219D01*
X147293612Y-148059931D01*
X147293615Y-148059932D01*
X147345517Y-148072632D01*
X147456606Y-148099815D01*
X147462114Y-148100157D01*
X147462116Y-148100157D01*
X147465744Y-148100382D01*
X147465748Y-148100382D01*
X147467648Y-148100500D01*
X147593822Y-148100500D01*
X147723828Y-148085343D01*
X147730595Y-148082887D01*
X147730598Y-148082886D01*
X147840538Y-148042979D01*
X147910271Y-148038609D01*
X147971297Y-148072632D01*
X148004241Y-148134248D01*
X148005413Y-148157165D01*
X148015429Y-148176219D01*
X149804492Y-149965282D01*
X149816078Y-149971609D01*
X149827901Y-149962462D01*
X149863987Y-149910927D01*
X149869374Y-149901595D01*
X149961525Y-149703977D01*
X149965214Y-149693844D01*
X150021647Y-149483231D01*
X150023383Y-149473385D01*
X150054409Y-149410782D01*
X150114355Y-149374890D01*
X150184190Y-149377105D01*
X150241741Y-149416725D01*
X150268736Y-149481169D01*
X150269500Y-149494915D01*
X150269500Y-150069748D01*
X150281133Y-150128231D01*
X150325448Y-150194552D01*
X150391769Y-150238867D01*
X150403745Y-150241249D01*
X150403747Y-150241250D01*
X150422326Y-150244945D01*
X150450252Y-150250500D01*
X152089748Y-150250500D01*
X152117674Y-150244945D01*
X152136253Y-150241250D01*
X152136255Y-150241249D01*
X152148231Y-150238867D01*
X152214552Y-150194552D01*
X152258867Y-150128231D01*
X152270500Y-150069748D01*
X152270500Y-148430252D01*
X152258867Y-148371769D01*
X152214552Y-148305448D01*
X152148231Y-148261133D01*
X152136255Y-148258751D01*
X152136253Y-148258750D01*
X152117674Y-148255055D01*
X152089748Y-148249500D01*
X150781188Y-148249500D01*
X150714149Y-148229815D01*
X150693507Y-148213181D01*
X148739049Y-146258723D01*
X148731740Y-146250748D01*
X148714426Y-146230114D01*
X148707454Y-146221805D01*
X148698062Y-146216383D01*
X148698060Y-146216381D01*
X148674742Y-146202919D01*
X148665616Y-146197105D01*
X148643567Y-146181666D01*
X148643568Y-146181666D01*
X148634683Y-146175445D01*
X148624208Y-146172638D01*
X148620899Y-146171095D01*
X148617441Y-146169837D01*
X148608044Y-146164411D01*
X148584034Y-146160178D01*
X148570856Y-146157854D01*
X148560309Y-146155516D01*
X148523806Y-146145735D01*
X148486180Y-146149027D01*
X148475372Y-146149499D01*
X125161187Y-146149499D01*
X125094148Y-146129814D01*
X125073506Y-146113180D01*
X123261819Y-144301493D01*
X123228334Y-144240170D01*
X123225500Y-144213812D01*
X123225500Y-142836078D01*
X148008391Y-142836078D01*
X148017538Y-142847901D01*
X148069073Y-142883987D01*
X148078405Y-142889374D01*
X148276023Y-142981525D01*
X148286156Y-142985214D01*
X148496769Y-143041647D01*
X148507400Y-143043521D01*
X148724605Y-143062524D01*
X148735395Y-143062524D01*
X148952600Y-143043521D01*
X148963231Y-143041647D01*
X149173844Y-142985214D01*
X149183977Y-142981525D01*
X149381595Y-142889374D01*
X149390927Y-142883987D01*
X149443285Y-142847325D01*
X149451527Y-142837014D01*
X149444571Y-142823781D01*
X148742607Y-142121817D01*
X148728887Y-142114325D01*
X148727081Y-142114454D01*
X148720574Y-142118636D01*
X148014718Y-142824492D01*
X148008391Y-142836078D01*
X123225500Y-142836078D01*
X123225500Y-142568638D01*
X126335832Y-142568638D01*
X126344979Y-142580461D01*
X126379225Y-142604441D01*
X126388557Y-142609828D01*
X126573489Y-142696063D01*
X126583622Y-142699752D01*
X126780713Y-142752562D01*
X126791344Y-142754436D01*
X126994605Y-142772219D01*
X127005395Y-142772219D01*
X127208656Y-142754436D01*
X127219287Y-142752562D01*
X127416378Y-142699752D01*
X127426511Y-142696063D01*
X127611443Y-142609828D01*
X127620775Y-142604441D01*
X127655844Y-142579885D01*
X127664086Y-142569574D01*
X127657130Y-142556341D01*
X127012607Y-141911817D01*
X126998887Y-141904325D01*
X126997082Y-141904454D01*
X126990573Y-141908637D01*
X126342159Y-142557052D01*
X126335832Y-142568638D01*
X123225500Y-142568638D01*
X123225500Y-141545395D01*
X125767781Y-141545395D01*
X125785564Y-141748656D01*
X125787438Y-141759287D01*
X125840248Y-141956378D01*
X125843937Y-141966511D01*
X125930168Y-142151434D01*
X125935566Y-142160784D01*
X125960115Y-142195843D01*
X125970426Y-142204086D01*
X125983659Y-142197130D01*
X126628183Y-141552607D01*
X126634459Y-141541113D01*
X127364325Y-141541113D01*
X127364454Y-141542918D01*
X127368637Y-141549427D01*
X128017052Y-142197841D01*
X128028638Y-142204167D01*
X128040462Y-142195020D01*
X128064434Y-142160784D01*
X128069832Y-142151434D01*
X128156063Y-141966511D01*
X128159752Y-141956378D01*
X128212562Y-141759287D01*
X128213248Y-141755395D01*
X147417476Y-141755395D01*
X147436479Y-141972600D01*
X147438353Y-141983231D01*
X147494786Y-142193844D01*
X147498475Y-142203977D01*
X147590626Y-142401595D01*
X147596013Y-142410927D01*
X147632675Y-142463285D01*
X147642986Y-142471527D01*
X147656219Y-142464571D01*
X148358183Y-141762607D01*
X148364459Y-141751113D01*
X149094325Y-141751113D01*
X149094454Y-141752919D01*
X149098636Y-141759426D01*
X149804492Y-142465282D01*
X149816078Y-142471609D01*
X149827901Y-142462462D01*
X149863987Y-142410927D01*
X149869374Y-142401595D01*
X149961525Y-142203977D01*
X149965214Y-142193844D01*
X150021647Y-141983231D01*
X150023521Y-141972600D01*
X150030690Y-141890659D01*
X150056142Y-141825590D01*
X150112733Y-141784611D01*
X150182495Y-141780733D01*
X150243279Y-141815187D01*
X150275787Y-141877033D01*
X150277783Y-141891090D01*
X150278905Y-141904454D01*
X150281175Y-141931483D01*
X150335258Y-142120091D01*
X150424944Y-142294601D01*
X150428709Y-142299351D01*
X150428712Y-142299356D01*
X150517142Y-142410927D01*
X150546818Y-142448369D01*
X150696238Y-142575535D01*
X150701536Y-142578496D01*
X150747959Y-142604441D01*
X150867513Y-142671257D01*
X151054118Y-142731889D01*
X151248946Y-142755121D01*
X151254990Y-142754656D01*
X151254991Y-142754656D01*
X151346761Y-142747595D01*
X151444576Y-142740068D01*
X151633556Y-142687303D01*
X151808689Y-142598837D01*
X151963303Y-142478040D01*
X151967259Y-142473456D01*
X151967263Y-142473453D01*
X152087547Y-142334101D01*
X152091509Y-142329511D01*
X152188425Y-142158909D01*
X152219121Y-142066633D01*
X152248446Y-141978480D01*
X152248446Y-141978479D01*
X152250358Y-141972732D01*
X152258054Y-141911817D01*
X152274514Y-141781515D01*
X152274514Y-141781514D01*
X152274949Y-141778071D01*
X152275341Y-141750000D01*
X152256194Y-141554728D01*
X152199484Y-141366894D01*
X152195675Y-141359729D01*
X152110217Y-141199008D01*
X152107370Y-141193653D01*
X151983361Y-141041602D01*
X151832180Y-140916535D01*
X151659585Y-140823213D01*
X151472152Y-140765193D01*
X151277019Y-140744683D01*
X151270986Y-140745232D01*
X151270982Y-140745232D01*
X151107278Y-140760131D01*
X151081618Y-140762466D01*
X150998217Y-140787012D01*
X150899208Y-140816152D01*
X150899203Y-140816154D01*
X150893393Y-140817864D01*
X150888023Y-140820671D01*
X150888019Y-140820673D01*
X150802256Y-140865510D01*
X150719512Y-140908767D01*
X150714789Y-140912564D01*
X150714788Y-140912565D01*
X150705040Y-140920403D01*
X150566600Y-141031711D01*
X150440480Y-141182016D01*
X150345956Y-141353954D01*
X150344124Y-141359729D01*
X150288650Y-141534605D01*
X150286628Y-141540978D01*
X150285952Y-141547006D01*
X150277961Y-141618249D01*
X150250927Y-141682676D01*
X150193352Y-141722260D01*
X150123516Y-141724433D01*
X150063592Y-141688505D01*
X150032604Y-141625882D01*
X150031206Y-141615235D01*
X150023521Y-141527399D01*
X150021647Y-141516769D01*
X149965214Y-141306156D01*
X149961525Y-141296023D01*
X149869374Y-141098405D01*
X149863987Y-141089073D01*
X149827325Y-141036715D01*
X149817014Y-141028473D01*
X149803781Y-141035429D01*
X149101817Y-141737393D01*
X149094325Y-141751113D01*
X148364459Y-141751113D01*
X148365675Y-141748887D01*
X148365546Y-141747081D01*
X148361364Y-141740574D01*
X147655508Y-141034718D01*
X147643922Y-141028391D01*
X147632099Y-141037538D01*
X147596013Y-141089073D01*
X147590626Y-141098405D01*
X147498475Y-141296023D01*
X147494786Y-141306156D01*
X147438353Y-141516769D01*
X147436479Y-141527400D01*
X147417476Y-141744605D01*
X147417476Y-141755395D01*
X128213248Y-141755395D01*
X128214436Y-141748656D01*
X128232219Y-141545395D01*
X128232219Y-141534605D01*
X128214436Y-141331344D01*
X128212562Y-141320713D01*
X128159752Y-141123622D01*
X128156063Y-141113489D01*
X128069832Y-140928566D01*
X128064434Y-140919216D01*
X128039885Y-140884157D01*
X128029574Y-140875914D01*
X128016341Y-140882870D01*
X127371817Y-141527393D01*
X127364325Y-141541113D01*
X126634459Y-141541113D01*
X126635675Y-141538887D01*
X126635546Y-141537082D01*
X126631363Y-141530573D01*
X125982948Y-140882159D01*
X125971362Y-140875833D01*
X125959538Y-140884980D01*
X125935566Y-140919216D01*
X125930168Y-140928566D01*
X125843937Y-141113489D01*
X125840248Y-141123622D01*
X125787438Y-141320713D01*
X125785564Y-141331344D01*
X125767781Y-141534605D01*
X125767781Y-141545395D01*
X123225500Y-141545395D01*
X123225500Y-140510426D01*
X126335914Y-140510426D01*
X126342870Y-140523659D01*
X126987393Y-141168183D01*
X127001113Y-141175675D01*
X127002918Y-141175546D01*
X127009427Y-141171363D01*
X127657841Y-140522948D01*
X127664168Y-140511362D01*
X127655021Y-140499539D01*
X127620775Y-140475559D01*
X127611443Y-140470172D01*
X127426511Y-140383937D01*
X127416378Y-140380248D01*
X127219287Y-140327438D01*
X127208656Y-140325564D01*
X127005395Y-140307781D01*
X126994605Y-140307781D01*
X126791344Y-140325564D01*
X126780713Y-140327438D01*
X126583622Y-140380248D01*
X126573489Y-140383937D01*
X126388566Y-140470168D01*
X126379216Y-140475566D01*
X126344157Y-140500115D01*
X126335914Y-140510426D01*
X123225500Y-140510426D01*
X123225500Y-135985188D01*
X123245185Y-135918149D01*
X123297989Y-135872394D01*
X123367147Y-135862450D01*
X123430703Y-135891475D01*
X123437181Y-135897507D01*
X126102867Y-138563193D01*
X126136352Y-138624516D01*
X126133117Y-138689192D01*
X126094656Y-138807563D01*
X126074430Y-139000000D01*
X126094656Y-139192437D01*
X126096663Y-139198615D01*
X126096664Y-139198618D01*
X126111697Y-139244884D01*
X126154450Y-139376463D01*
X126251198Y-139544036D01*
X126380673Y-139687833D01*
X126537215Y-139801567D01*
X126713983Y-139880269D01*
X126720345Y-139881621D01*
X126720344Y-139881621D01*
X126896889Y-139919148D01*
X126896894Y-139919149D01*
X126903252Y-139920500D01*
X127096748Y-139920500D01*
X127103106Y-139919149D01*
X127103111Y-139919148D01*
X127279656Y-139881621D01*
X127279655Y-139881621D01*
X127286017Y-139880269D01*
X127462785Y-139801567D01*
X127619327Y-139687833D01*
X127748802Y-139544036D01*
X127839178Y-139387500D01*
X127889745Y-139339284D01*
X127946565Y-139325500D01*
X129454873Y-139325500D01*
X129465681Y-139325972D01*
X129503307Y-139329264D01*
X129539810Y-139319483D01*
X129550357Y-139317145D01*
X129563535Y-139314821D01*
X129587545Y-139310588D01*
X129596942Y-139305162D01*
X129600400Y-139303904D01*
X129603709Y-139302361D01*
X129614184Y-139299554D01*
X129645117Y-139277894D01*
X129654243Y-139272080D01*
X129677561Y-139258618D01*
X129677563Y-139258616D01*
X129686955Y-139253194D01*
X129711238Y-139224255D01*
X129718545Y-139216281D01*
X129829798Y-139105028D01*
X146598025Y-139105028D01*
X146635347Y-139348930D01*
X146712003Y-139583460D01*
X146714353Y-139587974D01*
X146823584Y-139797806D01*
X146823588Y-139797812D01*
X146825935Y-139802321D01*
X146974083Y-139999636D01*
X146977762Y-140003152D01*
X146977764Y-140003154D01*
X147006148Y-140030278D01*
X147152468Y-140170104D01*
X147156667Y-140172968D01*
X147156669Y-140172970D01*
X147254163Y-140239476D01*
X147356300Y-140309149D01*
X147580104Y-140413035D01*
X147585008Y-140414395D01*
X147812970Y-140477615D01*
X147812972Y-140477615D01*
X147817871Y-140478974D01*
X147904072Y-140488186D01*
X147968640Y-140514883D01*
X148008524Y-140572250D01*
X148010575Y-140628655D01*
X148010703Y-140628668D01*
X148010609Y-140629579D01*
X148011063Y-140642073D01*
X148008857Y-140646505D01*
X148007369Y-140660885D01*
X148015429Y-140676219D01*
X148717393Y-141378183D01*
X148731113Y-141385675D01*
X148732919Y-141385546D01*
X148739426Y-141381364D01*
X149445282Y-140675508D01*
X149451609Y-140663922D01*
X149442462Y-140652099D01*
X149390927Y-140616013D01*
X149381595Y-140610626D01*
X149183977Y-140518475D01*
X149173844Y-140514786D01*
X148981933Y-140463364D01*
X148922273Y-140426999D01*
X148891744Y-140364152D01*
X148900039Y-140294776D01*
X148946673Y-140239476D01*
X149018661Y-140192905D01*
X149087569Y-140130203D01*
X149197387Y-140030278D01*
X149197391Y-140030274D01*
X149201158Y-140026846D01*
X149354082Y-139833210D01*
X149432225Y-139691654D01*
X149470868Y-139621653D01*
X149470869Y-139621650D01*
X149473327Y-139617198D01*
X149555691Y-139384610D01*
X149598961Y-139141694D01*
X149599409Y-139105028D01*
X150398025Y-139105028D01*
X150435347Y-139348930D01*
X150512003Y-139583460D01*
X150514353Y-139587974D01*
X150623584Y-139797806D01*
X150623588Y-139797812D01*
X150625935Y-139802321D01*
X150774083Y-139999636D01*
X150777762Y-140003152D01*
X150777764Y-140003154D01*
X150806148Y-140030278D01*
X150952468Y-140170104D01*
X150956667Y-140172968D01*
X150956669Y-140172970D01*
X151054163Y-140239476D01*
X151156300Y-140309149D01*
X151380104Y-140413035D01*
X151385008Y-140414395D01*
X151612970Y-140477615D01*
X151612972Y-140477615D01*
X151617871Y-140478974D01*
X151819292Y-140500500D01*
X151962554Y-140500500D01*
X152145911Y-140485425D01*
X152385217Y-140425316D01*
X152410334Y-140414395D01*
X152525884Y-140364152D01*
X152611493Y-140326928D01*
X152818661Y-140192905D01*
X152887569Y-140130203D01*
X152997387Y-140030278D01*
X152997391Y-140030274D01*
X153001158Y-140026846D01*
X153154082Y-139833210D01*
X153232225Y-139691654D01*
X153270868Y-139621653D01*
X153270869Y-139621650D01*
X153273327Y-139617198D01*
X153355691Y-139384610D01*
X153398961Y-139141694D01*
X153401975Y-138894972D01*
X153364653Y-138651070D01*
X153287997Y-138416540D01*
X153176447Y-138202254D01*
X153176416Y-138202194D01*
X153176412Y-138202188D01*
X153174065Y-138197679D01*
X153025917Y-138000364D01*
X152997444Y-137973154D01*
X152851208Y-137833409D01*
X152847532Y-137829896D01*
X152810056Y-137804331D01*
X152647909Y-137693722D01*
X152647907Y-137693721D01*
X152643700Y-137690851D01*
X152419896Y-137586965D01*
X152371141Y-137573444D01*
X152187030Y-137522385D01*
X152187028Y-137522385D01*
X152182129Y-137521026D01*
X151980708Y-137499500D01*
X151837446Y-137499500D01*
X151654089Y-137514575D01*
X151649149Y-137515816D01*
X151649148Y-137515816D01*
X151531068Y-137545475D01*
X151414783Y-137574684D01*
X151410116Y-137576713D01*
X151410114Y-137576714D01*
X151352603Y-137601721D01*
X151188507Y-137673072D01*
X150981339Y-137807095D01*
X150956281Y-137829896D01*
X150802613Y-137969722D01*
X150802609Y-137969726D01*
X150798842Y-137973154D01*
X150645918Y-138166790D01*
X150643461Y-138171241D01*
X150565666Y-138312167D01*
X150526673Y-138382802D01*
X150444309Y-138615390D01*
X150401039Y-138858306D01*
X150398025Y-139105028D01*
X149599409Y-139105028D01*
X149601975Y-138894972D01*
X149564653Y-138651070D01*
X149487997Y-138416540D01*
X149376447Y-138202254D01*
X149376416Y-138202194D01*
X149376412Y-138202188D01*
X149374065Y-138197679D01*
X149225917Y-138000364D01*
X149197444Y-137973154D01*
X149051208Y-137833409D01*
X149047532Y-137829896D01*
X148943595Y-137758995D01*
X148899307Y-137704955D01*
X148891266Y-137635549D01*
X148922024Y-137572814D01*
X148981380Y-137536784D01*
X149173841Y-137485215D01*
X149183977Y-137481525D01*
X149381595Y-137389374D01*
X149390927Y-137383987D01*
X149443285Y-137347325D01*
X149451527Y-137337014D01*
X149444571Y-137323781D01*
X148742607Y-136621817D01*
X148728887Y-136614325D01*
X148727081Y-136614454D01*
X148720574Y-136618636D01*
X148014718Y-137324492D01*
X148007226Y-137338212D01*
X148008904Y-137361678D01*
X148014626Y-137376304D01*
X148000861Y-137444804D01*
X147952247Y-137494988D01*
X147901258Y-137510697D01*
X147854089Y-137514575D01*
X147849149Y-137515816D01*
X147849148Y-137515816D01*
X147731068Y-137545475D01*
X147614783Y-137574684D01*
X147610116Y-137576713D01*
X147610114Y-137576714D01*
X147552603Y-137601721D01*
X147388507Y-137673072D01*
X147181339Y-137807095D01*
X147156281Y-137829896D01*
X147002613Y-137969722D01*
X147002609Y-137969726D01*
X146998842Y-137973154D01*
X146845918Y-138166790D01*
X146843461Y-138171241D01*
X146765666Y-138312167D01*
X146726673Y-138382802D01*
X146644309Y-138615390D01*
X146601039Y-138858306D01*
X146598025Y-139105028D01*
X129829798Y-139105028D01*
X132679431Y-136255395D01*
X147417476Y-136255395D01*
X147436479Y-136472600D01*
X147438353Y-136483231D01*
X147494786Y-136693844D01*
X147498475Y-136703977D01*
X147590626Y-136901595D01*
X147596013Y-136910927D01*
X147632675Y-136963285D01*
X147642986Y-136971527D01*
X147656219Y-136964571D01*
X148358183Y-136262607D01*
X148365675Y-136248887D01*
X148365546Y-136247081D01*
X148361364Y-136240574D01*
X147655508Y-135534718D01*
X147643922Y-135528391D01*
X147632099Y-135537538D01*
X147596013Y-135589073D01*
X147590626Y-135598405D01*
X147498475Y-135796023D01*
X147494786Y-135806156D01*
X147438353Y-136016769D01*
X147436479Y-136027400D01*
X147417476Y-136244605D01*
X147417476Y-136255395D01*
X132679431Y-136255395D01*
X135828314Y-133106512D01*
X135889637Y-133073027D01*
X135932179Y-133071254D01*
X135991939Y-133079121D01*
X135991941Y-133079121D01*
X136000000Y-133080182D01*
X136008059Y-133079121D01*
X136148703Y-133060605D01*
X136156762Y-133059544D01*
X136164269Y-133056435D01*
X136164271Y-133056434D01*
X136295333Y-133002146D01*
X136302841Y-132999036D01*
X136428282Y-132902782D01*
X136524536Y-132777341D01*
X136527646Y-132769833D01*
X136581934Y-132638771D01*
X136581935Y-132638769D01*
X136585044Y-132631262D01*
X136605682Y-132474500D01*
X136585044Y-132317738D01*
X136555724Y-132246953D01*
X136548255Y-132177483D01*
X136579530Y-132115004D01*
X136639619Y-132079352D01*
X136670285Y-132075500D01*
X146583812Y-132075500D01*
X146650851Y-132095185D01*
X146671493Y-132111819D01*
X148051213Y-133491539D01*
X148084698Y-133552862D01*
X148079714Y-133622554D01*
X148037842Y-133678487D01*
X147972378Y-133702904D01*
X147907140Y-133689655D01*
X147819802Y-133645058D01*
X147819800Y-133645057D01*
X147813384Y-133641781D01*
X147806388Y-133640069D01*
X147806385Y-133640068D01*
X147734809Y-133622554D01*
X147643394Y-133600185D01*
X147637886Y-133599843D01*
X147637884Y-133599843D01*
X147634256Y-133599618D01*
X147634252Y-133599618D01*
X147632352Y-133599500D01*
X147506178Y-133599500D01*
X147376172Y-133614657D01*
X147369405Y-133617113D01*
X147369402Y-133617114D01*
X147218443Y-133671910D01*
X147211669Y-133674369D01*
X147065315Y-133770323D01*
X147060363Y-133775551D01*
X147060360Y-133775553D01*
X146949913Y-133892143D01*
X146944960Y-133897372D01*
X146941344Y-133903597D01*
X146941342Y-133903600D01*
X146930656Y-133921998D01*
X146857061Y-134048702D01*
X146806333Y-134216193D01*
X146795497Y-134390862D01*
X146825134Y-134563340D01*
X146893654Y-134724373D01*
X146897921Y-134730171D01*
X146897922Y-134730173D01*
X146962340Y-134817706D01*
X146997383Y-134865324D01*
X147002874Y-134869989D01*
X147002875Y-134869990D01*
X147125261Y-134973965D01*
X147125264Y-134973967D01*
X147130755Y-134978632D01*
X147137172Y-134981909D01*
X147137174Y-134981910D01*
X147152955Y-134989968D01*
X147286616Y-135058219D01*
X147293612Y-135059931D01*
X147293615Y-135059932D01*
X147345517Y-135072632D01*
X147456606Y-135099815D01*
X147462114Y-135100157D01*
X147462116Y-135100157D01*
X147465744Y-135100382D01*
X147465748Y-135100382D01*
X147467648Y-135100500D01*
X147593822Y-135100500D01*
X147723828Y-135085343D01*
X147730595Y-135082887D01*
X147730598Y-135082886D01*
X147840538Y-135042979D01*
X147910271Y-135038609D01*
X147971297Y-135072632D01*
X148004241Y-135134248D01*
X148005413Y-135157165D01*
X148015429Y-135176219D01*
X149804492Y-136965282D01*
X149816078Y-136971609D01*
X149827901Y-136962462D01*
X149863987Y-136910927D01*
X149869374Y-136901595D01*
X149961525Y-136703977D01*
X149965214Y-136693844D01*
X150021647Y-136483231D01*
X150023383Y-136473385D01*
X150054409Y-136410782D01*
X150114355Y-136374890D01*
X150184190Y-136377105D01*
X150241741Y-136416725D01*
X150268736Y-136481169D01*
X150269500Y-136494915D01*
X150269500Y-137069748D01*
X150281133Y-137128231D01*
X150325448Y-137194552D01*
X150391769Y-137238867D01*
X150403745Y-137241249D01*
X150403747Y-137241250D01*
X150422326Y-137244945D01*
X150450252Y-137250500D01*
X152089748Y-137250500D01*
X152117674Y-137244945D01*
X152136253Y-137241250D01*
X152136255Y-137241249D01*
X152148231Y-137238867D01*
X152214552Y-137194552D01*
X152258867Y-137128231D01*
X152270500Y-137069748D01*
X152270500Y-135430252D01*
X152258867Y-135371769D01*
X152214552Y-135305448D01*
X152148231Y-135261133D01*
X152136255Y-135258751D01*
X152136253Y-135258750D01*
X152117674Y-135255055D01*
X152089748Y-135249500D01*
X150781188Y-135249500D01*
X150714149Y-135229815D01*
X150693507Y-135213181D01*
X147014050Y-131533724D01*
X147006741Y-131525749D01*
X146989427Y-131505115D01*
X146982455Y-131496806D01*
X146973063Y-131491384D01*
X146973061Y-131491382D01*
X146949743Y-131477920D01*
X146940617Y-131472106D01*
X146918568Y-131456667D01*
X146918569Y-131456667D01*
X146909684Y-131450446D01*
X146899209Y-131447639D01*
X146895900Y-131446096D01*
X146892442Y-131444838D01*
X146883045Y-131439412D01*
X146859035Y-131435179D01*
X146845857Y-131432855D01*
X146835310Y-131430517D01*
X146798807Y-131420736D01*
X146761181Y-131424028D01*
X146750373Y-131424500D01*
X124686189Y-131424500D01*
X124619150Y-131404815D01*
X124598508Y-131388181D01*
X124161819Y-130951493D01*
X124128334Y-130890170D01*
X124125500Y-130863812D01*
X124125500Y-129836078D01*
X148008391Y-129836078D01*
X148017538Y-129847901D01*
X148069073Y-129883987D01*
X148078405Y-129889374D01*
X148276023Y-129981525D01*
X148286156Y-129985214D01*
X148496769Y-130041647D01*
X148507400Y-130043521D01*
X148724605Y-130062524D01*
X148735395Y-130062524D01*
X148952600Y-130043521D01*
X148963231Y-130041647D01*
X149173844Y-129985214D01*
X149183977Y-129981525D01*
X149381595Y-129889374D01*
X149390927Y-129883987D01*
X149443285Y-129847325D01*
X149451527Y-129837014D01*
X149444571Y-129823781D01*
X148742607Y-129121817D01*
X148728887Y-129114325D01*
X148727081Y-129114454D01*
X148720574Y-129118636D01*
X148014718Y-129824492D01*
X148008391Y-129836078D01*
X124125500Y-129836078D01*
X124125500Y-129608638D01*
X126335832Y-129608638D01*
X126344979Y-129620461D01*
X126379225Y-129644441D01*
X126388557Y-129649828D01*
X126573489Y-129736063D01*
X126583622Y-129739752D01*
X126780713Y-129792562D01*
X126791344Y-129794436D01*
X126994605Y-129812219D01*
X127005395Y-129812219D01*
X127208656Y-129794436D01*
X127219287Y-129792562D01*
X127416378Y-129739752D01*
X127426511Y-129736063D01*
X127611443Y-129649828D01*
X127620775Y-129644441D01*
X127655844Y-129619885D01*
X127664086Y-129609574D01*
X127657130Y-129596341D01*
X127012607Y-128951817D01*
X126998887Y-128944325D01*
X126997082Y-128944454D01*
X126990573Y-128948637D01*
X126342159Y-129597052D01*
X126335832Y-129608638D01*
X124125500Y-129608638D01*
X124125500Y-128585395D01*
X125767781Y-128585395D01*
X125785564Y-128788656D01*
X125787438Y-128799287D01*
X125840248Y-128996378D01*
X125843937Y-129006511D01*
X125930168Y-129191434D01*
X125935566Y-129200784D01*
X125960115Y-129235843D01*
X125970426Y-129244086D01*
X125983659Y-129237130D01*
X126628183Y-128592607D01*
X126634459Y-128581113D01*
X127364325Y-128581113D01*
X127364454Y-128582918D01*
X127368637Y-128589427D01*
X128017052Y-129237841D01*
X128028638Y-129244167D01*
X128040462Y-129235020D01*
X128064434Y-129200784D01*
X128069832Y-129191434D01*
X128156063Y-129006511D01*
X128159752Y-128996378D01*
X128212562Y-128799287D01*
X128214436Y-128788656D01*
X128217346Y-128755395D01*
X147417476Y-128755395D01*
X147436479Y-128972600D01*
X147438353Y-128983231D01*
X147494786Y-129193844D01*
X147498475Y-129203977D01*
X147590626Y-129401595D01*
X147596013Y-129410927D01*
X147632675Y-129463285D01*
X147642986Y-129471527D01*
X147656219Y-129464571D01*
X148358183Y-128762607D01*
X148364459Y-128751113D01*
X149094325Y-128751113D01*
X149094454Y-128752919D01*
X149098636Y-128759426D01*
X149804492Y-129465282D01*
X149816078Y-129471609D01*
X149827901Y-129462462D01*
X149863987Y-129410927D01*
X149869374Y-129401595D01*
X149961525Y-129203977D01*
X149965214Y-129193844D01*
X150021647Y-128983231D01*
X150023521Y-128972600D01*
X150030690Y-128890659D01*
X150056142Y-128825590D01*
X150112733Y-128784611D01*
X150182495Y-128780733D01*
X150243279Y-128815187D01*
X150275787Y-128877033D01*
X150277783Y-128891090D01*
X150281175Y-128931483D01*
X150335258Y-129120091D01*
X150424944Y-129294601D01*
X150428709Y-129299351D01*
X150428712Y-129299356D01*
X150517142Y-129410927D01*
X150546818Y-129448369D01*
X150696238Y-129575535D01*
X150701536Y-129578496D01*
X150755469Y-129608638D01*
X150867513Y-129671257D01*
X151054118Y-129731889D01*
X151248946Y-129755121D01*
X151254990Y-129754656D01*
X151254991Y-129754656D01*
X151346761Y-129747594D01*
X151444576Y-129740068D01*
X151633556Y-129687303D01*
X151808689Y-129598837D01*
X151963303Y-129478040D01*
X151967259Y-129473456D01*
X151967263Y-129473453D01*
X152087547Y-129334101D01*
X152091509Y-129329511D01*
X152188425Y-129158909D01*
X152242492Y-128996378D01*
X152248446Y-128978480D01*
X152248446Y-128978479D01*
X152250358Y-128972732D01*
X152253001Y-128951817D01*
X152274514Y-128781515D01*
X152274514Y-128781514D01*
X152274949Y-128778071D01*
X152275341Y-128750000D01*
X152256194Y-128554728D01*
X152199484Y-128366894D01*
X152196198Y-128360713D01*
X152119079Y-128215675D01*
X152107370Y-128193653D01*
X151983361Y-128041602D01*
X151883773Y-127959216D01*
X151836856Y-127920403D01*
X151836854Y-127920402D01*
X151832180Y-127916535D01*
X151659585Y-127823213D01*
X151472152Y-127765193D01*
X151277019Y-127744683D01*
X151270986Y-127745232D01*
X151270982Y-127745232D01*
X151107278Y-127760131D01*
X151081618Y-127762466D01*
X150998217Y-127787012D01*
X150899208Y-127816152D01*
X150899203Y-127816154D01*
X150893393Y-127817864D01*
X150888023Y-127820671D01*
X150888019Y-127820673D01*
X150802256Y-127865510D01*
X150719512Y-127908767D01*
X150714789Y-127912564D01*
X150714788Y-127912565D01*
X150700371Y-127924157D01*
X150566600Y-128031711D01*
X150440480Y-128182016D01*
X150345956Y-128353954D01*
X150344124Y-128359729D01*
X150290936Y-128527399D01*
X150286628Y-128540978D01*
X150282579Y-128577082D01*
X150277961Y-128618249D01*
X150250927Y-128682676D01*
X150193352Y-128722260D01*
X150123516Y-128724433D01*
X150063592Y-128688505D01*
X150032604Y-128625882D01*
X150031206Y-128615235D01*
X150023521Y-128527399D01*
X150021647Y-128516769D01*
X149965214Y-128306156D01*
X149961525Y-128296023D01*
X149869374Y-128098405D01*
X149863987Y-128089073D01*
X149827325Y-128036715D01*
X149817014Y-128028473D01*
X149803781Y-128035429D01*
X149101817Y-128737393D01*
X149094325Y-128751113D01*
X148364459Y-128751113D01*
X148365675Y-128748887D01*
X148365546Y-128747081D01*
X148361364Y-128740574D01*
X147655508Y-128034718D01*
X147643922Y-128028391D01*
X147632099Y-128037538D01*
X147596013Y-128089073D01*
X147590626Y-128098405D01*
X147498475Y-128296023D01*
X147494786Y-128306156D01*
X147438353Y-128516769D01*
X147436479Y-128527400D01*
X147417476Y-128744605D01*
X147417476Y-128755395D01*
X128217346Y-128755395D01*
X128232219Y-128585395D01*
X128232219Y-128574605D01*
X128214436Y-128371344D01*
X128212562Y-128360713D01*
X128159752Y-128163622D01*
X128156063Y-128153489D01*
X128069832Y-127968566D01*
X128064434Y-127959216D01*
X128039885Y-127924157D01*
X128029574Y-127915914D01*
X128016341Y-127922870D01*
X127371817Y-128567393D01*
X127364325Y-128581113D01*
X126634459Y-128581113D01*
X126635675Y-128578887D01*
X126635546Y-128577082D01*
X126631363Y-128570573D01*
X125982948Y-127922159D01*
X125971362Y-127915833D01*
X125959538Y-127924980D01*
X125935566Y-127959216D01*
X125930168Y-127968566D01*
X125843937Y-128153489D01*
X125840248Y-128163622D01*
X125787438Y-128360713D01*
X125785564Y-128371344D01*
X125767781Y-128574605D01*
X125767781Y-128585395D01*
X124125500Y-128585395D01*
X124125500Y-127550426D01*
X126335914Y-127550426D01*
X126342870Y-127563659D01*
X126987393Y-128208183D01*
X127001113Y-128215675D01*
X127002918Y-128215546D01*
X127009427Y-128211363D01*
X127657841Y-127562948D01*
X127664168Y-127551362D01*
X127655021Y-127539539D01*
X127620775Y-127515559D01*
X127611443Y-127510172D01*
X127426511Y-127423937D01*
X127416378Y-127420248D01*
X127219287Y-127367438D01*
X127208656Y-127365564D01*
X127005395Y-127347781D01*
X126994605Y-127347781D01*
X126791344Y-127365564D01*
X126780713Y-127367438D01*
X126583622Y-127420248D01*
X126573489Y-127423937D01*
X126388566Y-127510168D01*
X126379216Y-127515566D01*
X126344157Y-127540115D01*
X126335914Y-127550426D01*
X124125500Y-127550426D01*
X124125500Y-125385188D01*
X124145185Y-125318149D01*
X124197989Y-125272394D01*
X124267147Y-125262450D01*
X124330703Y-125291475D01*
X124337178Y-125297505D01*
X125295955Y-126256282D01*
X125303264Y-126264257D01*
X125327545Y-126293194D01*
X125360267Y-126312086D01*
X125369380Y-126317892D01*
X125391429Y-126333331D01*
X125391431Y-126333332D01*
X125400316Y-126339553D01*
X125410794Y-126342361D01*
X125414125Y-126343914D01*
X125417561Y-126345165D01*
X125426955Y-126350588D01*
X125437636Y-126352471D01*
X125437638Y-126352472D01*
X125464154Y-126357147D01*
X125474706Y-126359486D01*
X125511193Y-126369263D01*
X125548811Y-126365972D01*
X125559618Y-126365500D01*
X126053435Y-126365500D01*
X126120474Y-126385185D01*
X126160822Y-126427500D01*
X126251198Y-126584036D01*
X126380673Y-126727833D01*
X126537215Y-126841567D01*
X126713983Y-126920269D01*
X126720345Y-126921621D01*
X126720344Y-126921621D01*
X126896889Y-126959148D01*
X126896894Y-126959149D01*
X126903252Y-126960500D01*
X127096748Y-126960500D01*
X127103106Y-126959149D01*
X127103111Y-126959148D01*
X127279656Y-126921621D01*
X127279655Y-126921621D01*
X127286017Y-126920269D01*
X127462785Y-126841567D01*
X127619327Y-126727833D01*
X127748802Y-126584036D01*
X127845550Y-126416463D01*
X127896350Y-126260118D01*
X127903336Y-126238618D01*
X127903337Y-126238615D01*
X127905344Y-126232437D01*
X127925570Y-126040000D01*
X127905344Y-125847563D01*
X127845550Y-125663537D01*
X127835559Y-125646231D01*
X127752050Y-125501590D01*
X127748802Y-125495964D01*
X127619327Y-125352167D01*
X127462785Y-125238433D01*
X127286017Y-125159731D01*
X127252682Y-125152645D01*
X127103111Y-125120852D01*
X127103106Y-125120851D01*
X127096748Y-125119500D01*
X126903252Y-125119500D01*
X126896894Y-125120851D01*
X126896889Y-125120852D01*
X126747318Y-125152645D01*
X126713983Y-125159731D01*
X126537215Y-125238433D01*
X126380673Y-125352167D01*
X126251198Y-125495964D01*
X126247950Y-125501590D01*
X126160822Y-125652500D01*
X126110255Y-125700716D01*
X126053435Y-125714500D01*
X125726189Y-125714500D01*
X125659150Y-125694815D01*
X125638508Y-125678181D01*
X124611819Y-124651493D01*
X124578334Y-124590170D01*
X124575500Y-124563812D01*
X124575500Y-123500000D01*
X126074430Y-123500000D01*
X126094656Y-123692437D01*
X126096663Y-123698615D01*
X126096664Y-123698618D01*
X126102343Y-123716096D01*
X126154450Y-123876463D01*
X126251198Y-124044036D01*
X126255544Y-124048863D01*
X126255545Y-124048864D01*
X126282917Y-124079264D01*
X126380673Y-124187833D01*
X126537215Y-124301567D01*
X126713983Y-124380269D01*
X126720345Y-124381621D01*
X126720344Y-124381621D01*
X126896889Y-124419148D01*
X126896894Y-124419149D01*
X126903252Y-124420500D01*
X127096748Y-124420500D01*
X127103106Y-124419149D01*
X127103111Y-124419148D01*
X127279656Y-124381621D01*
X127279655Y-124381621D01*
X127286017Y-124380269D01*
X127462785Y-124301567D01*
X127619327Y-124187833D01*
X127717083Y-124079264D01*
X127744455Y-124048864D01*
X127744456Y-124048863D01*
X127748802Y-124044036D01*
X127845550Y-123876463D01*
X127897657Y-123716096D01*
X127903336Y-123698618D01*
X127903337Y-123698615D01*
X127905344Y-123692437D01*
X127925570Y-123500000D01*
X127905344Y-123307563D01*
X127895624Y-123277646D01*
X127866236Y-123187201D01*
X127845550Y-123123537D01*
X127842284Y-123117879D01*
X127752050Y-122961590D01*
X127748802Y-122955964D01*
X127704501Y-122906762D01*
X127623676Y-122816997D01*
X127619327Y-122812167D01*
X127462785Y-122698433D01*
X127286017Y-122619731D01*
X127241724Y-122610316D01*
X127103111Y-122580852D01*
X127103106Y-122580851D01*
X127096748Y-122579500D01*
X126903252Y-122579500D01*
X126896894Y-122580851D01*
X126896889Y-122580852D01*
X126758276Y-122610316D01*
X126713983Y-122619731D01*
X126537215Y-122698433D01*
X126380673Y-122812167D01*
X126376324Y-122816997D01*
X126295500Y-122906762D01*
X126251198Y-122955964D01*
X126247950Y-122961590D01*
X126157717Y-123117879D01*
X126154450Y-123123537D01*
X126133764Y-123187201D01*
X126104377Y-123277646D01*
X126094656Y-123307563D01*
X126074430Y-123500000D01*
X124575500Y-123500000D01*
X124575500Y-121496835D01*
X124575972Y-121486027D01*
X124578318Y-121459209D01*
X124579264Y-121448401D01*
X124569483Y-121411898D01*
X124567145Y-121401351D01*
X124562472Y-121374849D01*
X124560588Y-121364163D01*
X124555162Y-121354766D01*
X124553904Y-121351308D01*
X124552361Y-121347999D01*
X124549554Y-121337524D01*
X124527894Y-121306591D01*
X124522080Y-121297465D01*
X124508618Y-121274147D01*
X124508616Y-121274145D01*
X124503194Y-121264753D01*
X124474255Y-121240470D01*
X124466281Y-121233163D01*
X123733118Y-120500000D01*
X127394318Y-120500000D01*
X127414956Y-120656762D01*
X127418065Y-120664269D01*
X127418066Y-120664271D01*
X127464161Y-120775553D01*
X127475464Y-120802841D01*
X127515610Y-120855161D01*
X127557635Y-120909928D01*
X127571718Y-120928282D01*
X127697159Y-121024536D01*
X127704667Y-121027646D01*
X127835729Y-121081934D01*
X127835731Y-121081935D01*
X127843238Y-121085044D01*
X128000000Y-121105682D01*
X128008059Y-121104621D01*
X128008061Y-121104621D01*
X128067821Y-121096754D01*
X128136856Y-121107520D01*
X128171686Y-121132012D01*
X129762049Y-122722375D01*
X129795534Y-122783698D01*
X129790550Y-122853390D01*
X129772744Y-122885542D01*
X129750700Y-122914271D01*
X129725464Y-122947159D01*
X129722354Y-122954667D01*
X129673702Y-123072124D01*
X129664956Y-123093238D01*
X129644318Y-123250000D01*
X129664956Y-123406762D01*
X129668065Y-123414269D01*
X129668066Y-123414271D01*
X129705600Y-123504886D01*
X129725464Y-123552841D01*
X129821718Y-123678282D01*
X129947159Y-123774536D01*
X129954667Y-123777646D01*
X130085729Y-123831934D01*
X130085731Y-123831935D01*
X130093238Y-123835044D01*
X130250000Y-123855682D01*
X130258059Y-123854621D01*
X130398703Y-123836105D01*
X130406762Y-123835044D01*
X130414269Y-123831935D01*
X130414271Y-123831934D01*
X130545333Y-123777646D01*
X130552841Y-123774536D01*
X130678282Y-123678282D01*
X130774536Y-123552841D01*
X130794400Y-123504886D01*
X130831934Y-123414271D01*
X130831935Y-123414269D01*
X130835044Y-123406762D01*
X130855682Y-123250000D01*
X130835044Y-123093238D01*
X130826299Y-123072124D01*
X130777646Y-122954667D01*
X130774536Y-122947159D01*
X130678282Y-122821718D01*
X130665835Y-122812167D01*
X130620937Y-122777715D01*
X130579735Y-122721287D01*
X130576649Y-122711434D01*
X130569487Y-122684705D01*
X130567146Y-122674145D01*
X130562472Y-122647640D01*
X130560588Y-122636955D01*
X130555163Y-122627558D01*
X130553904Y-122624100D01*
X130552361Y-122620791D01*
X130549554Y-122610316D01*
X130527894Y-122579383D01*
X130522080Y-122570257D01*
X130508618Y-122546939D01*
X130508616Y-122546937D01*
X130503194Y-122537545D01*
X130474255Y-122513262D01*
X130466281Y-122505955D01*
X128632012Y-120671686D01*
X128598527Y-120610363D01*
X128596754Y-120567821D01*
X128604621Y-120508061D01*
X128604621Y-120508059D01*
X128605682Y-120500000D01*
X128585044Y-120343238D01*
X128581048Y-120333589D01*
X128527646Y-120204667D01*
X128524536Y-120197159D01*
X128450408Y-120100553D01*
X128433229Y-120078165D01*
X128428282Y-120071718D01*
X128302841Y-119975464D01*
X128207579Y-119936005D01*
X128164271Y-119918066D01*
X128164269Y-119918065D01*
X128156762Y-119914956D01*
X128000000Y-119894318D01*
X127843238Y-119914956D01*
X127835731Y-119918065D01*
X127835729Y-119918066D01*
X127792421Y-119936005D01*
X127697159Y-119975464D01*
X127571718Y-120071718D01*
X127566771Y-120078165D01*
X127549592Y-120100553D01*
X127475464Y-120197159D01*
X127472354Y-120204667D01*
X127418953Y-120333589D01*
X127414956Y-120343238D01*
X127394318Y-120500000D01*
X123733118Y-120500000D01*
X121751842Y-118518724D01*
X121744533Y-118510749D01*
X121727219Y-118490115D01*
X121720247Y-118481806D01*
X121710855Y-118476384D01*
X121710853Y-118476382D01*
X121687535Y-118462920D01*
X121678409Y-118457106D01*
X121656360Y-118441667D01*
X121656361Y-118441667D01*
X121647476Y-118435446D01*
X121637001Y-118432639D01*
X121633692Y-118431096D01*
X121630234Y-118429838D01*
X121620837Y-118424412D01*
X121596827Y-118420179D01*
X121583649Y-118417855D01*
X121573102Y-118415517D01*
X121536599Y-118405736D01*
X121498973Y-118409028D01*
X121488165Y-118409500D01*
X121485992Y-118409500D01*
X121418953Y-118389815D01*
X121373198Y-118337011D01*
X121363254Y-118267853D01*
X121392279Y-118204297D01*
X121409651Y-118187786D01*
X121473172Y-118138159D01*
X121473179Y-118138152D01*
X121477951Y-118134424D01*
X121481907Y-118129840D01*
X121481911Y-118129837D01*
X121608602Y-117983062D01*
X121612564Y-117978472D01*
X121630686Y-117946572D01*
X121663817Y-117888251D01*
X121714046Y-117839684D01*
X121771634Y-117825500D01*
X145333812Y-117825500D01*
X145400851Y-117845185D01*
X145421493Y-117861819D01*
X148051213Y-120491539D01*
X148084698Y-120552862D01*
X148079714Y-120622554D01*
X148037842Y-120678487D01*
X147972378Y-120702904D01*
X147907140Y-120689655D01*
X147819802Y-120645058D01*
X147819800Y-120645057D01*
X147813384Y-120641781D01*
X147806388Y-120640069D01*
X147806385Y-120640068D01*
X147734809Y-120622554D01*
X147643394Y-120600185D01*
X147637886Y-120599843D01*
X147637884Y-120599843D01*
X147634256Y-120599618D01*
X147634252Y-120599618D01*
X147632352Y-120599500D01*
X147506178Y-120599500D01*
X147376172Y-120614657D01*
X147369405Y-120617113D01*
X147369402Y-120617114D01*
X147218443Y-120671910D01*
X147211669Y-120674369D01*
X147065315Y-120770323D01*
X147060363Y-120775551D01*
X147060360Y-120775553D01*
X146949913Y-120892143D01*
X146944960Y-120897372D01*
X146941344Y-120903597D01*
X146941342Y-120903600D01*
X146914655Y-120949546D01*
X146857061Y-121048702D01*
X146806333Y-121216193D01*
X146802738Y-121274147D01*
X146797935Y-121351571D01*
X146795497Y-121390862D01*
X146825134Y-121563340D01*
X146827957Y-121569973D01*
X146827957Y-121569975D01*
X146841352Y-121601456D01*
X146893654Y-121724373D01*
X146897921Y-121730171D01*
X146897922Y-121730173D01*
X146985357Y-121848982D01*
X146997383Y-121865324D01*
X147002874Y-121869989D01*
X147002875Y-121869990D01*
X147125261Y-121973965D01*
X147125264Y-121973967D01*
X147130755Y-121978632D01*
X147137172Y-121981909D01*
X147137174Y-121981910D01*
X147142885Y-121984826D01*
X147286616Y-122058219D01*
X147293612Y-122059931D01*
X147293615Y-122059932D01*
X147345517Y-122072632D01*
X147456606Y-122099815D01*
X147462114Y-122100157D01*
X147462116Y-122100157D01*
X147465744Y-122100382D01*
X147465748Y-122100382D01*
X147467648Y-122100500D01*
X147593822Y-122100500D01*
X147723828Y-122085343D01*
X147730595Y-122082887D01*
X147730598Y-122082886D01*
X147840538Y-122042979D01*
X147910271Y-122038609D01*
X147971297Y-122072632D01*
X148004241Y-122134248D01*
X148005413Y-122157165D01*
X148015429Y-122176219D01*
X149001529Y-123162319D01*
X149035014Y-123223642D01*
X149030030Y-123293334D01*
X149001529Y-123337681D01*
X148817681Y-123521529D01*
X148756358Y-123555014D01*
X148686666Y-123550030D01*
X148642319Y-123521529D01*
X147655508Y-122534718D01*
X147643922Y-122528391D01*
X147632099Y-122537538D01*
X147596013Y-122589073D01*
X147590626Y-122598405D01*
X147498475Y-122796023D01*
X147494786Y-122806156D01*
X147438353Y-123016769D01*
X147436479Y-123027400D01*
X147417476Y-123244605D01*
X147417476Y-123255395D01*
X147436479Y-123472600D01*
X147438353Y-123483231D01*
X147494786Y-123693844D01*
X147498475Y-123703977D01*
X147577336Y-123873095D01*
X147587828Y-123942173D01*
X147559308Y-124005957D01*
X147500832Y-124044196D01*
X147464954Y-124049500D01*
X138811188Y-124049500D01*
X138744149Y-124029815D01*
X138723507Y-124013181D01*
X137632012Y-122921686D01*
X137598527Y-122860363D01*
X137596754Y-122817821D01*
X137604621Y-122758061D01*
X137604621Y-122758059D01*
X137605682Y-122750000D01*
X137585044Y-122593238D01*
X137577468Y-122574946D01*
X137527646Y-122454667D01*
X137524536Y-122447159D01*
X137428282Y-122321718D01*
X137407079Y-122305448D01*
X137309288Y-122230411D01*
X137302841Y-122225464D01*
X137295333Y-122222354D01*
X137164271Y-122168066D01*
X137164269Y-122168065D01*
X137156762Y-122164956D01*
X137000000Y-122144318D01*
X136843238Y-122164956D01*
X136835731Y-122168065D01*
X136835729Y-122168066D01*
X136704667Y-122222354D01*
X136697159Y-122225464D01*
X136690712Y-122230411D01*
X136592922Y-122305448D01*
X136571718Y-122321718D01*
X136475464Y-122447159D01*
X136472354Y-122454667D01*
X136422533Y-122574946D01*
X136414956Y-122593238D01*
X136394318Y-122750000D01*
X136414956Y-122906762D01*
X136418065Y-122914269D01*
X136418066Y-122914271D01*
X136460522Y-123016769D01*
X136475464Y-123052841D01*
X136571718Y-123178282D01*
X136578165Y-123183229D01*
X136583341Y-123187201D01*
X136697159Y-123274536D01*
X136704667Y-123277646D01*
X136835729Y-123331934D01*
X136835731Y-123331935D01*
X136843238Y-123335044D01*
X137000000Y-123355682D01*
X137008059Y-123354621D01*
X137008061Y-123354621D01*
X137067821Y-123346754D01*
X137136856Y-123357520D01*
X137171686Y-123382012D01*
X138380950Y-124591276D01*
X138388259Y-124599251D01*
X138412545Y-124628194D01*
X138421937Y-124633616D01*
X138421939Y-124633618D01*
X138445257Y-124647080D01*
X138454383Y-124652894D01*
X138485316Y-124674554D01*
X138495791Y-124677361D01*
X138499100Y-124678904D01*
X138502558Y-124680162D01*
X138511955Y-124685588D01*
X138535965Y-124689821D01*
X138549143Y-124692145D01*
X138559690Y-124694483D01*
X138596193Y-124704264D01*
X138633819Y-124700972D01*
X138644627Y-124700500D01*
X146977965Y-124700500D01*
X147045004Y-124720185D01*
X147090759Y-124772989D01*
X147100703Y-124842147D01*
X147071678Y-124905703D01*
X147061424Y-124916209D01*
X146998842Y-124973154D01*
X146845918Y-125166790D01*
X146843461Y-125171241D01*
X146745694Y-125348346D01*
X146726673Y-125382802D01*
X146644309Y-125615390D01*
X146601039Y-125858306D01*
X146598025Y-126105028D01*
X146635347Y-126348930D01*
X146712003Y-126583460D01*
X146714353Y-126587974D01*
X146823584Y-126797806D01*
X146823588Y-126797812D01*
X146825935Y-126802321D01*
X146828991Y-126806391D01*
X146912508Y-126917625D01*
X146974083Y-126999636D01*
X146977762Y-127003152D01*
X146977764Y-127003154D01*
X147006148Y-127030278D01*
X147152468Y-127170104D01*
X147156667Y-127172968D01*
X147156669Y-127172970D01*
X147254163Y-127239476D01*
X147356300Y-127309149D01*
X147580104Y-127413035D01*
X147585008Y-127414395D01*
X147812970Y-127477615D01*
X147812972Y-127477615D01*
X147817871Y-127478974D01*
X147904072Y-127488186D01*
X147968640Y-127514883D01*
X148008524Y-127572250D01*
X148010575Y-127628655D01*
X148010703Y-127628668D01*
X148010609Y-127629579D01*
X148011063Y-127642073D01*
X148008857Y-127646505D01*
X148007369Y-127660885D01*
X148015429Y-127676219D01*
X148717393Y-128378183D01*
X148731113Y-128385675D01*
X148732919Y-128385546D01*
X148739426Y-128381364D01*
X149445282Y-127675508D01*
X149451609Y-127663922D01*
X149442462Y-127652099D01*
X149390927Y-127616013D01*
X149381595Y-127610626D01*
X149183977Y-127518475D01*
X149173844Y-127514786D01*
X148981933Y-127463364D01*
X148922273Y-127426999D01*
X148891744Y-127364152D01*
X148900039Y-127294776D01*
X148946673Y-127239476D01*
X149018661Y-127192905D01*
X149087569Y-127130203D01*
X149197387Y-127030278D01*
X149197391Y-127030274D01*
X149201158Y-127026846D01*
X149354082Y-126833210D01*
X149473327Y-126617198D01*
X149555691Y-126384610D01*
X149598961Y-126141694D01*
X149601975Y-125894972D01*
X149564653Y-125651070D01*
X149487997Y-125416540D01*
X149457001Y-125356997D01*
X149376416Y-125202194D01*
X149376412Y-125202188D01*
X149374065Y-125197679D01*
X149225917Y-125000364D01*
X149197444Y-124973154D01*
X149135697Y-124914148D01*
X149100829Y-124853600D01*
X149104231Y-124783814D01*
X149144823Y-124726944D01*
X149209716Y-124701048D01*
X149221366Y-124700500D01*
X150777965Y-124700500D01*
X150845004Y-124720185D01*
X150890759Y-124772989D01*
X150900703Y-124842147D01*
X150871678Y-124905703D01*
X150861424Y-124916209D01*
X150798842Y-124973154D01*
X150645918Y-125166790D01*
X150643461Y-125171241D01*
X150545694Y-125348346D01*
X150526673Y-125382802D01*
X150444309Y-125615390D01*
X150401039Y-125858306D01*
X150398025Y-126105028D01*
X150435347Y-126348930D01*
X150512003Y-126583460D01*
X150514353Y-126587974D01*
X150623584Y-126797806D01*
X150623588Y-126797812D01*
X150625935Y-126802321D01*
X150628991Y-126806391D01*
X150712508Y-126917625D01*
X150774083Y-126999636D01*
X150777762Y-127003152D01*
X150777764Y-127003154D01*
X150806148Y-127030278D01*
X150952468Y-127170104D01*
X150956667Y-127172968D01*
X150956669Y-127172970D01*
X151054163Y-127239476D01*
X151156300Y-127309149D01*
X151380104Y-127413035D01*
X151385008Y-127414395D01*
X151612970Y-127477615D01*
X151612972Y-127477615D01*
X151617871Y-127478974D01*
X151819292Y-127500500D01*
X151962554Y-127500500D01*
X152145911Y-127485425D01*
X152385217Y-127425316D01*
X152410334Y-127414395D01*
X152447397Y-127398279D01*
X152611493Y-127326928D01*
X152818661Y-127192905D01*
X152887569Y-127130203D01*
X152997387Y-127030278D01*
X152997391Y-127030274D01*
X153001158Y-127026846D01*
X153154082Y-126833210D01*
X153273327Y-126617198D01*
X153355691Y-126384610D01*
X153398961Y-126141694D01*
X153401975Y-125894972D01*
X153364653Y-125651070D01*
X153287997Y-125416540D01*
X153257001Y-125356997D01*
X153176416Y-125202194D01*
X153176412Y-125202188D01*
X153174065Y-125197679D01*
X153025917Y-125000364D01*
X152997444Y-124973154D01*
X152851208Y-124833409D01*
X152847532Y-124829896D01*
X152842965Y-124826781D01*
X152842851Y-124826642D01*
X152839374Y-124823826D01*
X152839955Y-124823108D01*
X152798679Y-124772743D01*
X152790637Y-124703338D01*
X152821395Y-124640602D01*
X152829642Y-124632705D01*
X152837455Y-124628194D01*
X152861738Y-124599255D01*
X152869045Y-124591281D01*
X155828314Y-121632012D01*
X155889637Y-121598527D01*
X155932179Y-121596754D01*
X155991939Y-121604621D01*
X155991941Y-121604621D01*
X156000000Y-121605682D01*
X156008059Y-121604621D01*
X156148703Y-121586105D01*
X156156762Y-121585044D01*
X156164269Y-121581935D01*
X156164271Y-121581934D01*
X156295333Y-121527646D01*
X156302841Y-121524536D01*
X156428282Y-121428282D01*
X156524536Y-121302841D01*
X156527646Y-121295333D01*
X156581934Y-121164271D01*
X156581935Y-121164269D01*
X156585044Y-121156762D01*
X156605682Y-121000000D01*
X156585044Y-120843238D01*
X156581498Y-120834676D01*
X156527646Y-120704667D01*
X156524536Y-120697159D01*
X156428282Y-120571718D01*
X156302841Y-120475464D01*
X156295333Y-120472354D01*
X156164271Y-120418066D01*
X156164269Y-120418065D01*
X156156762Y-120414956D01*
X156000000Y-120394318D01*
X155843238Y-120414956D01*
X155835731Y-120418065D01*
X155835729Y-120418066D01*
X155704667Y-120472354D01*
X155697159Y-120475464D01*
X155571718Y-120571718D01*
X155475464Y-120697159D01*
X155472354Y-120704667D01*
X155418503Y-120834676D01*
X155414956Y-120843238D01*
X155394318Y-121000000D01*
X155395379Y-121008059D01*
X155395379Y-121008061D01*
X155403246Y-121067821D01*
X155392480Y-121136856D01*
X155367988Y-121171686D01*
X152526493Y-124013181D01*
X152465170Y-124046666D01*
X152438812Y-124049500D01*
X152394500Y-124049500D01*
X152327461Y-124029815D01*
X152281706Y-123977011D01*
X152270500Y-123925500D01*
X152270500Y-122430252D01*
X152258867Y-122371769D01*
X152214552Y-122305448D01*
X152148231Y-122261133D01*
X152136255Y-122258751D01*
X152136253Y-122258750D01*
X152117674Y-122255055D01*
X152089748Y-122249500D01*
X150781188Y-122249500D01*
X150714149Y-122229815D01*
X150693507Y-122213181D01*
X145764050Y-117283724D01*
X145756741Y-117275749D01*
X145739427Y-117255115D01*
X145732455Y-117246806D01*
X145723063Y-117241384D01*
X145723061Y-117241382D01*
X145699743Y-117227920D01*
X145690617Y-117222106D01*
X145668568Y-117206667D01*
X145668569Y-117206667D01*
X145659684Y-117200446D01*
X145649209Y-117197639D01*
X145645900Y-117196096D01*
X145642442Y-117194838D01*
X145633045Y-117189412D01*
X145609035Y-117185179D01*
X145595857Y-117182855D01*
X145585310Y-117180517D01*
X145548807Y-117170736D01*
X145511181Y-117174028D01*
X145500373Y-117174500D01*
X121880448Y-117174500D01*
X121813409Y-117154815D01*
X121767654Y-117102011D01*
X121761740Y-117086340D01*
X121727688Y-116973555D01*
X121725935Y-116967749D01*
X121655925Y-116836078D01*
X148008391Y-116836078D01*
X148017538Y-116847901D01*
X148069073Y-116883987D01*
X148078405Y-116889374D01*
X148276023Y-116981525D01*
X148286156Y-116985214D01*
X148496769Y-117041647D01*
X148507400Y-117043521D01*
X148724605Y-117062524D01*
X148735395Y-117062524D01*
X148952600Y-117043521D01*
X148963231Y-117041647D01*
X149173844Y-116985214D01*
X149183977Y-116981525D01*
X149381595Y-116889374D01*
X149390927Y-116883987D01*
X149443285Y-116847325D01*
X149451527Y-116837014D01*
X149444571Y-116823781D01*
X148742607Y-116121817D01*
X148728887Y-116114325D01*
X148727081Y-116114454D01*
X148720574Y-116118636D01*
X148014718Y-116824492D01*
X148008391Y-116836078D01*
X121655925Y-116836078D01*
X121629218Y-116785849D01*
X121499011Y-116626200D01*
X121429431Y-116568638D01*
X126335832Y-116568638D01*
X126344979Y-116580461D01*
X126379225Y-116604441D01*
X126388557Y-116609828D01*
X126573489Y-116696063D01*
X126583622Y-116699752D01*
X126780713Y-116752562D01*
X126791344Y-116754436D01*
X126994605Y-116772219D01*
X127005395Y-116772219D01*
X127208656Y-116754436D01*
X127219287Y-116752562D01*
X127416378Y-116699752D01*
X127426511Y-116696063D01*
X127611443Y-116609828D01*
X127620775Y-116604441D01*
X127655844Y-116579885D01*
X127664086Y-116569574D01*
X127657130Y-116556341D01*
X127012607Y-115911817D01*
X126998887Y-115904325D01*
X126997082Y-115904454D01*
X126990573Y-115908637D01*
X126342159Y-116557052D01*
X126335832Y-116568638D01*
X121429431Y-116568638D01*
X121340275Y-116494882D01*
X121159055Y-116396897D01*
X121149991Y-116394091D01*
X120968046Y-116337770D01*
X120968047Y-116337770D01*
X120962254Y-116335977D01*
X120757369Y-116314443D01*
X120751336Y-116314992D01*
X120751332Y-116314992D01*
X120625721Y-116326424D01*
X120552203Y-116333114D01*
X120546390Y-116334825D01*
X120546389Y-116334825D01*
X120542475Y-116335977D01*
X120354572Y-116391280D01*
X120270819Y-116435065D01*
X120177374Y-116483917D01*
X120177370Y-116483920D01*
X120172002Y-116486726D01*
X120167279Y-116490523D01*
X120167278Y-116490524D01*
X120029166Y-116601569D01*
X120011447Y-116615815D01*
X119963352Y-116673132D01*
X119908555Y-116738437D01*
X119879024Y-116773630D01*
X119779776Y-116954162D01*
X119777942Y-116959944D01*
X119777941Y-116959946D01*
X119737847Y-117086340D01*
X119717484Y-117150532D01*
X119694520Y-117355262D01*
X119711759Y-117560553D01*
X119768544Y-117758586D01*
X119771316Y-117763981D01*
X119771317Y-117763982D01*
X119813050Y-117845185D01*
X119862712Y-117941818D01*
X119866480Y-117946572D01*
X119895402Y-117983062D01*
X119990677Y-118103270D01*
X119995296Y-118107201D01*
X120093841Y-118191069D01*
X120132136Y-118249509D01*
X120132757Y-118319376D01*
X120095506Y-118378488D01*
X120032211Y-118408076D01*
X120013474Y-118409500D01*
X119761188Y-118409500D01*
X119694149Y-118389815D01*
X119673507Y-118373181D01*
X119209842Y-117909516D01*
X119176357Y-117848193D01*
X119179862Y-117782695D01*
X119237438Y-117609614D01*
X119237438Y-117609613D01*
X119239351Y-117603863D01*
X119244823Y-117560553D01*
X119264736Y-117402919D01*
X119264736Y-117402915D01*
X119265171Y-117399474D01*
X119265583Y-117370000D01*
X119251082Y-117222106D01*
X119246072Y-117171006D01*
X119246072Y-117171004D01*
X119245480Y-117164970D01*
X119221740Y-117086340D01*
X119187688Y-116973555D01*
X119185935Y-116967749D01*
X119089218Y-116785849D01*
X118959011Y-116626200D01*
X118800275Y-116494882D01*
X118619055Y-116396897D01*
X118609991Y-116394091D01*
X118428046Y-116337770D01*
X118428047Y-116337770D01*
X118422254Y-116335977D01*
X118217369Y-116314443D01*
X118211336Y-116314992D01*
X118211332Y-116314992D01*
X118085721Y-116326424D01*
X118012203Y-116333114D01*
X118006390Y-116334825D01*
X118006389Y-116334825D01*
X118002475Y-116335977D01*
X117814572Y-116391280D01*
X117730819Y-116435065D01*
X117637374Y-116483917D01*
X117637370Y-116483920D01*
X117632002Y-116486726D01*
X117627279Y-116490523D01*
X117627278Y-116490524D01*
X117489166Y-116601569D01*
X117471447Y-116615815D01*
X117423352Y-116673132D01*
X117368555Y-116738437D01*
X117339024Y-116773630D01*
X117239776Y-116954162D01*
X117237942Y-116959944D01*
X117237941Y-116959946D01*
X117197847Y-117086340D01*
X117177484Y-117150532D01*
X117154520Y-117355262D01*
X117171759Y-117560553D01*
X117228544Y-117758586D01*
X117231316Y-117763981D01*
X117231317Y-117763982D01*
X117273050Y-117845185D01*
X117322712Y-117941818D01*
X117326480Y-117946572D01*
X117355402Y-117983062D01*
X117450677Y-118103270D01*
X117455296Y-118107201D01*
X117602950Y-118232865D01*
X117602955Y-118232869D01*
X117607564Y-118236791D01*
X117787398Y-118337297D01*
X117983329Y-118400959D01*
X117989347Y-118401677D01*
X117989349Y-118401677D01*
X118105395Y-118415514D01*
X118187894Y-118425351D01*
X118193938Y-118424886D01*
X118193939Y-118424886D01*
X118255266Y-118420167D01*
X118393300Y-118409546D01*
X118504538Y-118378488D01*
X118585885Y-118355776D01*
X118585889Y-118355774D01*
X118591725Y-118354145D01*
X118597132Y-118351414D01*
X118597139Y-118351411D01*
X118606011Y-118346929D01*
X118674725Y-118334272D01*
X118739374Y-118360774D01*
X118749602Y-118369928D01*
X119330950Y-118951276D01*
X119338259Y-118959251D01*
X119362545Y-118988194D01*
X119371937Y-118993616D01*
X119371939Y-118993618D01*
X119395257Y-119007080D01*
X119404383Y-119012894D01*
X119435316Y-119034554D01*
X119445791Y-119037361D01*
X119449100Y-119038904D01*
X119452558Y-119040163D01*
X119461955Y-119045588D01*
X119492727Y-119051014D01*
X119499145Y-119052146D01*
X119509703Y-119054487D01*
X119532146Y-119060500D01*
X119546194Y-119064264D01*
X119556998Y-119063319D01*
X119557001Y-119063319D01*
X119583824Y-119060972D01*
X119594631Y-119060500D01*
X119825507Y-119060500D01*
X119892546Y-119080185D01*
X119938301Y-119132989D01*
X119948245Y-119202147D01*
X119920496Y-119264206D01*
X119879024Y-119313630D01*
X119779776Y-119494162D01*
X119717484Y-119690532D01*
X119694520Y-119895262D01*
X119711759Y-120100553D01*
X119768544Y-120298586D01*
X119771316Y-120303981D01*
X119771317Y-120303982D01*
X119859447Y-120475464D01*
X119862712Y-120481818D01*
X119866480Y-120486572D01*
X119978928Y-120628446D01*
X119990677Y-120643270D01*
X120062819Y-120704667D01*
X120093841Y-120731069D01*
X120132136Y-120789509D01*
X120132757Y-120859376D01*
X120095506Y-120918488D01*
X120032211Y-120948076D01*
X120013474Y-120949500D01*
X119761188Y-120949500D01*
X119694149Y-120929815D01*
X119673507Y-120913181D01*
X119209842Y-120449516D01*
X119176357Y-120388193D01*
X119179862Y-120322695D01*
X119237438Y-120149614D01*
X119237438Y-120149613D01*
X119239351Y-120143863D01*
X119244823Y-120100553D01*
X119264736Y-119942919D01*
X119264736Y-119942915D01*
X119265171Y-119939474D01*
X119265583Y-119910000D01*
X119264731Y-119901308D01*
X119246072Y-119711006D01*
X119246072Y-119711004D01*
X119245480Y-119704970D01*
X119185935Y-119507749D01*
X119089218Y-119325849D01*
X118959011Y-119166200D01*
X118835792Y-119064264D01*
X118804946Y-119038746D01*
X118804945Y-119038745D01*
X118800275Y-119034882D01*
X118652743Y-118955112D01*
X118624393Y-118939783D01*
X118624391Y-118939782D01*
X118619055Y-118936897D01*
X118609991Y-118934091D01*
X118428046Y-118877770D01*
X118428047Y-118877770D01*
X118422254Y-118875977D01*
X118217369Y-118854443D01*
X118211336Y-118854992D01*
X118211332Y-118854992D01*
X118085721Y-118866424D01*
X118012203Y-118873114D01*
X118006390Y-118874825D01*
X118006389Y-118874825D01*
X118002475Y-118875977D01*
X117814572Y-118931280D01*
X117768986Y-118955112D01*
X117637374Y-119023917D01*
X117637370Y-119023920D01*
X117632002Y-119026726D01*
X117627279Y-119030523D01*
X117627278Y-119030524D01*
X117579725Y-119068758D01*
X117471447Y-119155815D01*
X117339024Y-119313630D01*
X117239776Y-119494162D01*
X117177484Y-119690532D01*
X117154520Y-119895262D01*
X117171759Y-120100553D01*
X117228544Y-120298586D01*
X117231316Y-120303981D01*
X117231317Y-120303982D01*
X117319447Y-120475464D01*
X117322712Y-120481818D01*
X117326480Y-120486572D01*
X117438928Y-120628446D01*
X117450677Y-120643270D01*
X117455296Y-120647201D01*
X117602950Y-120772865D01*
X117602955Y-120772869D01*
X117607564Y-120776791D01*
X117787398Y-120877297D01*
X117914171Y-120918488D01*
X117959539Y-120933229D01*
X117983329Y-120940959D01*
X117989347Y-120941677D01*
X117989349Y-120941677D01*
X118131410Y-120958616D01*
X118187894Y-120965351D01*
X118193938Y-120964886D01*
X118193939Y-120964886D01*
X118255266Y-120960167D01*
X118393300Y-120949546D01*
X118482049Y-120924767D01*
X118585885Y-120895776D01*
X118585889Y-120895774D01*
X118591725Y-120894145D01*
X118597132Y-120891414D01*
X118597139Y-120891411D01*
X118606011Y-120886929D01*
X118674725Y-120874272D01*
X118739374Y-120900774D01*
X118749602Y-120909928D01*
X119330950Y-121491276D01*
X119338259Y-121499251D01*
X119362545Y-121528194D01*
X119371937Y-121533616D01*
X119371939Y-121533618D01*
X119395257Y-121547080D01*
X119404383Y-121552894D01*
X119435316Y-121574554D01*
X119445791Y-121577361D01*
X119449100Y-121578904D01*
X119452558Y-121580163D01*
X119461955Y-121585588D01*
X119492727Y-121591014D01*
X119499145Y-121592146D01*
X119509703Y-121594487D01*
X119532146Y-121600500D01*
X119546194Y-121604264D01*
X119556998Y-121603319D01*
X119557001Y-121603319D01*
X119583824Y-121600972D01*
X119594631Y-121600500D01*
X119825507Y-121600500D01*
X119892546Y-121620185D01*
X119938301Y-121672989D01*
X119948245Y-121742147D01*
X119920496Y-121804206D01*
X119879024Y-121853630D01*
X119779776Y-122034162D01*
X119777942Y-122039944D01*
X119777941Y-122039946D01*
X119744496Y-122145379D01*
X119717484Y-122230532D01*
X119714319Y-122258750D01*
X119695753Y-122424272D01*
X119694520Y-122435262D01*
X119711759Y-122640553D01*
X119768544Y-122838586D01*
X119771316Y-122843981D01*
X119771317Y-122843982D01*
X119807441Y-122914271D01*
X119862712Y-123021818D01*
X119866480Y-123026572D01*
X119986724Y-123178282D01*
X119990677Y-123183270D01*
X119995292Y-123187197D01*
X119995300Y-123187206D01*
X120017465Y-123206069D01*
X120055761Y-123264509D01*
X120056382Y-123334376D01*
X120019132Y-123393487D01*
X119955836Y-123423076D01*
X119937099Y-123424500D01*
X119696188Y-123424500D01*
X119629149Y-123404815D01*
X119608507Y-123388181D01*
X119209842Y-122989516D01*
X119176357Y-122928193D01*
X119179862Y-122862695D01*
X119237438Y-122689614D01*
X119237438Y-122689613D01*
X119239351Y-122683863D01*
X119240660Y-122673507D01*
X119264736Y-122482919D01*
X119264736Y-122482915D01*
X119265171Y-122479474D01*
X119265583Y-122450000D01*
X119264672Y-122440712D01*
X119246072Y-122251006D01*
X119246072Y-122251004D01*
X119245480Y-122244970D01*
X119218970Y-122157165D01*
X119187688Y-122053555D01*
X119185935Y-122047749D01*
X119089218Y-121865849D01*
X118959011Y-121706200D01*
X118835792Y-121604264D01*
X118804946Y-121578746D01*
X118804945Y-121578745D01*
X118800275Y-121574882D01*
X118645919Y-121491422D01*
X118624393Y-121479783D01*
X118624391Y-121479782D01*
X118619055Y-121476897D01*
X118609991Y-121474091D01*
X118428046Y-121417770D01*
X118428047Y-121417770D01*
X118422254Y-121415977D01*
X118217369Y-121394443D01*
X118211336Y-121394992D01*
X118211332Y-121394992D01*
X118085721Y-121406424D01*
X118012203Y-121413114D01*
X118006390Y-121414825D01*
X118006389Y-121414825D01*
X117820392Y-121469567D01*
X117814572Y-121471280D01*
X117761069Y-121499251D01*
X117637374Y-121563917D01*
X117637370Y-121563920D01*
X117632002Y-121566726D01*
X117627279Y-121570523D01*
X117627278Y-121570524D01*
X117544824Y-121636819D01*
X117471447Y-121695815D01*
X117339024Y-121853630D01*
X117239776Y-122034162D01*
X117237942Y-122039944D01*
X117237941Y-122039946D01*
X117204496Y-122145379D01*
X117177484Y-122230532D01*
X117174319Y-122258750D01*
X117155753Y-122424272D01*
X117154520Y-122435262D01*
X115450500Y-122435262D01*
X115450500Y-110017748D01*
X116878208Y-110017748D01*
X116908580Y-110152517D01*
X116911618Y-110162209D01*
X116991800Y-110359675D01*
X116996374Y-110368730D01*
X117107731Y-110550448D01*
X117113725Y-110558639D01*
X117253270Y-110719734D01*
X117260515Y-110726829D01*
X117424497Y-110862969D01*
X117432813Y-110868791D01*
X117616820Y-110976317D01*
X117625976Y-110980703D01*
X117825077Y-111056732D01*
X117834818Y-111059562D01*
X117839367Y-111060488D01*
X117901137Y-111093142D01*
X117935446Y-111154008D01*
X117931403Y-111223760D01*
X117890291Y-111280254D01*
X117849657Y-111300954D01*
X117814572Y-111311280D01*
X117730819Y-111355065D01*
X117637374Y-111403917D01*
X117637370Y-111403920D01*
X117632002Y-111406726D01*
X117627279Y-111410523D01*
X117627278Y-111410524D01*
X117488151Y-111522385D01*
X117471447Y-111535815D01*
X117438832Y-111574684D01*
X117353958Y-111675833D01*
X117339024Y-111693630D01*
X117239776Y-111874162D01*
X117237942Y-111879944D01*
X117237941Y-111879946D01*
X117198451Y-112004434D01*
X117177484Y-112070532D01*
X117170762Y-112130464D01*
X117155394Y-112267472D01*
X117154520Y-112275262D01*
X117171759Y-112480553D01*
X117228544Y-112678586D01*
X117322712Y-112861818D01*
X117326480Y-112866572D01*
X117437354Y-113006460D01*
X117450677Y-113023270D01*
X117455296Y-113027201D01*
X117602950Y-113152865D01*
X117602955Y-113152869D01*
X117607564Y-113156791D01*
X117787398Y-113257297D01*
X117914171Y-113298488D01*
X117952088Y-113310808D01*
X117983329Y-113320959D01*
X117989347Y-113321677D01*
X117989349Y-113321677D01*
X118105395Y-113335514D01*
X118187894Y-113345351D01*
X118193938Y-113344886D01*
X118193939Y-113344886D01*
X118255266Y-113340167D01*
X118393300Y-113329546D01*
X118504538Y-113298488D01*
X118585885Y-113275776D01*
X118585889Y-113275774D01*
X118591725Y-113274145D01*
X118775610Y-113181258D01*
X118937951Y-113054424D01*
X118941907Y-113049840D01*
X118941911Y-113049837D01*
X119068602Y-112903062D01*
X119072564Y-112898472D01*
X119093387Y-112861818D01*
X119171327Y-112724618D01*
X119174323Y-112719344D01*
X119239351Y-112523863D01*
X119244823Y-112480553D01*
X119264736Y-112322919D01*
X119264736Y-112322915D01*
X119265171Y-112319474D01*
X119265583Y-112290000D01*
X119265021Y-112284264D01*
X119246072Y-112091006D01*
X119246072Y-112091004D01*
X119245480Y-112084970D01*
X119212929Y-111977156D01*
X119187688Y-111893554D01*
X119187687Y-111893551D01*
X119185935Y-111887749D01*
X119183852Y-111883831D01*
X119176561Y-111814910D01*
X119210872Y-111749454D01*
X119483507Y-111476819D01*
X119544830Y-111443334D01*
X119571188Y-111440500D01*
X119825507Y-111440500D01*
X119892546Y-111460185D01*
X119938301Y-111512989D01*
X119948245Y-111582147D01*
X119920496Y-111644206D01*
X119879024Y-111693630D01*
X119779776Y-111874162D01*
X119777942Y-111879944D01*
X119777941Y-111879946D01*
X119738451Y-112004434D01*
X119717484Y-112070532D01*
X119710762Y-112130464D01*
X119695394Y-112267472D01*
X119694520Y-112275262D01*
X119711759Y-112480553D01*
X119768544Y-112678586D01*
X119862712Y-112861818D01*
X119866480Y-112866572D01*
X119977354Y-113006460D01*
X119990677Y-113023270D01*
X119995296Y-113027201D01*
X120093841Y-113111069D01*
X120132136Y-113169509D01*
X120132757Y-113239376D01*
X120095506Y-113298488D01*
X120032211Y-113328076D01*
X120013474Y-113329500D01*
X119404627Y-113329500D01*
X119393819Y-113329028D01*
X119356193Y-113325736D01*
X119319690Y-113335517D01*
X119309143Y-113337855D01*
X119295965Y-113340179D01*
X119271955Y-113344412D01*
X119262558Y-113349838D01*
X119259100Y-113351096D01*
X119255791Y-113352639D01*
X119245316Y-113355446D01*
X119224124Y-113370285D01*
X119214383Y-113377106D01*
X119205257Y-113382920D01*
X119181939Y-113396382D01*
X119181937Y-113396384D01*
X119172545Y-113401806D01*
X119165573Y-113410115D01*
X119165572Y-113410116D01*
X119148263Y-113430744D01*
X119140955Y-113438719D01*
X118750548Y-113829126D01*
X118689225Y-113862611D01*
X118619281Y-113856167D01*
X118619055Y-113856897D01*
X118422254Y-113795977D01*
X118217369Y-113774443D01*
X118211336Y-113774992D01*
X118211332Y-113774992D01*
X118085721Y-113786424D01*
X118012203Y-113793114D01*
X118006390Y-113794825D01*
X118006389Y-113794825D01*
X117856258Y-113839011D01*
X117814572Y-113851280D01*
X117730819Y-113895065D01*
X117637374Y-113943917D01*
X117637370Y-113943920D01*
X117632002Y-113946726D01*
X117627279Y-113950523D01*
X117627278Y-113950524D01*
X117544824Y-114016819D01*
X117471447Y-114075815D01*
X117339024Y-114233630D01*
X117239776Y-114414162D01*
X117237942Y-114419944D01*
X117237941Y-114419946D01*
X117206686Y-114518475D01*
X117177484Y-114610532D01*
X117173946Y-114642073D01*
X117155394Y-114807472D01*
X117154520Y-114815262D01*
X117171759Y-115020553D01*
X117173433Y-115026391D01*
X117175821Y-115034718D01*
X117228544Y-115218586D01*
X117322712Y-115401818D01*
X117326480Y-115406572D01*
X117443907Y-115554728D01*
X117450677Y-115563270D01*
X117455296Y-115567201D01*
X117602950Y-115692865D01*
X117602955Y-115692869D01*
X117607564Y-115696791D01*
X117787398Y-115797297D01*
X117983329Y-115860959D01*
X117989347Y-115861677D01*
X117989349Y-115861677D01*
X118131410Y-115878616D01*
X118187894Y-115885351D01*
X118193938Y-115884886D01*
X118193939Y-115884886D01*
X118255266Y-115880167D01*
X118393300Y-115869546D01*
X118478596Y-115845731D01*
X118585885Y-115815776D01*
X118585889Y-115815774D01*
X118591725Y-115814145D01*
X118775610Y-115721258D01*
X118937951Y-115594424D01*
X118941907Y-115589840D01*
X118941911Y-115589837D01*
X119068602Y-115443062D01*
X119072564Y-115438472D01*
X119093387Y-115401818D01*
X119171327Y-115264618D01*
X119174323Y-115259344D01*
X119239351Y-115063863D01*
X119241570Y-115046303D01*
X119264736Y-114862919D01*
X119264736Y-114862915D01*
X119265171Y-114859474D01*
X119265583Y-114830000D01*
X119265245Y-114826552D01*
X119246072Y-114631006D01*
X119246072Y-114631004D01*
X119245480Y-114624970D01*
X119207837Y-114500291D01*
X119187688Y-114433554D01*
X119187687Y-114433551D01*
X119185935Y-114427749D01*
X119183852Y-114423831D01*
X119176561Y-114354910D01*
X119210872Y-114289454D01*
X119483507Y-114016819D01*
X119544830Y-113983334D01*
X119571188Y-113980500D01*
X119825507Y-113980500D01*
X119892546Y-114000185D01*
X119938301Y-114052989D01*
X119948245Y-114122147D01*
X119920496Y-114184206D01*
X119879024Y-114233630D01*
X119779776Y-114414162D01*
X119777942Y-114419944D01*
X119777941Y-114419946D01*
X119746686Y-114518475D01*
X119717484Y-114610532D01*
X119713946Y-114642073D01*
X119695394Y-114807472D01*
X119694520Y-114815262D01*
X119711759Y-115020553D01*
X119713433Y-115026391D01*
X119715821Y-115034718D01*
X119768544Y-115218586D01*
X119862712Y-115401818D01*
X119866480Y-115406572D01*
X119983907Y-115554728D01*
X119990677Y-115563270D01*
X119995296Y-115567201D01*
X120142950Y-115692865D01*
X120142955Y-115692869D01*
X120147564Y-115696791D01*
X120327398Y-115797297D01*
X120523329Y-115860959D01*
X120529347Y-115861677D01*
X120529349Y-115861677D01*
X120671410Y-115878616D01*
X120727894Y-115885351D01*
X120733938Y-115884886D01*
X120733939Y-115884886D01*
X120795266Y-115880167D01*
X120933300Y-115869546D01*
X121018596Y-115845731D01*
X121125885Y-115815776D01*
X121125889Y-115815774D01*
X121131725Y-115814145D01*
X121315610Y-115721258D01*
X121477951Y-115594424D01*
X121481907Y-115589840D01*
X121481911Y-115589837D01*
X121608602Y-115443062D01*
X121612564Y-115438472D01*
X121633387Y-115401818D01*
X121711327Y-115264618D01*
X121714323Y-115259344D01*
X121779351Y-115063863D01*
X121781570Y-115046303D01*
X121796393Y-114928959D01*
X121824324Y-114864915D01*
X121882446Y-114826139D01*
X121919415Y-114820500D01*
X125785919Y-114820500D01*
X125852958Y-114840185D01*
X125898713Y-114892989D01*
X125908657Y-114962147D01*
X125898301Y-114996905D01*
X125843937Y-115113489D01*
X125840248Y-115123622D01*
X125787438Y-115320713D01*
X125785564Y-115331344D01*
X125767781Y-115534605D01*
X125767781Y-115545395D01*
X125785564Y-115748656D01*
X125787438Y-115759287D01*
X125840248Y-115956378D01*
X125843937Y-115966511D01*
X125930168Y-116151434D01*
X125935566Y-116160784D01*
X125960115Y-116195843D01*
X125970426Y-116204086D01*
X125983659Y-116197130D01*
X126912319Y-115268471D01*
X126973642Y-115234986D01*
X127043334Y-115239970D01*
X127087681Y-115268471D01*
X128017052Y-116197841D01*
X128028638Y-116204167D01*
X128040462Y-116195020D01*
X128064434Y-116160784D01*
X128069832Y-116151434D01*
X128156063Y-115966511D01*
X128159752Y-115956378D01*
X128212562Y-115759287D01*
X128213248Y-115755395D01*
X147417476Y-115755395D01*
X147436479Y-115972600D01*
X147438353Y-115983231D01*
X147494786Y-116193844D01*
X147498475Y-116203977D01*
X147590626Y-116401595D01*
X147596013Y-116410927D01*
X147632675Y-116463285D01*
X147642986Y-116471527D01*
X147656219Y-116464571D01*
X148358183Y-115762607D01*
X148364459Y-115751113D01*
X149094325Y-115751113D01*
X149094454Y-115752919D01*
X149098636Y-115759426D01*
X149804492Y-116465282D01*
X149816078Y-116471609D01*
X149827901Y-116462462D01*
X149863987Y-116410927D01*
X149869374Y-116401595D01*
X149961525Y-116203977D01*
X149965214Y-116193844D01*
X150021647Y-115983231D01*
X150023521Y-115972600D01*
X150030690Y-115890659D01*
X150056142Y-115825590D01*
X150112733Y-115784611D01*
X150182495Y-115780733D01*
X150243279Y-115815187D01*
X150275787Y-115877033D01*
X150277783Y-115891090D01*
X150278905Y-115904454D01*
X150281175Y-115931483D01*
X150335258Y-116120091D01*
X150424944Y-116294601D01*
X150428709Y-116299351D01*
X150428712Y-116299356D01*
X150517142Y-116410927D01*
X150546818Y-116448369D01*
X150696238Y-116575535D01*
X150701536Y-116578496D01*
X150768311Y-116615815D01*
X150867513Y-116671257D01*
X151054118Y-116731889D01*
X151248946Y-116755121D01*
X151254990Y-116754656D01*
X151254991Y-116754656D01*
X151346761Y-116747594D01*
X151444576Y-116740068D01*
X151633556Y-116687303D01*
X151808689Y-116598837D01*
X151963303Y-116478040D01*
X151967259Y-116473456D01*
X151967263Y-116473453D01*
X152087547Y-116334101D01*
X152091509Y-116329511D01*
X152188425Y-116158909D01*
X152219121Y-116066633D01*
X152248446Y-115978480D01*
X152248446Y-115978479D01*
X152250358Y-115972732D01*
X152258054Y-115911817D01*
X152274514Y-115781515D01*
X152274514Y-115781514D01*
X152274949Y-115778071D01*
X152275341Y-115750000D01*
X152256194Y-115554728D01*
X152199484Y-115366894D01*
X152195675Y-115359729D01*
X152145103Y-115264618D01*
X152107370Y-115193653D01*
X151983361Y-115041602D01*
X151832180Y-114916535D01*
X151659585Y-114823213D01*
X151652346Y-114820972D01*
X151623830Y-114812145D01*
X151472152Y-114765193D01*
X151277019Y-114744683D01*
X151270986Y-114745232D01*
X151270982Y-114745232D01*
X151107278Y-114760131D01*
X151081618Y-114762466D01*
X150998217Y-114787012D01*
X150899208Y-114816152D01*
X150899203Y-114816154D01*
X150893393Y-114817864D01*
X150888023Y-114820671D01*
X150888019Y-114820673D01*
X150807211Y-114862919D01*
X150719512Y-114908767D01*
X150714789Y-114912564D01*
X150714788Y-114912565D01*
X150588003Y-115014503D01*
X150566600Y-115031711D01*
X150440480Y-115182016D01*
X150345956Y-115353954D01*
X150344124Y-115359729D01*
X150288650Y-115534605D01*
X150286628Y-115540978D01*
X150285952Y-115547006D01*
X150277961Y-115618249D01*
X150250927Y-115682676D01*
X150193352Y-115722260D01*
X150123516Y-115724433D01*
X150063592Y-115688505D01*
X150032604Y-115625882D01*
X150031206Y-115615235D01*
X150023521Y-115527399D01*
X150021647Y-115516769D01*
X149965214Y-115306156D01*
X149961525Y-115296023D01*
X149869374Y-115098405D01*
X149863987Y-115089073D01*
X149827325Y-115036715D01*
X149817014Y-115028473D01*
X149803781Y-115035429D01*
X149101817Y-115737393D01*
X149094325Y-115751113D01*
X148364459Y-115751113D01*
X148365675Y-115748887D01*
X148365546Y-115747081D01*
X148361364Y-115740574D01*
X147655508Y-115034718D01*
X147643922Y-115028391D01*
X147632099Y-115037538D01*
X147596013Y-115089073D01*
X147590626Y-115098405D01*
X147498475Y-115296023D01*
X147494786Y-115306156D01*
X147438353Y-115516769D01*
X147436479Y-115527400D01*
X147417476Y-115744605D01*
X147417476Y-115755395D01*
X128213248Y-115755395D01*
X128214436Y-115748656D01*
X128232219Y-115545395D01*
X128232219Y-115534605D01*
X128214436Y-115331344D01*
X128212562Y-115320713D01*
X128159752Y-115123622D01*
X128156063Y-115113489D01*
X128101699Y-114996905D01*
X128091207Y-114927827D01*
X128119727Y-114864043D01*
X128178203Y-114825804D01*
X128214081Y-114820500D01*
X142874382Y-114820500D01*
X142885190Y-114820972D01*
X142922816Y-114824264D01*
X142959319Y-114814483D01*
X142969866Y-114812145D01*
X142986387Y-114809232D01*
X143007054Y-114805588D01*
X143016451Y-114800162D01*
X143019909Y-114798904D01*
X143023218Y-114797361D01*
X143033693Y-114794554D01*
X143064626Y-114772894D01*
X143073752Y-114767080D01*
X143097070Y-114753618D01*
X143097072Y-114753616D01*
X143106464Y-114748194D01*
X143130747Y-114719255D01*
X143138054Y-114711281D01*
X144744307Y-113105028D01*
X146598025Y-113105028D01*
X146635347Y-113348930D01*
X146712003Y-113583460D01*
X146714353Y-113587974D01*
X146823584Y-113797806D01*
X146823588Y-113797812D01*
X146825935Y-113802321D01*
X146974083Y-113999636D01*
X146977762Y-114003152D01*
X146977764Y-114003154D01*
X147003610Y-114027853D01*
X147152468Y-114170104D01*
X147156667Y-114172968D01*
X147156669Y-114172970D01*
X147238781Y-114228983D01*
X147356300Y-114309149D01*
X147580104Y-114413035D01*
X147585008Y-114414395D01*
X147812970Y-114477615D01*
X147812972Y-114477615D01*
X147817871Y-114478974D01*
X147904072Y-114488186D01*
X147968640Y-114514883D01*
X148008524Y-114572250D01*
X148010575Y-114628655D01*
X148010703Y-114628668D01*
X148010609Y-114629579D01*
X148011063Y-114642073D01*
X148008857Y-114646505D01*
X148007369Y-114660885D01*
X148015429Y-114676219D01*
X148717393Y-115378183D01*
X148731113Y-115385675D01*
X148732919Y-115385546D01*
X148739426Y-115381364D01*
X149445282Y-114675508D01*
X149451609Y-114663922D01*
X149442462Y-114652099D01*
X149390927Y-114616013D01*
X149381595Y-114610626D01*
X149183977Y-114518475D01*
X149173844Y-114514786D01*
X148981933Y-114463364D01*
X148922273Y-114426999D01*
X148891744Y-114364152D01*
X148900039Y-114294776D01*
X148946673Y-114239476D01*
X148947491Y-114238947D01*
X149018661Y-114192905D01*
X149096423Y-114122147D01*
X149197387Y-114030278D01*
X149197391Y-114030274D01*
X149201158Y-114026846D01*
X149354082Y-113833210D01*
X149432225Y-113691654D01*
X149470868Y-113621653D01*
X149470869Y-113621650D01*
X149473327Y-113617198D01*
X149555691Y-113384610D01*
X149598961Y-113141694D01*
X149599409Y-113105028D01*
X150398025Y-113105028D01*
X150435347Y-113348930D01*
X150512003Y-113583460D01*
X150514353Y-113587974D01*
X150623584Y-113797806D01*
X150623588Y-113797812D01*
X150625935Y-113802321D01*
X150774083Y-113999636D01*
X150777762Y-114003152D01*
X150777764Y-114003154D01*
X150803610Y-114027853D01*
X150952468Y-114170104D01*
X150956667Y-114172968D01*
X150956669Y-114172970D01*
X151038781Y-114228983D01*
X151156300Y-114309149D01*
X151380104Y-114413035D01*
X151385008Y-114414395D01*
X151612970Y-114477615D01*
X151612972Y-114477615D01*
X151617871Y-114478974D01*
X151819292Y-114500500D01*
X151962554Y-114500500D01*
X152145911Y-114485425D01*
X152385217Y-114425316D01*
X152410334Y-114414395D01*
X152525884Y-114364152D01*
X152611493Y-114326928D01*
X152818661Y-114192905D01*
X152896423Y-114122147D01*
X152997387Y-114030278D01*
X152997391Y-114030274D01*
X153001158Y-114026846D01*
X153154082Y-113833210D01*
X153232225Y-113691654D01*
X153270868Y-113621653D01*
X153270869Y-113621650D01*
X153273327Y-113617198D01*
X153355691Y-113384610D01*
X153398961Y-113141694D01*
X153401975Y-112894972D01*
X153364653Y-112651070D01*
X153287997Y-112416540D01*
X153260086Y-112362923D01*
X153176416Y-112202194D01*
X153176412Y-112202188D01*
X153174065Y-112197679D01*
X153085084Y-112079167D01*
X153028973Y-112004434D01*
X153028972Y-112004433D01*
X153025917Y-112000364D01*
X152997444Y-111973154D01*
X152851208Y-111833409D01*
X152847532Y-111829896D01*
X152825564Y-111814910D01*
X152647909Y-111693722D01*
X152647907Y-111693721D01*
X152643700Y-111690851D01*
X152419896Y-111586965D01*
X152371141Y-111573444D01*
X152187030Y-111522385D01*
X152187028Y-111522385D01*
X152182129Y-111521026D01*
X151980708Y-111499500D01*
X151837446Y-111499500D01*
X151654089Y-111514575D01*
X151649149Y-111515816D01*
X151649148Y-111515816D01*
X151551028Y-111540462D01*
X151414783Y-111574684D01*
X151410116Y-111576713D01*
X151410114Y-111576714D01*
X151372243Y-111593181D01*
X151188507Y-111673072D01*
X151184240Y-111675833D01*
X151184239Y-111675833D01*
X151164339Y-111688707D01*
X150981339Y-111807095D01*
X150956281Y-111829896D01*
X150802613Y-111969722D01*
X150802609Y-111969726D01*
X150798842Y-111973154D01*
X150645918Y-112166790D01*
X150643461Y-112171241D01*
X150565666Y-112312167D01*
X150526673Y-112382802D01*
X150444309Y-112615390D01*
X150401039Y-112858306D01*
X150400977Y-112863389D01*
X150398598Y-113058160D01*
X150398025Y-113105028D01*
X149599409Y-113105028D01*
X149601975Y-112894972D01*
X149564653Y-112651070D01*
X149487997Y-112416540D01*
X149460086Y-112362923D01*
X149376416Y-112202194D01*
X149376412Y-112202188D01*
X149374065Y-112197679D01*
X149285084Y-112079167D01*
X149228973Y-112004434D01*
X149228972Y-112004433D01*
X149225917Y-112000364D01*
X149197444Y-111973154D01*
X149051208Y-111833409D01*
X149047532Y-111829896D01*
X148943595Y-111758995D01*
X148899307Y-111704955D01*
X148891266Y-111635549D01*
X148922024Y-111572814D01*
X148981380Y-111536784D01*
X149173841Y-111485215D01*
X149183977Y-111481525D01*
X149381595Y-111389374D01*
X149390927Y-111383987D01*
X149443285Y-111347325D01*
X149451527Y-111337014D01*
X149444571Y-111323781D01*
X148742607Y-110621817D01*
X148728887Y-110614325D01*
X148727081Y-110614454D01*
X148720574Y-110618636D01*
X148014718Y-111324492D01*
X148007226Y-111338212D01*
X148008904Y-111361678D01*
X148014626Y-111376304D01*
X148000861Y-111444804D01*
X147952247Y-111494988D01*
X147901258Y-111510697D01*
X147854089Y-111514575D01*
X147849149Y-111515816D01*
X147849148Y-111515816D01*
X147751028Y-111540462D01*
X147614783Y-111574684D01*
X147610116Y-111576713D01*
X147610114Y-111576714D01*
X147572243Y-111593181D01*
X147388507Y-111673072D01*
X147384240Y-111675833D01*
X147384239Y-111675833D01*
X147364339Y-111688707D01*
X147181339Y-111807095D01*
X147156281Y-111829896D01*
X147002613Y-111969722D01*
X147002609Y-111969726D01*
X146998842Y-111973154D01*
X146845918Y-112166790D01*
X146843461Y-112171241D01*
X146765666Y-112312167D01*
X146726673Y-112382802D01*
X146644309Y-112615390D01*
X146601039Y-112858306D01*
X146600977Y-112863389D01*
X146598598Y-113058160D01*
X146598025Y-113105028D01*
X144744307Y-113105028D01*
X147271216Y-110578119D01*
X147332539Y-110544634D01*
X147402231Y-110549618D01*
X147458164Y-110591490D01*
X147478672Y-110633706D01*
X147494786Y-110693844D01*
X147498475Y-110703977D01*
X147590626Y-110901595D01*
X147596013Y-110910927D01*
X147632675Y-110963285D01*
X147642986Y-110971527D01*
X147656219Y-110964571D01*
X148642319Y-109978471D01*
X148703642Y-109944986D01*
X148773334Y-109949970D01*
X148817681Y-109978471D01*
X149804492Y-110965282D01*
X149816078Y-110971609D01*
X149827901Y-110962462D01*
X149863987Y-110910927D01*
X149869374Y-110901595D01*
X149961525Y-110703977D01*
X149965214Y-110693844D01*
X150021647Y-110483231D01*
X150023383Y-110473385D01*
X150054409Y-110410782D01*
X150114355Y-110374890D01*
X150184190Y-110377105D01*
X150241741Y-110416725D01*
X150268736Y-110481169D01*
X150269500Y-110494915D01*
X150269500Y-111069748D01*
X150281133Y-111128231D01*
X150325448Y-111194552D01*
X150391769Y-111238867D01*
X150403745Y-111241249D01*
X150403747Y-111241250D01*
X150422326Y-111244945D01*
X150450252Y-111250500D01*
X152089748Y-111250500D01*
X152117674Y-111244945D01*
X152136253Y-111241250D01*
X152136255Y-111241249D01*
X152148231Y-111238867D01*
X152214552Y-111194552D01*
X152258867Y-111128231D01*
X152270500Y-111069748D01*
X152270500Y-109430252D01*
X152258867Y-109371769D01*
X152214552Y-109305448D01*
X152148231Y-109261133D01*
X152136255Y-109258751D01*
X152136253Y-109258750D01*
X152117674Y-109255055D01*
X152089748Y-109249500D01*
X150781188Y-109249500D01*
X150714149Y-109229815D01*
X150693507Y-109213181D01*
X150264050Y-108783724D01*
X150256741Y-108775749D01*
X150239427Y-108755115D01*
X150232455Y-108746806D01*
X150223063Y-108741384D01*
X150223061Y-108741382D01*
X150199743Y-108727920D01*
X150190617Y-108722106D01*
X150168568Y-108706667D01*
X150168569Y-108706667D01*
X150159684Y-108700446D01*
X150149209Y-108697639D01*
X150145900Y-108696096D01*
X150142442Y-108694838D01*
X150133045Y-108689412D01*
X150109035Y-108685179D01*
X150095857Y-108682855D01*
X150085310Y-108680517D01*
X150048807Y-108670736D01*
X150011181Y-108674028D01*
X150000373Y-108674500D01*
X148408637Y-108674500D01*
X148397831Y-108674028D01*
X148392365Y-108673550D01*
X148327297Y-108648096D01*
X148286319Y-108591504D01*
X148282443Y-108521742D01*
X148284498Y-108514080D01*
X148293667Y-108483807D01*
X148304503Y-108309138D01*
X148274866Y-108136660D01*
X148206346Y-107975627D01*
X148202078Y-107969827D01*
X148106888Y-107840479D01*
X148106886Y-107840477D01*
X148102617Y-107834676D01*
X148097125Y-107830010D01*
X147974739Y-107726035D01*
X147974736Y-107726033D01*
X147969245Y-107721368D01*
X147962828Y-107718091D01*
X147962826Y-107718090D01*
X147872388Y-107671910D01*
X147813384Y-107641781D01*
X147806388Y-107640069D01*
X147806385Y-107640068D01*
X147735237Y-107622659D01*
X147643394Y-107600185D01*
X147637886Y-107599843D01*
X147637884Y-107599843D01*
X147634256Y-107599618D01*
X147634252Y-107599618D01*
X147632352Y-107599500D01*
X147506178Y-107599500D01*
X147376172Y-107614657D01*
X147369405Y-107617113D01*
X147369402Y-107617114D01*
X147282377Y-107648703D01*
X147211669Y-107674369D01*
X147065315Y-107770323D01*
X147060363Y-107775551D01*
X147060360Y-107775553D01*
X146998855Y-107840479D01*
X146944960Y-107897372D01*
X146941344Y-107903597D01*
X146941342Y-107903600D01*
X146902875Y-107969827D01*
X146857061Y-108048702D01*
X146806333Y-108216193D01*
X146795497Y-108390862D01*
X146825134Y-108563340D01*
X146893654Y-108724373D01*
X146897921Y-108730171D01*
X146897922Y-108730173D01*
X146974145Y-108833747D01*
X146997383Y-108865324D01*
X147002874Y-108869989D01*
X147002875Y-108869990D01*
X147125261Y-108973965D01*
X147125264Y-108973967D01*
X147130755Y-108978632D01*
X147137172Y-108981909D01*
X147137174Y-108981910D01*
X147167909Y-108997604D01*
X147286616Y-109058219D01*
X147293612Y-109059931D01*
X147293615Y-109059932D01*
X147345873Y-109072719D01*
X147456606Y-109099815D01*
X147462114Y-109100157D01*
X147462116Y-109100157D01*
X147465744Y-109100382D01*
X147465748Y-109100382D01*
X147467648Y-109100500D01*
X147528821Y-109100500D01*
X147595860Y-109120185D01*
X147641615Y-109172989D01*
X147651559Y-109242147D01*
X147622534Y-109305703D01*
X147616502Y-109312181D01*
X142795502Y-114133181D01*
X142734179Y-114166666D01*
X142707821Y-114169500D01*
X126590188Y-114169500D01*
X126523149Y-114149815D01*
X126477394Y-114097011D01*
X126467450Y-114027853D01*
X126496475Y-113964297D01*
X126502507Y-113957819D01*
X126561053Y-113899273D01*
X126622376Y-113865788D01*
X126692068Y-113870772D01*
X126699165Y-113873673D01*
X126708036Y-113877622D01*
X126708042Y-113877624D01*
X126713983Y-113880269D01*
X126720345Y-113881621D01*
X126720344Y-113881621D01*
X126896889Y-113919148D01*
X126896894Y-113919149D01*
X126903252Y-113920500D01*
X127096748Y-113920500D01*
X127103106Y-113919149D01*
X127103111Y-113919148D01*
X127279656Y-113881621D01*
X127279655Y-113881621D01*
X127286017Y-113880269D01*
X127462785Y-113801567D01*
X127619327Y-113687833D01*
X127633884Y-113671666D01*
X127744455Y-113548864D01*
X127744456Y-113548863D01*
X127748802Y-113544036D01*
X127809607Y-113438719D01*
X127842302Y-113382089D01*
X127842303Y-113382088D01*
X127845550Y-113376463D01*
X127905344Y-113192437D01*
X127925570Y-113000000D01*
X127905344Y-112807563D01*
X127845550Y-112623537D01*
X127840847Y-112615390D01*
X127754885Y-112466500D01*
X127738412Y-112398600D01*
X127761265Y-112332573D01*
X127816186Y-112289382D01*
X127862272Y-112280500D01*
X132414382Y-112280500D01*
X132425190Y-112280972D01*
X132462816Y-112284264D01*
X132499319Y-112274483D01*
X132509866Y-112272145D01*
X132526387Y-112269232D01*
X132547054Y-112265588D01*
X132556451Y-112260162D01*
X132559909Y-112258904D01*
X132563218Y-112257361D01*
X132573693Y-112254554D01*
X132604626Y-112232894D01*
X132613752Y-112227080D01*
X132637070Y-112213618D01*
X132637072Y-112213616D01*
X132646464Y-112208194D01*
X132670747Y-112179255D01*
X132678054Y-112171281D01*
X141013258Y-103836078D01*
X148008391Y-103836078D01*
X148017538Y-103847901D01*
X148069073Y-103883987D01*
X148078405Y-103889374D01*
X148276023Y-103981525D01*
X148286156Y-103985214D01*
X148496769Y-104041647D01*
X148507400Y-104043521D01*
X148724605Y-104062524D01*
X148735395Y-104062524D01*
X148952600Y-104043521D01*
X148963231Y-104041647D01*
X149173844Y-103985214D01*
X149183977Y-103981525D01*
X149381595Y-103889374D01*
X149390927Y-103883987D01*
X149443285Y-103847325D01*
X149451527Y-103837014D01*
X149444571Y-103823781D01*
X148742607Y-103121817D01*
X148728887Y-103114325D01*
X148727081Y-103114454D01*
X148720574Y-103118636D01*
X148014718Y-103824492D01*
X148008391Y-103836078D01*
X141013258Y-103836078D01*
X142093941Y-102755395D01*
X147417476Y-102755395D01*
X147436479Y-102972600D01*
X147438353Y-102983231D01*
X147494786Y-103193844D01*
X147498475Y-103203977D01*
X147590626Y-103401595D01*
X147596013Y-103410927D01*
X147632675Y-103463285D01*
X147642986Y-103471527D01*
X147656219Y-103464571D01*
X148358183Y-102762607D01*
X148364459Y-102751113D01*
X149094325Y-102751113D01*
X149094454Y-102752919D01*
X149098636Y-102759426D01*
X149804492Y-103465282D01*
X149816078Y-103471609D01*
X149827901Y-103462462D01*
X149863987Y-103410927D01*
X149869374Y-103401595D01*
X149961525Y-103203977D01*
X149965214Y-103193844D01*
X150021647Y-102983231D01*
X150023521Y-102972600D01*
X150030690Y-102890659D01*
X150056142Y-102825590D01*
X150112733Y-102784611D01*
X150182495Y-102780733D01*
X150243279Y-102815187D01*
X150275787Y-102877033D01*
X150277783Y-102891090D01*
X150281175Y-102931483D01*
X150335258Y-103120091D01*
X150338030Y-103125486D01*
X150338031Y-103125487D01*
X150356171Y-103160784D01*
X150424944Y-103294601D01*
X150428709Y-103299351D01*
X150428712Y-103299356D01*
X150517142Y-103410927D01*
X150546818Y-103448369D01*
X150696238Y-103575535D01*
X150701536Y-103578496D01*
X150747959Y-103604441D01*
X150867513Y-103671257D01*
X151054118Y-103731889D01*
X151248946Y-103755121D01*
X151254990Y-103754656D01*
X151254991Y-103754656D01*
X151346761Y-103747594D01*
X151444576Y-103740068D01*
X151633556Y-103687303D01*
X151808689Y-103598837D01*
X151963303Y-103478040D01*
X151967259Y-103473456D01*
X151967263Y-103473453D01*
X152087547Y-103334101D01*
X152091509Y-103329511D01*
X152188425Y-103158909D01*
X152243171Y-102994336D01*
X152248446Y-102978480D01*
X152248446Y-102978479D01*
X152250358Y-102972732D01*
X152256516Y-102923990D01*
X152274514Y-102781515D01*
X152274514Y-102781514D01*
X152274949Y-102778071D01*
X152275341Y-102750000D01*
X152256194Y-102554728D01*
X152199484Y-102366894D01*
X152195675Y-102359729D01*
X152110217Y-102199008D01*
X152107370Y-102193653D01*
X151983361Y-102041602D01*
X151832180Y-101916535D01*
X151659585Y-101823213D01*
X151646515Y-101819167D01*
X151599950Y-101804753D01*
X151472152Y-101765193D01*
X151277019Y-101744683D01*
X151270986Y-101745232D01*
X151270982Y-101745232D01*
X151107278Y-101760131D01*
X151081618Y-101762466D01*
X150998217Y-101787012D01*
X150899208Y-101816152D01*
X150899203Y-101816154D01*
X150893393Y-101817864D01*
X150888023Y-101820671D01*
X150888019Y-101820673D01*
X150830966Y-101850500D01*
X150719512Y-101908767D01*
X150714789Y-101912564D01*
X150714788Y-101912565D01*
X150573017Y-102026552D01*
X150566600Y-102031711D01*
X150440480Y-102182016D01*
X150345956Y-102353954D01*
X150344124Y-102359729D01*
X150288650Y-102534605D01*
X150286628Y-102540978D01*
X150279271Y-102606572D01*
X150277961Y-102618249D01*
X150250927Y-102682676D01*
X150193352Y-102722260D01*
X150123516Y-102724433D01*
X150063592Y-102688505D01*
X150032604Y-102625882D01*
X150031206Y-102615235D01*
X150023521Y-102527399D01*
X150021647Y-102516769D01*
X149965214Y-102306156D01*
X149961525Y-102296023D01*
X149869374Y-102098405D01*
X149863987Y-102089073D01*
X149827325Y-102036715D01*
X149817014Y-102028473D01*
X149803781Y-102035429D01*
X149101817Y-102737393D01*
X149094325Y-102751113D01*
X148364459Y-102751113D01*
X148365675Y-102748887D01*
X148365546Y-102747081D01*
X148361364Y-102740574D01*
X147655508Y-102034718D01*
X147643922Y-102028391D01*
X147632099Y-102037538D01*
X147596013Y-102089073D01*
X147590626Y-102098405D01*
X147498475Y-102296023D01*
X147494786Y-102306156D01*
X147438353Y-102516769D01*
X147436479Y-102527400D01*
X147417476Y-102744605D01*
X147417476Y-102755395D01*
X142093941Y-102755395D01*
X144744308Y-100105028D01*
X146598025Y-100105028D01*
X146635347Y-100348930D01*
X146712003Y-100583460D01*
X146714353Y-100587974D01*
X146823584Y-100797806D01*
X146823588Y-100797812D01*
X146825935Y-100802321D01*
X146872538Y-100864390D01*
X146962436Y-100984123D01*
X146974083Y-100999636D01*
X146977762Y-101003152D01*
X146977764Y-101003154D01*
X147078988Y-101099885D01*
X147152468Y-101170104D01*
X147156667Y-101172968D01*
X147156669Y-101172970D01*
X147335230Y-101294776D01*
X147356300Y-101309149D01*
X147580104Y-101413035D01*
X147585008Y-101414395D01*
X147812970Y-101477615D01*
X147812972Y-101477615D01*
X147817871Y-101478974D01*
X147904072Y-101488186D01*
X147968640Y-101514883D01*
X148008524Y-101572250D01*
X148010575Y-101628655D01*
X148010703Y-101628668D01*
X148010609Y-101629579D01*
X148011063Y-101642073D01*
X148008857Y-101646505D01*
X148007369Y-101660885D01*
X148015429Y-101676219D01*
X148717393Y-102378183D01*
X148731113Y-102385675D01*
X148732919Y-102385546D01*
X148739426Y-102381364D01*
X149445282Y-101675508D01*
X149451609Y-101663922D01*
X149442462Y-101652099D01*
X149390927Y-101616013D01*
X149381595Y-101610626D01*
X149183977Y-101518475D01*
X149173844Y-101514786D01*
X148981933Y-101463364D01*
X148922273Y-101426999D01*
X148891744Y-101364152D01*
X148900039Y-101294776D01*
X148946673Y-101239476D01*
X149006417Y-101200826D01*
X149018661Y-101192905D01*
X149105797Y-101113618D01*
X149197387Y-101030278D01*
X149197391Y-101030274D01*
X149201158Y-101026846D01*
X149354082Y-100833210D01*
X149432225Y-100691654D01*
X149470868Y-100621653D01*
X149470869Y-100621650D01*
X149473327Y-100617198D01*
X149555691Y-100384610D01*
X149598961Y-100141694D01*
X149599409Y-100105028D01*
X150398025Y-100105028D01*
X150435347Y-100348930D01*
X150512003Y-100583460D01*
X150514353Y-100587974D01*
X150623584Y-100797806D01*
X150623588Y-100797812D01*
X150625935Y-100802321D01*
X150672538Y-100864390D01*
X150762436Y-100984123D01*
X150774083Y-100999636D01*
X150777762Y-101003152D01*
X150777764Y-101003154D01*
X150878988Y-101099885D01*
X150952468Y-101170104D01*
X150956667Y-101172968D01*
X150956669Y-101172970D01*
X151135230Y-101294776D01*
X151156300Y-101309149D01*
X151380104Y-101413035D01*
X151385008Y-101414395D01*
X151612970Y-101477615D01*
X151612972Y-101477615D01*
X151617871Y-101478974D01*
X151819292Y-101500500D01*
X151962554Y-101500500D01*
X152145911Y-101485425D01*
X152385217Y-101425316D01*
X152410334Y-101414395D01*
X152535690Y-101359888D01*
X152611493Y-101326928D01*
X152818661Y-101192905D01*
X152905797Y-101113618D01*
X152997387Y-101030278D01*
X152997391Y-101030274D01*
X153001158Y-101026846D01*
X153154082Y-100833210D01*
X153232225Y-100691654D01*
X153270868Y-100621653D01*
X153270869Y-100621650D01*
X153273327Y-100617198D01*
X153355691Y-100384610D01*
X153398961Y-100141694D01*
X153401096Y-99966952D01*
X153401913Y-99900062D01*
X153401913Y-99900060D01*
X153401975Y-99894972D01*
X153364653Y-99651070D01*
X153287997Y-99416540D01*
X153208982Y-99264753D01*
X153176416Y-99202194D01*
X153176412Y-99202188D01*
X153174065Y-99197679D01*
X153043273Y-99023480D01*
X153028973Y-99004434D01*
X153028972Y-99004433D01*
X153025917Y-99000364D01*
X152997444Y-98973154D01*
X152851208Y-98833409D01*
X152847532Y-98829896D01*
X152812529Y-98806018D01*
X152647909Y-98693722D01*
X152647907Y-98693721D01*
X152643700Y-98690851D01*
X152419896Y-98586965D01*
X152371141Y-98573444D01*
X152187030Y-98522385D01*
X152187028Y-98522385D01*
X152182129Y-98521026D01*
X151980708Y-98499500D01*
X151837446Y-98499500D01*
X151654089Y-98514575D01*
X151649149Y-98515816D01*
X151649148Y-98515816D01*
X151531068Y-98545475D01*
X151414783Y-98574684D01*
X151410116Y-98576713D01*
X151410114Y-98576714D01*
X151375398Y-98591809D01*
X151188507Y-98673072D01*
X150981339Y-98807095D01*
X150956281Y-98829896D01*
X150802613Y-98969722D01*
X150802609Y-98969726D01*
X150798842Y-98973154D01*
X150645918Y-99166790D01*
X150643461Y-99171241D01*
X150565666Y-99312167D01*
X150526673Y-99382802D01*
X150444309Y-99615390D01*
X150401039Y-99858306D01*
X150400977Y-99863389D01*
X150398170Y-100093197D01*
X150398025Y-100105028D01*
X149599409Y-100105028D01*
X149601096Y-99966952D01*
X149601913Y-99900062D01*
X149601913Y-99900060D01*
X149601975Y-99894972D01*
X149564653Y-99651070D01*
X149487997Y-99416540D01*
X149408982Y-99264753D01*
X149376416Y-99202194D01*
X149376412Y-99202188D01*
X149374065Y-99197679D01*
X149243273Y-99023480D01*
X149228973Y-99004434D01*
X149228972Y-99004433D01*
X149225917Y-99000364D01*
X149197444Y-98973154D01*
X149051208Y-98833409D01*
X149047532Y-98829896D01*
X148943595Y-98758995D01*
X148899307Y-98704955D01*
X148891266Y-98635549D01*
X148922024Y-98572814D01*
X148981380Y-98536784D01*
X149173841Y-98485215D01*
X149183977Y-98481525D01*
X149381595Y-98389374D01*
X149390927Y-98383987D01*
X149443285Y-98347325D01*
X149451527Y-98337014D01*
X149444571Y-98323781D01*
X148742607Y-97621817D01*
X148728887Y-97614325D01*
X148727081Y-97614454D01*
X148720574Y-97618636D01*
X148014718Y-98324492D01*
X148007226Y-98338212D01*
X148008904Y-98361678D01*
X148014626Y-98376304D01*
X148000861Y-98444804D01*
X147952247Y-98494988D01*
X147901258Y-98510697D01*
X147854089Y-98514575D01*
X147849149Y-98515816D01*
X147849148Y-98515816D01*
X147731068Y-98545475D01*
X147614783Y-98574684D01*
X147610116Y-98576713D01*
X147610114Y-98576714D01*
X147575398Y-98591809D01*
X147388507Y-98673072D01*
X147181339Y-98807095D01*
X147156281Y-98829896D01*
X147002613Y-98969722D01*
X147002609Y-98969726D01*
X146998842Y-98973154D01*
X146845918Y-99166790D01*
X146843461Y-99171241D01*
X146765666Y-99312167D01*
X146726673Y-99382802D01*
X146644309Y-99615390D01*
X146601039Y-99858306D01*
X146600977Y-99863389D01*
X146598170Y-100093197D01*
X146598025Y-100105028D01*
X144744308Y-100105028D01*
X147271217Y-97578119D01*
X147332540Y-97544634D01*
X147402232Y-97549618D01*
X147458165Y-97591490D01*
X147478673Y-97633707D01*
X147494786Y-97693842D01*
X147498475Y-97703977D01*
X147590626Y-97901595D01*
X147596013Y-97910927D01*
X147632675Y-97963285D01*
X147642986Y-97971527D01*
X147656219Y-97964571D01*
X148642319Y-96978471D01*
X148703642Y-96944986D01*
X148773334Y-96949970D01*
X148817681Y-96978471D01*
X149804492Y-97965282D01*
X149816078Y-97971609D01*
X149827901Y-97962462D01*
X149863987Y-97910927D01*
X149869374Y-97901595D01*
X149961525Y-97703977D01*
X149965214Y-97693844D01*
X150021647Y-97483231D01*
X150023383Y-97473385D01*
X150054409Y-97410782D01*
X150114355Y-97374890D01*
X150184190Y-97377105D01*
X150241741Y-97416725D01*
X150268736Y-97481169D01*
X150269500Y-97494915D01*
X150269500Y-98069748D01*
X150275055Y-98097674D01*
X150276906Y-98106978D01*
X150281133Y-98128231D01*
X150325448Y-98194552D01*
X150391769Y-98238867D01*
X150403745Y-98241249D01*
X150403747Y-98241250D01*
X150422326Y-98244945D01*
X150450252Y-98250500D01*
X152089748Y-98250500D01*
X152117674Y-98244945D01*
X152136253Y-98241250D01*
X152136255Y-98241249D01*
X152148231Y-98238867D01*
X152214552Y-98194552D01*
X152258867Y-98128231D01*
X152263095Y-98106978D01*
X152264945Y-98097674D01*
X152270500Y-98069748D01*
X152270500Y-96430252D01*
X152258867Y-96371769D01*
X152214552Y-96305448D01*
X152148231Y-96261133D01*
X152136255Y-96258751D01*
X152136253Y-96258750D01*
X152117674Y-96255055D01*
X152089748Y-96249500D01*
X150781188Y-96249500D01*
X150714149Y-96229815D01*
X150693507Y-96213181D01*
X150264050Y-95783724D01*
X150256741Y-95775749D01*
X150239427Y-95755115D01*
X150232455Y-95746806D01*
X150223063Y-95741384D01*
X150223061Y-95741382D01*
X150199743Y-95727920D01*
X150190617Y-95722106D01*
X150183209Y-95716919D01*
X150159684Y-95700446D01*
X150149209Y-95697639D01*
X150145900Y-95696096D01*
X150142442Y-95694838D01*
X150133045Y-95689412D01*
X150109035Y-95685179D01*
X150095857Y-95682855D01*
X150085310Y-95680517D01*
X150048807Y-95670736D01*
X150011181Y-95674028D01*
X150000373Y-95674500D01*
X148408625Y-95674500D01*
X148397819Y-95674028D01*
X148392364Y-95673551D01*
X148327296Y-95648097D01*
X148286319Y-95591506D01*
X148282442Y-95521744D01*
X148284494Y-95514094D01*
X148293667Y-95483807D01*
X148304503Y-95309138D01*
X148274866Y-95136660D01*
X148206346Y-94975627D01*
X148202078Y-94969827D01*
X148106888Y-94840479D01*
X148106886Y-94840477D01*
X148102617Y-94834676D01*
X148097125Y-94830010D01*
X147974739Y-94726035D01*
X147974736Y-94726033D01*
X147969245Y-94721368D01*
X147962828Y-94718091D01*
X147962826Y-94718090D01*
X147871949Y-94671686D01*
X147813384Y-94641781D01*
X147806388Y-94640069D01*
X147806385Y-94640068D01*
X147735237Y-94622659D01*
X147643394Y-94600185D01*
X147637886Y-94599843D01*
X147637884Y-94599843D01*
X147634256Y-94599618D01*
X147634252Y-94599618D01*
X147632352Y-94599500D01*
X147506178Y-94599500D01*
X147376172Y-94614657D01*
X147369405Y-94617113D01*
X147369402Y-94617114D01*
X147218443Y-94671910D01*
X147211669Y-94674369D01*
X147065315Y-94770323D01*
X147060363Y-94775551D01*
X147060360Y-94775553D01*
X146998855Y-94840479D01*
X146944960Y-94897372D01*
X146941344Y-94903597D01*
X146941342Y-94903600D01*
X146902875Y-94969827D01*
X146857061Y-95048702D01*
X146806333Y-95216193D01*
X146795497Y-95390862D01*
X146825134Y-95563340D01*
X146827957Y-95569973D01*
X146827957Y-95569975D01*
X146857875Y-95640288D01*
X146893654Y-95724373D01*
X146897921Y-95730171D01*
X146897922Y-95730173D01*
X146962683Y-95818172D01*
X146997383Y-95865324D01*
X147002874Y-95869989D01*
X147002875Y-95869990D01*
X147125261Y-95973965D01*
X147125264Y-95973967D01*
X147130755Y-95978632D01*
X147137172Y-95981909D01*
X147137174Y-95981910D01*
X147167913Y-95997606D01*
X147286616Y-96058219D01*
X147293612Y-96059931D01*
X147293615Y-96059932D01*
X147364763Y-96077341D01*
X147456606Y-96099815D01*
X147462114Y-96100157D01*
X147462116Y-96100157D01*
X147465744Y-96100382D01*
X147465748Y-96100382D01*
X147467648Y-96100500D01*
X147528820Y-96100500D01*
X147595859Y-96120185D01*
X147641614Y-96172989D01*
X147651558Y-96242147D01*
X147622533Y-96305703D01*
X147616501Y-96312181D01*
X132335502Y-111593181D01*
X132274179Y-111626666D01*
X132247821Y-111629500D01*
X128494948Y-111629500D01*
X128427909Y-111609815D01*
X128382154Y-111557011D01*
X128371420Y-111494690D01*
X128371455Y-111494290D01*
X128374264Y-111483807D01*
X128370972Y-111446177D01*
X128370500Y-111435370D01*
X128370500Y-101064619D01*
X128370972Y-101053812D01*
X128373318Y-101027000D01*
X128373318Y-101026998D01*
X128374263Y-101016193D01*
X128371455Y-101005712D01*
X128364489Y-100979712D01*
X128362148Y-100969155D01*
X128357472Y-100942639D01*
X128355588Y-100931955D01*
X128350165Y-100922561D01*
X128348908Y-100919108D01*
X128347361Y-100915791D01*
X128344554Y-100905316D01*
X128322892Y-100874379D01*
X128317083Y-100865261D01*
X128303617Y-100841937D01*
X128303616Y-100841935D01*
X128298194Y-100832545D01*
X128269261Y-100808267D01*
X128261287Y-100800960D01*
X128081980Y-100621653D01*
X127897133Y-100436807D01*
X127863648Y-100375484D01*
X127866883Y-100310808D01*
X127903336Y-100198618D01*
X127903337Y-100198615D01*
X127905344Y-100192437D01*
X127921146Y-100042095D01*
X138145028Y-100042095D01*
X138145455Y-100046570D01*
X138145455Y-100046571D01*
X138162314Y-100223270D01*
X138170534Y-100309431D01*
X138187598Y-100379166D01*
X138231704Y-100559413D01*
X138234364Y-100570285D01*
X138236047Y-100574441D01*
X138236049Y-100574446D01*
X138260531Y-100634888D01*
X138335182Y-100819192D01*
X138470875Y-101050938D01*
X138638601Y-101260669D01*
X138834846Y-101443991D01*
X139055499Y-101597064D01*
X139059532Y-101599070D01*
X139059533Y-101599071D01*
X139291905Y-101714674D01*
X139291909Y-101714676D01*
X139295938Y-101716680D01*
X139300214Y-101718082D01*
X139300217Y-101718083D01*
X139486309Y-101779087D01*
X139551126Y-101800335D01*
X139576571Y-101804753D01*
X139811983Y-101845628D01*
X139811988Y-101845629D01*
X139815717Y-101846276D01*
X139849078Y-101847937D01*
X139899031Y-101850424D01*
X139899050Y-101850424D01*
X139900567Y-101850500D01*
X140068223Y-101850500D01*
X140267846Y-101836016D01*
X140272227Y-101835049D01*
X140272232Y-101835048D01*
X140383273Y-101810532D01*
X140530080Y-101778120D01*
X140781211Y-101682975D01*
X140877342Y-101629579D01*
X141012053Y-101554753D01*
X141015976Y-101552574D01*
X141229458Y-101389650D01*
X141417185Y-101197614D01*
X141426903Y-101184264D01*
X141519610Y-101056897D01*
X141575225Y-100980491D01*
X141700265Y-100742828D01*
X141718337Y-100691654D01*
X141762737Y-100565922D01*
X141789688Y-100489603D01*
X141795686Y-100459172D01*
X141840751Y-100230532D01*
X141840751Y-100230529D01*
X141841620Y-100226122D01*
X141847902Y-100099938D01*
X141854749Y-99962391D01*
X141854749Y-99962387D01*
X141854972Y-99957905D01*
X141845954Y-99863389D01*
X141829894Y-99695054D01*
X141829894Y-99695053D01*
X141829466Y-99690569D01*
X141784344Y-99506170D01*
X141766704Y-99434078D01*
X141766702Y-99434073D01*
X141765636Y-99429715D01*
X141758472Y-99412026D01*
X141695749Y-99257172D01*
X141664818Y-99180808D01*
X141529125Y-98949062D01*
X141361399Y-98739331D01*
X141165154Y-98556009D01*
X140944501Y-98402936D01*
X140896685Y-98379148D01*
X140708095Y-98285326D01*
X140708091Y-98285324D01*
X140704062Y-98283320D01*
X140699786Y-98281918D01*
X140699783Y-98281917D01*
X140453142Y-98201064D01*
X140453140Y-98201064D01*
X140448874Y-98199665D01*
X140339665Y-98180703D01*
X140188017Y-98154372D01*
X140188012Y-98154371D01*
X140184283Y-98153724D01*
X140150922Y-98152063D01*
X140100969Y-98149576D01*
X140100950Y-98149576D01*
X140099433Y-98149500D01*
X139931777Y-98149500D01*
X139732154Y-98163984D01*
X139727773Y-98164951D01*
X139727768Y-98164952D01*
X139639686Y-98184399D01*
X139469920Y-98221880D01*
X139218789Y-98317025D01*
X138984024Y-98447426D01*
X138770542Y-98610350D01*
X138582815Y-98802386D01*
X138424775Y-99019509D01*
X138299735Y-99257172D01*
X138298242Y-99261399D01*
X138298241Y-99261402D01*
X138259920Y-99369918D01*
X138210312Y-99510397D01*
X138209445Y-99514798D01*
X138209444Y-99514800D01*
X138175624Y-99686391D01*
X138158380Y-99773878D01*
X138158157Y-99778362D01*
X138147124Y-100000000D01*
X138145028Y-100042095D01*
X127921146Y-100042095D01*
X127925570Y-100000000D01*
X127905344Y-99807563D01*
X127845550Y-99623537D01*
X127748802Y-99455964D01*
X127619327Y-99312167D01*
X127581894Y-99284970D01*
X127468044Y-99202254D01*
X127468045Y-99202254D01*
X127462785Y-99198433D01*
X127286017Y-99119731D01*
X127252682Y-99112645D01*
X127103111Y-99080852D01*
X127103106Y-99080851D01*
X127096748Y-99079500D01*
X126903252Y-99079500D01*
X126896894Y-99080851D01*
X126896889Y-99080852D01*
X126747318Y-99112645D01*
X126713983Y-99119731D01*
X126537215Y-99198433D01*
X126531955Y-99202254D01*
X126531956Y-99202254D01*
X126418107Y-99284970D01*
X126380673Y-99312167D01*
X126251198Y-99455964D01*
X126154450Y-99623537D01*
X126094656Y-99807563D01*
X126074430Y-100000000D01*
X126094656Y-100192437D01*
X126096663Y-100198615D01*
X126096664Y-100198618D01*
X126107034Y-100230532D01*
X126154450Y-100376463D01*
X126157697Y-100382088D01*
X126157698Y-100382089D01*
X126190773Y-100439376D01*
X126251198Y-100544036D01*
X126255544Y-100548863D01*
X126255545Y-100548864D01*
X126265043Y-100559413D01*
X126380673Y-100687833D01*
X126537215Y-100801567D01*
X126543150Y-100804209D01*
X126543151Y-100804210D01*
X126567444Y-100815026D01*
X126713983Y-100880269D01*
X126720345Y-100881621D01*
X126720344Y-100881621D01*
X126896889Y-100919148D01*
X126896894Y-100919149D01*
X126903252Y-100920500D01*
X127096748Y-100920500D01*
X127103106Y-100919149D01*
X127103111Y-100919148D01*
X127279656Y-100881621D01*
X127279655Y-100881621D01*
X127286017Y-100880269D01*
X127291952Y-100877627D01*
X127291960Y-100877624D01*
X127300831Y-100873674D01*
X127370081Y-100864390D01*
X127433357Y-100894019D01*
X127438946Y-100899273D01*
X127683181Y-101143508D01*
X127716666Y-101204831D01*
X127719500Y-101231189D01*
X127719500Y-101325919D01*
X127699815Y-101392958D01*
X127647011Y-101438713D01*
X127577853Y-101448657D01*
X127543095Y-101438301D01*
X127426511Y-101383937D01*
X127416378Y-101380248D01*
X127219287Y-101327438D01*
X127208656Y-101325564D01*
X127005395Y-101307781D01*
X126994605Y-101307781D01*
X126791344Y-101325564D01*
X126780713Y-101327438D01*
X126583622Y-101380248D01*
X126573489Y-101383937D01*
X126388566Y-101470168D01*
X126379216Y-101475566D01*
X126344157Y-101500115D01*
X126335914Y-101510426D01*
X126342870Y-101523659D01*
X127271529Y-102452319D01*
X127305014Y-102513642D01*
X127300030Y-102583334D01*
X127271529Y-102627681D01*
X127000000Y-102899210D01*
X126342159Y-103557052D01*
X126335832Y-103568638D01*
X126344979Y-103580461D01*
X126379225Y-103604441D01*
X126388557Y-103609828D01*
X126573489Y-103696063D01*
X126583622Y-103699752D01*
X126780713Y-103752562D01*
X126791344Y-103754436D01*
X126994605Y-103772219D01*
X127005395Y-103772219D01*
X127208656Y-103754436D01*
X127219287Y-103752562D01*
X127416378Y-103699752D01*
X127426511Y-103696063D01*
X127543095Y-103641699D01*
X127612173Y-103631207D01*
X127675957Y-103659727D01*
X127714196Y-103718203D01*
X127719500Y-103754081D01*
X127719500Y-109601584D01*
X127699815Y-109668623D01*
X127647011Y-109714378D01*
X127577853Y-109724322D01*
X127522615Y-109701902D01*
X127512837Y-109694798D01*
X127462785Y-109658433D01*
X127286017Y-109579731D01*
X127252682Y-109572645D01*
X127103111Y-109540852D01*
X127103106Y-109540851D01*
X127096748Y-109539500D01*
X126903252Y-109539500D01*
X126896894Y-109540851D01*
X126896889Y-109540852D01*
X126747318Y-109572645D01*
X126713983Y-109579731D01*
X126537215Y-109658433D01*
X126380673Y-109772167D01*
X126251198Y-109915964D01*
X126247950Y-109921590D01*
X126160822Y-110072500D01*
X126110255Y-110120716D01*
X126053435Y-110134500D01*
X121924500Y-110134500D01*
X121857461Y-110114815D01*
X121811706Y-110062011D01*
X121800500Y-110010500D01*
X121800500Y-108880252D01*
X121788867Y-108821769D01*
X121744552Y-108755448D01*
X121678231Y-108711133D01*
X121666255Y-108708751D01*
X121666253Y-108708750D01*
X121647674Y-108705055D01*
X121619748Y-108699500D01*
X119880252Y-108699500D01*
X119852326Y-108705055D01*
X119833747Y-108708750D01*
X119833745Y-108708751D01*
X119821769Y-108711133D01*
X119755448Y-108755448D01*
X119711133Y-108821769D01*
X119699500Y-108880252D01*
X119699500Y-109173630D01*
X119679815Y-109240669D01*
X119627011Y-109286424D01*
X119557853Y-109296368D01*
X119494297Y-109267343D01*
X119461784Y-109223075D01*
X119412940Y-109110741D01*
X119408149Y-109101805D01*
X119292378Y-108922852D01*
X119286194Y-108914822D01*
X119142751Y-108757180D01*
X119135333Y-108750263D01*
X118968076Y-108618172D01*
X118959629Y-108612560D01*
X118773037Y-108509555D01*
X118763782Y-108505396D01*
X118562890Y-108434256D01*
X118553066Y-108431660D01*
X118481555Y-108418922D01*
X118468468Y-108420358D01*
X118464000Y-108434685D01*
X118464000Y-109880000D01*
X118444315Y-109947039D01*
X118391511Y-109992794D01*
X118340000Y-110004000D01*
X116892940Y-110004000D01*
X116879623Y-110007910D01*
X116878208Y-110017748D01*
X115450500Y-110017748D01*
X115450500Y-109484366D01*
X116874338Y-109484366D01*
X116875838Y-109492660D01*
X116888025Y-109496000D01*
X117938170Y-109496000D01*
X117953169Y-109491596D01*
X117954356Y-109490226D01*
X117956000Y-109482668D01*
X117956000Y-108432817D01*
X117952143Y-108419682D01*
X117938094Y-108417727D01*
X117899235Y-108423674D01*
X117889376Y-108426022D01*
X117686785Y-108492239D01*
X117677436Y-108496169D01*
X117488389Y-108594580D01*
X117479804Y-108599987D01*
X117309368Y-108727954D01*
X117301780Y-108734691D01*
X117154532Y-108888778D01*
X117148153Y-108896655D01*
X117028050Y-109072719D01*
X117023035Y-109081547D01*
X116933301Y-109274864D01*
X116929799Y-109284382D01*
X116874338Y-109484366D01*
X115450500Y-109484366D01*
X115450500Y-104555262D01*
X117179520Y-104555262D01*
X117196759Y-104760553D01*
X117253544Y-104958586D01*
X117347712Y-105141818D01*
X117351480Y-105146572D01*
X117380402Y-105183062D01*
X117475677Y-105303270D01*
X117480296Y-105307201D01*
X117627950Y-105432865D01*
X117627955Y-105432869D01*
X117632564Y-105436791D01*
X117812398Y-105537297D01*
X118008329Y-105600959D01*
X118014347Y-105601677D01*
X118014349Y-105601677D01*
X118156410Y-105618616D01*
X118212894Y-105625351D01*
X118218938Y-105624886D01*
X118218939Y-105624886D01*
X118280266Y-105620167D01*
X118418300Y-105609546D01*
X118503596Y-105585731D01*
X118610885Y-105555776D01*
X118610889Y-105555774D01*
X118616725Y-105554145D01*
X118800610Y-105461258D01*
X118962951Y-105334424D01*
X118966907Y-105329840D01*
X118966911Y-105329837D01*
X119093602Y-105183062D01*
X119097564Y-105178472D01*
X119118387Y-105141818D01*
X119196327Y-105004618D01*
X119199323Y-104999344D01*
X119264351Y-104803863D01*
X119269823Y-104760553D01*
X119289736Y-104602919D01*
X119289736Y-104602915D01*
X119290171Y-104599474D01*
X119290583Y-104570000D01*
X119289138Y-104555262D01*
X119719520Y-104555262D01*
X119736759Y-104760553D01*
X119793544Y-104958586D01*
X119887712Y-105141818D01*
X119891480Y-105146572D01*
X119920402Y-105183062D01*
X120015677Y-105303270D01*
X120020296Y-105307201D01*
X120167950Y-105432865D01*
X120167955Y-105432869D01*
X120172564Y-105436791D01*
X120352398Y-105537297D01*
X120548329Y-105600959D01*
X120554347Y-105601677D01*
X120554349Y-105601677D01*
X120696410Y-105618616D01*
X120752894Y-105625351D01*
X120758938Y-105624886D01*
X120758939Y-105624886D01*
X120820266Y-105620167D01*
X120958300Y-105609546D01*
X121043596Y-105585731D01*
X121150885Y-105555776D01*
X121150889Y-105555774D01*
X121156725Y-105554145D01*
X121340610Y-105461258D01*
X121502951Y-105334424D01*
X121506907Y-105329840D01*
X121506911Y-105329837D01*
X121633602Y-105183062D01*
X121637564Y-105178472D01*
X121658387Y-105141818D01*
X121736327Y-105004618D01*
X121739323Y-104999344D01*
X121804351Y-104803863D01*
X121809823Y-104760553D01*
X121829736Y-104602919D01*
X121829736Y-104602915D01*
X121830171Y-104599474D01*
X121830583Y-104570000D01*
X121810480Y-104364970D01*
X121750935Y-104167749D01*
X121694986Y-104062524D01*
X121657065Y-103991203D01*
X121657064Y-103991201D01*
X121654218Y-103985849D01*
X121524011Y-103826200D01*
X121458759Y-103772219D01*
X121369946Y-103698746D01*
X121369945Y-103698745D01*
X121365275Y-103694882D01*
X121247510Y-103631207D01*
X121189393Y-103599783D01*
X121189391Y-103599782D01*
X121184055Y-103596897D01*
X121174991Y-103594091D01*
X120993046Y-103537770D01*
X120993047Y-103537770D01*
X120987254Y-103535977D01*
X120782369Y-103514443D01*
X120776336Y-103514992D01*
X120776332Y-103514992D01*
X120650721Y-103526424D01*
X120577203Y-103533114D01*
X120571390Y-103534825D01*
X120571389Y-103534825D01*
X120385392Y-103589567D01*
X120379572Y-103591280D01*
X120303199Y-103631207D01*
X120202374Y-103683917D01*
X120202370Y-103683920D01*
X120197002Y-103686726D01*
X120192279Y-103690523D01*
X120192278Y-103690524D01*
X120090670Y-103772219D01*
X120036447Y-103815815D01*
X119904024Y-103973630D01*
X119804776Y-104154162D01*
X119742484Y-104350532D01*
X119719520Y-104555262D01*
X119289138Y-104555262D01*
X119270480Y-104364970D01*
X119210935Y-104167749D01*
X119154986Y-104062524D01*
X119117065Y-103991203D01*
X119117064Y-103991201D01*
X119114218Y-103985849D01*
X118984011Y-103826200D01*
X118918759Y-103772219D01*
X118829946Y-103698746D01*
X118829945Y-103698745D01*
X118825275Y-103694882D01*
X118707510Y-103631207D01*
X118649393Y-103599783D01*
X118649391Y-103599782D01*
X118644055Y-103596897D01*
X118634991Y-103594091D01*
X118453046Y-103537770D01*
X118453047Y-103537770D01*
X118447254Y-103535977D01*
X118242369Y-103514443D01*
X118236336Y-103514992D01*
X118236332Y-103514992D01*
X118110721Y-103526424D01*
X118037203Y-103533114D01*
X118031390Y-103534825D01*
X118031389Y-103534825D01*
X117845392Y-103589567D01*
X117839572Y-103591280D01*
X117763199Y-103631207D01*
X117662374Y-103683917D01*
X117662370Y-103683920D01*
X117657002Y-103686726D01*
X117652279Y-103690523D01*
X117652278Y-103690524D01*
X117550670Y-103772219D01*
X117496447Y-103815815D01*
X117364024Y-103973630D01*
X117264776Y-104154162D01*
X117202484Y-104350532D01*
X117179520Y-104555262D01*
X115450500Y-104555262D01*
X115450500Y-102015262D01*
X117179520Y-102015262D01*
X117196759Y-102220553D01*
X117253544Y-102418586D01*
X117347712Y-102601818D01*
X117351480Y-102606572D01*
X117467902Y-102753460D01*
X117475677Y-102763270D01*
X117480296Y-102767201D01*
X117627950Y-102892865D01*
X117627955Y-102892869D01*
X117632564Y-102896791D01*
X117812398Y-102997297D01*
X118008329Y-103060959D01*
X118014347Y-103061677D01*
X118014349Y-103061677D01*
X118156410Y-103078616D01*
X118212894Y-103085351D01*
X118218938Y-103084886D01*
X118218939Y-103084886D01*
X118280266Y-103080167D01*
X118418300Y-103069546D01*
X118503596Y-103045731D01*
X118610885Y-103015776D01*
X118610889Y-103015774D01*
X118616725Y-103014145D01*
X118800610Y-102921258D01*
X118962951Y-102794424D01*
X118966907Y-102789840D01*
X118966911Y-102789837D01*
X119093602Y-102643062D01*
X119097564Y-102638472D01*
X119103695Y-102627681D01*
X119196327Y-102464618D01*
X119199323Y-102459344D01*
X119241903Y-102331344D01*
X119262439Y-102269611D01*
X119262439Y-102269610D01*
X119264351Y-102263863D01*
X119269823Y-102220553D01*
X119289736Y-102062919D01*
X119289736Y-102062915D01*
X119290171Y-102059474D01*
X119290583Y-102030000D01*
X119288547Y-102009232D01*
X119271072Y-101831006D01*
X119271072Y-101831004D01*
X119270480Y-101824970D01*
X119246431Y-101745317D01*
X119212688Y-101633555D01*
X119210935Y-101627749D01*
X119143090Y-101500150D01*
X119117065Y-101451203D01*
X119117064Y-101451201D01*
X119114218Y-101445849D01*
X118984011Y-101286200D01*
X118972506Y-101276682D01*
X118829946Y-101158746D01*
X118829945Y-101158745D01*
X118825275Y-101154882D01*
X118677743Y-101075112D01*
X118649393Y-101059783D01*
X118649391Y-101059782D01*
X118644055Y-101056897D01*
X118636128Y-101054443D01*
X118453046Y-100997770D01*
X118453047Y-100997770D01*
X118447254Y-100995977D01*
X118242369Y-100974443D01*
X118236336Y-100974992D01*
X118236332Y-100974992D01*
X118136000Y-100984123D01*
X118037203Y-100993114D01*
X118031390Y-100994825D01*
X118031389Y-100994825D01*
X117845392Y-101049567D01*
X117839572Y-101051280D01*
X117793986Y-101075112D01*
X117662374Y-101143917D01*
X117662370Y-101143920D01*
X117657002Y-101146726D01*
X117652279Y-101150523D01*
X117652278Y-101150524D01*
X117504411Y-101269412D01*
X117496447Y-101275815D01*
X117364024Y-101433630D01*
X117264776Y-101614162D01*
X117262942Y-101619944D01*
X117262941Y-101619946D01*
X117205475Y-101801103D01*
X117202484Y-101810532D01*
X117179520Y-102015262D01*
X115450500Y-102015262D01*
X115450500Y-97217748D01*
X116903208Y-97217748D01*
X116933580Y-97352517D01*
X116936618Y-97362209D01*
X117016800Y-97559675D01*
X117021374Y-97568730D01*
X117132731Y-97750448D01*
X117138725Y-97758639D01*
X117278270Y-97919734D01*
X117285515Y-97926829D01*
X117449497Y-98062969D01*
X117457813Y-98068791D01*
X117641820Y-98176317D01*
X117650976Y-98180703D01*
X117850077Y-98256732D01*
X117859818Y-98259562D01*
X117864367Y-98260488D01*
X117926137Y-98293142D01*
X117960446Y-98354008D01*
X117956403Y-98423760D01*
X117915291Y-98480254D01*
X117874657Y-98500954D01*
X117839572Y-98511280D01*
X117790788Y-98536784D01*
X117662374Y-98603917D01*
X117662370Y-98603920D01*
X117657002Y-98606726D01*
X117496447Y-98735815D01*
X117364024Y-98893630D01*
X117264776Y-99074162D01*
X117262942Y-99079944D01*
X117262941Y-99079946D01*
X117236660Y-99162795D01*
X117202484Y-99270532D01*
X117198243Y-99308346D01*
X117181054Y-99461590D01*
X117179520Y-99475262D01*
X117196759Y-99680553D01*
X117253544Y-99878586D01*
X117256316Y-99883981D01*
X117256317Y-99883982D01*
X117261965Y-99894972D01*
X117347712Y-100061818D01*
X117351480Y-100066572D01*
X117380402Y-100103062D01*
X117475677Y-100223270D01*
X117480296Y-100227201D01*
X117627950Y-100352865D01*
X117627955Y-100352869D01*
X117632564Y-100356791D01*
X117812398Y-100457297D01*
X118008329Y-100520959D01*
X118014347Y-100521677D01*
X118014349Y-100521677D01*
X118142145Y-100536915D01*
X118212894Y-100545351D01*
X118218938Y-100544886D01*
X118218939Y-100544886D01*
X118280266Y-100540167D01*
X118418300Y-100529546D01*
X118529538Y-100498488D01*
X118610885Y-100475776D01*
X118610889Y-100475774D01*
X118616725Y-100474145D01*
X118622132Y-100471414D01*
X118622139Y-100471411D01*
X118631011Y-100466929D01*
X118699725Y-100454272D01*
X118764374Y-100480774D01*
X118774602Y-100489928D01*
X119355950Y-101071276D01*
X119363259Y-101079251D01*
X119387545Y-101108194D01*
X119396937Y-101113616D01*
X119396939Y-101113618D01*
X119420257Y-101127080D01*
X119429383Y-101132894D01*
X119460316Y-101154554D01*
X119470791Y-101157361D01*
X119474100Y-101158904D01*
X119477558Y-101160163D01*
X119486955Y-101165588D01*
X119512565Y-101170104D01*
X119524145Y-101172146D01*
X119534703Y-101174487D01*
X119554634Y-101179827D01*
X119571194Y-101184264D01*
X119581998Y-101183319D01*
X119582001Y-101183319D01*
X119608824Y-101180972D01*
X119619631Y-101180500D01*
X119850507Y-101180500D01*
X119917546Y-101200185D01*
X119963301Y-101252989D01*
X119973245Y-101322147D01*
X119945496Y-101384206D01*
X119904024Y-101433630D01*
X119804776Y-101614162D01*
X119802942Y-101619944D01*
X119802941Y-101619946D01*
X119745475Y-101801103D01*
X119742484Y-101810532D01*
X119719520Y-102015262D01*
X119736759Y-102220553D01*
X119793544Y-102418586D01*
X119887712Y-102601818D01*
X119891480Y-102606572D01*
X120007902Y-102753460D01*
X120015677Y-102763270D01*
X120020296Y-102767201D01*
X120167950Y-102892865D01*
X120167955Y-102892869D01*
X120172564Y-102896791D01*
X120352398Y-102997297D01*
X120548329Y-103060959D01*
X120554347Y-103061677D01*
X120554349Y-103061677D01*
X120696410Y-103078616D01*
X120752894Y-103085351D01*
X120758938Y-103084886D01*
X120758939Y-103084886D01*
X120820266Y-103080167D01*
X120958300Y-103069546D01*
X121043596Y-103045731D01*
X121150885Y-103015776D01*
X121150889Y-103015774D01*
X121156725Y-103014145D01*
X121340610Y-102921258D01*
X121502951Y-102794424D01*
X121506907Y-102789840D01*
X121506911Y-102789837D01*
X121633602Y-102643062D01*
X121637564Y-102638472D01*
X121643695Y-102627681D01*
X121736326Y-102464619D01*
X121739323Y-102459344D01*
X121745638Y-102440360D01*
X121785477Y-102382961D01*
X121850024Y-102356213D01*
X121863299Y-102355500D01*
X123093812Y-102355500D01*
X123160851Y-102375185D01*
X123181493Y-102391819D01*
X123888181Y-103098508D01*
X123921666Y-103159831D01*
X123924500Y-103186189D01*
X123924500Y-106931701D01*
X123904815Y-106998740D01*
X123875986Y-107030077D01*
X123821718Y-107071718D01*
X123725464Y-107197159D01*
X123722354Y-107204667D01*
X123671138Y-107328314D01*
X123664956Y-107343238D01*
X123644318Y-107500000D01*
X123664956Y-107656762D01*
X123668065Y-107664269D01*
X123668066Y-107664271D01*
X123714161Y-107775553D01*
X123725464Y-107802841D01*
X123821718Y-107928282D01*
X123947159Y-108024536D01*
X123954667Y-108027646D01*
X124085729Y-108081934D01*
X124085731Y-108081935D01*
X124093238Y-108085044D01*
X124250000Y-108105682D01*
X124258059Y-108104621D01*
X124398703Y-108086105D01*
X124406762Y-108085044D01*
X124414269Y-108081935D01*
X124414271Y-108081934D01*
X124545333Y-108027646D01*
X124552841Y-108024536D01*
X124678282Y-107928282D01*
X124774536Y-107802841D01*
X124785839Y-107775553D01*
X124831934Y-107664271D01*
X124831935Y-107664269D01*
X124835044Y-107656762D01*
X124855682Y-107500000D01*
X124835044Y-107343238D01*
X124828863Y-107328314D01*
X124777646Y-107204667D01*
X124774536Y-107197159D01*
X124678282Y-107071718D01*
X124624014Y-107030077D01*
X124582811Y-106973649D01*
X124575500Y-106931701D01*
X124575500Y-106835188D01*
X124595185Y-106768149D01*
X124647989Y-106722394D01*
X124717147Y-106712450D01*
X124780703Y-106741475D01*
X124787181Y-106747507D01*
X125367988Y-107328314D01*
X125401473Y-107389637D01*
X125403246Y-107432179D01*
X125395379Y-107491939D01*
X125394318Y-107500000D01*
X125414956Y-107656762D01*
X125418065Y-107664269D01*
X125418066Y-107664271D01*
X125464161Y-107775553D01*
X125475464Y-107802841D01*
X125571718Y-107928282D01*
X125697159Y-108024536D01*
X125704667Y-108027646D01*
X125835729Y-108081934D01*
X125835731Y-108081935D01*
X125843238Y-108085044D01*
X126000000Y-108105682D01*
X126008059Y-108104621D01*
X126148703Y-108086105D01*
X126156762Y-108085044D01*
X126164269Y-108081935D01*
X126164271Y-108081934D01*
X126295333Y-108027646D01*
X126302841Y-108024536D01*
X126428282Y-107928282D01*
X126524536Y-107802841D01*
X126535839Y-107775553D01*
X126581934Y-107664271D01*
X126581935Y-107664269D01*
X126585044Y-107656762D01*
X126605682Y-107500000D01*
X126585044Y-107343238D01*
X126578863Y-107328314D01*
X126527646Y-107204667D01*
X126524536Y-107197159D01*
X126428282Y-107071718D01*
X126302841Y-106975464D01*
X126295333Y-106972354D01*
X126164271Y-106918066D01*
X126164269Y-106918065D01*
X126156762Y-106914956D01*
X126000000Y-106894318D01*
X125991941Y-106895379D01*
X125991939Y-106895379D01*
X125932179Y-106903246D01*
X125863144Y-106892480D01*
X125828314Y-106867988D01*
X125061819Y-106101493D01*
X125028334Y-106040170D01*
X125025500Y-106013812D01*
X125025500Y-102833232D01*
X125025972Y-102822424D01*
X125028319Y-102795604D01*
X125028319Y-102795601D01*
X125029264Y-102784798D01*
X125021386Y-102755395D01*
X125019487Y-102748307D01*
X125017146Y-102737749D01*
X125012472Y-102711244D01*
X125010588Y-102700559D01*
X125005163Y-102691162D01*
X125003904Y-102687704D01*
X125002361Y-102684395D01*
X124999554Y-102673920D01*
X124983081Y-102650395D01*
X124977894Y-102642987D01*
X124972080Y-102633861D01*
X124958618Y-102610543D01*
X124958616Y-102610541D01*
X124953194Y-102601149D01*
X124924255Y-102576866D01*
X124916281Y-102569559D01*
X124892117Y-102545395D01*
X125767781Y-102545395D01*
X125785564Y-102748656D01*
X125787438Y-102759287D01*
X125840248Y-102956378D01*
X125843937Y-102966511D01*
X125930168Y-103151434D01*
X125935566Y-103160784D01*
X125960115Y-103195843D01*
X125970426Y-103204086D01*
X125983659Y-103197130D01*
X126628183Y-102552607D01*
X126635675Y-102538887D01*
X126635546Y-102537082D01*
X126631363Y-102530573D01*
X125982948Y-101882159D01*
X125971362Y-101875833D01*
X125959538Y-101884980D01*
X125935566Y-101919216D01*
X125930168Y-101928566D01*
X125843937Y-102113489D01*
X125840248Y-102123622D01*
X125787438Y-102320713D01*
X125785564Y-102331344D01*
X125767781Y-102534605D01*
X125767781Y-102545395D01*
X124892117Y-102545395D01*
X123710446Y-101363724D01*
X123703137Y-101355749D01*
X123685823Y-101335115D01*
X123678851Y-101326806D01*
X123669459Y-101321384D01*
X123669457Y-101321382D01*
X123646139Y-101307920D01*
X123637013Y-101302106D01*
X123614964Y-101286667D01*
X123614965Y-101286667D01*
X123606080Y-101280446D01*
X123595605Y-101277639D01*
X123592296Y-101276096D01*
X123588838Y-101274838D01*
X123579441Y-101269412D01*
X123547232Y-101263733D01*
X123542253Y-101262855D01*
X123531706Y-101260517D01*
X123495203Y-101250736D01*
X123457577Y-101254028D01*
X123446769Y-101254500D01*
X122172889Y-101254500D01*
X122105850Y-101234815D01*
X122085208Y-101218181D01*
X121505751Y-100638724D01*
X121498442Y-100630749D01*
X121481128Y-100610115D01*
X121474156Y-100601806D01*
X121464764Y-100596384D01*
X121464762Y-100596382D01*
X121441444Y-100582920D01*
X121432318Y-100577106D01*
X121410274Y-100561670D01*
X121410273Y-100561669D01*
X121401385Y-100555446D01*
X121400727Y-100555270D01*
X121352993Y-100513241D01*
X121333841Y-100446047D01*
X121354056Y-100379166D01*
X121381495Y-100349317D01*
X121498170Y-100258160D01*
X121498174Y-100258156D01*
X121502951Y-100254424D01*
X121506907Y-100249840D01*
X121506911Y-100249837D01*
X121633602Y-100103062D01*
X121637564Y-100098472D01*
X121658387Y-100061818D01*
X121736327Y-99924618D01*
X121739323Y-99919344D01*
X121804351Y-99723863D01*
X121807991Y-99695054D01*
X121829736Y-99522919D01*
X121829736Y-99522915D01*
X121830171Y-99519474D01*
X121830583Y-99490000D01*
X121828547Y-99469232D01*
X121811072Y-99291006D01*
X121811072Y-99291004D01*
X121810480Y-99284970D01*
X121800594Y-99252227D01*
X121800061Y-99182361D01*
X121831620Y-99128706D01*
X123500326Y-97460000D01*
X126074430Y-97460000D01*
X126094656Y-97652437D01*
X126154450Y-97836463D01*
X126251198Y-98004036D01*
X126255544Y-98008863D01*
X126255545Y-98008864D01*
X126343887Y-98106978D01*
X126380673Y-98147833D01*
X126385931Y-98151653D01*
X126385932Y-98151654D01*
X126419878Y-98176317D01*
X126537215Y-98261567D01*
X126713983Y-98340269D01*
X126720345Y-98341621D01*
X126720344Y-98341621D01*
X126896889Y-98379148D01*
X126896894Y-98379149D01*
X126903252Y-98380500D01*
X127096748Y-98380500D01*
X127103106Y-98379149D01*
X127103111Y-98379148D01*
X127279656Y-98341621D01*
X127279655Y-98341621D01*
X127286017Y-98340269D01*
X127462785Y-98261567D01*
X127580122Y-98176317D01*
X127614068Y-98151654D01*
X127614069Y-98151653D01*
X127619327Y-98147833D01*
X127656113Y-98106978D01*
X127744455Y-98008864D01*
X127744456Y-98008863D01*
X127748802Y-98004036D01*
X127845550Y-97836463D01*
X127905344Y-97652437D01*
X127925570Y-97460000D01*
X127905344Y-97267563D01*
X127885962Y-97207910D01*
X127856708Y-97117879D01*
X127845550Y-97083537D01*
X127748802Y-96915964D01*
X127619327Y-96772167D01*
X127462785Y-96658433D01*
X127286017Y-96579731D01*
X127252682Y-96572645D01*
X127103111Y-96540852D01*
X127103106Y-96540851D01*
X127096748Y-96539500D01*
X126903252Y-96539500D01*
X126896894Y-96540851D01*
X126896889Y-96540852D01*
X126747318Y-96572645D01*
X126713983Y-96579731D01*
X126537215Y-96658433D01*
X126380673Y-96772167D01*
X126251198Y-96915964D01*
X126154450Y-97083537D01*
X126143292Y-97117879D01*
X126114039Y-97207910D01*
X126094656Y-97267563D01*
X126074430Y-97460000D01*
X123500326Y-97460000D01*
X125828314Y-95132012D01*
X125889637Y-95098527D01*
X125932179Y-95096754D01*
X125991939Y-95104621D01*
X125991941Y-95104621D01*
X126000000Y-95105682D01*
X126008059Y-95104621D01*
X126148703Y-95086105D01*
X126156762Y-95085044D01*
X126164269Y-95081935D01*
X126164271Y-95081934D01*
X126295333Y-95027646D01*
X126302841Y-95024536D01*
X126428282Y-94928282D01*
X126524536Y-94802841D01*
X126535839Y-94775553D01*
X126581934Y-94664271D01*
X126581935Y-94664269D01*
X126585044Y-94656762D01*
X126605682Y-94500000D01*
X126585044Y-94343238D01*
X126524536Y-94197159D01*
X126428282Y-94071718D01*
X126302841Y-93975464D01*
X126295333Y-93972354D01*
X126164271Y-93918066D01*
X126164269Y-93918065D01*
X126156762Y-93914956D01*
X126000000Y-93894318D01*
X125843238Y-93914956D01*
X125835731Y-93918065D01*
X125835729Y-93918066D01*
X125704667Y-93972354D01*
X125697159Y-93975464D01*
X125571718Y-94071718D01*
X125475464Y-94197159D01*
X125414956Y-94343238D01*
X125394318Y-94500000D01*
X125395379Y-94508059D01*
X125395379Y-94508061D01*
X125403246Y-94567821D01*
X125392480Y-94636856D01*
X125367988Y-94671686D01*
X122004205Y-98035469D01*
X121942882Y-98068954D01*
X121889036Y-98065103D01*
X121895821Y-98106978D01*
X121867935Y-98171042D01*
X121860469Y-98179205D01*
X121469260Y-98570414D01*
X121407937Y-98603899D01*
X121338245Y-98598915D01*
X121322602Y-98591809D01*
X121294685Y-98576714D01*
X121251653Y-98553447D01*
X121189393Y-98519783D01*
X121189391Y-98519782D01*
X121184055Y-98516897D01*
X121174991Y-98514091D01*
X120993046Y-98457770D01*
X120993047Y-98457770D01*
X120987254Y-98455977D01*
X120782369Y-98434443D01*
X120776336Y-98434992D01*
X120776332Y-98434992D01*
X120668517Y-98444804D01*
X120577203Y-98453114D01*
X120571390Y-98454825D01*
X120571389Y-98454825D01*
X120385392Y-98509567D01*
X120379572Y-98511280D01*
X120330788Y-98536784D01*
X120202374Y-98603917D01*
X120202370Y-98603920D01*
X120197002Y-98606726D01*
X120036447Y-98735815D01*
X119904024Y-98893630D01*
X119804776Y-99074162D01*
X119802942Y-99079944D01*
X119802941Y-99079946D01*
X119776660Y-99162795D01*
X119742484Y-99270532D01*
X119738243Y-99308346D01*
X119721054Y-99461590D01*
X119719520Y-99475262D01*
X119736759Y-99680553D01*
X119793544Y-99878586D01*
X119796316Y-99883981D01*
X119796317Y-99883982D01*
X119801965Y-99894972D01*
X119887712Y-100061818D01*
X119891480Y-100066572D01*
X119920402Y-100103062D01*
X120015677Y-100223270D01*
X120020296Y-100227201D01*
X120118841Y-100311069D01*
X120157136Y-100369509D01*
X120157757Y-100439376D01*
X120120506Y-100498488D01*
X120057211Y-100528076D01*
X120038474Y-100529500D01*
X119786188Y-100529500D01*
X119719149Y-100509815D01*
X119698507Y-100493181D01*
X119234842Y-100029516D01*
X119201357Y-99968193D01*
X119204862Y-99902695D01*
X119262438Y-99729614D01*
X119262439Y-99729611D01*
X119264351Y-99723863D01*
X119267991Y-99695054D01*
X119289736Y-99522919D01*
X119289736Y-99522915D01*
X119290171Y-99519474D01*
X119290583Y-99490000D01*
X119288547Y-99469232D01*
X119271072Y-99291006D01*
X119271072Y-99291004D01*
X119270480Y-99284970D01*
X119210935Y-99087749D01*
X119164472Y-99000364D01*
X119117065Y-98911203D01*
X119117064Y-98911201D01*
X119114218Y-98905849D01*
X118984011Y-98746200D01*
X118966864Y-98732015D01*
X118829946Y-98618746D01*
X118829945Y-98618745D01*
X118825275Y-98614882D01*
X118711653Y-98553447D01*
X118649393Y-98519783D01*
X118649391Y-98519782D01*
X118644055Y-98516897D01*
X118638266Y-98515105D01*
X118638254Y-98515100D01*
X118586915Y-98499208D01*
X118528694Y-98460580D01*
X118500601Y-98396607D01*
X118511553Y-98327601D01*
X118558074Y-98275471D01*
X118587951Y-98261984D01*
X118727329Y-98220169D01*
X118736768Y-98216470D01*
X118928168Y-98122703D01*
X118936877Y-98117512D01*
X119110402Y-97993739D01*
X119118135Y-97987203D01*
X119269103Y-97836760D01*
X119275687Y-97829024D01*
X119400050Y-97655955D01*
X119405278Y-97647254D01*
X119489336Y-97477177D01*
X119536686Y-97425799D01*
X119604297Y-97408176D01*
X119670702Y-97429904D01*
X119714819Y-97484084D01*
X119724500Y-97532118D01*
X119724500Y-97819748D01*
X119736133Y-97878231D01*
X119780448Y-97944552D01*
X119846769Y-97988867D01*
X119858745Y-97991249D01*
X119858747Y-97991250D01*
X119877326Y-97994945D01*
X119905252Y-98000500D01*
X121644748Y-98000500D01*
X121672674Y-97994945D01*
X121691253Y-97991250D01*
X121691255Y-97991249D01*
X121703231Y-97988867D01*
X121713384Y-97982083D01*
X121724670Y-97977408D01*
X121726323Y-97981400D01*
X121770576Y-97967544D01*
X121799911Y-97975592D01*
X121792840Y-97956634D01*
X121804998Y-97900743D01*
X121802408Y-97899670D01*
X121807083Y-97888384D01*
X121813867Y-97878231D01*
X121825500Y-97819748D01*
X121825500Y-96080252D01*
X121813867Y-96021769D01*
X121769552Y-95955448D01*
X121703231Y-95911133D01*
X121691255Y-95908751D01*
X121691253Y-95908750D01*
X121672674Y-95905055D01*
X121644748Y-95899500D01*
X119905252Y-95899500D01*
X119877326Y-95905055D01*
X119858747Y-95908750D01*
X119858745Y-95908751D01*
X119846769Y-95911133D01*
X119780448Y-95955448D01*
X119736133Y-96021769D01*
X119724500Y-96080252D01*
X119724500Y-96373630D01*
X119704815Y-96440669D01*
X119652011Y-96486424D01*
X119582853Y-96496368D01*
X119519297Y-96467343D01*
X119486784Y-96423075D01*
X119437940Y-96310741D01*
X119433149Y-96301805D01*
X119317378Y-96122852D01*
X119311194Y-96114822D01*
X119167751Y-95957180D01*
X119160333Y-95950263D01*
X118993076Y-95818172D01*
X118984629Y-95812560D01*
X118798037Y-95709555D01*
X118788782Y-95705396D01*
X118587890Y-95634256D01*
X118578066Y-95631660D01*
X118506555Y-95618922D01*
X118493468Y-95620358D01*
X118489000Y-95634685D01*
X118489000Y-97080000D01*
X118469315Y-97147039D01*
X118416511Y-97192794D01*
X118365000Y-97204000D01*
X116917940Y-97204000D01*
X116904623Y-97207910D01*
X116903208Y-97217748D01*
X115450500Y-97217748D01*
X115450500Y-96684366D01*
X116899338Y-96684366D01*
X116900838Y-96692660D01*
X116913025Y-96696000D01*
X117963170Y-96696000D01*
X117978169Y-96691596D01*
X117979356Y-96690226D01*
X117981000Y-96682668D01*
X117981000Y-95632817D01*
X117977143Y-95619682D01*
X117963094Y-95617727D01*
X117924235Y-95623674D01*
X117914376Y-95626022D01*
X117711785Y-95692239D01*
X117702436Y-95696169D01*
X117513389Y-95794580D01*
X117504804Y-95799987D01*
X117334368Y-95927954D01*
X117326780Y-95934691D01*
X117179532Y-96088778D01*
X117173153Y-96096655D01*
X117053050Y-96272719D01*
X117048035Y-96281547D01*
X116958301Y-96474864D01*
X116954799Y-96484382D01*
X116899338Y-96684366D01*
X115450500Y-96684366D01*
X115450500Y-93324500D01*
X115470185Y-93257461D01*
X115522989Y-93211706D01*
X115574500Y-93200500D01*
X159925500Y-93200500D01*
X159992539Y-93220185D01*
G37*
G04 #@! TD.AperFunction*
G04 #@! TA.AperFunction,Conductor*
G36*
X123880703Y-131591475D02*
G01*
X123887176Y-131597502D01*
X124249391Y-131959718D01*
X124255955Y-131966282D01*
X124263264Y-131974257D01*
X124287545Y-132003194D01*
X124320267Y-132022086D01*
X124329380Y-132027892D01*
X124351429Y-132043331D01*
X124351431Y-132043332D01*
X124360316Y-132049553D01*
X124370794Y-132052361D01*
X124374125Y-132053914D01*
X124377561Y-132055165D01*
X124386955Y-132060588D01*
X124397636Y-132062471D01*
X124397638Y-132062472D01*
X124424154Y-132067147D01*
X124434706Y-132069486D01*
X124471193Y-132079263D01*
X124508811Y-132075972D01*
X124519618Y-132075500D01*
X135329715Y-132075500D01*
X135396754Y-132095185D01*
X135442509Y-132147989D01*
X135452453Y-132217147D01*
X135444276Y-132246953D01*
X135414956Y-132317738D01*
X135394318Y-132474500D01*
X135395379Y-132482559D01*
X135395379Y-132482561D01*
X135403246Y-132542321D01*
X135392480Y-132611356D01*
X135367988Y-132646186D01*
X129375993Y-138638181D01*
X129314670Y-138671666D01*
X129288312Y-138674500D01*
X127946565Y-138674500D01*
X127879526Y-138654815D01*
X127839178Y-138612500D01*
X127752050Y-138461590D01*
X127748802Y-138455964D01*
X127619327Y-138312167D01*
X127462785Y-138198433D01*
X127286017Y-138119731D01*
X127221320Y-138105979D01*
X127103111Y-138080852D01*
X127103106Y-138080851D01*
X127096748Y-138079500D01*
X126903252Y-138079500D01*
X126896894Y-138080851D01*
X126896889Y-138080852D01*
X126778680Y-138105979D01*
X126713983Y-138119731D01*
X126708042Y-138122376D01*
X126708036Y-138122378D01*
X126699165Y-138126327D01*
X126629915Y-138135610D01*
X126566640Y-138105979D01*
X126561053Y-138100727D01*
X124920326Y-136460000D01*
X126074430Y-136460000D01*
X126094656Y-136652437D01*
X126154450Y-136836463D01*
X126251198Y-137004036D01*
X126255544Y-137008863D01*
X126255545Y-137008864D01*
X126352238Y-137116253D01*
X126380673Y-137147833D01*
X126537215Y-137261567D01*
X126713983Y-137340269D01*
X126720345Y-137341621D01*
X126720344Y-137341621D01*
X126896889Y-137379148D01*
X126896894Y-137379149D01*
X126903252Y-137380500D01*
X127096748Y-137380500D01*
X127103106Y-137379149D01*
X127103111Y-137379148D01*
X127279656Y-137341621D01*
X127279655Y-137341621D01*
X127286017Y-137340269D01*
X127462785Y-137261567D01*
X127619327Y-137147833D01*
X127647762Y-137116253D01*
X127744455Y-137008864D01*
X127744456Y-137008863D01*
X127748802Y-137004036D01*
X127845550Y-136836463D01*
X127905344Y-136652437D01*
X127925570Y-136460000D01*
X127905344Y-136267563D01*
X127901391Y-136255395D01*
X127856708Y-136117879D01*
X127845550Y-136083537D01*
X127748802Y-135915964D01*
X127619327Y-135772167D01*
X127462785Y-135658433D01*
X127286017Y-135579731D01*
X127252682Y-135572645D01*
X127103111Y-135540852D01*
X127103106Y-135540851D01*
X127096748Y-135539500D01*
X126903252Y-135539500D01*
X126896894Y-135540851D01*
X126896889Y-135540852D01*
X126747318Y-135572645D01*
X126713983Y-135579731D01*
X126537215Y-135658433D01*
X126380673Y-135772167D01*
X126251198Y-135915964D01*
X126154450Y-136083537D01*
X126143292Y-136117879D01*
X126098610Y-136255395D01*
X126094656Y-136267563D01*
X126074430Y-136460000D01*
X124920326Y-136460000D01*
X123711819Y-135251493D01*
X123678334Y-135190170D01*
X123675500Y-135163812D01*
X123675500Y-131685188D01*
X123695185Y-131618149D01*
X123747989Y-131572394D01*
X123817147Y-131562450D01*
X123880703Y-131591475D01*
G37*
G04 #@! TD.AperFunction*
G04 #@! TA.AperFunction,Conductor*
G36*
X122655851Y-121620185D02*
G01*
X122676493Y-121636819D01*
X122988181Y-121948507D01*
X123021666Y-122009830D01*
X123024500Y-122036188D01*
X123024500Y-123628415D01*
X123004815Y-123695454D01*
X122952011Y-123741209D01*
X122882853Y-123751153D01*
X122819297Y-123722128D01*
X122812819Y-123716096D01*
X121822444Y-122725722D01*
X121788959Y-122664399D01*
X121787103Y-122622500D01*
X121804736Y-122482919D01*
X121804736Y-122482915D01*
X121805171Y-122479474D01*
X121805583Y-122450000D01*
X121804672Y-122440712D01*
X121786072Y-122251006D01*
X121786072Y-122251004D01*
X121785480Y-122244970D01*
X121758970Y-122157165D01*
X121727688Y-122053555D01*
X121725935Y-122047749D01*
X121629218Y-121865849D01*
X121577855Y-121802872D01*
X121550738Y-121738479D01*
X121562740Y-121669648D01*
X121610049Y-121618232D01*
X121673948Y-121600500D01*
X122588812Y-121600500D01*
X122655851Y-121620185D01*
G37*
G04 #@! TD.AperFunction*
G04 #@! TA.AperFunction,Conductor*
G36*
X125480205Y-111705185D02*
G01*
X125500847Y-111721819D01*
X125950304Y-112171276D01*
X125957613Y-112179251D01*
X125981899Y-112208194D01*
X125991291Y-112213616D01*
X125991293Y-112213618D01*
X126014611Y-112227080D01*
X126023737Y-112232894D01*
X126054670Y-112254554D01*
X126065145Y-112257361D01*
X126068454Y-112258904D01*
X126071912Y-112260162D01*
X126081309Y-112265588D01*
X126101976Y-112269232D01*
X126118497Y-112272145D01*
X126129044Y-112274483D01*
X126165547Y-112284264D01*
X126164756Y-112287215D01*
X126213645Y-112306335D01*
X126254628Y-112362923D01*
X126258511Y-112432685D01*
X126245163Y-112466416D01*
X126157698Y-112617910D01*
X126157698Y-112617911D01*
X126154450Y-112623537D01*
X126094656Y-112807563D01*
X126074430Y-113000000D01*
X126094656Y-113192437D01*
X126096663Y-113198615D01*
X126096664Y-113198618D01*
X126133117Y-113310808D01*
X126135112Y-113380649D01*
X126102867Y-113436807D01*
X125901493Y-113638181D01*
X125840170Y-113671666D01*
X125813812Y-113674500D01*
X121767889Y-113674500D01*
X121700850Y-113654815D01*
X121680208Y-113638181D01*
X121480751Y-113438724D01*
X121473442Y-113430749D01*
X121456128Y-113410115D01*
X121449156Y-113401806D01*
X121439764Y-113396384D01*
X121439762Y-113396382D01*
X121416444Y-113382920D01*
X121407318Y-113377106D01*
X121385274Y-113361670D01*
X121385273Y-113361669D01*
X121376385Y-113355446D01*
X121375727Y-113355270D01*
X121327993Y-113313241D01*
X121308841Y-113246047D01*
X121329056Y-113179166D01*
X121356495Y-113149317D01*
X121473170Y-113058160D01*
X121473174Y-113058156D01*
X121477951Y-113054424D01*
X121481907Y-113049840D01*
X121481911Y-113049837D01*
X121608602Y-112903062D01*
X121612564Y-112898472D01*
X121633387Y-112861818D01*
X121711327Y-112724618D01*
X121714323Y-112719344D01*
X121779351Y-112523863D01*
X121784823Y-112480553D01*
X121804736Y-112322919D01*
X121804736Y-112322915D01*
X121805171Y-112319474D01*
X121805583Y-112290000D01*
X121805021Y-112284264D01*
X121796671Y-112199105D01*
X121809720Y-112130464D01*
X121832398Y-112099324D01*
X122209903Y-111721819D01*
X122271226Y-111688334D01*
X122297584Y-111685500D01*
X125413166Y-111685500D01*
X125480205Y-111705185D01*
G37*
G04 #@! TD.AperFunction*
M02*
