M48
; DRILL file {KiCad (6.0.8)} date Mon Nov 14 23:42:35 2022
; FORMAT={-:-/ absolute / metric / decimal}
; #@! TF.CreationDate,2022-11-14T23:42:35+02:00
; #@! TF.GenerationSoftware,Kicad,Pcbnew,(6.0.8)
; #@! TF.FileFunction,Plated,1,2,PTH
FMAT,2
METRIC
; #@! TA.AperFunction,Plated,PTH,ViaDrill
T1C0.400
; #@! TA.AperFunction,Plated,PTH,ComponentDrill
T2C0.800
; #@! TA.AperFunction,Plated,PTH,ComponentDrill
T3C1.000
%
G90
G05
T1
X118.5Y-127.25
X118.5Y-144.5
X118.5Y-156.5
X119.25Y-94.25
X122.25Y-122.25
X123.25Y-96.0
X124.25Y-107.5
X125.0Y-100.25
X125.25Y-112.75
X126.0Y-94.5
X126.0Y-107.5
X126.0Y-132.75
X128.0Y-120.5
X130.25Y-110.0
X130.25Y-123.25
X130.25Y-126.25
X130.25Y-136.25
X130.25Y-153.25
X131.0Y-98.0
X135.75Y-123.75
X136.0Y-132.475
X136.25Y-102.25
X136.5Y-137.5
X137.0Y-122.75
X137.25Y-156.25
X143.0Y-123.0
X144.0Y-107.0
X144.75Y-139.0
X145.0Y-155.0
X145.25Y-94.75
X145.75Y-120.0
X155.25Y-132.0
X155.5Y-106.0
X155.5Y-118.25
X156.0Y-121.0
X158.0Y-94.5
X158.0Y-157.5
T2
X127.0Y-97.46
X127.0Y-100.0
X127.0Y-102.54
X127.0Y-110.46
X127.0Y-113.0
X127.0Y-115.54
X127.0Y-123.5
X127.0Y-126.04
X127.0Y-128.58
X127.0Y-136.46
X127.0Y-139.0
X127.0Y-141.54
X127.0Y-149.46
X127.0Y-152.0
X127.0Y-154.54
T3
X118.21Y-109.75
X118.21Y-112.29
X118.21Y-114.83
X118.21Y-117.37
X118.21Y-119.91
X118.21Y-122.45
X118.235Y-96.95
X118.235Y-99.49
X118.235Y-102.03
X118.235Y-104.57
X120.75Y-109.75
X120.75Y-112.29
X120.75Y-114.83
X120.75Y-117.37
X120.75Y-119.91
X120.75Y-122.45
X120.775Y-96.95
X120.775Y-99.49
X120.775Y-102.03
X120.775Y-104.57
X148.73Y-97.25
X148.73Y-102.75
X148.73Y-110.25
X148.73Y-115.75
X148.73Y-123.25
X148.73Y-128.75
X148.73Y-136.25
X148.73Y-141.75
X148.73Y-149.25
X148.73Y-154.75
X151.27Y-97.25
X151.27Y-102.75
X151.27Y-110.25
X151.27Y-115.75
X151.27Y-123.25
X151.27Y-128.75
X151.27Y-136.25
X151.27Y-141.75
X151.27Y-149.25
X151.27Y-154.75
T0
M30
