G04 #@! TF.GenerationSoftware,KiCad,Pcbnew,(6.0.8)*
G04 #@! TF.CreationDate,2023-09-02T11:50:29+03:00*
G04 #@! TF.ProjectId,line_sensor_encoder,6c696e65-5f73-4656-9e73-6f725f656e63,rev?*
G04 #@! TF.SameCoordinates,Original*
G04 #@! TF.FileFunction,Legend,Bot*
G04 #@! TF.FilePolarity,Positive*
%FSLAX46Y46*%
G04 Gerber Fmt 4.6, Leading zero omitted, Abs format (unit mm)*
G04 Created by KiCad (PCBNEW (6.0.8)) date 2023-09-02 11:50:29*
%MOMM*%
%LPD*%
G01*
G04 APERTURE LIST*
G04 Aperture macros list*
%AMRoundRect*
0 Rectangle with rounded corners*
0 $1 Rounding radius*
0 $2 $3 $4 $5 $6 $7 $8 $9 X,Y pos of 4 corners*
0 Add a 4 corners polygon primitive as box body*
4,1,4,$2,$3,$4,$5,$6,$7,$8,$9,$2,$3,0*
0 Add four circle primitives for the rounded corners*
1,1,$1+$1,$2,$3*
1,1,$1+$1,$4,$5*
1,1,$1+$1,$6,$7*
1,1,$1+$1,$8,$9*
0 Add four rect primitives between the rounded corners*
20,1,$1+$1,$2,$3,$4,$5,0*
20,1,$1+$1,$4,$5,$6,$7,0*
20,1,$1+$1,$6,$7,$8,$9,0*
20,1,$1+$1,$8,$9,$2,$3,0*%
G04 Aperture macros list end*
%ADD10C,0.150000*%
%ADD11C,0.120000*%
%ADD12C,2.500000*%
%ADD13C,1.000000*%
%ADD14R,1.600000X1.600000*%
%ADD15C,1.600000*%
%ADD16RoundRect,0.150000X0.650000X0.150000X-0.650000X0.150000X-0.650000X-0.150000X0.650000X-0.150000X0*%
%ADD17RoundRect,0.250000X0.350000X0.450000X-0.350000X0.450000X-0.350000X-0.450000X0.350000X-0.450000X0*%
%ADD18RoundRect,0.250000X0.325000X0.450000X-0.325000X0.450000X-0.325000X-0.450000X0.325000X-0.450000X0*%
%ADD19RoundRect,0.250000X0.337500X0.475000X-0.337500X0.475000X-0.337500X-0.475000X0.337500X-0.475000X0*%
%ADD20C,1.440000*%
%ADD21C,3.200000*%
%ADD22RoundRect,0.250000X-0.350000X-0.450000X0.350000X-0.450000X0.350000X0.450000X-0.350000X0.450000X0*%
%ADD23R,1.500000X2.000000*%
%ADD24R,3.800000X2.000000*%
%ADD25R,1.700000X1.700000*%
%ADD26O,1.700000X1.700000*%
G04 APERTURE END LIST*
D10*
X134202380Y-83035714D02*
X134202380Y-82464285D01*
X134202380Y-82750000D02*
X133202380Y-82750000D01*
X133345238Y-82654761D01*
X133440476Y-82559523D01*
X133488095Y-82464285D01*
X133202380Y-71916666D02*
X133202380Y-72535714D01*
X133583333Y-72202380D01*
X133583333Y-72345238D01*
X133630952Y-72440476D01*
X133678571Y-72488095D01*
X133773809Y-72535714D01*
X134011904Y-72535714D01*
X134107142Y-72488095D01*
X134154761Y-72440476D01*
X134202380Y-72345238D01*
X134202380Y-72059523D01*
X134154761Y-71964285D01*
X134107142Y-71916666D01*
X132154761Y-95226190D02*
X132202380Y-95369047D01*
X132202380Y-95607142D01*
X132154761Y-95702380D01*
X132107142Y-95750000D01*
X132011904Y-95797619D01*
X131916666Y-95797619D01*
X131821428Y-95750000D01*
X131773809Y-95702380D01*
X131726190Y-95607142D01*
X131678571Y-95416666D01*
X131630952Y-95321428D01*
X131583333Y-95273809D01*
X131488095Y-95226190D01*
X131392857Y-95226190D01*
X131297619Y-95273809D01*
X131250000Y-95321428D01*
X131202380Y-95416666D01*
X131202380Y-95654761D01*
X131250000Y-95797619D01*
X132202380Y-96226190D02*
X131202380Y-96226190D01*
X131250000Y-97226190D02*
X131202380Y-97130952D01*
X131202380Y-96988095D01*
X131250000Y-96845238D01*
X131345238Y-96750000D01*
X131440476Y-96702380D01*
X131630952Y-96654761D01*
X131773809Y-96654761D01*
X131964285Y-96702380D01*
X132059523Y-96750000D01*
X132154761Y-96845238D01*
X132202380Y-96988095D01*
X132202380Y-97083333D01*
X132154761Y-97226190D01*
X132107142Y-97273809D01*
X131773809Y-97273809D01*
X131773809Y-97083333D01*
X133297619Y-84714285D02*
X133250000Y-84761904D01*
X133202380Y-84857142D01*
X133202380Y-85095238D01*
X133250000Y-85190476D01*
X133297619Y-85238095D01*
X133392857Y-85285714D01*
X133488095Y-85285714D01*
X133630952Y-85238095D01*
X134202380Y-84666666D01*
X134202380Y-85285714D01*
X126821428Y-66869047D02*
X126821428Y-67630952D01*
X133202380Y-74988095D02*
X133202380Y-74511904D01*
X133678571Y-74464285D01*
X133630952Y-74511904D01*
X133583333Y-74607142D01*
X133583333Y-74845238D01*
X133630952Y-74940476D01*
X133678571Y-74988095D01*
X133773809Y-75035714D01*
X134011904Y-75035714D01*
X134107142Y-74988095D01*
X134154761Y-74940476D01*
X134202380Y-74845238D01*
X134202380Y-74607142D01*
X134154761Y-74511904D01*
X134107142Y-74464285D01*
X133452380Y-67059523D02*
X133452380Y-66583333D01*
X133928571Y-66535714D01*
X133880952Y-66583333D01*
X133833333Y-66678571D01*
X133833333Y-66916666D01*
X133880952Y-67011904D01*
X133928571Y-67059523D01*
X134023809Y-67107142D01*
X134261904Y-67107142D01*
X134357142Y-67059523D01*
X134404761Y-67011904D01*
X134452380Y-66916666D01*
X134452380Y-66678571D01*
X134404761Y-66583333D01*
X134357142Y-66535714D01*
X133452380Y-67392857D02*
X134452380Y-67726190D01*
X133452380Y-68059523D01*
X133202380Y-92988095D02*
X133202380Y-92511904D01*
X133678571Y-92464285D01*
X133630952Y-92511904D01*
X133583333Y-92607142D01*
X133583333Y-92845238D01*
X133630952Y-92940476D01*
X133678571Y-92988095D01*
X133773809Y-93035714D01*
X134011904Y-93035714D01*
X134107142Y-92988095D01*
X134154761Y-92940476D01*
X134202380Y-92845238D01*
X134202380Y-92607142D01*
X134154761Y-92511904D01*
X134107142Y-92464285D01*
X126785714Y-72690476D02*
X127452380Y-72690476D01*
X126404761Y-72452380D02*
X127119047Y-72214285D01*
X127119047Y-72833333D01*
X126571428Y-79619047D02*
X126571428Y-80380952D01*
X127678571Y-118309523D02*
X127678571Y-118642857D01*
X128202380Y-118785714D02*
X128202380Y-118309523D01*
X127202380Y-118309523D01*
X127202380Y-118785714D01*
X127535714Y-119214285D02*
X128202380Y-119214285D01*
X127630952Y-119214285D02*
X127583333Y-119261904D01*
X127535714Y-119357142D01*
X127535714Y-119500000D01*
X127583333Y-119595238D01*
X127678571Y-119642857D01*
X128202380Y-119642857D01*
X128154761Y-120547619D02*
X128202380Y-120452380D01*
X128202380Y-120261904D01*
X128154761Y-120166666D01*
X128107142Y-120119047D01*
X128011904Y-120071428D01*
X127726190Y-120071428D01*
X127630952Y-120119047D01*
X127583333Y-120166666D01*
X127535714Y-120261904D01*
X127535714Y-120452380D01*
X127583333Y-120547619D01*
X128202380Y-121119047D02*
X128154761Y-121023809D01*
X128107142Y-120976190D01*
X128011904Y-120928571D01*
X127726190Y-120928571D01*
X127630952Y-120976190D01*
X127583333Y-121023809D01*
X127535714Y-121119047D01*
X127535714Y-121261904D01*
X127583333Y-121357142D01*
X127630952Y-121404761D01*
X127726190Y-121452380D01*
X128011904Y-121452380D01*
X128107142Y-121404761D01*
X128154761Y-121357142D01*
X128202380Y-121261904D01*
X128202380Y-121119047D01*
X128202380Y-122309523D02*
X127202380Y-122309523D01*
X128154761Y-122309523D02*
X128202380Y-122214285D01*
X128202380Y-122023809D01*
X128154761Y-121928571D01*
X128107142Y-121880952D01*
X128011904Y-121833333D01*
X127726190Y-121833333D01*
X127630952Y-121880952D01*
X127583333Y-121928571D01*
X127535714Y-122023809D01*
X127535714Y-122214285D01*
X127583333Y-122309523D01*
X128154761Y-123166666D02*
X128202380Y-123071428D01*
X128202380Y-122880952D01*
X128154761Y-122785714D01*
X128059523Y-122738095D01*
X127678571Y-122738095D01*
X127583333Y-122785714D01*
X127535714Y-122880952D01*
X127535714Y-123071428D01*
X127583333Y-123166666D01*
X127678571Y-123214285D01*
X127773809Y-123214285D01*
X127869047Y-122738095D01*
X128202380Y-123642857D02*
X127535714Y-123642857D01*
X127726190Y-123642857D02*
X127630952Y-123690476D01*
X127583333Y-123738095D01*
X127535714Y-123833333D01*
X127535714Y-123928571D01*
X127535714Y-124928571D02*
X128202380Y-125166666D01*
X127535714Y-125404761D01*
X128202380Y-126309523D02*
X128202380Y-125738095D01*
X128202380Y-126023809D02*
X127202380Y-126023809D01*
X127345238Y-125928571D01*
X127440476Y-125833333D01*
X127488095Y-125738095D01*
X128107142Y-126738095D02*
X128154761Y-126785714D01*
X128202380Y-126738095D01*
X128154761Y-126690476D01*
X128107142Y-126738095D01*
X128202380Y-126738095D01*
X128202380Y-127738095D02*
X128202380Y-127166666D01*
X128202380Y-127452380D02*
X127202380Y-127452380D01*
X127345238Y-127357142D01*
X127440476Y-127261904D01*
X127488095Y-127166666D01*
X126547619Y-69714285D02*
X126500000Y-69761904D01*
X126452380Y-69857142D01*
X126452380Y-70095238D01*
X126500000Y-70190476D01*
X126547619Y-70238095D01*
X126642857Y-70285714D01*
X126738095Y-70285714D01*
X126880952Y-70238095D01*
X127452380Y-69666666D01*
X127452380Y-70285714D01*
X133821428Y-79619047D02*
X133821428Y-80380952D01*
X134202380Y-80000000D02*
X133440476Y-80000000D01*
X133535714Y-90190476D02*
X134202380Y-90190476D01*
X133154761Y-89952380D02*
X133869047Y-89714285D01*
X133869047Y-90333333D01*
X133202380Y-87166666D02*
X133202380Y-87785714D01*
X133583333Y-87452380D01*
X133583333Y-87595238D01*
X133630952Y-87690476D01*
X133678571Y-87738095D01*
X133773809Y-87785714D01*
X134011904Y-87785714D01*
X134107142Y-87738095D01*
X134154761Y-87690476D01*
X134202380Y-87595238D01*
X134202380Y-87309523D01*
X134154761Y-87214285D01*
X134107142Y-87166666D01*
X134202380Y-70035714D02*
X134202380Y-69464285D01*
X134202380Y-69750000D02*
X133202380Y-69750000D01*
X133345238Y-69654761D01*
X133440476Y-69559523D01*
X133488095Y-69464285D01*
X129452380Y-95678571D02*
X128976190Y-95345238D01*
X129452380Y-95107142D02*
X128452380Y-95107142D01*
X128452380Y-95488095D01*
X128500000Y-95583333D01*
X128547619Y-95630952D01*
X128642857Y-95678571D01*
X128785714Y-95678571D01*
X128880952Y-95630952D01*
X128928571Y-95583333D01*
X128976190Y-95488095D01*
X128976190Y-95107142D01*
X128928571Y-96107142D02*
X128928571Y-96440476D01*
X129452380Y-96583333D02*
X129452380Y-96107142D01*
X128452380Y-96107142D01*
X128452380Y-96583333D01*
X128928571Y-97345238D02*
X128928571Y-97011904D01*
X129452380Y-97011904D02*
X128452380Y-97011904D01*
X128452380Y-97488095D01*
X152261904Y-109952380D02*
X152261904Y-110761904D01*
X152214285Y-110857142D01*
X152166666Y-110904761D01*
X152071428Y-110952380D01*
X151880952Y-110952380D01*
X151785714Y-110904761D01*
X151738095Y-110857142D01*
X151690476Y-110761904D01*
X151690476Y-109952380D01*
X151071428Y-110380952D02*
X151166666Y-110333333D01*
X151214285Y-110285714D01*
X151261904Y-110190476D01*
X151261904Y-110142857D01*
X151214285Y-110047619D01*
X151166666Y-110000000D01*
X151071428Y-109952380D01*
X150880952Y-109952380D01*
X150785714Y-110000000D01*
X150738095Y-110047619D01*
X150690476Y-110142857D01*
X150690476Y-110190476D01*
X150738095Y-110285714D01*
X150785714Y-110333333D01*
X150880952Y-110380952D01*
X151071428Y-110380952D01*
X151166666Y-110428571D01*
X151214285Y-110476190D01*
X151261904Y-110571428D01*
X151261904Y-110761904D01*
X151214285Y-110857142D01*
X151166666Y-110904761D01*
X151071428Y-110952380D01*
X150880952Y-110952380D01*
X150785714Y-110904761D01*
X150738095Y-110857142D01*
X150690476Y-110761904D01*
X150690476Y-110571428D01*
X150738095Y-110476190D01*
X150785714Y-110428571D01*
X150880952Y-110380952D01*
X167892857Y-92302380D02*
X168226190Y-91826190D01*
X168464285Y-92302380D02*
X168464285Y-91302380D01*
X168083333Y-91302380D01*
X167988095Y-91350000D01*
X167940476Y-91397619D01*
X167892857Y-91492857D01*
X167892857Y-91635714D01*
X167940476Y-91730952D01*
X167988095Y-91778571D01*
X168083333Y-91826190D01*
X168464285Y-91826190D01*
X166940476Y-92302380D02*
X167511904Y-92302380D01*
X167226190Y-92302380D02*
X167226190Y-91302380D01*
X167321428Y-91445238D01*
X167416666Y-91540476D01*
X167511904Y-91588095D01*
X165988095Y-92302380D02*
X166559523Y-92302380D01*
X166273809Y-92302380D02*
X166273809Y-91302380D01*
X166369047Y-91445238D01*
X166464285Y-91540476D01*
X166559523Y-91588095D01*
X167892857Y-118302380D02*
X168226190Y-117826190D01*
X168464285Y-118302380D02*
X168464285Y-117302380D01*
X168083333Y-117302380D01*
X167988095Y-117350000D01*
X167940476Y-117397619D01*
X167892857Y-117492857D01*
X167892857Y-117635714D01*
X167940476Y-117730952D01*
X167988095Y-117778571D01*
X168083333Y-117826190D01*
X168464285Y-117826190D01*
X166940476Y-118302380D02*
X167511904Y-118302380D01*
X167226190Y-118302380D02*
X167226190Y-117302380D01*
X167321428Y-117445238D01*
X167416666Y-117540476D01*
X167511904Y-117588095D01*
X166369047Y-117730952D02*
X166464285Y-117683333D01*
X166511904Y-117635714D01*
X166559523Y-117540476D01*
X166559523Y-117492857D01*
X166511904Y-117397619D01*
X166464285Y-117350000D01*
X166369047Y-117302380D01*
X166178571Y-117302380D01*
X166083333Y-117350000D01*
X166035714Y-117397619D01*
X165988095Y-117492857D01*
X165988095Y-117540476D01*
X166035714Y-117635714D01*
X166083333Y-117683333D01*
X166178571Y-117730952D01*
X166369047Y-117730952D01*
X166464285Y-117778571D01*
X166511904Y-117826190D01*
X166559523Y-117921428D01*
X166559523Y-118111904D01*
X166511904Y-118207142D01*
X166464285Y-118254761D01*
X166369047Y-118302380D01*
X166178571Y-118302380D01*
X166083333Y-118254761D01*
X166035714Y-118207142D01*
X165988095Y-118111904D01*
X165988095Y-117921428D01*
X166035714Y-117826190D01*
X166083333Y-117778571D01*
X166178571Y-117730952D01*
X144142857Y-117802380D02*
X144476190Y-117326190D01*
X144714285Y-117802380D02*
X144714285Y-116802380D01*
X144333333Y-116802380D01*
X144238095Y-116850000D01*
X144190476Y-116897619D01*
X144142857Y-116992857D01*
X144142857Y-117135714D01*
X144190476Y-117230952D01*
X144238095Y-117278571D01*
X144333333Y-117326190D01*
X144714285Y-117326190D01*
X143761904Y-116897619D02*
X143714285Y-116850000D01*
X143619047Y-116802380D01*
X143380952Y-116802380D01*
X143285714Y-116850000D01*
X143238095Y-116897619D01*
X143190476Y-116992857D01*
X143190476Y-117088095D01*
X143238095Y-117230952D01*
X143809523Y-117802380D01*
X143190476Y-117802380D01*
X142571428Y-116802380D02*
X142476190Y-116802380D01*
X142380952Y-116850000D01*
X142333333Y-116897619D01*
X142285714Y-116992857D01*
X142238095Y-117183333D01*
X142238095Y-117421428D01*
X142285714Y-117611904D01*
X142333333Y-117707142D01*
X142380952Y-117754761D01*
X142476190Y-117802380D01*
X142571428Y-117802380D01*
X142666666Y-117754761D01*
X142714285Y-117707142D01*
X142761904Y-117611904D01*
X142809523Y-117421428D01*
X142809523Y-117183333D01*
X142761904Y-116992857D01*
X142714285Y-116897619D01*
X142666666Y-116850000D01*
X142571428Y-116802380D01*
X167416666Y-79302380D02*
X167750000Y-78826190D01*
X167988095Y-79302380D02*
X167988095Y-78302380D01*
X167607142Y-78302380D01*
X167511904Y-78350000D01*
X167464285Y-78397619D01*
X167416666Y-78492857D01*
X167416666Y-78635714D01*
X167464285Y-78730952D01*
X167511904Y-78778571D01*
X167607142Y-78826190D01*
X167988095Y-78826190D01*
X166559523Y-78635714D02*
X166559523Y-79302380D01*
X166797619Y-78254761D02*
X167035714Y-78969047D01*
X166416666Y-78969047D01*
X144238095Y-95052380D02*
X144238095Y-94052380D01*
X144000000Y-94052380D01*
X143857142Y-94100000D01*
X143761904Y-94195238D01*
X143714285Y-94290476D01*
X143666666Y-94480952D01*
X143666666Y-94623809D01*
X143714285Y-94814285D01*
X143761904Y-94909523D01*
X143857142Y-95004761D01*
X144000000Y-95052380D01*
X144238095Y-95052380D01*
X143333333Y-94052380D02*
X142714285Y-94052380D01*
X143047619Y-94433333D01*
X142904761Y-94433333D01*
X142809523Y-94480952D01*
X142761904Y-94528571D01*
X142714285Y-94623809D01*
X142714285Y-94861904D01*
X142761904Y-94957142D01*
X142809523Y-95004761D01*
X142904761Y-95052380D01*
X143190476Y-95052380D01*
X143285714Y-95004761D01*
X143333333Y-94957142D01*
X150916666Y-91427142D02*
X150964285Y-91474761D01*
X151107142Y-91522380D01*
X151202380Y-91522380D01*
X151345238Y-91474761D01*
X151440476Y-91379523D01*
X151488095Y-91284285D01*
X151535714Y-91093809D01*
X151535714Y-90950952D01*
X151488095Y-90760476D01*
X151440476Y-90665238D01*
X151345238Y-90570000D01*
X151202380Y-90522380D01*
X151107142Y-90522380D01*
X150964285Y-90570000D01*
X150916666Y-90617619D01*
X150535714Y-90617619D02*
X150488095Y-90570000D01*
X150392857Y-90522380D01*
X150154761Y-90522380D01*
X150059523Y-90570000D01*
X150011904Y-90617619D01*
X149964285Y-90712857D01*
X149964285Y-90808095D01*
X150011904Y-90950952D01*
X150583333Y-91522380D01*
X149964285Y-91522380D01*
X138345238Y-103952380D02*
X138678571Y-103476190D01*
X138916666Y-103952380D02*
X138916666Y-102952380D01*
X138535714Y-102952380D01*
X138440476Y-103000000D01*
X138392857Y-103047619D01*
X138345238Y-103142857D01*
X138345238Y-103285714D01*
X138392857Y-103380952D01*
X138440476Y-103428571D01*
X138535714Y-103476190D01*
X138916666Y-103476190D01*
X138059523Y-102952380D02*
X137726190Y-103952380D01*
X137392857Y-102952380D01*
X136630952Y-103285714D02*
X136630952Y-103952380D01*
X136869047Y-102904761D02*
X137107142Y-103619047D01*
X136488095Y-103619047D01*
X150916666Y-107427142D02*
X150964285Y-107474761D01*
X151107142Y-107522380D01*
X151202380Y-107522380D01*
X151345238Y-107474761D01*
X151440476Y-107379523D01*
X151488095Y-107284285D01*
X151535714Y-107093809D01*
X151535714Y-106950952D01*
X151488095Y-106760476D01*
X151440476Y-106665238D01*
X151345238Y-106570000D01*
X151202380Y-106522380D01*
X151107142Y-106522380D01*
X150964285Y-106570000D01*
X150916666Y-106617619D01*
X150583333Y-106522380D02*
X149964285Y-106522380D01*
X150297619Y-106903333D01*
X150154761Y-106903333D01*
X150059523Y-106950952D01*
X150011904Y-106998571D01*
X149964285Y-107093809D01*
X149964285Y-107331904D01*
X150011904Y-107427142D01*
X150059523Y-107474761D01*
X150154761Y-107522380D01*
X150440476Y-107522380D01*
X150535714Y-107474761D01*
X150583333Y-107427142D01*
X151761904Y-79642380D02*
X151761904Y-80451904D01*
X151714285Y-80547142D01*
X151666666Y-80594761D01*
X151571428Y-80642380D01*
X151380952Y-80642380D01*
X151285714Y-80594761D01*
X151238095Y-80547142D01*
X151190476Y-80451904D01*
X151190476Y-79642380D01*
X150761904Y-79737619D02*
X150714285Y-79690000D01*
X150619047Y-79642380D01*
X150380952Y-79642380D01*
X150285714Y-79690000D01*
X150238095Y-79737619D01*
X150190476Y-79832857D01*
X150190476Y-79928095D01*
X150238095Y-80070952D01*
X150809523Y-80642380D01*
X150190476Y-80642380D01*
X143666666Y-65552380D02*
X144000000Y-65076190D01*
X144238095Y-65552380D02*
X144238095Y-64552380D01*
X143857142Y-64552380D01*
X143761904Y-64600000D01*
X143714285Y-64647619D01*
X143666666Y-64742857D01*
X143666666Y-64885714D01*
X143714285Y-64980952D01*
X143761904Y-65028571D01*
X143857142Y-65076190D01*
X144238095Y-65076190D01*
X142809523Y-64552380D02*
X143000000Y-64552380D01*
X143095238Y-64600000D01*
X143142857Y-64647619D01*
X143238095Y-64790476D01*
X143285714Y-64980952D01*
X143285714Y-65361904D01*
X143238095Y-65457142D01*
X143190476Y-65504761D01*
X143095238Y-65552380D01*
X142904761Y-65552380D01*
X142809523Y-65504761D01*
X142761904Y-65457142D01*
X142714285Y-65361904D01*
X142714285Y-65123809D01*
X142761904Y-65028571D01*
X142809523Y-64980952D01*
X142904761Y-64933333D01*
X143095238Y-64933333D01*
X143190476Y-64980952D01*
X143238095Y-65028571D01*
X143285714Y-65123809D01*
X144142857Y-104302380D02*
X144476190Y-103826190D01*
X144714285Y-104302380D02*
X144714285Y-103302380D01*
X144333333Y-103302380D01*
X144238095Y-103350000D01*
X144190476Y-103397619D01*
X144142857Y-103492857D01*
X144142857Y-103635714D01*
X144190476Y-103730952D01*
X144238095Y-103778571D01*
X144333333Y-103826190D01*
X144714285Y-103826190D01*
X143190476Y-104302380D02*
X143761904Y-104302380D01*
X143476190Y-104302380D02*
X143476190Y-103302380D01*
X143571428Y-103445238D01*
X143666666Y-103540476D01*
X143761904Y-103588095D01*
X142333333Y-103302380D02*
X142523809Y-103302380D01*
X142619047Y-103350000D01*
X142666666Y-103397619D01*
X142761904Y-103540476D01*
X142809523Y-103730952D01*
X142809523Y-104111904D01*
X142761904Y-104207142D01*
X142714285Y-104254761D01*
X142619047Y-104302380D01*
X142428571Y-104302380D01*
X142333333Y-104254761D01*
X142285714Y-104207142D01*
X142238095Y-104111904D01*
X142238095Y-103873809D01*
X142285714Y-103778571D01*
X142333333Y-103730952D01*
X142428571Y-103683333D01*
X142619047Y-103683333D01*
X142714285Y-103730952D01*
X142761904Y-103778571D01*
X142809523Y-103873809D01*
X130954166Y-103927142D02*
X131001785Y-103974761D01*
X131144642Y-104022380D01*
X131239880Y-104022380D01*
X131382738Y-103974761D01*
X131477976Y-103879523D01*
X131525595Y-103784285D01*
X131573214Y-103593809D01*
X131573214Y-103450952D01*
X131525595Y-103260476D01*
X131477976Y-103165238D01*
X131382738Y-103070000D01*
X131239880Y-103022380D01*
X131144642Y-103022380D01*
X131001785Y-103070000D01*
X130954166Y-103117619D01*
X130097023Y-103355714D02*
X130097023Y-104022380D01*
X130335119Y-102974761D02*
X130573214Y-103689047D01*
X129954166Y-103689047D01*
X138345238Y-90952380D02*
X138678571Y-90476190D01*
X138916666Y-90952380D02*
X138916666Y-89952380D01*
X138535714Y-89952380D01*
X138440476Y-90000000D01*
X138392857Y-90047619D01*
X138345238Y-90142857D01*
X138345238Y-90285714D01*
X138392857Y-90380952D01*
X138440476Y-90428571D01*
X138535714Y-90476190D01*
X138916666Y-90476190D01*
X138059523Y-89952380D02*
X137726190Y-90952380D01*
X137392857Y-89952380D01*
X137154761Y-89952380D02*
X136535714Y-89952380D01*
X136869047Y-90333333D01*
X136726190Y-90333333D01*
X136630952Y-90380952D01*
X136583333Y-90428571D01*
X136535714Y-90523809D01*
X136535714Y-90761904D01*
X136583333Y-90857142D01*
X136630952Y-90904761D01*
X136726190Y-90952380D01*
X137011904Y-90952380D01*
X137107142Y-90904761D01*
X137154761Y-90857142D01*
X130879166Y-118677142D02*
X130926785Y-118724761D01*
X131069642Y-118772380D01*
X131164880Y-118772380D01*
X131307738Y-118724761D01*
X131402976Y-118629523D01*
X131450595Y-118534285D01*
X131498214Y-118343809D01*
X131498214Y-118200952D01*
X131450595Y-118010476D01*
X131402976Y-117915238D01*
X131307738Y-117820000D01*
X131164880Y-117772380D01*
X131069642Y-117772380D01*
X130926785Y-117820000D01*
X130879166Y-117867619D01*
X129974404Y-117772380D02*
X130450595Y-117772380D01*
X130498214Y-118248571D01*
X130450595Y-118200952D01*
X130355357Y-118153333D01*
X130117261Y-118153333D01*
X130022023Y-118200952D01*
X129974404Y-118248571D01*
X129926785Y-118343809D01*
X129926785Y-118581904D01*
X129974404Y-118677142D01*
X130022023Y-118724761D01*
X130117261Y-118772380D01*
X130355357Y-118772380D01*
X130450595Y-118724761D01*
X130498214Y-118677142D01*
X138345238Y-64952380D02*
X138678571Y-64476190D01*
X138916666Y-64952380D02*
X138916666Y-63952380D01*
X138535714Y-63952380D01*
X138440476Y-64000000D01*
X138392857Y-64047619D01*
X138345238Y-64142857D01*
X138345238Y-64285714D01*
X138392857Y-64380952D01*
X138440476Y-64428571D01*
X138535714Y-64476190D01*
X138916666Y-64476190D01*
X138059523Y-63952380D02*
X137726190Y-64952380D01*
X137392857Y-63952380D01*
X136535714Y-64952380D02*
X137107142Y-64952380D01*
X136821428Y-64952380D02*
X136821428Y-63952380D01*
X136916666Y-64095238D01*
X137011904Y-64190476D01*
X137107142Y-64238095D01*
X144238095Y-69202380D02*
X144238095Y-68202380D01*
X144000000Y-68202380D01*
X143857142Y-68250000D01*
X143761904Y-68345238D01*
X143714285Y-68440476D01*
X143666666Y-68630952D01*
X143666666Y-68773809D01*
X143714285Y-68964285D01*
X143761904Y-69059523D01*
X143857142Y-69154761D01*
X144000000Y-69202380D01*
X144238095Y-69202380D01*
X142714285Y-69202380D02*
X143285714Y-69202380D01*
X143000000Y-69202380D02*
X143000000Y-68202380D01*
X143095238Y-68345238D01*
X143190476Y-68440476D01*
X143285714Y-68488095D01*
X167892857Y-123802380D02*
X168226190Y-123326190D01*
X168464285Y-123802380D02*
X168464285Y-122802380D01*
X168083333Y-122802380D01*
X167988095Y-122850000D01*
X167940476Y-122897619D01*
X167892857Y-122992857D01*
X167892857Y-123135714D01*
X167940476Y-123230952D01*
X167988095Y-123278571D01*
X168083333Y-123326190D01*
X168464285Y-123326190D01*
X166940476Y-123802380D02*
X167511904Y-123802380D01*
X167226190Y-123802380D02*
X167226190Y-122802380D01*
X167321428Y-122945238D01*
X167416666Y-123040476D01*
X167511904Y-123088095D01*
X166607142Y-122802380D02*
X165940476Y-122802380D01*
X166369047Y-123802380D01*
X167892857Y-110802380D02*
X168226190Y-110326190D01*
X168464285Y-110802380D02*
X168464285Y-109802380D01*
X168083333Y-109802380D01*
X167988095Y-109850000D01*
X167940476Y-109897619D01*
X167892857Y-109992857D01*
X167892857Y-110135714D01*
X167940476Y-110230952D01*
X167988095Y-110278571D01*
X168083333Y-110326190D01*
X168464285Y-110326190D01*
X166940476Y-110802380D02*
X167511904Y-110802380D01*
X167226190Y-110802380D02*
X167226190Y-109802380D01*
X167321428Y-109945238D01*
X167416666Y-110040476D01*
X167511904Y-110088095D01*
X166321428Y-109802380D02*
X166226190Y-109802380D01*
X166130952Y-109850000D01*
X166083333Y-109897619D01*
X166035714Y-109992857D01*
X165988095Y-110183333D01*
X165988095Y-110421428D01*
X166035714Y-110611904D01*
X166083333Y-110707142D01*
X166130952Y-110754761D01*
X166226190Y-110802380D01*
X166321428Y-110802380D01*
X166416666Y-110754761D01*
X166464285Y-110707142D01*
X166511904Y-110611904D01*
X166559523Y-110421428D01*
X166559523Y-110183333D01*
X166511904Y-109992857D01*
X166464285Y-109897619D01*
X166416666Y-109850000D01*
X166321428Y-109802380D01*
X167416666Y-84802380D02*
X167750000Y-84326190D01*
X167988095Y-84802380D02*
X167988095Y-83802380D01*
X167607142Y-83802380D01*
X167511904Y-83850000D01*
X167464285Y-83897619D01*
X167416666Y-83992857D01*
X167416666Y-84135714D01*
X167464285Y-84230952D01*
X167511904Y-84278571D01*
X167607142Y-84326190D01*
X167988095Y-84326190D01*
X167035714Y-83897619D02*
X166988095Y-83850000D01*
X166892857Y-83802380D01*
X166654761Y-83802380D01*
X166559523Y-83850000D01*
X166511904Y-83897619D01*
X166464285Y-83992857D01*
X166464285Y-84088095D01*
X166511904Y-84230952D01*
X167083333Y-84802380D01*
X166464285Y-84802380D01*
X144142857Y-91802380D02*
X144476190Y-91326190D01*
X144714285Y-91802380D02*
X144714285Y-90802380D01*
X144333333Y-90802380D01*
X144238095Y-90850000D01*
X144190476Y-90897619D01*
X144142857Y-90992857D01*
X144142857Y-91135714D01*
X144190476Y-91230952D01*
X144238095Y-91278571D01*
X144333333Y-91326190D01*
X144714285Y-91326190D01*
X143190476Y-91802380D02*
X143761904Y-91802380D01*
X143476190Y-91802380D02*
X143476190Y-90802380D01*
X143571428Y-90945238D01*
X143666666Y-91040476D01*
X143761904Y-91088095D01*
X142285714Y-90802380D02*
X142761904Y-90802380D01*
X142809523Y-91278571D01*
X142761904Y-91230952D01*
X142666666Y-91183333D01*
X142428571Y-91183333D01*
X142333333Y-91230952D01*
X142285714Y-91278571D01*
X142238095Y-91373809D01*
X142238095Y-91611904D01*
X142285714Y-91707142D01*
X142333333Y-91754761D01*
X142428571Y-91802380D01*
X142666666Y-91802380D01*
X142761904Y-91754761D01*
X142809523Y-91707142D01*
X144142857Y-98452380D02*
X144476190Y-97976190D01*
X144714285Y-98452380D02*
X144714285Y-97452380D01*
X144333333Y-97452380D01*
X144238095Y-97500000D01*
X144190476Y-97547619D01*
X144142857Y-97642857D01*
X144142857Y-97785714D01*
X144190476Y-97880952D01*
X144238095Y-97928571D01*
X144333333Y-97976190D01*
X144714285Y-97976190D01*
X143190476Y-98452380D02*
X143761904Y-98452380D01*
X143476190Y-98452380D02*
X143476190Y-97452380D01*
X143571428Y-97595238D01*
X143666666Y-97690476D01*
X143761904Y-97738095D01*
X142857142Y-97452380D02*
X142238095Y-97452380D01*
X142571428Y-97833333D01*
X142428571Y-97833333D01*
X142333333Y-97880952D01*
X142285714Y-97928571D01*
X142238095Y-98023809D01*
X142238095Y-98261904D01*
X142285714Y-98357142D01*
X142333333Y-98404761D01*
X142428571Y-98452380D01*
X142714285Y-98452380D01*
X142809523Y-98404761D01*
X142857142Y-98357142D01*
X138095238Y-77952380D02*
X138428571Y-77476190D01*
X138666666Y-77952380D02*
X138666666Y-76952380D01*
X138285714Y-76952380D01*
X138190476Y-77000000D01*
X138142857Y-77047619D01*
X138095238Y-77142857D01*
X138095238Y-77285714D01*
X138142857Y-77380952D01*
X138190476Y-77428571D01*
X138285714Y-77476190D01*
X138666666Y-77476190D01*
X137809523Y-76952380D02*
X137476190Y-77952380D01*
X137142857Y-76952380D01*
X136857142Y-77047619D02*
X136809523Y-77000000D01*
X136714285Y-76952380D01*
X136476190Y-76952380D01*
X136380952Y-77000000D01*
X136333333Y-77047619D01*
X136285714Y-77142857D01*
X136285714Y-77238095D01*
X136333333Y-77380952D01*
X136904761Y-77952380D01*
X136285714Y-77952380D01*
X144238095Y-108052380D02*
X144238095Y-107052380D01*
X144000000Y-107052380D01*
X143857142Y-107100000D01*
X143761904Y-107195238D01*
X143714285Y-107290476D01*
X143666666Y-107480952D01*
X143666666Y-107623809D01*
X143714285Y-107814285D01*
X143761904Y-107909523D01*
X143857142Y-108004761D01*
X144000000Y-108052380D01*
X144238095Y-108052380D01*
X142809523Y-107385714D02*
X142809523Y-108052380D01*
X143047619Y-107004761D02*
X143285714Y-107719047D01*
X142666666Y-107719047D01*
X127202380Y-113988095D02*
X128011904Y-113988095D01*
X128107142Y-114035714D01*
X128154761Y-114083333D01*
X128202380Y-114178571D01*
X128202380Y-114369047D01*
X128154761Y-114464285D01*
X128107142Y-114511904D01*
X128011904Y-114559523D01*
X127202380Y-114559523D01*
X128202380Y-115083333D02*
X128202380Y-115273809D01*
X128154761Y-115369047D01*
X128107142Y-115416666D01*
X127964285Y-115511904D01*
X127773809Y-115559523D01*
X127392857Y-115559523D01*
X127297619Y-115511904D01*
X127250000Y-115464285D01*
X127202380Y-115369047D01*
X127202380Y-115178571D01*
X127250000Y-115083333D01*
X127297619Y-115035714D01*
X127392857Y-114988095D01*
X127630952Y-114988095D01*
X127726190Y-115035714D01*
X127773809Y-115083333D01*
X127821428Y-115178571D01*
X127821428Y-115369047D01*
X127773809Y-115464285D01*
X127726190Y-115511904D01*
X127630952Y-115559523D01*
X152261904Y-93892380D02*
X152261904Y-94701904D01*
X152214285Y-94797142D01*
X152166666Y-94844761D01*
X152071428Y-94892380D01*
X151880952Y-94892380D01*
X151785714Y-94844761D01*
X151738095Y-94797142D01*
X151690476Y-94701904D01*
X151690476Y-93892380D01*
X150785714Y-93892380D02*
X150976190Y-93892380D01*
X151071428Y-93940000D01*
X151119047Y-93987619D01*
X151214285Y-94130476D01*
X151261904Y-94320952D01*
X151261904Y-94701904D01*
X151214285Y-94797142D01*
X151166666Y-94844761D01*
X151071428Y-94892380D01*
X150880952Y-94892380D01*
X150785714Y-94844761D01*
X150738095Y-94797142D01*
X150690476Y-94701904D01*
X150690476Y-94463809D01*
X150738095Y-94368571D01*
X150785714Y-94320952D01*
X150880952Y-94273333D01*
X151071428Y-94273333D01*
X151166666Y-94320952D01*
X151214285Y-94368571D01*
X151261904Y-94463809D01*
X143666666Y-78302380D02*
X144000000Y-77826190D01*
X144238095Y-78302380D02*
X144238095Y-77302380D01*
X143857142Y-77302380D01*
X143761904Y-77350000D01*
X143714285Y-77397619D01*
X143666666Y-77492857D01*
X143666666Y-77635714D01*
X143714285Y-77730952D01*
X143761904Y-77778571D01*
X143857142Y-77826190D01*
X144238095Y-77826190D01*
X143095238Y-77730952D02*
X143190476Y-77683333D01*
X143238095Y-77635714D01*
X143285714Y-77540476D01*
X143285714Y-77492857D01*
X143238095Y-77397619D01*
X143190476Y-77350000D01*
X143095238Y-77302380D01*
X142904761Y-77302380D01*
X142809523Y-77350000D01*
X142761904Y-77397619D01*
X142714285Y-77492857D01*
X142714285Y-77540476D01*
X142761904Y-77635714D01*
X142809523Y-77683333D01*
X142904761Y-77730952D01*
X143095238Y-77730952D01*
X143190476Y-77778571D01*
X143238095Y-77826190D01*
X143285714Y-77921428D01*
X143285714Y-78111904D01*
X143238095Y-78207142D01*
X143190476Y-78254761D01*
X143095238Y-78302380D01*
X142904761Y-78302380D01*
X142809523Y-78254761D01*
X142761904Y-78207142D01*
X142714285Y-78111904D01*
X142714285Y-77921428D01*
X142761904Y-77826190D01*
X142809523Y-77778571D01*
X142904761Y-77730952D01*
X128333333Y-64202380D02*
X128333333Y-64916666D01*
X128380952Y-65059523D01*
X128476190Y-65154761D01*
X128619047Y-65202380D01*
X128714285Y-65202380D01*
X127333333Y-65202380D02*
X127904761Y-65202380D01*
X127619047Y-65202380D02*
X127619047Y-64202380D01*
X127714285Y-64345238D01*
X127809523Y-64440476D01*
X127904761Y-64488095D01*
X150416666Y-76927142D02*
X150464285Y-76974761D01*
X150607142Y-77022380D01*
X150702380Y-77022380D01*
X150845238Y-76974761D01*
X150940476Y-76879523D01*
X150988095Y-76784285D01*
X151035714Y-76593809D01*
X151035714Y-76450952D01*
X150988095Y-76260476D01*
X150940476Y-76165238D01*
X150845238Y-76070000D01*
X150702380Y-76022380D01*
X150607142Y-76022380D01*
X150464285Y-76070000D01*
X150416666Y-76117619D01*
X149464285Y-77022380D02*
X150035714Y-77022380D01*
X149750000Y-77022380D02*
X149750000Y-76022380D01*
X149845238Y-76165238D01*
X149940476Y-76260476D01*
X150035714Y-76308095D01*
X143666666Y-84952380D02*
X144000000Y-84476190D01*
X144238095Y-84952380D02*
X144238095Y-83952380D01*
X143857142Y-83952380D01*
X143761904Y-84000000D01*
X143714285Y-84047619D01*
X143666666Y-84142857D01*
X143666666Y-84285714D01*
X143714285Y-84380952D01*
X143761904Y-84428571D01*
X143857142Y-84476190D01*
X144238095Y-84476190D01*
X143333333Y-83952380D02*
X142666666Y-83952380D01*
X143095238Y-84952380D01*
X167416666Y-97802380D02*
X167750000Y-97326190D01*
X167988095Y-97802380D02*
X167988095Y-96802380D01*
X167607142Y-96802380D01*
X167511904Y-96850000D01*
X167464285Y-96897619D01*
X167416666Y-96992857D01*
X167416666Y-97135714D01*
X167464285Y-97230952D01*
X167511904Y-97278571D01*
X167607142Y-97326190D01*
X167988095Y-97326190D01*
X166940476Y-97802380D02*
X166750000Y-97802380D01*
X166654761Y-97754761D01*
X166607142Y-97707142D01*
X166511904Y-97564285D01*
X166464285Y-97373809D01*
X166464285Y-96992857D01*
X166511904Y-96897619D01*
X166559523Y-96850000D01*
X166654761Y-96802380D01*
X166845238Y-96802380D01*
X166940476Y-96850000D01*
X166988095Y-96897619D01*
X167035714Y-96992857D01*
X167035714Y-97230952D01*
X166988095Y-97326190D01*
X166940476Y-97373809D01*
X166845238Y-97421428D01*
X166654761Y-97421428D01*
X166559523Y-97373809D01*
X166511904Y-97326190D01*
X166464285Y-97230952D01*
X144238095Y-81552380D02*
X144238095Y-80552380D01*
X144000000Y-80552380D01*
X143857142Y-80600000D01*
X143761904Y-80695238D01*
X143714285Y-80790476D01*
X143666666Y-80980952D01*
X143666666Y-81123809D01*
X143714285Y-81314285D01*
X143761904Y-81409523D01*
X143857142Y-81504761D01*
X144000000Y-81552380D01*
X144238095Y-81552380D01*
X143285714Y-80647619D02*
X143238095Y-80600000D01*
X143142857Y-80552380D01*
X142904761Y-80552380D01*
X142809523Y-80600000D01*
X142761904Y-80647619D01*
X142714285Y-80742857D01*
X142714285Y-80838095D01*
X142761904Y-80980952D01*
X143333333Y-81552380D01*
X142714285Y-81552380D01*
X143666666Y-72702380D02*
X144000000Y-72226190D01*
X144238095Y-72702380D02*
X144238095Y-71702380D01*
X143857142Y-71702380D01*
X143761904Y-71750000D01*
X143714285Y-71797619D01*
X143666666Y-71892857D01*
X143666666Y-72035714D01*
X143714285Y-72130952D01*
X143761904Y-72178571D01*
X143857142Y-72226190D01*
X144238095Y-72226190D01*
X142761904Y-71702380D02*
X143238095Y-71702380D01*
X143285714Y-72178571D01*
X143238095Y-72130952D01*
X143142857Y-72083333D01*
X142904761Y-72083333D01*
X142809523Y-72130952D01*
X142761904Y-72178571D01*
X142714285Y-72273809D01*
X142714285Y-72511904D01*
X142761904Y-72607142D01*
X142809523Y-72654761D01*
X142904761Y-72702380D01*
X143142857Y-72702380D01*
X143238095Y-72654761D01*
X143285714Y-72607142D01*
X167892857Y-105302380D02*
X168226190Y-104826190D01*
X168464285Y-105302380D02*
X168464285Y-104302380D01*
X168083333Y-104302380D01*
X167988095Y-104350000D01*
X167940476Y-104397619D01*
X167892857Y-104492857D01*
X167892857Y-104635714D01*
X167940476Y-104730952D01*
X167988095Y-104778571D01*
X168083333Y-104826190D01*
X168464285Y-104826190D01*
X166940476Y-105302380D02*
X167511904Y-105302380D01*
X167226190Y-105302380D02*
X167226190Y-104302380D01*
X167321428Y-104445238D01*
X167416666Y-104540476D01*
X167511904Y-104588095D01*
X166559523Y-104397619D02*
X166511904Y-104350000D01*
X166416666Y-104302380D01*
X166178571Y-104302380D01*
X166083333Y-104350000D01*
X166035714Y-104397619D01*
X165988095Y-104492857D01*
X165988095Y-104588095D01*
X166035714Y-104730952D01*
X166607142Y-105302380D01*
X165988095Y-105302380D01*
X128333333Y-76952380D02*
X128333333Y-77666666D01*
X128380952Y-77809523D01*
X128476190Y-77904761D01*
X128619047Y-77952380D01*
X128714285Y-77952380D01*
X127904761Y-77047619D02*
X127857142Y-77000000D01*
X127761904Y-76952380D01*
X127523809Y-76952380D01*
X127428571Y-77000000D01*
X127380952Y-77047619D01*
X127333333Y-77142857D01*
X127333333Y-77238095D01*
X127380952Y-77380952D01*
X127952380Y-77952380D01*
X127333333Y-77952380D01*
X144238095Y-121052380D02*
X144238095Y-120052380D01*
X144000000Y-120052380D01*
X143857142Y-120100000D01*
X143761904Y-120195238D01*
X143714285Y-120290476D01*
X143666666Y-120480952D01*
X143666666Y-120623809D01*
X143714285Y-120814285D01*
X143761904Y-120909523D01*
X143857142Y-121004761D01*
X144000000Y-121052380D01*
X144238095Y-121052380D01*
X142761904Y-120052380D02*
X143238095Y-120052380D01*
X143285714Y-120528571D01*
X143238095Y-120480952D01*
X143142857Y-120433333D01*
X142904761Y-120433333D01*
X142809523Y-120480952D01*
X142761904Y-120528571D01*
X142714285Y-120623809D01*
X142714285Y-120861904D01*
X142761904Y-120957142D01*
X142809523Y-121004761D01*
X142904761Y-121052380D01*
X143142857Y-121052380D01*
X143238095Y-121004761D01*
X143285714Y-120957142D01*
X144142857Y-124702380D02*
X144476190Y-124226190D01*
X144714285Y-124702380D02*
X144714285Y-123702380D01*
X144333333Y-123702380D01*
X144238095Y-123750000D01*
X144190476Y-123797619D01*
X144142857Y-123892857D01*
X144142857Y-124035714D01*
X144190476Y-124130952D01*
X144238095Y-124178571D01*
X144333333Y-124226190D01*
X144714285Y-124226190D01*
X143190476Y-124702380D02*
X143761904Y-124702380D01*
X143476190Y-124702380D02*
X143476190Y-123702380D01*
X143571428Y-123845238D01*
X143666666Y-123940476D01*
X143761904Y-123988095D01*
X142714285Y-124702380D02*
X142523809Y-124702380D01*
X142428571Y-124654761D01*
X142380952Y-124607142D01*
X142285714Y-124464285D01*
X142238095Y-124273809D01*
X142238095Y-123892857D01*
X142285714Y-123797619D01*
X142333333Y-123750000D01*
X142428571Y-123702380D01*
X142619047Y-123702380D01*
X142714285Y-123750000D01*
X142761904Y-123797619D01*
X142809523Y-123892857D01*
X142809523Y-124130952D01*
X142761904Y-124226190D01*
X142714285Y-124273809D01*
X142619047Y-124321428D01*
X142428571Y-124321428D01*
X142333333Y-124273809D01*
X142285714Y-124226190D01*
X142238095Y-124130952D01*
X167416666Y-71802380D02*
X167750000Y-71326190D01*
X167988095Y-71802380D02*
X167988095Y-70802380D01*
X167607142Y-70802380D01*
X167511904Y-70850000D01*
X167464285Y-70897619D01*
X167416666Y-70992857D01*
X167416666Y-71135714D01*
X167464285Y-71230952D01*
X167511904Y-71278571D01*
X167607142Y-71326190D01*
X167988095Y-71326190D01*
X166464285Y-71802380D02*
X167035714Y-71802380D01*
X166750000Y-71802380D02*
X166750000Y-70802380D01*
X166845238Y-70945238D01*
X166940476Y-71040476D01*
X167035714Y-71088095D01*
X138345238Y-117202380D02*
X138678571Y-116726190D01*
X138916666Y-117202380D02*
X138916666Y-116202380D01*
X138535714Y-116202380D01*
X138440476Y-116250000D01*
X138392857Y-116297619D01*
X138345238Y-116392857D01*
X138345238Y-116535714D01*
X138392857Y-116630952D01*
X138440476Y-116678571D01*
X138535714Y-116726190D01*
X138916666Y-116726190D01*
X138059523Y-116202380D02*
X137726190Y-117202380D01*
X137392857Y-116202380D01*
X136583333Y-116202380D02*
X137059523Y-116202380D01*
X137107142Y-116678571D01*
X137059523Y-116630952D01*
X136964285Y-116583333D01*
X136726190Y-116583333D01*
X136630952Y-116630952D01*
X136583333Y-116678571D01*
X136535714Y-116773809D01*
X136535714Y-117011904D01*
X136583333Y-117107142D01*
X136630952Y-117154761D01*
X136726190Y-117202380D01*
X136964285Y-117202380D01*
X137059523Y-117154761D01*
X137107142Y-117107142D01*
X144142857Y-111702380D02*
X144476190Y-111226190D01*
X144714285Y-111702380D02*
X144714285Y-110702380D01*
X144333333Y-110702380D01*
X144238095Y-110750000D01*
X144190476Y-110797619D01*
X144142857Y-110892857D01*
X144142857Y-111035714D01*
X144190476Y-111130952D01*
X144238095Y-111178571D01*
X144333333Y-111226190D01*
X144714285Y-111226190D01*
X143190476Y-111702380D02*
X143761904Y-111702380D01*
X143476190Y-111702380D02*
X143476190Y-110702380D01*
X143571428Y-110845238D01*
X143666666Y-110940476D01*
X143761904Y-110988095D01*
X142333333Y-111035714D02*
X142333333Y-111702380D01*
X142571428Y-110654761D02*
X142809523Y-111369047D01*
X142190476Y-111369047D01*
X167416666Y-66302380D02*
X167750000Y-65826190D01*
X167988095Y-66302380D02*
X167988095Y-65302380D01*
X167607142Y-65302380D01*
X167511904Y-65350000D01*
X167464285Y-65397619D01*
X167416666Y-65492857D01*
X167416666Y-65635714D01*
X167464285Y-65730952D01*
X167511904Y-65778571D01*
X167607142Y-65826190D01*
X167988095Y-65826190D01*
X167083333Y-65302380D02*
X166464285Y-65302380D01*
X166797619Y-65683333D01*
X166654761Y-65683333D01*
X166559523Y-65730952D01*
X166511904Y-65778571D01*
X166464285Y-65873809D01*
X166464285Y-66111904D01*
X166511904Y-66207142D01*
X166559523Y-66254761D01*
X166654761Y-66302380D01*
X166940476Y-66302380D01*
X167035714Y-66254761D01*
X167083333Y-66207142D01*
D11*
X154250000Y-111525000D02*
X154250000Y-111785000D01*
X148750000Y-116975000D02*
X148750000Y-116715000D01*
X154250000Y-111785000D02*
X155900000Y-111785000D01*
X148750000Y-111525000D02*
X148750000Y-111785000D01*
X151500000Y-111525000D02*
X154250000Y-111525000D01*
X151500000Y-111525000D02*
X148750000Y-111525000D01*
X151500000Y-116975000D02*
X154250000Y-116975000D01*
X154250000Y-116975000D02*
X154250000Y-116715000D01*
X151500000Y-116975000D02*
X148750000Y-116975000D01*
X167477064Y-94235000D02*
X167022936Y-94235000D01*
X167477064Y-92765000D02*
X167022936Y-92765000D01*
X167477064Y-118765000D02*
X167022936Y-118765000D01*
X167477064Y-120235000D02*
X167022936Y-120235000D01*
X143727064Y-118265000D02*
X143272936Y-118265000D01*
X143727064Y-119735000D02*
X143272936Y-119735000D01*
X167477064Y-79765000D02*
X167022936Y-79765000D01*
X167477064Y-81235000D02*
X167022936Y-81235000D01*
X142500000Y-95290000D02*
X145360000Y-95290000D01*
X145360000Y-95290000D02*
X145360000Y-97210000D01*
X145360000Y-97210000D02*
X142500000Y-97210000D01*
X151011252Y-92015000D02*
X150488748Y-92015000D01*
X151011252Y-93485000D02*
X150488748Y-93485000D01*
X140280000Y-114135000D02*
X140280000Y-104365000D01*
X140280000Y-104365000D02*
X135210000Y-104365000D01*
X135210000Y-114135000D02*
X135210000Y-104365000D01*
X140280000Y-114135000D02*
X135210000Y-114135000D01*
X151011252Y-109485000D02*
X150488748Y-109485000D01*
X151011252Y-108015000D02*
X150488748Y-108015000D01*
X153750000Y-81025000D02*
X153750000Y-81285000D01*
X151000000Y-86475000D02*
X153750000Y-86475000D01*
X151000000Y-81025000D02*
X153750000Y-81025000D01*
X153750000Y-86475000D02*
X153750000Y-86215000D01*
X151000000Y-81025000D02*
X148250000Y-81025000D01*
X148250000Y-81025000D02*
X148250000Y-81285000D01*
X148250000Y-86475000D02*
X148250000Y-86215000D01*
X153750000Y-81285000D02*
X155400000Y-81285000D01*
X151000000Y-86475000D02*
X148250000Y-86475000D01*
X143727064Y-67485000D02*
X143272936Y-67485000D01*
X143727064Y-66015000D02*
X143272936Y-66015000D01*
X143727064Y-106235000D02*
X143272936Y-106235000D01*
X143727064Y-104765000D02*
X143272936Y-104765000D01*
X131048752Y-104515000D02*
X130526248Y-104515000D01*
X131048752Y-105985000D02*
X130526248Y-105985000D01*
X140280000Y-101175000D02*
X140280000Y-91405000D01*
X140280000Y-101175000D02*
X135210000Y-101175000D01*
X140280000Y-91405000D02*
X135210000Y-91405000D01*
X135210000Y-101175000D02*
X135210000Y-91405000D01*
X130973752Y-119265000D02*
X130451248Y-119265000D01*
X130973752Y-120735000D02*
X130451248Y-120735000D01*
X140280000Y-75135000D02*
X140280000Y-65365000D01*
X135210000Y-75135000D02*
X135210000Y-65365000D01*
X140280000Y-75135000D02*
X135210000Y-75135000D01*
X140280000Y-65365000D02*
X135210000Y-65365000D01*
X142500000Y-69540000D02*
X145360000Y-69540000D01*
X145360000Y-69540000D02*
X145360000Y-71460000D01*
X145360000Y-71460000D02*
X142500000Y-71460000D01*
X167477064Y-125735000D02*
X167022936Y-125735000D01*
X167477064Y-124265000D02*
X167022936Y-124265000D01*
X167477064Y-111265000D02*
X167022936Y-111265000D01*
X167477064Y-112735000D02*
X167022936Y-112735000D01*
X167477064Y-86735000D02*
X167022936Y-86735000D01*
X167477064Y-85265000D02*
X167022936Y-85265000D01*
X143727064Y-92265000D02*
X143272936Y-92265000D01*
X143727064Y-93735000D02*
X143272936Y-93735000D01*
X143272936Y-100235000D02*
X143727064Y-100235000D01*
X143272936Y-98765000D02*
X143727064Y-98765000D01*
X140280000Y-88135000D02*
X135210000Y-88135000D01*
X140280000Y-78365000D02*
X135210000Y-78365000D01*
X140280000Y-88135000D02*
X140280000Y-78365000D01*
X135210000Y-88135000D02*
X135210000Y-78365000D01*
X145360000Y-108290000D02*
X145360000Y-110210000D01*
X145360000Y-110210000D02*
X142500000Y-110210000D01*
X142500000Y-108290000D02*
X145360000Y-108290000D01*
X127590000Y-107250000D02*
X127590000Y-113260000D01*
X134410000Y-109500000D02*
X134410000Y-113260000D01*
X134410000Y-113260000D02*
X133150000Y-113260000D01*
X127590000Y-113260000D02*
X128850000Y-113260000D01*
X154250000Y-100725000D02*
X154250000Y-100465000D01*
X154250000Y-95275000D02*
X154250000Y-95535000D01*
X148750000Y-100725000D02*
X148750000Y-100465000D01*
X151500000Y-100725000D02*
X154250000Y-100725000D01*
X151500000Y-95275000D02*
X148750000Y-95275000D01*
X151500000Y-95275000D02*
X154250000Y-95275000D01*
X154250000Y-95535000D02*
X155900000Y-95535000D01*
X151500000Y-100725000D02*
X148750000Y-100725000D01*
X148750000Y-95275000D02*
X148750000Y-95535000D01*
X143727064Y-80235000D02*
X143272936Y-80235000D01*
X143727064Y-78765000D02*
X143272936Y-78765000D01*
X130255000Y-68470000D02*
X130255000Y-65870000D01*
X132855000Y-76150000D02*
X127655000Y-76150000D01*
X132855000Y-67200000D02*
X132855000Y-65870000D01*
X130255000Y-65870000D02*
X127655000Y-65870000D01*
X132855000Y-68470000D02*
X130255000Y-68470000D01*
X127655000Y-65870000D02*
X127655000Y-76150000D01*
X132855000Y-65870000D02*
X131525000Y-65870000D01*
X132855000Y-68470000D02*
X132855000Y-76150000D01*
X150511252Y-78985000D02*
X149988748Y-78985000D01*
X150511252Y-77515000D02*
X149988748Y-77515000D01*
X143272936Y-85515000D02*
X143727064Y-85515000D01*
X143272936Y-86985000D02*
X143727064Y-86985000D01*
X167477064Y-99735000D02*
X167022936Y-99735000D01*
X167477064Y-98265000D02*
X167022936Y-98265000D01*
X145360000Y-81790000D02*
X145360000Y-83710000D01*
X142500000Y-81790000D02*
X145360000Y-81790000D01*
X145360000Y-83710000D02*
X142500000Y-83710000D01*
X143272936Y-73265000D02*
X143727064Y-73265000D01*
X143272936Y-74735000D02*
X143727064Y-74735000D01*
X167477064Y-105765000D02*
X167022936Y-105765000D01*
X167477064Y-107235000D02*
X167022936Y-107235000D01*
X130230000Y-81270000D02*
X130230000Y-78670000D01*
X132830000Y-81270000D02*
X130230000Y-81270000D01*
X130230000Y-78670000D02*
X127630000Y-78670000D01*
X132830000Y-78670000D02*
X131500000Y-78670000D01*
X127630000Y-78670000D02*
X127630000Y-94030000D01*
X132830000Y-81270000D02*
X132830000Y-94030000D01*
X132830000Y-80000000D02*
X132830000Y-78670000D01*
X132830000Y-94030000D02*
X127630000Y-94030000D01*
X145360000Y-121290000D02*
X145360000Y-123210000D01*
X145360000Y-123210000D02*
X142500000Y-123210000D01*
X142500000Y-121290000D02*
X145360000Y-121290000D01*
X143272936Y-125015000D02*
X143727064Y-125015000D01*
X143272936Y-126485000D02*
X143727064Y-126485000D01*
X167477064Y-73735000D02*
X167022936Y-73735000D01*
X167477064Y-72265000D02*
X167022936Y-72265000D01*
X140280000Y-127135000D02*
X140280000Y-117365000D01*
X140280000Y-127135000D02*
X135210000Y-127135000D01*
X135210000Y-127135000D02*
X135210000Y-117365000D01*
X140280000Y-117365000D02*
X135210000Y-117365000D01*
X143272936Y-112015000D02*
X143727064Y-112015000D01*
X143272936Y-113485000D02*
X143727064Y-113485000D01*
X167477064Y-68235000D02*
X167022936Y-68235000D01*
X167477064Y-66765000D02*
X167022936Y-66765000D01*
%LPC*%
D12*
X162650000Y-122250000D03*
X158850000Y-122250000D03*
D13*
X158300000Y-117600000D03*
D14*
X162020000Y-119500000D03*
D15*
X159480000Y-119500000D03*
X159480000Y-125000000D03*
X162020000Y-125000000D03*
D13*
X158300000Y-91600000D03*
D12*
X162650000Y-96250000D03*
X158850000Y-96250000D03*
D14*
X162020000Y-93500000D03*
D15*
X159480000Y-93500000D03*
X159480000Y-99000000D03*
X162020000Y-99000000D03*
D13*
X158300000Y-104600000D03*
D12*
X162650000Y-109250000D03*
X158850000Y-109250000D03*
D14*
X162020000Y-106500000D03*
D15*
X159480000Y-106500000D03*
X159480000Y-112000000D03*
X162020000Y-112000000D03*
D12*
X162650000Y-83250000D03*
X158850000Y-83250000D03*
D13*
X158300000Y-78600000D03*
D14*
X162020000Y-80500000D03*
D15*
X159480000Y-80500000D03*
X159480000Y-86000000D03*
X162020000Y-86000000D03*
D12*
X162650000Y-70250000D03*
D13*
X158300000Y-65600000D03*
D12*
X158850000Y-70250000D03*
D14*
X162020000Y-67500000D03*
D15*
X159480000Y-67500000D03*
X159480000Y-73000000D03*
X162020000Y-73000000D03*
D16*
X155100000Y-112345000D03*
X155100000Y-113615000D03*
X155100000Y-114885000D03*
X155100000Y-116155000D03*
X147900000Y-116155000D03*
X147900000Y-114885000D03*
X147900000Y-113615000D03*
X147900000Y-112345000D03*
D17*
X168250000Y-93500000D03*
X166250000Y-93500000D03*
X168250000Y-119500000D03*
X166250000Y-119500000D03*
X144500000Y-119000000D03*
X142500000Y-119000000D03*
X168250000Y-80500000D03*
X166250000Y-80500000D03*
D18*
X144525000Y-96250000D03*
X142475000Y-96250000D03*
D19*
X151787500Y-92750000D03*
X149712500Y-92750000D03*
D20*
X137750000Y-106710000D03*
X137750000Y-109250000D03*
X137750000Y-111790000D03*
D19*
X151787500Y-108750000D03*
X149712500Y-108750000D03*
D16*
X154600000Y-81845000D03*
X154600000Y-83115000D03*
X154600000Y-84385000D03*
X154600000Y-85655000D03*
X147400000Y-85655000D03*
X147400000Y-84385000D03*
X147400000Y-83115000D03*
X147400000Y-81845000D03*
D17*
X144500000Y-66750000D03*
X142500000Y-66750000D03*
X144500000Y-105500000D03*
X142500000Y-105500000D03*
D19*
X131825000Y-105250000D03*
X129750000Y-105250000D03*
D20*
X137750000Y-93750000D03*
X137750000Y-96290000D03*
X137750000Y-98830000D03*
D21*
X150750000Y-122250000D03*
D19*
X131750000Y-120000000D03*
X129675000Y-120000000D03*
D20*
X137750000Y-67710000D03*
X137750000Y-70250000D03*
X137750000Y-72790000D03*
D18*
X144525000Y-70500000D03*
X142475000Y-70500000D03*
D17*
X168250000Y-125000000D03*
X166250000Y-125000000D03*
X168250000Y-112000000D03*
X166250000Y-112000000D03*
X168250000Y-86000000D03*
X166250000Y-86000000D03*
X144500000Y-93000000D03*
X142500000Y-93000000D03*
D22*
X142500000Y-99500000D03*
X144500000Y-99500000D03*
D20*
X137750000Y-80710000D03*
X137750000Y-83250000D03*
X137750000Y-85790000D03*
D18*
X144525000Y-109250000D03*
X142475000Y-109250000D03*
D23*
X128700000Y-108200000D03*
X131000000Y-108200000D03*
D24*
X131000000Y-114500000D03*
D23*
X133300000Y-108200000D03*
D21*
X150750000Y-70250000D03*
D16*
X155100000Y-96095000D03*
X155100000Y-97365000D03*
X155100000Y-98635000D03*
X155100000Y-99905000D03*
X147900000Y-99905000D03*
X147900000Y-98635000D03*
X147900000Y-97365000D03*
X147900000Y-96095000D03*
D17*
X144500000Y-79500000D03*
X142500000Y-79500000D03*
D25*
X131525000Y-67200000D03*
D26*
X128985000Y-67200000D03*
X131525000Y-69740000D03*
X128985000Y-69740000D03*
X131525000Y-72280000D03*
X128985000Y-72280000D03*
X131525000Y-74820000D03*
X128985000Y-74820000D03*
D19*
X151287500Y-78250000D03*
X149212500Y-78250000D03*
D22*
X142500000Y-86250000D03*
X144500000Y-86250000D03*
D17*
X168250000Y-99000000D03*
X166250000Y-99000000D03*
D18*
X144525000Y-82750000D03*
X142475000Y-82750000D03*
D22*
X142500000Y-74000000D03*
X144500000Y-74000000D03*
D17*
X168250000Y-106500000D03*
X166250000Y-106500000D03*
D25*
X131500000Y-80000000D03*
D26*
X128960000Y-80000000D03*
X131500000Y-82540000D03*
X128960000Y-82540000D03*
X131500000Y-85080000D03*
X128960000Y-85080000D03*
X131500000Y-87620000D03*
X128960000Y-87620000D03*
X131500000Y-90160000D03*
X128960000Y-90160000D03*
X131500000Y-92700000D03*
X128960000Y-92700000D03*
D18*
X144525000Y-122250000D03*
X142475000Y-122250000D03*
D22*
X142500000Y-125750000D03*
X144500000Y-125750000D03*
D17*
X168250000Y-73000000D03*
X166250000Y-73000000D03*
D20*
X137750000Y-119710000D03*
X137750000Y-122250000D03*
X137750000Y-124790000D03*
D22*
X142500000Y-112750000D03*
X144500000Y-112750000D03*
D17*
X168250000Y-67500000D03*
X166250000Y-67500000D03*
M02*
