G04 #@! TF.GenerationSoftware,KiCad,Pcbnew,(6.0.8)*
G04 #@! TF.CreationDate,2022-11-14T23:42:09+02:00*
G04 #@! TF.ProjectId,line_sensor_encoder,6c696e65-5f73-4656-9e73-6f725f656e63,rev?*
G04 #@! TF.SameCoordinates,Original*
G04 #@! TF.FileFunction,Soldermask,Bot*
G04 #@! TF.FilePolarity,Negative*
%FSLAX46Y46*%
G04 Gerber Fmt 4.6, Leading zero omitted, Abs format (unit mm)*
G04 Created by KiCad (PCBNEW (6.0.8)) date 2022-11-14 23:42:09*
%MOMM*%
%LPD*%
G01*
G04 APERTURE LIST*
G04 Aperture macros list*
%AMRoundRect*
0 Rectangle with rounded corners*
0 $1 Rounding radius*
0 $2 $3 $4 $5 $6 $7 $8 $9 X,Y pos of 4 corners*
0 Add a 4 corners polygon primitive as box body*
4,1,4,$2,$3,$4,$5,$6,$7,$8,$9,$2,$3,0*
0 Add four circle primitives for the rounded corners*
1,1,$1+$1,$2,$3*
1,1,$1+$1,$4,$5*
1,1,$1+$1,$6,$7*
1,1,$1+$1,$8,$9*
0 Add four rect primitives between the rounded corners*
20,1,$1+$1,$2,$3,$4,$5,0*
20,1,$1+$1,$4,$5,$6,$7,0*
20,1,$1+$1,$6,$7,$8,$9,0*
20,1,$1+$1,$8,$9,$2,$3,0*%
G04 Aperture macros list end*
%ADD10C,2.500000*%
%ADD11C,1.000000*%
%ADD12R,1.600000X1.600000*%
%ADD13C,1.600000*%
%ADD14RoundRect,0.150000X0.650000X0.150000X-0.650000X0.150000X-0.650000X-0.150000X0.650000X-0.150000X0*%
%ADD15RoundRect,0.250000X0.350000X0.450000X-0.350000X0.450000X-0.350000X-0.450000X0.350000X-0.450000X0*%
%ADD16RoundRect,0.250000X0.325000X0.450000X-0.325000X0.450000X-0.325000X-0.450000X0.325000X-0.450000X0*%
%ADD17RoundRect,0.250000X0.337500X0.475000X-0.337500X0.475000X-0.337500X-0.475000X0.337500X-0.475000X0*%
%ADD18C,1.440000*%
%ADD19C,3.200000*%
%ADD20RoundRect,0.250000X-0.350000X-0.450000X0.350000X-0.450000X0.350000X0.450000X-0.350000X0.450000X0*%
%ADD21R,1.700000X1.700000*%
%ADD22O,1.700000X1.700000*%
G04 APERTURE END LIST*
D10*
X148100000Y-152000000D03*
X151900000Y-152000000D03*
D11*
X147550000Y-147350000D03*
D12*
X151270000Y-149250000D03*
D13*
X148730000Y-149250000D03*
X148730000Y-154750000D03*
X151270000Y-154750000D03*
D11*
X147550000Y-121350000D03*
D10*
X151900000Y-126000000D03*
X148100000Y-126000000D03*
D12*
X151270000Y-123250000D03*
D13*
X148730000Y-123250000D03*
X148730000Y-128750000D03*
X151270000Y-128750000D03*
D10*
X148100000Y-139000000D03*
X151900000Y-139000000D03*
D11*
X147550000Y-134350000D03*
D12*
X151270000Y-136250000D03*
D13*
X148730000Y-136250000D03*
X148730000Y-141750000D03*
X151270000Y-141750000D03*
D10*
X151900000Y-113000000D03*
D11*
X147550000Y-108350000D03*
D10*
X148100000Y-113000000D03*
D12*
X151270000Y-110250000D03*
D13*
X148730000Y-110250000D03*
X148730000Y-115750000D03*
X151270000Y-115750000D03*
D11*
X147550000Y-95350000D03*
D10*
X148100000Y-100000000D03*
X151900000Y-100000000D03*
D12*
X151270000Y-97250000D03*
D13*
X148730000Y-97250000D03*
X148730000Y-102750000D03*
X151270000Y-102750000D03*
D14*
X144350000Y-142095000D03*
X144350000Y-143365000D03*
X144350000Y-144635000D03*
X144350000Y-145905000D03*
X137150000Y-145905000D03*
X137150000Y-144635000D03*
X137150000Y-143365000D03*
X137150000Y-142095000D03*
D15*
X157500000Y-123250000D03*
X155500000Y-123250000D03*
X157500000Y-149250000D03*
X155500000Y-149250000D03*
X133750000Y-148750000D03*
X131750000Y-148750000D03*
X157500000Y-110250000D03*
X155500000Y-110250000D03*
D16*
X133775000Y-126000000D03*
X131725000Y-126000000D03*
D17*
X141037500Y-122500000D03*
X138962500Y-122500000D03*
D18*
X127000000Y-136460000D03*
X127000000Y-139000000D03*
X127000000Y-141540000D03*
D17*
X141037500Y-138500000D03*
X138962500Y-138500000D03*
D14*
X143850000Y-111595000D03*
X143850000Y-112865000D03*
X143850000Y-114135000D03*
X143850000Y-115405000D03*
X136650000Y-115405000D03*
X136650000Y-114135000D03*
X136650000Y-112865000D03*
X136650000Y-111595000D03*
D15*
X133750000Y-96500000D03*
X131750000Y-96500000D03*
X133750000Y-135250000D03*
X131750000Y-135250000D03*
D18*
X127000000Y-123500000D03*
X127000000Y-126040000D03*
X127000000Y-128580000D03*
D19*
X140000000Y-152000000D03*
D18*
X127000000Y-97460000D03*
X127000000Y-100000000D03*
X127000000Y-102540000D03*
D16*
X133775000Y-100250000D03*
X131725000Y-100250000D03*
D15*
X157500000Y-154750000D03*
X155500000Y-154750000D03*
X157500000Y-141750000D03*
X155500000Y-141750000D03*
X157500000Y-115750000D03*
X155500000Y-115750000D03*
X133750000Y-122750000D03*
X131750000Y-122750000D03*
D20*
X131750000Y-129250000D03*
X133750000Y-129250000D03*
D18*
X127000000Y-110460000D03*
X127000000Y-113000000D03*
X127000000Y-115540000D03*
D16*
X133775000Y-139000000D03*
X131725000Y-139000000D03*
D19*
X140000000Y-100000000D03*
D14*
X144350000Y-125845000D03*
X144350000Y-127115000D03*
X144350000Y-128385000D03*
X144350000Y-129655000D03*
X137150000Y-129655000D03*
X137150000Y-128385000D03*
X137150000Y-127115000D03*
X137150000Y-125845000D03*
D15*
X133750000Y-109250000D03*
X131750000Y-109250000D03*
D21*
X120775000Y-96950000D03*
D22*
X118235000Y-96950000D03*
X120775000Y-99490000D03*
X118235000Y-99490000D03*
X120775000Y-102030000D03*
X118235000Y-102030000D03*
X120775000Y-104570000D03*
X118235000Y-104570000D03*
D17*
X140537500Y-108000000D03*
X138462500Y-108000000D03*
D20*
X131750000Y-116000000D03*
X133750000Y-116000000D03*
D15*
X157500000Y-128750000D03*
X155500000Y-128750000D03*
D16*
X133775000Y-112500000D03*
X131725000Y-112500000D03*
D20*
X131750000Y-103750000D03*
X133750000Y-103750000D03*
D15*
X157500000Y-136250000D03*
X155500000Y-136250000D03*
D21*
X120750000Y-109750000D03*
D22*
X118210000Y-109750000D03*
X120750000Y-112290000D03*
X118210000Y-112290000D03*
X120750000Y-114830000D03*
X118210000Y-114830000D03*
X120750000Y-117370000D03*
X118210000Y-117370000D03*
X120750000Y-119910000D03*
X118210000Y-119910000D03*
X120750000Y-122450000D03*
X118210000Y-122450000D03*
D16*
X133775000Y-152000000D03*
X131725000Y-152000000D03*
D20*
X131750000Y-155500000D03*
X133750000Y-155500000D03*
D15*
X157500000Y-102750000D03*
X155500000Y-102750000D03*
D18*
X127000000Y-149460000D03*
X127000000Y-152000000D03*
X127000000Y-154540000D03*
D20*
X131750000Y-142500000D03*
X133750000Y-142500000D03*
D15*
X157500000Y-97250000D03*
X155500000Y-97250000D03*
M02*
