G04 #@! TF.GenerationSoftware,KiCad,Pcbnew,(6.0.8)*
G04 #@! TF.CreationDate,2022-11-14T23:42:09+02:00*
G04 #@! TF.ProjectId,line_sensor_encoder,6c696e65-5f73-4656-9e73-6f725f656e63,rev?*
G04 #@! TF.SameCoordinates,Original*
G04 #@! TF.FileFunction,Legend,Top*
G04 #@! TF.FilePolarity,Positive*
%FSLAX46Y46*%
G04 Gerber Fmt 4.6, Leading zero omitted, Abs format (unit mm)*
G04 Created by KiCad (PCBNEW (6.0.8)) date 2022-11-14 23:42:09*
%MOMM*%
%LPD*%
G01*
G04 APERTURE LIST*
%ADD10C,0.150000*%
%ADD11C,0.127000*%
%ADD12C,0.240000*%
%ADD13C,2.500000*%
%ADD14C,1.000000*%
%ADD15R,1.600000X1.600000*%
%ADD16C,1.600000*%
%ADD17C,1.440000*%
%ADD18C,3.200000*%
%ADD19R,1.700000X1.700000*%
%ADD20O,1.700000X1.700000*%
G04 APERTURE END LIST*
D10*
X153399914Y-150832614D02*
X154212434Y-150832614D01*
X154308024Y-150784819D01*
X154355819Y-150737024D01*
X154403615Y-150641433D01*
X154403615Y-150450252D01*
X154355819Y-150354661D01*
X154308024Y-150306866D01*
X154212434Y-150259071D01*
X153399914Y-150259071D01*
X153399914Y-149876708D02*
X153399914Y-149207574D01*
X154403615Y-149637732D01*
X153399914Y-124832614D02*
X154212434Y-124832614D01*
X154308024Y-124784819D01*
X154355819Y-124737024D01*
X154403615Y-124641433D01*
X154403615Y-124450252D01*
X154355819Y-124354661D01*
X154308024Y-124306866D01*
X154212434Y-124259071D01*
X153399914Y-124259071D01*
X153734481Y-123350960D02*
X154403615Y-123350960D01*
X153352118Y-123589937D02*
X154069048Y-123828913D01*
X154069048Y-123207574D01*
X153399914Y-137832614D02*
X154212434Y-137832614D01*
X154308024Y-137784819D01*
X154355819Y-137737024D01*
X154403615Y-137641433D01*
X154403615Y-137450252D01*
X154355819Y-137354661D01*
X154308024Y-137306866D01*
X154212434Y-137259071D01*
X153399914Y-137259071D01*
X153399914Y-136303165D02*
X153399914Y-136781118D01*
X153877867Y-136828913D01*
X153830071Y-136781118D01*
X153782276Y-136685527D01*
X153782276Y-136446551D01*
X153830071Y-136350960D01*
X153877867Y-136303165D01*
X153973457Y-136255370D01*
X154212434Y-136255370D01*
X154308024Y-136303165D01*
X154355819Y-136350960D01*
X154403615Y-136446551D01*
X154403615Y-136685527D01*
X154355819Y-136781118D01*
X154308024Y-136828913D01*
X153399914Y-111832614D02*
X154212434Y-111832614D01*
X154308024Y-111784819D01*
X154355819Y-111737024D01*
X154403615Y-111641433D01*
X154403615Y-111450252D01*
X154355819Y-111354661D01*
X154308024Y-111306866D01*
X154212434Y-111259071D01*
X153399914Y-111259071D01*
X153399914Y-110876708D02*
X153399914Y-110255370D01*
X153782276Y-110589937D01*
X153782276Y-110446551D01*
X153830071Y-110350960D01*
X153877867Y-110303165D01*
X153973457Y-110255370D01*
X154212434Y-110255370D01*
X154308024Y-110303165D01*
X154355819Y-110350960D01*
X154403615Y-110446551D01*
X154403615Y-110733323D01*
X154355819Y-110828913D01*
X154308024Y-110876708D01*
X153399914Y-98832614D02*
X154212434Y-98832614D01*
X154308024Y-98784819D01*
X154355819Y-98737024D01*
X154403615Y-98641433D01*
X154403615Y-98450252D01*
X154355819Y-98354661D01*
X154308024Y-98306866D01*
X154212434Y-98259071D01*
X153399914Y-98259071D01*
X154403615Y-97255370D02*
X154403615Y-97828913D01*
X154403615Y-97542141D02*
X153399914Y-97542141D01*
X153543300Y-97637732D01*
X153638890Y-97733323D01*
X153686685Y-97828913D01*
D11*
X148750000Y-157100000D02*
X147100000Y-155400000D01*
X148300000Y-146900000D02*
X152900000Y-146900000D01*
X147100000Y-155400000D02*
X147100000Y-153400000D01*
X147100000Y-150700000D02*
X147100000Y-148300000D01*
X152900000Y-153400000D02*
X152900000Y-155400000D01*
X151250000Y-157100000D02*
X148750000Y-157100000D01*
X152900000Y-155400000D02*
X151250000Y-157100000D01*
X152900000Y-146900000D02*
X152900000Y-150700000D01*
D12*
X151420000Y-146200000D02*
G75*
G03*
X151420000Y-146200000I-120000J0D01*
G01*
D11*
X147100000Y-124700000D02*
X147100000Y-122300000D01*
X152900000Y-127400000D02*
X152900000Y-129400000D01*
X152900000Y-120900000D02*
X152900000Y-124700000D01*
X148750000Y-131100000D02*
X147100000Y-129400000D01*
X152900000Y-129400000D02*
X151250000Y-131100000D01*
X148300000Y-120900000D02*
X152900000Y-120900000D01*
X151250000Y-131100000D02*
X148750000Y-131100000D01*
X147100000Y-129400000D02*
X147100000Y-127400000D01*
D12*
X151420000Y-120200000D02*
G75*
G03*
X151420000Y-120200000I-120000J0D01*
G01*
D11*
X148300000Y-133900000D02*
X152900000Y-133900000D01*
X147100000Y-137700000D02*
X147100000Y-135300000D01*
X151250000Y-144100000D02*
X148750000Y-144100000D01*
X152900000Y-133900000D02*
X152900000Y-137700000D01*
X152900000Y-140400000D02*
X152900000Y-142400000D01*
X148750000Y-144100000D02*
X147100000Y-142400000D01*
X147100000Y-142400000D02*
X147100000Y-140400000D01*
X152900000Y-142400000D02*
X151250000Y-144100000D01*
D12*
X151420000Y-133200000D02*
G75*
G03*
X151420000Y-133200000I-120000J0D01*
G01*
D11*
X147100000Y-111700000D02*
X147100000Y-109300000D01*
X148750000Y-118100000D02*
X147100000Y-116400000D01*
X151250000Y-118100000D02*
X148750000Y-118100000D01*
X152900000Y-114400000D02*
X152900000Y-116400000D01*
X147100000Y-116400000D02*
X147100000Y-114400000D01*
X152900000Y-107900000D02*
X152900000Y-111700000D01*
X148300000Y-107900000D02*
X152900000Y-107900000D01*
X152900000Y-116400000D02*
X151250000Y-118100000D01*
D12*
X151420000Y-107200000D02*
G75*
G03*
X151420000Y-107200000I-120000J0D01*
G01*
D11*
X148300000Y-94900000D02*
X152900000Y-94900000D01*
X152900000Y-94900000D02*
X152900000Y-98700000D01*
X147100000Y-98700000D02*
X147100000Y-96300000D01*
X147100000Y-103400000D02*
X147100000Y-101400000D01*
X148750000Y-105100000D02*
X147100000Y-103400000D01*
X151250000Y-105100000D02*
X148750000Y-105100000D01*
X152900000Y-103400000D02*
X151250000Y-105100000D01*
X152900000Y-101400000D02*
X152900000Y-103400000D01*
D12*
X151420000Y-94200000D02*
G75*
G03*
X151420000Y-94200000I-120000J0D01*
G01*
%LPC*%
D13*
X148100000Y-152000000D03*
X151900000Y-152000000D03*
D14*
X147550000Y-147350000D03*
D15*
X151270000Y-149250000D03*
D16*
X148730000Y-149250000D03*
X148730000Y-154750000D03*
X151270000Y-154750000D03*
D14*
X147550000Y-121350000D03*
D13*
X151900000Y-126000000D03*
X148100000Y-126000000D03*
D15*
X151270000Y-123250000D03*
D16*
X148730000Y-123250000D03*
X148730000Y-128750000D03*
X151270000Y-128750000D03*
D13*
X148100000Y-139000000D03*
X151900000Y-139000000D03*
D14*
X147550000Y-134350000D03*
D15*
X151270000Y-136250000D03*
D16*
X148730000Y-136250000D03*
X148730000Y-141750000D03*
X151270000Y-141750000D03*
D13*
X151900000Y-113000000D03*
D14*
X147550000Y-108350000D03*
D13*
X148100000Y-113000000D03*
D15*
X151270000Y-110250000D03*
D16*
X148730000Y-110250000D03*
X148730000Y-115750000D03*
X151270000Y-115750000D03*
D14*
X147550000Y-95350000D03*
D13*
X148100000Y-100000000D03*
X151900000Y-100000000D03*
D15*
X151270000Y-97250000D03*
D16*
X148730000Y-97250000D03*
X148730000Y-102750000D03*
X151270000Y-102750000D03*
D17*
X127000000Y-136460000D03*
X127000000Y-139000000D03*
X127000000Y-141540000D03*
X127000000Y-123500000D03*
X127000000Y-126040000D03*
X127000000Y-128580000D03*
D18*
X140000000Y-152000000D03*
D17*
X127000000Y-97460000D03*
X127000000Y-100000000D03*
X127000000Y-102540000D03*
X127000000Y-110460000D03*
X127000000Y-113000000D03*
X127000000Y-115540000D03*
D18*
X140000000Y-100000000D03*
D19*
X120775000Y-96950000D03*
D20*
X118235000Y-96950000D03*
X120775000Y-99490000D03*
X118235000Y-99490000D03*
X120775000Y-102030000D03*
X118235000Y-102030000D03*
X120775000Y-104570000D03*
X118235000Y-104570000D03*
D19*
X120750000Y-109750000D03*
D20*
X118210000Y-109750000D03*
X120750000Y-112290000D03*
X118210000Y-112290000D03*
X120750000Y-114830000D03*
X118210000Y-114830000D03*
X120750000Y-117370000D03*
X118210000Y-117370000D03*
X120750000Y-119910000D03*
X118210000Y-119910000D03*
X120750000Y-122450000D03*
X118210000Y-122450000D03*
D17*
X127000000Y-149460000D03*
X127000000Y-152000000D03*
X127000000Y-154540000D03*
M02*
