M48
; DRILL file {KiCad (6.0.8)} date Sat Sep  2 11:50:56 2023
; FORMAT={-:-/ absolute / metric / decimal}
; #@! TF.CreationDate,2023-09-02T11:50:56+03:00
; #@! TF.GenerationSoftware,Kicad,Pcbnew,(6.0.8)
; #@! TF.FileFunction,Plated,1,2,PTH
FMAT,2
METRIC
; #@! TA.AperFunction,Plated,PTH,ViaDrill
T1C0.400
; #@! TA.AperFunction,Plated,PTH,ComponentDrill
T2C0.800
; #@! TA.AperFunction,Plated,PTH,ComponentDrill
T3C1.000
%
G90
G05
T1
X128.0Y-102.0
X129.25Y-126.75
X130.0Y-64.5
X133.0Y-92.5
X133.0Y-117.5
X134.0Y-66.25
X135.0Y-77.75
X135.75Y-70.5
X136.0Y-83.0
X136.75Y-64.75
X136.75Y-77.75
X136.75Y-103.0
X138.75Y-90.75
X141.0Y-80.25
X141.0Y-93.5
X141.0Y-96.5
X141.0Y-106.5
X141.0Y-123.5
X141.75Y-68.25
X146.5Y-94.0
X146.75Y-102.724
X147.0Y-72.5
X147.25Y-107.75
X147.75Y-93.0
X148.0Y-126.5
X153.75Y-93.25
X154.75Y-77.25
X155.5Y-109.25
X155.75Y-125.25
X156.0Y-65.0
X156.5Y-90.25
X166.0Y-102.25
X166.25Y-76.25
X166.25Y-88.5
X166.75Y-91.25
X168.75Y-64.75
X168.75Y-127.75
T2
X137.75Y-67.71
X137.75Y-70.25
X137.75Y-72.79
X137.75Y-80.71
X137.75Y-83.25
X137.75Y-85.79
X137.75Y-93.75
X137.75Y-96.29
X137.75Y-98.83
X137.75Y-106.71
X137.75Y-109.25
X137.75Y-111.79
X137.75Y-119.71
X137.75Y-122.25
X137.75Y-124.79
T3
X128.96Y-80.0
X128.96Y-82.54
X128.96Y-85.08
X128.96Y-87.62
X128.96Y-90.16
X128.96Y-92.7
X128.985Y-67.2
X128.985Y-69.74
X128.985Y-72.28
X128.985Y-74.82
X131.5Y-80.0
X131.5Y-82.54
X131.5Y-85.08
X131.5Y-87.62
X131.5Y-90.16
X131.5Y-92.7
X131.525Y-67.2
X131.525Y-69.74
X131.525Y-72.28
X131.525Y-74.82
X159.48Y-67.5
X159.48Y-73.0
X159.48Y-80.5
X159.48Y-86.0
X159.48Y-93.5
X159.48Y-99.0
X159.48Y-106.5
X159.48Y-112.0
X159.48Y-119.5
X159.48Y-125.0
X162.02Y-67.5
X162.02Y-73.0
X162.02Y-80.5
X162.02Y-86.0
X162.02Y-93.5
X162.02Y-99.0
X162.02Y-106.5
X162.02Y-112.0
X162.02Y-119.5
X162.02Y-125.0
T0
M30
