G04 #@! TF.GenerationSoftware,KiCad,Pcbnew,(6.0.8)*
G04 #@! TF.CreationDate,2023-09-02T11:50:29+03:00*
G04 #@! TF.ProjectId,line_sensor_encoder,6c696e65-5f73-4656-9e73-6f725f656e63,rev?*
G04 #@! TF.SameCoordinates,Original*
G04 #@! TF.FileFunction,Soldermask,Top*
G04 #@! TF.FilePolarity,Negative*
%FSLAX46Y46*%
G04 Gerber Fmt 4.6, Leading zero omitted, Abs format (unit mm)*
G04 Created by KiCad (PCBNEW (6.0.8)) date 2023-09-02 11:50:29*
%MOMM*%
%LPD*%
G01*
G04 APERTURE LIST*
%ADD10C,2.500000*%
%ADD11C,1.000000*%
%ADD12R,1.600000X1.600000*%
%ADD13C,1.600000*%
%ADD14C,1.440000*%
%ADD15C,3.200000*%
%ADD16R,1.700000X1.700000*%
%ADD17O,1.700000X1.700000*%
G04 APERTURE END LIST*
D10*
X162650000Y-122250000D03*
X158850000Y-122250000D03*
D11*
X158300000Y-117600000D03*
D12*
X162020000Y-119500000D03*
D13*
X159480000Y-119500000D03*
X159480000Y-125000000D03*
X162020000Y-125000000D03*
D11*
X158300000Y-91600000D03*
D10*
X162650000Y-96250000D03*
X158850000Y-96250000D03*
D12*
X162020000Y-93500000D03*
D13*
X159480000Y-93500000D03*
X159480000Y-99000000D03*
X162020000Y-99000000D03*
D11*
X158300000Y-104600000D03*
D10*
X162650000Y-109250000D03*
X158850000Y-109250000D03*
D12*
X162020000Y-106500000D03*
D13*
X159480000Y-106500000D03*
X159480000Y-112000000D03*
X162020000Y-112000000D03*
D10*
X162650000Y-83250000D03*
X158850000Y-83250000D03*
D11*
X158300000Y-78600000D03*
D12*
X162020000Y-80500000D03*
D13*
X159480000Y-80500000D03*
X159480000Y-86000000D03*
X162020000Y-86000000D03*
D10*
X162650000Y-70250000D03*
D11*
X158300000Y-65600000D03*
D10*
X158850000Y-70250000D03*
D12*
X162020000Y-67500000D03*
D13*
X159480000Y-67500000D03*
X159480000Y-73000000D03*
X162020000Y-73000000D03*
D14*
X137750000Y-106710000D03*
X137750000Y-109250000D03*
X137750000Y-111790000D03*
X137750000Y-93750000D03*
X137750000Y-96290000D03*
X137750000Y-98830000D03*
D15*
X150750000Y-122250000D03*
D14*
X137750000Y-67710000D03*
X137750000Y-70250000D03*
X137750000Y-72790000D03*
X137750000Y-80710000D03*
X137750000Y-83250000D03*
X137750000Y-85790000D03*
D15*
X150750000Y-70250000D03*
D16*
X131525000Y-67200000D03*
D17*
X128985000Y-67200000D03*
X131525000Y-69740000D03*
X128985000Y-69740000D03*
X131525000Y-72280000D03*
X128985000Y-72280000D03*
X131525000Y-74820000D03*
X128985000Y-74820000D03*
D16*
X131500000Y-80000000D03*
D17*
X128960000Y-80000000D03*
X131500000Y-82540000D03*
X128960000Y-82540000D03*
X131500000Y-85080000D03*
X128960000Y-85080000D03*
X131500000Y-87620000D03*
X128960000Y-87620000D03*
X131500000Y-90160000D03*
X128960000Y-90160000D03*
X131500000Y-92700000D03*
X128960000Y-92700000D03*
D14*
X137750000Y-119710000D03*
X137750000Y-122250000D03*
X137750000Y-124790000D03*
M02*
