%TF.GenerationSoftware,KiCad,Pcbnew,(6.0.8)*%
%TF.CreationDate,2023-09-02T11:51:02+03:00*%
%TF.ProjectId,line_sensor_encoder,6c696e65-5f73-4656-9e73-6f725f656e63,rev?*%
%TF.SameCoordinates,Original*%
%TF.FileFunction,Drillmap*%
%TF.FilePolarity,Positive*%
%FSLAX45Y45*%
G04 Gerber Fmt 4.5, Leading zero omitted, Abs format (unit mm)*
G04 Created by KiCad (PCBNEW (6.0.8)) date 2023-09-02 11:51:02*
%MOMM*%
%LPD*%
G01*
G04 APERTURE LIST*
%ADD10C,0.100000*%
%ADD11C,0.200000*%
%ADD12C,0.250000*%
%ADD13C,0.320000*%
G04 APERTURE END LIST*
D10*
X12600000Y-6325000D02*
X17100000Y-6325000D01*
X17100000Y-6325000D02*
X17100000Y-12925000D01*
X17100000Y-12925000D02*
X12600000Y-12925000D01*
X12600000Y-12925000D02*
X12600000Y-6325000D01*
D11*
D10*
X15780000Y-6510000D02*
X15880000Y-6610000D01*
X15880000Y-6510000D02*
X15780000Y-6610000D01*
X15780000Y-7810000D02*
X15880000Y-7910000D01*
X15880000Y-7810000D02*
X15780000Y-7910000D01*
X15780000Y-9110000D02*
X15880000Y-9210000D01*
X15880000Y-9110000D02*
X15780000Y-9210000D01*
X15780000Y-10410000D02*
X15880000Y-10510000D01*
X15880000Y-10410000D02*
X15780000Y-10510000D01*
X15780000Y-11710000D02*
X15880000Y-11810000D01*
X15880000Y-11710000D02*
X15780000Y-11810000D01*
D12*
X16010000Y-7025000D02*
G75*
G03*
X16010000Y-7025000I-125000J0D01*
G01*
X16010000Y-8325000D02*
G75*
G03*
X16010000Y-8325000I-125000J0D01*
G01*
X16010000Y-9625000D02*
G75*
G03*
X16010000Y-9625000I-125000J0D01*
G01*
X16010000Y-10925000D02*
G75*
G03*
X16010000Y-10925000I-125000J0D01*
G01*
X16010000Y-12225000D02*
G75*
G03*
X16010000Y-12225000I-125000J0D01*
G01*
X16390000Y-7025000D02*
G75*
G03*
X16390000Y-7025000I-125000J0D01*
G01*
X16390000Y-8325000D02*
G75*
G03*
X16390000Y-8325000I-125000J0D01*
G01*
X16390000Y-9625000D02*
G75*
G03*
X16390000Y-9625000I-125000J0D01*
G01*
X16390000Y-10925000D02*
G75*
G03*
X16390000Y-10925000I-125000J0D01*
G01*
X16390000Y-12225000D02*
G75*
G03*
X16390000Y-12225000I-125000J0D01*
G01*
D13*
X15075000Y-6865000D02*
X15075000Y-7185000D01*
X14915000Y-7025000D02*
X15235000Y-7025000D01*
X15075000Y-12065000D02*
X15075000Y-12385000D01*
X14915000Y-12225000D02*
X15235000Y-12225000D01*
D11*
X12852619Y-13240476D02*
X12852619Y-13040476D01*
X12900238Y-13040476D01*
X12928809Y-13050000D01*
X12947857Y-13069048D01*
X12957381Y-13088095D01*
X12966905Y-13126190D01*
X12966905Y-13154762D01*
X12957381Y-13192857D01*
X12947857Y-13211905D01*
X12928809Y-13230952D01*
X12900238Y-13240476D01*
X12852619Y-13240476D01*
X13052619Y-13240476D02*
X13052619Y-13107143D01*
X13052619Y-13145238D02*
X13062143Y-13126190D01*
X13071667Y-13116667D01*
X13090714Y-13107143D01*
X13109762Y-13107143D01*
X13176428Y-13240476D02*
X13176428Y-13107143D01*
X13176428Y-13040476D02*
X13166905Y-13050000D01*
X13176428Y-13059524D01*
X13185952Y-13050000D01*
X13176428Y-13040476D01*
X13176428Y-13059524D01*
X13300238Y-13240476D02*
X13281190Y-13230952D01*
X13271667Y-13211905D01*
X13271667Y-13040476D01*
X13405000Y-13240476D02*
X13385952Y-13230952D01*
X13376428Y-13211905D01*
X13376428Y-13040476D01*
X13633571Y-13240476D02*
X13633571Y-13040476D01*
X13700238Y-13183333D01*
X13766905Y-13040476D01*
X13766905Y-13240476D01*
X13947857Y-13240476D02*
X13947857Y-13135714D01*
X13938333Y-13116667D01*
X13919286Y-13107143D01*
X13881190Y-13107143D01*
X13862143Y-13116667D01*
X13947857Y-13230952D02*
X13928809Y-13240476D01*
X13881190Y-13240476D01*
X13862143Y-13230952D01*
X13852619Y-13211905D01*
X13852619Y-13192857D01*
X13862143Y-13173809D01*
X13881190Y-13164286D01*
X13928809Y-13164286D01*
X13947857Y-13154762D01*
X14043095Y-13107143D02*
X14043095Y-13307143D01*
X14043095Y-13116667D02*
X14062143Y-13107143D01*
X14100238Y-13107143D01*
X14119286Y-13116667D01*
X14128809Y-13126190D01*
X14138333Y-13145238D01*
X14138333Y-13202381D01*
X14128809Y-13221428D01*
X14119286Y-13230952D01*
X14100238Y-13240476D01*
X14062143Y-13240476D01*
X14043095Y-13230952D01*
X14224048Y-13221428D02*
X14233571Y-13230952D01*
X14224048Y-13240476D01*
X14214524Y-13230952D01*
X14224048Y-13221428D01*
X14224048Y-13240476D01*
X14224048Y-13116667D02*
X14233571Y-13126190D01*
X14224048Y-13135714D01*
X14214524Y-13126190D01*
X14224048Y-13116667D01*
X14224048Y-13135714D01*
D10*
X12495000Y-13520000D02*
X12595000Y-13620000D01*
X12595000Y-13520000D02*
X12495000Y-13620000D01*
D11*
X12957381Y-13660476D02*
X12843095Y-13660476D01*
X12900238Y-13660476D02*
X12900238Y-13460476D01*
X12881190Y-13489048D01*
X12862143Y-13508095D01*
X12843095Y-13517619D01*
X13043095Y-13641428D02*
X13052619Y-13650952D01*
X13043095Y-13660476D01*
X13033571Y-13650952D01*
X13043095Y-13641428D01*
X13043095Y-13660476D01*
X13176428Y-13460476D02*
X13195476Y-13460476D01*
X13214524Y-13470000D01*
X13224048Y-13479524D01*
X13233571Y-13498571D01*
X13243095Y-13536667D01*
X13243095Y-13584286D01*
X13233571Y-13622381D01*
X13224048Y-13641428D01*
X13214524Y-13650952D01*
X13195476Y-13660476D01*
X13176428Y-13660476D01*
X13157381Y-13650952D01*
X13147857Y-13641428D01*
X13138333Y-13622381D01*
X13128809Y-13584286D01*
X13128809Y-13536667D01*
X13138333Y-13498571D01*
X13147857Y-13479524D01*
X13157381Y-13470000D01*
X13176428Y-13460476D01*
X13366905Y-13460476D02*
X13385952Y-13460476D01*
X13405000Y-13470000D01*
X13414524Y-13479524D01*
X13424048Y-13498571D01*
X13433571Y-13536667D01*
X13433571Y-13584286D01*
X13424048Y-13622381D01*
X13414524Y-13641428D01*
X13405000Y-13650952D01*
X13385952Y-13660476D01*
X13366905Y-13660476D01*
X13347857Y-13650952D01*
X13338333Y-13641428D01*
X13328809Y-13622381D01*
X13319286Y-13584286D01*
X13319286Y-13536667D01*
X13328809Y-13498571D01*
X13338333Y-13479524D01*
X13347857Y-13470000D01*
X13366905Y-13460476D01*
X13557381Y-13460476D02*
X13576428Y-13460476D01*
X13595476Y-13470000D01*
X13605000Y-13479524D01*
X13614524Y-13498571D01*
X13624048Y-13536667D01*
X13624048Y-13584286D01*
X13614524Y-13622381D01*
X13605000Y-13641428D01*
X13595476Y-13650952D01*
X13576428Y-13660476D01*
X13557381Y-13660476D01*
X13538333Y-13650952D01*
X13528809Y-13641428D01*
X13519286Y-13622381D01*
X13509762Y-13584286D01*
X13509762Y-13536667D01*
X13519286Y-13498571D01*
X13528809Y-13479524D01*
X13538333Y-13470000D01*
X13557381Y-13460476D01*
X13709762Y-13660476D02*
X13709762Y-13527143D01*
X13709762Y-13546190D02*
X13719286Y-13536667D01*
X13738333Y-13527143D01*
X13766905Y-13527143D01*
X13785952Y-13536667D01*
X13795476Y-13555714D01*
X13795476Y-13660476D01*
X13795476Y-13555714D02*
X13805000Y-13536667D01*
X13824048Y-13527143D01*
X13852619Y-13527143D01*
X13871667Y-13536667D01*
X13881190Y-13555714D01*
X13881190Y-13660476D01*
X13976428Y-13660476D02*
X13976428Y-13527143D01*
X13976428Y-13546190D02*
X13985952Y-13536667D01*
X14005000Y-13527143D01*
X14033571Y-13527143D01*
X14052619Y-13536667D01*
X14062143Y-13555714D01*
X14062143Y-13660476D01*
X14062143Y-13555714D02*
X14071667Y-13536667D01*
X14090714Y-13527143D01*
X14119286Y-13527143D01*
X14138333Y-13536667D01*
X14147857Y-13555714D01*
X14147857Y-13660476D01*
X14538333Y-13450952D02*
X14366905Y-13708095D01*
X14795476Y-13460476D02*
X14814524Y-13460476D01*
X14833571Y-13470000D01*
X14843095Y-13479524D01*
X14852619Y-13498571D01*
X14862143Y-13536667D01*
X14862143Y-13584286D01*
X14852619Y-13622381D01*
X14843095Y-13641428D01*
X14833571Y-13650952D01*
X14814524Y-13660476D01*
X14795476Y-13660476D01*
X14776428Y-13650952D01*
X14766905Y-13641428D01*
X14757381Y-13622381D01*
X14747857Y-13584286D01*
X14747857Y-13536667D01*
X14757381Y-13498571D01*
X14766905Y-13479524D01*
X14776428Y-13470000D01*
X14795476Y-13460476D01*
X14947857Y-13641428D02*
X14957381Y-13650952D01*
X14947857Y-13660476D01*
X14938333Y-13650952D01*
X14947857Y-13641428D01*
X14947857Y-13660476D01*
X15081190Y-13460476D02*
X15100238Y-13460476D01*
X15119286Y-13470000D01*
X15128809Y-13479524D01*
X15138333Y-13498571D01*
X15147857Y-13536667D01*
X15147857Y-13584286D01*
X15138333Y-13622381D01*
X15128809Y-13641428D01*
X15119286Y-13650952D01*
X15100238Y-13660476D01*
X15081190Y-13660476D01*
X15062143Y-13650952D01*
X15052619Y-13641428D01*
X15043095Y-13622381D01*
X15033571Y-13584286D01*
X15033571Y-13536667D01*
X15043095Y-13498571D01*
X15052619Y-13479524D01*
X15062143Y-13470000D01*
X15081190Y-13460476D01*
X15214524Y-13460476D02*
X15338333Y-13460476D01*
X15271667Y-13536667D01*
X15300238Y-13536667D01*
X15319286Y-13546190D01*
X15328809Y-13555714D01*
X15338333Y-13574762D01*
X15338333Y-13622381D01*
X15328809Y-13641428D01*
X15319286Y-13650952D01*
X15300238Y-13660476D01*
X15243095Y-13660476D01*
X15224048Y-13650952D01*
X15214524Y-13641428D01*
X15433571Y-13660476D02*
X15471667Y-13660476D01*
X15490714Y-13650952D01*
X15500238Y-13641428D01*
X15519286Y-13612857D01*
X15528809Y-13574762D01*
X15528809Y-13498571D01*
X15519286Y-13479524D01*
X15509762Y-13470000D01*
X15490714Y-13460476D01*
X15452619Y-13460476D01*
X15433571Y-13470000D01*
X15424048Y-13479524D01*
X15414524Y-13498571D01*
X15414524Y-13546190D01*
X15424048Y-13565238D01*
X15433571Y-13574762D01*
X15452619Y-13584286D01*
X15490714Y-13584286D01*
X15509762Y-13574762D01*
X15519286Y-13565238D01*
X15528809Y-13546190D01*
X15700238Y-13527143D02*
X15700238Y-13660476D01*
X15652619Y-13450952D02*
X15605000Y-13593809D01*
X15728809Y-13593809D01*
X15795476Y-13460476D02*
X15795476Y-13498571D01*
X15871667Y-13460476D02*
X15871667Y-13498571D01*
X16166905Y-13736667D02*
X16157381Y-13727143D01*
X16138333Y-13698571D01*
X16128809Y-13679524D01*
X16119286Y-13650952D01*
X16109762Y-13603333D01*
X16109762Y-13565238D01*
X16119286Y-13517619D01*
X16128809Y-13489048D01*
X16138333Y-13470000D01*
X16157381Y-13441428D01*
X16166905Y-13431905D01*
X16338333Y-13460476D02*
X16243095Y-13460476D01*
X16233571Y-13555714D01*
X16243095Y-13546190D01*
X16262143Y-13536667D01*
X16309762Y-13536667D01*
X16328809Y-13546190D01*
X16338333Y-13555714D01*
X16347857Y-13574762D01*
X16347857Y-13622381D01*
X16338333Y-13641428D01*
X16328809Y-13650952D01*
X16309762Y-13660476D01*
X16262143Y-13660476D01*
X16243095Y-13650952D01*
X16233571Y-13641428D01*
X16585952Y-13660476D02*
X16585952Y-13460476D01*
X16671667Y-13660476D02*
X16671667Y-13555714D01*
X16662143Y-13536667D01*
X16643095Y-13527143D01*
X16614524Y-13527143D01*
X16595476Y-13536667D01*
X16585952Y-13546190D01*
X16795476Y-13660476D02*
X16776428Y-13650952D01*
X16766905Y-13641428D01*
X16757381Y-13622381D01*
X16757381Y-13565238D01*
X16766905Y-13546190D01*
X16776428Y-13536667D01*
X16795476Y-13527143D01*
X16824048Y-13527143D01*
X16843095Y-13536667D01*
X16852619Y-13546190D01*
X16862143Y-13565238D01*
X16862143Y-13622381D01*
X16852619Y-13641428D01*
X16843095Y-13650952D01*
X16824048Y-13660476D01*
X16795476Y-13660476D01*
X16976429Y-13660476D02*
X16957381Y-13650952D01*
X16947857Y-13631905D01*
X16947857Y-13460476D01*
X17128810Y-13650952D02*
X17109762Y-13660476D01*
X17071667Y-13660476D01*
X17052619Y-13650952D01*
X17043095Y-13631905D01*
X17043095Y-13555714D01*
X17052619Y-13536667D01*
X17071667Y-13527143D01*
X17109762Y-13527143D01*
X17128810Y-13536667D01*
X17138333Y-13555714D01*
X17138333Y-13574762D01*
X17043095Y-13593809D01*
X17214524Y-13650952D02*
X17233571Y-13660476D01*
X17271667Y-13660476D01*
X17290714Y-13650952D01*
X17300238Y-13631905D01*
X17300238Y-13622381D01*
X17290714Y-13603333D01*
X17271667Y-13593809D01*
X17243095Y-13593809D01*
X17224048Y-13584286D01*
X17214524Y-13565238D01*
X17214524Y-13555714D01*
X17224048Y-13536667D01*
X17243095Y-13527143D01*
X17271667Y-13527143D01*
X17290714Y-13536667D01*
X17366905Y-13736667D02*
X17376429Y-13727143D01*
X17395476Y-13698571D01*
X17405000Y-13679524D01*
X17414524Y-13650952D01*
X17424048Y-13603333D01*
X17424048Y-13565238D01*
X17414524Y-13517619D01*
X17405000Y-13489048D01*
X17395476Y-13470000D01*
X17376429Y-13441428D01*
X17366905Y-13431905D01*
X17728810Y-13736667D02*
X17719286Y-13727143D01*
X17700238Y-13698571D01*
X17690714Y-13679524D01*
X17681190Y-13650952D01*
X17671667Y-13603333D01*
X17671667Y-13565238D01*
X17681190Y-13517619D01*
X17690714Y-13489048D01*
X17700238Y-13470000D01*
X17719286Y-13441428D01*
X17728810Y-13431905D01*
X17805000Y-13527143D02*
X17805000Y-13660476D01*
X17805000Y-13546190D02*
X17814524Y-13536667D01*
X17833571Y-13527143D01*
X17862143Y-13527143D01*
X17881190Y-13536667D01*
X17890714Y-13555714D01*
X17890714Y-13660476D01*
X18014524Y-13660476D02*
X17995476Y-13650952D01*
X17985952Y-13641428D01*
X17976429Y-13622381D01*
X17976429Y-13565238D01*
X17985952Y-13546190D01*
X17995476Y-13536667D01*
X18014524Y-13527143D01*
X18043095Y-13527143D01*
X18062143Y-13536667D01*
X18071667Y-13546190D01*
X18081190Y-13565238D01*
X18081190Y-13622381D01*
X18071667Y-13641428D01*
X18062143Y-13650952D01*
X18043095Y-13660476D01*
X18014524Y-13660476D01*
X18138333Y-13527143D02*
X18214524Y-13527143D01*
X18166905Y-13460476D02*
X18166905Y-13631905D01*
X18176429Y-13650952D01*
X18195476Y-13660476D01*
X18214524Y-13660476D01*
X18433571Y-13527143D02*
X18433571Y-13727143D01*
X18433571Y-13536667D02*
X18452619Y-13527143D01*
X18490714Y-13527143D01*
X18509762Y-13536667D01*
X18519286Y-13546190D01*
X18528810Y-13565238D01*
X18528810Y-13622381D01*
X18519286Y-13641428D01*
X18509762Y-13650952D01*
X18490714Y-13660476D01*
X18452619Y-13660476D01*
X18433571Y-13650952D01*
X18643095Y-13660476D02*
X18624048Y-13650952D01*
X18614524Y-13631905D01*
X18614524Y-13460476D01*
X18805000Y-13660476D02*
X18805000Y-13555714D01*
X18795476Y-13536667D01*
X18776429Y-13527143D01*
X18738333Y-13527143D01*
X18719286Y-13536667D01*
X18805000Y-13650952D02*
X18785952Y-13660476D01*
X18738333Y-13660476D01*
X18719286Y-13650952D01*
X18709762Y-13631905D01*
X18709762Y-13612857D01*
X18719286Y-13593809D01*
X18738333Y-13584286D01*
X18785952Y-13584286D01*
X18805000Y-13574762D01*
X18871667Y-13527143D02*
X18947857Y-13527143D01*
X18900238Y-13460476D02*
X18900238Y-13631905D01*
X18909762Y-13650952D01*
X18928810Y-13660476D01*
X18947857Y-13660476D01*
X19090714Y-13650952D02*
X19071667Y-13660476D01*
X19033571Y-13660476D01*
X19014524Y-13650952D01*
X19005000Y-13631905D01*
X19005000Y-13555714D01*
X19014524Y-13536667D01*
X19033571Y-13527143D01*
X19071667Y-13527143D01*
X19090714Y-13536667D01*
X19100238Y-13555714D01*
X19100238Y-13574762D01*
X19005000Y-13593809D01*
X19271667Y-13660476D02*
X19271667Y-13460476D01*
X19271667Y-13650952D02*
X19252619Y-13660476D01*
X19214524Y-13660476D01*
X19195476Y-13650952D01*
X19185952Y-13641428D01*
X19176429Y-13622381D01*
X19176429Y-13565238D01*
X19185952Y-13546190D01*
X19195476Y-13536667D01*
X19214524Y-13527143D01*
X19252619Y-13527143D01*
X19271667Y-13536667D01*
X19347857Y-13736667D02*
X19357381Y-13727143D01*
X19376429Y-13698571D01*
X19385952Y-13679524D01*
X19395476Y-13650952D01*
X19405000Y-13603333D01*
X19405000Y-13565238D01*
X19395476Y-13517619D01*
X19385952Y-13489048D01*
X19376429Y-13470000D01*
X19357381Y-13441428D01*
X19347857Y-13431905D01*
X12595000Y-13834000D02*
G75*
G03*
X12595000Y-13834000I-100000J0D01*
G01*
X12843095Y-13743524D02*
X12852619Y-13734000D01*
X12871667Y-13724476D01*
X12919286Y-13724476D01*
X12938333Y-13734000D01*
X12947857Y-13743524D01*
X12957381Y-13762571D01*
X12957381Y-13781619D01*
X12947857Y-13810190D01*
X12833571Y-13924476D01*
X12957381Y-13924476D01*
X13043095Y-13905428D02*
X13052619Y-13914952D01*
X13043095Y-13924476D01*
X13033571Y-13914952D01*
X13043095Y-13905428D01*
X13043095Y-13924476D01*
X13233571Y-13724476D02*
X13138333Y-13724476D01*
X13128809Y-13819714D01*
X13138333Y-13810190D01*
X13157381Y-13800667D01*
X13205000Y-13800667D01*
X13224048Y-13810190D01*
X13233571Y-13819714D01*
X13243095Y-13838762D01*
X13243095Y-13886381D01*
X13233571Y-13905428D01*
X13224048Y-13914952D01*
X13205000Y-13924476D01*
X13157381Y-13924476D01*
X13138333Y-13914952D01*
X13128809Y-13905428D01*
X13366905Y-13724476D02*
X13385952Y-13724476D01*
X13405000Y-13734000D01*
X13414524Y-13743524D01*
X13424048Y-13762571D01*
X13433571Y-13800667D01*
X13433571Y-13848286D01*
X13424048Y-13886381D01*
X13414524Y-13905428D01*
X13405000Y-13914952D01*
X13385952Y-13924476D01*
X13366905Y-13924476D01*
X13347857Y-13914952D01*
X13338333Y-13905428D01*
X13328809Y-13886381D01*
X13319286Y-13848286D01*
X13319286Y-13800667D01*
X13328809Y-13762571D01*
X13338333Y-13743524D01*
X13347857Y-13734000D01*
X13366905Y-13724476D01*
X13557381Y-13724476D02*
X13576428Y-13724476D01*
X13595476Y-13734000D01*
X13605000Y-13743524D01*
X13614524Y-13762571D01*
X13624048Y-13800667D01*
X13624048Y-13848286D01*
X13614524Y-13886381D01*
X13605000Y-13905428D01*
X13595476Y-13914952D01*
X13576428Y-13924476D01*
X13557381Y-13924476D01*
X13538333Y-13914952D01*
X13528809Y-13905428D01*
X13519286Y-13886381D01*
X13509762Y-13848286D01*
X13509762Y-13800667D01*
X13519286Y-13762571D01*
X13528809Y-13743524D01*
X13538333Y-13734000D01*
X13557381Y-13724476D01*
X13709762Y-13924476D02*
X13709762Y-13791143D01*
X13709762Y-13810190D02*
X13719286Y-13800667D01*
X13738333Y-13791143D01*
X13766905Y-13791143D01*
X13785952Y-13800667D01*
X13795476Y-13819714D01*
X13795476Y-13924476D01*
X13795476Y-13819714D02*
X13805000Y-13800667D01*
X13824048Y-13791143D01*
X13852619Y-13791143D01*
X13871667Y-13800667D01*
X13881190Y-13819714D01*
X13881190Y-13924476D01*
X13976428Y-13924476D02*
X13976428Y-13791143D01*
X13976428Y-13810190D02*
X13985952Y-13800667D01*
X14005000Y-13791143D01*
X14033571Y-13791143D01*
X14052619Y-13800667D01*
X14062143Y-13819714D01*
X14062143Y-13924476D01*
X14062143Y-13819714D02*
X14071667Y-13800667D01*
X14090714Y-13791143D01*
X14119286Y-13791143D01*
X14138333Y-13800667D01*
X14147857Y-13819714D01*
X14147857Y-13924476D01*
X14538333Y-13714952D02*
X14366905Y-13972095D01*
X14795476Y-13724476D02*
X14814524Y-13724476D01*
X14833571Y-13734000D01*
X14843095Y-13743524D01*
X14852619Y-13762571D01*
X14862143Y-13800667D01*
X14862143Y-13848286D01*
X14852619Y-13886381D01*
X14843095Y-13905428D01*
X14833571Y-13914952D01*
X14814524Y-13924476D01*
X14795476Y-13924476D01*
X14776428Y-13914952D01*
X14766905Y-13905428D01*
X14757381Y-13886381D01*
X14747857Y-13848286D01*
X14747857Y-13800667D01*
X14757381Y-13762571D01*
X14766905Y-13743524D01*
X14776428Y-13734000D01*
X14795476Y-13724476D01*
X14947857Y-13905428D02*
X14957381Y-13914952D01*
X14947857Y-13924476D01*
X14938333Y-13914952D01*
X14947857Y-13905428D01*
X14947857Y-13924476D01*
X15081190Y-13724476D02*
X15100238Y-13724476D01*
X15119286Y-13734000D01*
X15128809Y-13743524D01*
X15138333Y-13762571D01*
X15147857Y-13800667D01*
X15147857Y-13848286D01*
X15138333Y-13886381D01*
X15128809Y-13905428D01*
X15119286Y-13914952D01*
X15100238Y-13924476D01*
X15081190Y-13924476D01*
X15062143Y-13914952D01*
X15052619Y-13905428D01*
X15043095Y-13886381D01*
X15033571Y-13848286D01*
X15033571Y-13800667D01*
X15043095Y-13762571D01*
X15052619Y-13743524D01*
X15062143Y-13734000D01*
X15081190Y-13724476D01*
X15243095Y-13924476D02*
X15281190Y-13924476D01*
X15300238Y-13914952D01*
X15309762Y-13905428D01*
X15328809Y-13876857D01*
X15338333Y-13838762D01*
X15338333Y-13762571D01*
X15328809Y-13743524D01*
X15319286Y-13734000D01*
X15300238Y-13724476D01*
X15262143Y-13724476D01*
X15243095Y-13734000D01*
X15233571Y-13743524D01*
X15224048Y-13762571D01*
X15224048Y-13810190D01*
X15233571Y-13829238D01*
X15243095Y-13838762D01*
X15262143Y-13848286D01*
X15300238Y-13848286D01*
X15319286Y-13838762D01*
X15328809Y-13829238D01*
X15338333Y-13810190D01*
X15452619Y-13810190D02*
X15433571Y-13800667D01*
X15424048Y-13791143D01*
X15414524Y-13772095D01*
X15414524Y-13762571D01*
X15424048Y-13743524D01*
X15433571Y-13734000D01*
X15452619Y-13724476D01*
X15490714Y-13724476D01*
X15509762Y-13734000D01*
X15519286Y-13743524D01*
X15528809Y-13762571D01*
X15528809Y-13772095D01*
X15519286Y-13791143D01*
X15509762Y-13800667D01*
X15490714Y-13810190D01*
X15452619Y-13810190D01*
X15433571Y-13819714D01*
X15424048Y-13829238D01*
X15414524Y-13848286D01*
X15414524Y-13886381D01*
X15424048Y-13905428D01*
X15433571Y-13914952D01*
X15452619Y-13924476D01*
X15490714Y-13924476D01*
X15509762Y-13914952D01*
X15519286Y-13905428D01*
X15528809Y-13886381D01*
X15528809Y-13848286D01*
X15519286Y-13829238D01*
X15509762Y-13819714D01*
X15490714Y-13810190D01*
X15700238Y-13791143D02*
X15700238Y-13924476D01*
X15652619Y-13714952D02*
X15605000Y-13857809D01*
X15728809Y-13857809D01*
X15795476Y-13724476D02*
X15795476Y-13762571D01*
X15871667Y-13724476D02*
X15871667Y-13762571D01*
X16166905Y-14000667D02*
X16157381Y-13991143D01*
X16138333Y-13962571D01*
X16128809Y-13943524D01*
X16119286Y-13914952D01*
X16109762Y-13867333D01*
X16109762Y-13829238D01*
X16119286Y-13781619D01*
X16128809Y-13753048D01*
X16138333Y-13734000D01*
X16157381Y-13705428D01*
X16166905Y-13695905D01*
X16347857Y-13924476D02*
X16233571Y-13924476D01*
X16290714Y-13924476D02*
X16290714Y-13724476D01*
X16271667Y-13753048D01*
X16252619Y-13772095D01*
X16233571Y-13781619D01*
X16471667Y-13724476D02*
X16490714Y-13724476D01*
X16509762Y-13734000D01*
X16519286Y-13743524D01*
X16528809Y-13762571D01*
X16538333Y-13800667D01*
X16538333Y-13848286D01*
X16528809Y-13886381D01*
X16519286Y-13905428D01*
X16509762Y-13914952D01*
X16490714Y-13924476D01*
X16471667Y-13924476D01*
X16452619Y-13914952D01*
X16443095Y-13905428D01*
X16433571Y-13886381D01*
X16424048Y-13848286D01*
X16424048Y-13800667D01*
X16433571Y-13762571D01*
X16443095Y-13743524D01*
X16452619Y-13734000D01*
X16471667Y-13724476D01*
X16776428Y-13924476D02*
X16776428Y-13724476D01*
X16862143Y-13924476D02*
X16862143Y-13819714D01*
X16852619Y-13800667D01*
X16833571Y-13791143D01*
X16805000Y-13791143D01*
X16785952Y-13800667D01*
X16776428Y-13810190D01*
X16985952Y-13924476D02*
X16966905Y-13914952D01*
X16957381Y-13905428D01*
X16947857Y-13886381D01*
X16947857Y-13829238D01*
X16957381Y-13810190D01*
X16966905Y-13800667D01*
X16985952Y-13791143D01*
X17014524Y-13791143D01*
X17033571Y-13800667D01*
X17043095Y-13810190D01*
X17052619Y-13829238D01*
X17052619Y-13886381D01*
X17043095Y-13905428D01*
X17033571Y-13914952D01*
X17014524Y-13924476D01*
X16985952Y-13924476D01*
X17166905Y-13924476D02*
X17147857Y-13914952D01*
X17138333Y-13895905D01*
X17138333Y-13724476D01*
X17319286Y-13914952D02*
X17300238Y-13924476D01*
X17262143Y-13924476D01*
X17243095Y-13914952D01*
X17233571Y-13895905D01*
X17233571Y-13819714D01*
X17243095Y-13800667D01*
X17262143Y-13791143D01*
X17300238Y-13791143D01*
X17319286Y-13800667D01*
X17328810Y-13819714D01*
X17328810Y-13838762D01*
X17233571Y-13857809D01*
X17405000Y-13914952D02*
X17424048Y-13924476D01*
X17462143Y-13924476D01*
X17481190Y-13914952D01*
X17490714Y-13895905D01*
X17490714Y-13886381D01*
X17481190Y-13867333D01*
X17462143Y-13857809D01*
X17433571Y-13857809D01*
X17414524Y-13848286D01*
X17405000Y-13829238D01*
X17405000Y-13819714D01*
X17414524Y-13800667D01*
X17433571Y-13791143D01*
X17462143Y-13791143D01*
X17481190Y-13800667D01*
X17557381Y-14000667D02*
X17566905Y-13991143D01*
X17585952Y-13962571D01*
X17595476Y-13943524D01*
X17605000Y-13914952D01*
X17614524Y-13867333D01*
X17614524Y-13829238D01*
X17605000Y-13781619D01*
X17595476Y-13753048D01*
X17585952Y-13734000D01*
X17566905Y-13705428D01*
X17557381Y-13695905D01*
X17919286Y-14000667D02*
X17909762Y-13991143D01*
X17890714Y-13962571D01*
X17881190Y-13943524D01*
X17871667Y-13914952D01*
X17862143Y-13867333D01*
X17862143Y-13829238D01*
X17871667Y-13781619D01*
X17881190Y-13753048D01*
X17890714Y-13734000D01*
X17909762Y-13705428D01*
X17919286Y-13695905D01*
X17995476Y-13791143D02*
X17995476Y-13924476D01*
X17995476Y-13810190D02*
X18005000Y-13800667D01*
X18024048Y-13791143D01*
X18052619Y-13791143D01*
X18071667Y-13800667D01*
X18081190Y-13819714D01*
X18081190Y-13924476D01*
X18205000Y-13924476D02*
X18185952Y-13914952D01*
X18176429Y-13905428D01*
X18166905Y-13886381D01*
X18166905Y-13829238D01*
X18176429Y-13810190D01*
X18185952Y-13800667D01*
X18205000Y-13791143D01*
X18233571Y-13791143D01*
X18252619Y-13800667D01*
X18262143Y-13810190D01*
X18271667Y-13829238D01*
X18271667Y-13886381D01*
X18262143Y-13905428D01*
X18252619Y-13914952D01*
X18233571Y-13924476D01*
X18205000Y-13924476D01*
X18328810Y-13791143D02*
X18405000Y-13791143D01*
X18357381Y-13724476D02*
X18357381Y-13895905D01*
X18366905Y-13914952D01*
X18385952Y-13924476D01*
X18405000Y-13924476D01*
X18624048Y-13791143D02*
X18624048Y-13991143D01*
X18624048Y-13800667D02*
X18643095Y-13791143D01*
X18681190Y-13791143D01*
X18700238Y-13800667D01*
X18709762Y-13810190D01*
X18719286Y-13829238D01*
X18719286Y-13886381D01*
X18709762Y-13905428D01*
X18700238Y-13914952D01*
X18681190Y-13924476D01*
X18643095Y-13924476D01*
X18624048Y-13914952D01*
X18833571Y-13924476D02*
X18814524Y-13914952D01*
X18805000Y-13895905D01*
X18805000Y-13724476D01*
X18995476Y-13924476D02*
X18995476Y-13819714D01*
X18985952Y-13800667D01*
X18966905Y-13791143D01*
X18928810Y-13791143D01*
X18909762Y-13800667D01*
X18995476Y-13914952D02*
X18976429Y-13924476D01*
X18928810Y-13924476D01*
X18909762Y-13914952D01*
X18900238Y-13895905D01*
X18900238Y-13876857D01*
X18909762Y-13857809D01*
X18928810Y-13848286D01*
X18976429Y-13848286D01*
X18995476Y-13838762D01*
X19062143Y-13791143D02*
X19138333Y-13791143D01*
X19090714Y-13724476D02*
X19090714Y-13895905D01*
X19100238Y-13914952D01*
X19119286Y-13924476D01*
X19138333Y-13924476D01*
X19281190Y-13914952D02*
X19262143Y-13924476D01*
X19224048Y-13924476D01*
X19205000Y-13914952D01*
X19195476Y-13895905D01*
X19195476Y-13819714D01*
X19205000Y-13800667D01*
X19224048Y-13791143D01*
X19262143Y-13791143D01*
X19281190Y-13800667D01*
X19290714Y-13819714D01*
X19290714Y-13838762D01*
X19195476Y-13857809D01*
X19462143Y-13924476D02*
X19462143Y-13724476D01*
X19462143Y-13914952D02*
X19443095Y-13924476D01*
X19405000Y-13924476D01*
X19385952Y-13914952D01*
X19376429Y-13905428D01*
X19366905Y-13886381D01*
X19366905Y-13829238D01*
X19376429Y-13810190D01*
X19385952Y-13800667D01*
X19405000Y-13791143D01*
X19443095Y-13791143D01*
X19462143Y-13800667D01*
X19538333Y-14000667D02*
X19547857Y-13991143D01*
X19566905Y-13962571D01*
X19576429Y-13943524D01*
X19585952Y-13914952D01*
X19595476Y-13867333D01*
X19595476Y-13829238D01*
X19585952Y-13781619D01*
X19576429Y-13753048D01*
X19566905Y-13734000D01*
X19547857Y-13705428D01*
X19538333Y-13695905D01*
X12495000Y-14054000D02*
X12495000Y-14254000D01*
X12395000Y-14154000D02*
X12595000Y-14154000D01*
X12833571Y-14044476D02*
X12957381Y-14044476D01*
X12890714Y-14120667D01*
X12919286Y-14120667D01*
X12938333Y-14130190D01*
X12947857Y-14139714D01*
X12957381Y-14158762D01*
X12957381Y-14206381D01*
X12947857Y-14225428D01*
X12938333Y-14234952D01*
X12919286Y-14244476D01*
X12862143Y-14244476D01*
X12843095Y-14234952D01*
X12833571Y-14225428D01*
X13043095Y-14225428D02*
X13052619Y-14234952D01*
X13043095Y-14244476D01*
X13033571Y-14234952D01*
X13043095Y-14225428D01*
X13043095Y-14244476D01*
X13128809Y-14063524D02*
X13138333Y-14054000D01*
X13157381Y-14044476D01*
X13205000Y-14044476D01*
X13224048Y-14054000D01*
X13233571Y-14063524D01*
X13243095Y-14082571D01*
X13243095Y-14101619D01*
X13233571Y-14130190D01*
X13119286Y-14244476D01*
X13243095Y-14244476D01*
X13366905Y-14044476D02*
X13385952Y-14044476D01*
X13405000Y-14054000D01*
X13414524Y-14063524D01*
X13424048Y-14082571D01*
X13433571Y-14120667D01*
X13433571Y-14168286D01*
X13424048Y-14206381D01*
X13414524Y-14225428D01*
X13405000Y-14234952D01*
X13385952Y-14244476D01*
X13366905Y-14244476D01*
X13347857Y-14234952D01*
X13338333Y-14225428D01*
X13328809Y-14206381D01*
X13319286Y-14168286D01*
X13319286Y-14120667D01*
X13328809Y-14082571D01*
X13338333Y-14063524D01*
X13347857Y-14054000D01*
X13366905Y-14044476D01*
X13557381Y-14044476D02*
X13576428Y-14044476D01*
X13595476Y-14054000D01*
X13605000Y-14063524D01*
X13614524Y-14082571D01*
X13624048Y-14120667D01*
X13624048Y-14168286D01*
X13614524Y-14206381D01*
X13605000Y-14225428D01*
X13595476Y-14234952D01*
X13576428Y-14244476D01*
X13557381Y-14244476D01*
X13538333Y-14234952D01*
X13528809Y-14225428D01*
X13519286Y-14206381D01*
X13509762Y-14168286D01*
X13509762Y-14120667D01*
X13519286Y-14082571D01*
X13528809Y-14063524D01*
X13538333Y-14054000D01*
X13557381Y-14044476D01*
X13709762Y-14244476D02*
X13709762Y-14111143D01*
X13709762Y-14130190D02*
X13719286Y-14120667D01*
X13738333Y-14111143D01*
X13766905Y-14111143D01*
X13785952Y-14120667D01*
X13795476Y-14139714D01*
X13795476Y-14244476D01*
X13795476Y-14139714D02*
X13805000Y-14120667D01*
X13824048Y-14111143D01*
X13852619Y-14111143D01*
X13871667Y-14120667D01*
X13881190Y-14139714D01*
X13881190Y-14244476D01*
X13976428Y-14244476D02*
X13976428Y-14111143D01*
X13976428Y-14130190D02*
X13985952Y-14120667D01*
X14005000Y-14111143D01*
X14033571Y-14111143D01*
X14052619Y-14120667D01*
X14062143Y-14139714D01*
X14062143Y-14244476D01*
X14062143Y-14139714D02*
X14071667Y-14120667D01*
X14090714Y-14111143D01*
X14119286Y-14111143D01*
X14138333Y-14120667D01*
X14147857Y-14139714D01*
X14147857Y-14244476D01*
X14538333Y-14034952D02*
X14366905Y-14292095D01*
X14795476Y-14044476D02*
X14814524Y-14044476D01*
X14833571Y-14054000D01*
X14843095Y-14063524D01*
X14852619Y-14082571D01*
X14862143Y-14120667D01*
X14862143Y-14168286D01*
X14852619Y-14206381D01*
X14843095Y-14225428D01*
X14833571Y-14234952D01*
X14814524Y-14244476D01*
X14795476Y-14244476D01*
X14776428Y-14234952D01*
X14766905Y-14225428D01*
X14757381Y-14206381D01*
X14747857Y-14168286D01*
X14747857Y-14120667D01*
X14757381Y-14082571D01*
X14766905Y-14063524D01*
X14776428Y-14054000D01*
X14795476Y-14044476D01*
X14947857Y-14225428D02*
X14957381Y-14234952D01*
X14947857Y-14244476D01*
X14938333Y-14234952D01*
X14947857Y-14225428D01*
X14947857Y-14244476D01*
X15147857Y-14244476D02*
X15033571Y-14244476D01*
X15090714Y-14244476D02*
X15090714Y-14044476D01*
X15071667Y-14073048D01*
X15052619Y-14092095D01*
X15033571Y-14101619D01*
X15224048Y-14063524D02*
X15233571Y-14054000D01*
X15252619Y-14044476D01*
X15300238Y-14044476D01*
X15319286Y-14054000D01*
X15328809Y-14063524D01*
X15338333Y-14082571D01*
X15338333Y-14101619D01*
X15328809Y-14130190D01*
X15214524Y-14244476D01*
X15338333Y-14244476D01*
X15509762Y-14044476D02*
X15471667Y-14044476D01*
X15452619Y-14054000D01*
X15443095Y-14063524D01*
X15424048Y-14092095D01*
X15414524Y-14130190D01*
X15414524Y-14206381D01*
X15424048Y-14225428D01*
X15433571Y-14234952D01*
X15452619Y-14244476D01*
X15490714Y-14244476D01*
X15509762Y-14234952D01*
X15519286Y-14225428D01*
X15528809Y-14206381D01*
X15528809Y-14158762D01*
X15519286Y-14139714D01*
X15509762Y-14130190D01*
X15490714Y-14120667D01*
X15452619Y-14120667D01*
X15433571Y-14130190D01*
X15424048Y-14139714D01*
X15414524Y-14158762D01*
X15652619Y-14044476D02*
X15671667Y-14044476D01*
X15690714Y-14054000D01*
X15700238Y-14063524D01*
X15709762Y-14082571D01*
X15719286Y-14120667D01*
X15719286Y-14168286D01*
X15709762Y-14206381D01*
X15700238Y-14225428D01*
X15690714Y-14234952D01*
X15671667Y-14244476D01*
X15652619Y-14244476D01*
X15633571Y-14234952D01*
X15624048Y-14225428D01*
X15614524Y-14206381D01*
X15605000Y-14168286D01*
X15605000Y-14120667D01*
X15614524Y-14082571D01*
X15624048Y-14063524D01*
X15633571Y-14054000D01*
X15652619Y-14044476D01*
X15795476Y-14044476D02*
X15795476Y-14082571D01*
X15871667Y-14044476D02*
X15871667Y-14082571D01*
X16166905Y-14320667D02*
X16157381Y-14311143D01*
X16138333Y-14282571D01*
X16128809Y-14263524D01*
X16119286Y-14234952D01*
X16109762Y-14187333D01*
X16109762Y-14149238D01*
X16119286Y-14101619D01*
X16128809Y-14073048D01*
X16138333Y-14054000D01*
X16157381Y-14025428D01*
X16166905Y-14015905D01*
X16233571Y-14063524D02*
X16243095Y-14054000D01*
X16262143Y-14044476D01*
X16309762Y-14044476D01*
X16328809Y-14054000D01*
X16338333Y-14063524D01*
X16347857Y-14082571D01*
X16347857Y-14101619D01*
X16338333Y-14130190D01*
X16224048Y-14244476D01*
X16347857Y-14244476D01*
X16585952Y-14244476D02*
X16585952Y-14044476D01*
X16671667Y-14244476D02*
X16671667Y-14139714D01*
X16662143Y-14120667D01*
X16643095Y-14111143D01*
X16614524Y-14111143D01*
X16595476Y-14120667D01*
X16585952Y-14130190D01*
X16795476Y-14244476D02*
X16776428Y-14234952D01*
X16766905Y-14225428D01*
X16757381Y-14206381D01*
X16757381Y-14149238D01*
X16766905Y-14130190D01*
X16776428Y-14120667D01*
X16795476Y-14111143D01*
X16824048Y-14111143D01*
X16843095Y-14120667D01*
X16852619Y-14130190D01*
X16862143Y-14149238D01*
X16862143Y-14206381D01*
X16852619Y-14225428D01*
X16843095Y-14234952D01*
X16824048Y-14244476D01*
X16795476Y-14244476D01*
X16976429Y-14244476D02*
X16957381Y-14234952D01*
X16947857Y-14215905D01*
X16947857Y-14044476D01*
X17128810Y-14234952D02*
X17109762Y-14244476D01*
X17071667Y-14244476D01*
X17052619Y-14234952D01*
X17043095Y-14215905D01*
X17043095Y-14139714D01*
X17052619Y-14120667D01*
X17071667Y-14111143D01*
X17109762Y-14111143D01*
X17128810Y-14120667D01*
X17138333Y-14139714D01*
X17138333Y-14158762D01*
X17043095Y-14177809D01*
X17214524Y-14234952D02*
X17233571Y-14244476D01*
X17271667Y-14244476D01*
X17290714Y-14234952D01*
X17300238Y-14215905D01*
X17300238Y-14206381D01*
X17290714Y-14187333D01*
X17271667Y-14177809D01*
X17243095Y-14177809D01*
X17224048Y-14168286D01*
X17214524Y-14149238D01*
X17214524Y-14139714D01*
X17224048Y-14120667D01*
X17243095Y-14111143D01*
X17271667Y-14111143D01*
X17290714Y-14120667D01*
X17366905Y-14320667D02*
X17376429Y-14311143D01*
X17395476Y-14282571D01*
X17405000Y-14263524D01*
X17414524Y-14234952D01*
X17424048Y-14187333D01*
X17424048Y-14149238D01*
X17414524Y-14101619D01*
X17405000Y-14073048D01*
X17395476Y-14054000D01*
X17376429Y-14025428D01*
X17366905Y-14015905D01*
X17728810Y-14320667D02*
X17719286Y-14311143D01*
X17700238Y-14282571D01*
X17690714Y-14263524D01*
X17681190Y-14234952D01*
X17671667Y-14187333D01*
X17671667Y-14149238D01*
X17681190Y-14101619D01*
X17690714Y-14073048D01*
X17700238Y-14054000D01*
X17719286Y-14025428D01*
X17728810Y-14015905D01*
X17805000Y-14111143D02*
X17805000Y-14244476D01*
X17805000Y-14130190D02*
X17814524Y-14120667D01*
X17833571Y-14111143D01*
X17862143Y-14111143D01*
X17881190Y-14120667D01*
X17890714Y-14139714D01*
X17890714Y-14244476D01*
X18014524Y-14244476D02*
X17995476Y-14234952D01*
X17985952Y-14225428D01*
X17976429Y-14206381D01*
X17976429Y-14149238D01*
X17985952Y-14130190D01*
X17995476Y-14120667D01*
X18014524Y-14111143D01*
X18043095Y-14111143D01*
X18062143Y-14120667D01*
X18071667Y-14130190D01*
X18081190Y-14149238D01*
X18081190Y-14206381D01*
X18071667Y-14225428D01*
X18062143Y-14234952D01*
X18043095Y-14244476D01*
X18014524Y-14244476D01*
X18138333Y-14111143D02*
X18214524Y-14111143D01*
X18166905Y-14044476D02*
X18166905Y-14215905D01*
X18176429Y-14234952D01*
X18195476Y-14244476D01*
X18214524Y-14244476D01*
X18433571Y-14111143D02*
X18433571Y-14311143D01*
X18433571Y-14120667D02*
X18452619Y-14111143D01*
X18490714Y-14111143D01*
X18509762Y-14120667D01*
X18519286Y-14130190D01*
X18528810Y-14149238D01*
X18528810Y-14206381D01*
X18519286Y-14225428D01*
X18509762Y-14234952D01*
X18490714Y-14244476D01*
X18452619Y-14244476D01*
X18433571Y-14234952D01*
X18643095Y-14244476D02*
X18624048Y-14234952D01*
X18614524Y-14215905D01*
X18614524Y-14044476D01*
X18805000Y-14244476D02*
X18805000Y-14139714D01*
X18795476Y-14120667D01*
X18776429Y-14111143D01*
X18738333Y-14111143D01*
X18719286Y-14120667D01*
X18805000Y-14234952D02*
X18785952Y-14244476D01*
X18738333Y-14244476D01*
X18719286Y-14234952D01*
X18709762Y-14215905D01*
X18709762Y-14196857D01*
X18719286Y-14177809D01*
X18738333Y-14168286D01*
X18785952Y-14168286D01*
X18805000Y-14158762D01*
X18871667Y-14111143D02*
X18947857Y-14111143D01*
X18900238Y-14044476D02*
X18900238Y-14215905D01*
X18909762Y-14234952D01*
X18928810Y-14244476D01*
X18947857Y-14244476D01*
X19090714Y-14234952D02*
X19071667Y-14244476D01*
X19033571Y-14244476D01*
X19014524Y-14234952D01*
X19005000Y-14215905D01*
X19005000Y-14139714D01*
X19014524Y-14120667D01*
X19033571Y-14111143D01*
X19071667Y-14111143D01*
X19090714Y-14120667D01*
X19100238Y-14139714D01*
X19100238Y-14158762D01*
X19005000Y-14177809D01*
X19271667Y-14244476D02*
X19271667Y-14044476D01*
X19271667Y-14234952D02*
X19252619Y-14244476D01*
X19214524Y-14244476D01*
X19195476Y-14234952D01*
X19185952Y-14225428D01*
X19176429Y-14206381D01*
X19176429Y-14149238D01*
X19185952Y-14130190D01*
X19195476Y-14120667D01*
X19214524Y-14111143D01*
X19252619Y-14111143D01*
X19271667Y-14120667D01*
X19347857Y-14320667D02*
X19357381Y-14311143D01*
X19376429Y-14282571D01*
X19385952Y-14263524D01*
X19395476Y-14234952D01*
X19405000Y-14187333D01*
X19405000Y-14149238D01*
X19395476Y-14101619D01*
X19385952Y-14073048D01*
X19376429Y-14054000D01*
X19357381Y-14025428D01*
X19347857Y-14015905D01*
M02*
