%TF.GenerationSoftware,KiCad,Pcbnew,(6.0.8)*%
%TF.CreationDate,2022-11-14T23:42:40+02:00*%
%TF.ProjectId,line_sensor_encoder,6c696e65-5f73-4656-9e73-6f725f656e63,rev?*%
%TF.SameCoordinates,Original*%
%TF.FileFunction,Drillmap*%
%TF.FilePolarity,Positive*%
%FSLAX45Y45*%
G04 Gerber Fmt 4.5, Leading zero omitted, Abs format (unit mm)*
G04 Created by KiCad (PCBNEW (6.0.8)) date 2022-11-14 23:42:40*
%MOMM*%
%LPD*%
G01*
G04 APERTURE LIST*
%ADD10C,0.100000*%
%ADD11C,0.200000*%
%ADD12C,0.250000*%
%ADD13C,0.320000*%
G04 APERTURE END LIST*
D10*
X11525000Y-9300000D02*
X16025000Y-9300000D01*
X16025000Y-9300000D02*
X16025000Y-15900000D01*
X16025000Y-15900000D02*
X11525000Y-15900000D01*
X11525000Y-15900000D02*
X11525000Y-9300000D01*
D11*
D10*
X14705000Y-9485000D02*
X14805000Y-9585000D01*
X14805000Y-9485000D02*
X14705000Y-9585000D01*
X14705000Y-10785000D02*
X14805000Y-10885000D01*
X14805000Y-10785000D02*
X14705000Y-10885000D01*
X14705000Y-12085000D02*
X14805000Y-12185000D01*
X14805000Y-12085000D02*
X14705000Y-12185000D01*
X14705000Y-13385000D02*
X14805000Y-13485000D01*
X14805000Y-13385000D02*
X14705000Y-13485000D01*
X14705000Y-14685000D02*
X14805000Y-14785000D01*
X14805000Y-14685000D02*
X14705000Y-14785000D01*
D12*
X14935000Y-10000000D02*
G75*
G03*
X14935000Y-10000000I-125000J0D01*
G01*
X14935000Y-11300000D02*
G75*
G03*
X14935000Y-11300000I-125000J0D01*
G01*
X14935000Y-12600000D02*
G75*
G03*
X14935000Y-12600000I-125000J0D01*
G01*
X14935000Y-13900000D02*
G75*
G03*
X14935000Y-13900000I-125000J0D01*
G01*
X14935000Y-15200000D02*
G75*
G03*
X14935000Y-15200000I-125000J0D01*
G01*
X15315000Y-10000000D02*
G75*
G03*
X15315000Y-10000000I-125000J0D01*
G01*
X15315000Y-11300000D02*
G75*
G03*
X15315000Y-11300000I-125000J0D01*
G01*
X15315000Y-12600000D02*
G75*
G03*
X15315000Y-12600000I-125000J0D01*
G01*
X15315000Y-13900000D02*
G75*
G03*
X15315000Y-13900000I-125000J0D01*
G01*
X15315000Y-15200000D02*
G75*
G03*
X15315000Y-15200000I-125000J0D01*
G01*
D13*
X14000000Y-9840000D02*
X14000000Y-10160000D01*
X13840000Y-10000000D02*
X14160000Y-10000000D01*
X14000000Y-15040000D02*
X14000000Y-15360000D01*
X13840000Y-15200000D02*
X14160000Y-15200000D01*
D11*
X11777619Y-16215476D02*
X11777619Y-16015476D01*
X11825238Y-16015476D01*
X11853809Y-16025000D01*
X11872857Y-16044048D01*
X11882381Y-16063095D01*
X11891905Y-16101190D01*
X11891905Y-16129762D01*
X11882381Y-16167857D01*
X11872857Y-16186905D01*
X11853809Y-16205952D01*
X11825238Y-16215476D01*
X11777619Y-16215476D01*
X11977619Y-16215476D02*
X11977619Y-16082143D01*
X11977619Y-16120238D02*
X11987143Y-16101190D01*
X11996667Y-16091667D01*
X12015714Y-16082143D01*
X12034762Y-16082143D01*
X12101428Y-16215476D02*
X12101428Y-16082143D01*
X12101428Y-16015476D02*
X12091905Y-16025000D01*
X12101428Y-16034524D01*
X12110952Y-16025000D01*
X12101428Y-16015476D01*
X12101428Y-16034524D01*
X12225238Y-16215476D02*
X12206190Y-16205952D01*
X12196667Y-16186905D01*
X12196667Y-16015476D01*
X12330000Y-16215476D02*
X12310952Y-16205952D01*
X12301428Y-16186905D01*
X12301428Y-16015476D01*
X12558571Y-16215476D02*
X12558571Y-16015476D01*
X12625238Y-16158333D01*
X12691905Y-16015476D01*
X12691905Y-16215476D01*
X12872857Y-16215476D02*
X12872857Y-16110714D01*
X12863333Y-16091667D01*
X12844286Y-16082143D01*
X12806190Y-16082143D01*
X12787143Y-16091667D01*
X12872857Y-16205952D02*
X12853809Y-16215476D01*
X12806190Y-16215476D01*
X12787143Y-16205952D01*
X12777619Y-16186905D01*
X12777619Y-16167857D01*
X12787143Y-16148809D01*
X12806190Y-16139286D01*
X12853809Y-16139286D01*
X12872857Y-16129762D01*
X12968095Y-16082143D02*
X12968095Y-16282143D01*
X12968095Y-16091667D02*
X12987143Y-16082143D01*
X13025238Y-16082143D01*
X13044286Y-16091667D01*
X13053809Y-16101190D01*
X13063333Y-16120238D01*
X13063333Y-16177381D01*
X13053809Y-16196428D01*
X13044286Y-16205952D01*
X13025238Y-16215476D01*
X12987143Y-16215476D01*
X12968095Y-16205952D01*
X13149048Y-16196428D02*
X13158571Y-16205952D01*
X13149048Y-16215476D01*
X13139524Y-16205952D01*
X13149048Y-16196428D01*
X13149048Y-16215476D01*
X13149048Y-16091667D02*
X13158571Y-16101190D01*
X13149048Y-16110714D01*
X13139524Y-16101190D01*
X13149048Y-16091667D01*
X13149048Y-16110714D01*
D10*
X11420000Y-16495000D02*
X11520000Y-16595000D01*
X11520000Y-16495000D02*
X11420000Y-16595000D01*
D11*
X11882381Y-16635476D02*
X11768095Y-16635476D01*
X11825238Y-16635476D02*
X11825238Y-16435476D01*
X11806190Y-16464048D01*
X11787143Y-16483095D01*
X11768095Y-16492619D01*
X11968095Y-16616428D02*
X11977619Y-16625952D01*
X11968095Y-16635476D01*
X11958571Y-16625952D01*
X11968095Y-16616428D01*
X11968095Y-16635476D01*
X12101428Y-16435476D02*
X12120476Y-16435476D01*
X12139524Y-16445000D01*
X12149048Y-16454524D01*
X12158571Y-16473571D01*
X12168095Y-16511667D01*
X12168095Y-16559286D01*
X12158571Y-16597381D01*
X12149048Y-16616428D01*
X12139524Y-16625952D01*
X12120476Y-16635476D01*
X12101428Y-16635476D01*
X12082381Y-16625952D01*
X12072857Y-16616428D01*
X12063333Y-16597381D01*
X12053809Y-16559286D01*
X12053809Y-16511667D01*
X12063333Y-16473571D01*
X12072857Y-16454524D01*
X12082381Y-16445000D01*
X12101428Y-16435476D01*
X12291905Y-16435476D02*
X12310952Y-16435476D01*
X12330000Y-16445000D01*
X12339524Y-16454524D01*
X12349048Y-16473571D01*
X12358571Y-16511667D01*
X12358571Y-16559286D01*
X12349048Y-16597381D01*
X12339524Y-16616428D01*
X12330000Y-16625952D01*
X12310952Y-16635476D01*
X12291905Y-16635476D01*
X12272857Y-16625952D01*
X12263333Y-16616428D01*
X12253809Y-16597381D01*
X12244286Y-16559286D01*
X12244286Y-16511667D01*
X12253809Y-16473571D01*
X12263333Y-16454524D01*
X12272857Y-16445000D01*
X12291905Y-16435476D01*
X12482381Y-16435476D02*
X12501428Y-16435476D01*
X12520476Y-16445000D01*
X12530000Y-16454524D01*
X12539524Y-16473571D01*
X12549048Y-16511667D01*
X12549048Y-16559286D01*
X12539524Y-16597381D01*
X12530000Y-16616428D01*
X12520476Y-16625952D01*
X12501428Y-16635476D01*
X12482381Y-16635476D01*
X12463333Y-16625952D01*
X12453809Y-16616428D01*
X12444286Y-16597381D01*
X12434762Y-16559286D01*
X12434762Y-16511667D01*
X12444286Y-16473571D01*
X12453809Y-16454524D01*
X12463333Y-16445000D01*
X12482381Y-16435476D01*
X12634762Y-16635476D02*
X12634762Y-16502143D01*
X12634762Y-16521190D02*
X12644286Y-16511667D01*
X12663333Y-16502143D01*
X12691905Y-16502143D01*
X12710952Y-16511667D01*
X12720476Y-16530714D01*
X12720476Y-16635476D01*
X12720476Y-16530714D02*
X12730000Y-16511667D01*
X12749048Y-16502143D01*
X12777619Y-16502143D01*
X12796667Y-16511667D01*
X12806190Y-16530714D01*
X12806190Y-16635476D01*
X12901428Y-16635476D02*
X12901428Y-16502143D01*
X12901428Y-16521190D02*
X12910952Y-16511667D01*
X12930000Y-16502143D01*
X12958571Y-16502143D01*
X12977619Y-16511667D01*
X12987143Y-16530714D01*
X12987143Y-16635476D01*
X12987143Y-16530714D02*
X12996667Y-16511667D01*
X13015714Y-16502143D01*
X13044286Y-16502143D01*
X13063333Y-16511667D01*
X13072857Y-16530714D01*
X13072857Y-16635476D01*
X13463333Y-16425952D02*
X13291905Y-16683095D01*
X13720476Y-16435476D02*
X13739524Y-16435476D01*
X13758571Y-16445000D01*
X13768095Y-16454524D01*
X13777619Y-16473571D01*
X13787143Y-16511667D01*
X13787143Y-16559286D01*
X13777619Y-16597381D01*
X13768095Y-16616428D01*
X13758571Y-16625952D01*
X13739524Y-16635476D01*
X13720476Y-16635476D01*
X13701428Y-16625952D01*
X13691905Y-16616428D01*
X13682381Y-16597381D01*
X13672857Y-16559286D01*
X13672857Y-16511667D01*
X13682381Y-16473571D01*
X13691905Y-16454524D01*
X13701428Y-16445000D01*
X13720476Y-16435476D01*
X13872857Y-16616428D02*
X13882381Y-16625952D01*
X13872857Y-16635476D01*
X13863333Y-16625952D01*
X13872857Y-16616428D01*
X13872857Y-16635476D01*
X14006190Y-16435476D02*
X14025238Y-16435476D01*
X14044286Y-16445000D01*
X14053809Y-16454524D01*
X14063333Y-16473571D01*
X14072857Y-16511667D01*
X14072857Y-16559286D01*
X14063333Y-16597381D01*
X14053809Y-16616428D01*
X14044286Y-16625952D01*
X14025238Y-16635476D01*
X14006190Y-16635476D01*
X13987143Y-16625952D01*
X13977619Y-16616428D01*
X13968095Y-16597381D01*
X13958571Y-16559286D01*
X13958571Y-16511667D01*
X13968095Y-16473571D01*
X13977619Y-16454524D01*
X13987143Y-16445000D01*
X14006190Y-16435476D01*
X14139524Y-16435476D02*
X14263333Y-16435476D01*
X14196667Y-16511667D01*
X14225238Y-16511667D01*
X14244286Y-16521190D01*
X14253809Y-16530714D01*
X14263333Y-16549762D01*
X14263333Y-16597381D01*
X14253809Y-16616428D01*
X14244286Y-16625952D01*
X14225238Y-16635476D01*
X14168095Y-16635476D01*
X14149048Y-16625952D01*
X14139524Y-16616428D01*
X14358571Y-16635476D02*
X14396667Y-16635476D01*
X14415714Y-16625952D01*
X14425238Y-16616428D01*
X14444286Y-16587857D01*
X14453809Y-16549762D01*
X14453809Y-16473571D01*
X14444286Y-16454524D01*
X14434762Y-16445000D01*
X14415714Y-16435476D01*
X14377619Y-16435476D01*
X14358571Y-16445000D01*
X14349048Y-16454524D01*
X14339524Y-16473571D01*
X14339524Y-16521190D01*
X14349048Y-16540238D01*
X14358571Y-16549762D01*
X14377619Y-16559286D01*
X14415714Y-16559286D01*
X14434762Y-16549762D01*
X14444286Y-16540238D01*
X14453809Y-16521190D01*
X14625238Y-16502143D02*
X14625238Y-16635476D01*
X14577619Y-16425952D02*
X14530000Y-16568809D01*
X14653809Y-16568809D01*
X14720476Y-16435476D02*
X14720476Y-16473571D01*
X14796667Y-16435476D02*
X14796667Y-16473571D01*
X15091905Y-16711667D02*
X15082381Y-16702143D01*
X15063333Y-16673571D01*
X15053809Y-16654524D01*
X15044286Y-16625952D01*
X15034762Y-16578333D01*
X15034762Y-16540238D01*
X15044286Y-16492619D01*
X15053809Y-16464048D01*
X15063333Y-16445000D01*
X15082381Y-16416428D01*
X15091905Y-16406905D01*
X15263333Y-16435476D02*
X15168095Y-16435476D01*
X15158571Y-16530714D01*
X15168095Y-16521190D01*
X15187143Y-16511667D01*
X15234762Y-16511667D01*
X15253809Y-16521190D01*
X15263333Y-16530714D01*
X15272857Y-16549762D01*
X15272857Y-16597381D01*
X15263333Y-16616428D01*
X15253809Y-16625952D01*
X15234762Y-16635476D01*
X15187143Y-16635476D01*
X15168095Y-16625952D01*
X15158571Y-16616428D01*
X15510952Y-16635476D02*
X15510952Y-16435476D01*
X15596667Y-16635476D02*
X15596667Y-16530714D01*
X15587143Y-16511667D01*
X15568095Y-16502143D01*
X15539524Y-16502143D01*
X15520476Y-16511667D01*
X15510952Y-16521190D01*
X15720476Y-16635476D02*
X15701428Y-16625952D01*
X15691905Y-16616428D01*
X15682381Y-16597381D01*
X15682381Y-16540238D01*
X15691905Y-16521190D01*
X15701428Y-16511667D01*
X15720476Y-16502143D01*
X15749048Y-16502143D01*
X15768095Y-16511667D01*
X15777619Y-16521190D01*
X15787143Y-16540238D01*
X15787143Y-16597381D01*
X15777619Y-16616428D01*
X15768095Y-16625952D01*
X15749048Y-16635476D01*
X15720476Y-16635476D01*
X15901428Y-16635476D02*
X15882381Y-16625952D01*
X15872857Y-16606905D01*
X15872857Y-16435476D01*
X16053809Y-16625952D02*
X16034762Y-16635476D01*
X15996667Y-16635476D01*
X15977619Y-16625952D01*
X15968095Y-16606905D01*
X15968095Y-16530714D01*
X15977619Y-16511667D01*
X15996667Y-16502143D01*
X16034762Y-16502143D01*
X16053809Y-16511667D01*
X16063333Y-16530714D01*
X16063333Y-16549762D01*
X15968095Y-16568809D01*
X16139524Y-16625952D02*
X16158571Y-16635476D01*
X16196667Y-16635476D01*
X16215714Y-16625952D01*
X16225238Y-16606905D01*
X16225238Y-16597381D01*
X16215714Y-16578333D01*
X16196667Y-16568809D01*
X16168095Y-16568809D01*
X16149048Y-16559286D01*
X16139524Y-16540238D01*
X16139524Y-16530714D01*
X16149048Y-16511667D01*
X16168095Y-16502143D01*
X16196667Y-16502143D01*
X16215714Y-16511667D01*
X16291905Y-16711667D02*
X16301428Y-16702143D01*
X16320476Y-16673571D01*
X16330000Y-16654524D01*
X16339524Y-16625952D01*
X16349048Y-16578333D01*
X16349048Y-16540238D01*
X16339524Y-16492619D01*
X16330000Y-16464048D01*
X16320476Y-16445000D01*
X16301428Y-16416428D01*
X16291905Y-16406905D01*
X16653809Y-16711667D02*
X16644286Y-16702143D01*
X16625238Y-16673571D01*
X16615714Y-16654524D01*
X16606190Y-16625952D01*
X16596667Y-16578333D01*
X16596667Y-16540238D01*
X16606190Y-16492619D01*
X16615714Y-16464048D01*
X16625238Y-16445000D01*
X16644286Y-16416428D01*
X16653809Y-16406905D01*
X16730000Y-16502143D02*
X16730000Y-16635476D01*
X16730000Y-16521190D02*
X16739524Y-16511667D01*
X16758571Y-16502143D01*
X16787143Y-16502143D01*
X16806190Y-16511667D01*
X16815714Y-16530714D01*
X16815714Y-16635476D01*
X16939524Y-16635476D02*
X16920476Y-16625952D01*
X16910952Y-16616428D01*
X16901429Y-16597381D01*
X16901429Y-16540238D01*
X16910952Y-16521190D01*
X16920476Y-16511667D01*
X16939524Y-16502143D01*
X16968095Y-16502143D01*
X16987143Y-16511667D01*
X16996667Y-16521190D01*
X17006190Y-16540238D01*
X17006190Y-16597381D01*
X16996667Y-16616428D01*
X16987143Y-16625952D01*
X16968095Y-16635476D01*
X16939524Y-16635476D01*
X17063333Y-16502143D02*
X17139524Y-16502143D01*
X17091905Y-16435476D02*
X17091905Y-16606905D01*
X17101429Y-16625952D01*
X17120476Y-16635476D01*
X17139524Y-16635476D01*
X17358571Y-16502143D02*
X17358571Y-16702143D01*
X17358571Y-16511667D02*
X17377619Y-16502143D01*
X17415714Y-16502143D01*
X17434762Y-16511667D01*
X17444286Y-16521190D01*
X17453810Y-16540238D01*
X17453810Y-16597381D01*
X17444286Y-16616428D01*
X17434762Y-16625952D01*
X17415714Y-16635476D01*
X17377619Y-16635476D01*
X17358571Y-16625952D01*
X17568095Y-16635476D02*
X17549048Y-16625952D01*
X17539524Y-16606905D01*
X17539524Y-16435476D01*
X17730000Y-16635476D02*
X17730000Y-16530714D01*
X17720476Y-16511667D01*
X17701429Y-16502143D01*
X17663333Y-16502143D01*
X17644286Y-16511667D01*
X17730000Y-16625952D02*
X17710952Y-16635476D01*
X17663333Y-16635476D01*
X17644286Y-16625952D01*
X17634762Y-16606905D01*
X17634762Y-16587857D01*
X17644286Y-16568809D01*
X17663333Y-16559286D01*
X17710952Y-16559286D01*
X17730000Y-16549762D01*
X17796667Y-16502143D02*
X17872857Y-16502143D01*
X17825238Y-16435476D02*
X17825238Y-16606905D01*
X17834762Y-16625952D01*
X17853810Y-16635476D01*
X17872857Y-16635476D01*
X18015714Y-16625952D02*
X17996667Y-16635476D01*
X17958571Y-16635476D01*
X17939524Y-16625952D01*
X17930000Y-16606905D01*
X17930000Y-16530714D01*
X17939524Y-16511667D01*
X17958571Y-16502143D01*
X17996667Y-16502143D01*
X18015714Y-16511667D01*
X18025238Y-16530714D01*
X18025238Y-16549762D01*
X17930000Y-16568809D01*
X18196667Y-16635476D02*
X18196667Y-16435476D01*
X18196667Y-16625952D02*
X18177619Y-16635476D01*
X18139524Y-16635476D01*
X18120476Y-16625952D01*
X18110952Y-16616428D01*
X18101429Y-16597381D01*
X18101429Y-16540238D01*
X18110952Y-16521190D01*
X18120476Y-16511667D01*
X18139524Y-16502143D01*
X18177619Y-16502143D01*
X18196667Y-16511667D01*
X18272857Y-16711667D02*
X18282381Y-16702143D01*
X18301429Y-16673571D01*
X18310952Y-16654524D01*
X18320476Y-16625952D01*
X18330000Y-16578333D01*
X18330000Y-16540238D01*
X18320476Y-16492619D01*
X18310952Y-16464048D01*
X18301429Y-16445000D01*
X18282381Y-16416428D01*
X18272857Y-16406905D01*
X11520000Y-16809000D02*
G75*
G03*
X11520000Y-16809000I-100000J0D01*
G01*
X11768095Y-16718524D02*
X11777619Y-16709000D01*
X11796667Y-16699476D01*
X11844286Y-16699476D01*
X11863333Y-16709000D01*
X11872857Y-16718524D01*
X11882381Y-16737571D01*
X11882381Y-16756619D01*
X11872857Y-16785190D01*
X11758571Y-16899476D01*
X11882381Y-16899476D01*
X11968095Y-16880429D02*
X11977619Y-16889952D01*
X11968095Y-16899476D01*
X11958571Y-16889952D01*
X11968095Y-16880429D01*
X11968095Y-16899476D01*
X12158571Y-16699476D02*
X12063333Y-16699476D01*
X12053809Y-16794714D01*
X12063333Y-16785190D01*
X12082381Y-16775667D01*
X12130000Y-16775667D01*
X12149048Y-16785190D01*
X12158571Y-16794714D01*
X12168095Y-16813762D01*
X12168095Y-16861381D01*
X12158571Y-16880429D01*
X12149048Y-16889952D01*
X12130000Y-16899476D01*
X12082381Y-16899476D01*
X12063333Y-16889952D01*
X12053809Y-16880429D01*
X12291905Y-16699476D02*
X12310952Y-16699476D01*
X12330000Y-16709000D01*
X12339524Y-16718524D01*
X12349048Y-16737571D01*
X12358571Y-16775667D01*
X12358571Y-16823286D01*
X12349048Y-16861381D01*
X12339524Y-16880429D01*
X12330000Y-16889952D01*
X12310952Y-16899476D01*
X12291905Y-16899476D01*
X12272857Y-16889952D01*
X12263333Y-16880429D01*
X12253809Y-16861381D01*
X12244286Y-16823286D01*
X12244286Y-16775667D01*
X12253809Y-16737571D01*
X12263333Y-16718524D01*
X12272857Y-16709000D01*
X12291905Y-16699476D01*
X12482381Y-16699476D02*
X12501428Y-16699476D01*
X12520476Y-16709000D01*
X12530000Y-16718524D01*
X12539524Y-16737571D01*
X12549048Y-16775667D01*
X12549048Y-16823286D01*
X12539524Y-16861381D01*
X12530000Y-16880429D01*
X12520476Y-16889952D01*
X12501428Y-16899476D01*
X12482381Y-16899476D01*
X12463333Y-16889952D01*
X12453809Y-16880429D01*
X12444286Y-16861381D01*
X12434762Y-16823286D01*
X12434762Y-16775667D01*
X12444286Y-16737571D01*
X12453809Y-16718524D01*
X12463333Y-16709000D01*
X12482381Y-16699476D01*
X12634762Y-16899476D02*
X12634762Y-16766143D01*
X12634762Y-16785190D02*
X12644286Y-16775667D01*
X12663333Y-16766143D01*
X12691905Y-16766143D01*
X12710952Y-16775667D01*
X12720476Y-16794714D01*
X12720476Y-16899476D01*
X12720476Y-16794714D02*
X12730000Y-16775667D01*
X12749048Y-16766143D01*
X12777619Y-16766143D01*
X12796667Y-16775667D01*
X12806190Y-16794714D01*
X12806190Y-16899476D01*
X12901428Y-16899476D02*
X12901428Y-16766143D01*
X12901428Y-16785190D02*
X12910952Y-16775667D01*
X12930000Y-16766143D01*
X12958571Y-16766143D01*
X12977619Y-16775667D01*
X12987143Y-16794714D01*
X12987143Y-16899476D01*
X12987143Y-16794714D02*
X12996667Y-16775667D01*
X13015714Y-16766143D01*
X13044286Y-16766143D01*
X13063333Y-16775667D01*
X13072857Y-16794714D01*
X13072857Y-16899476D01*
X13463333Y-16689952D02*
X13291905Y-16947095D01*
X13720476Y-16699476D02*
X13739524Y-16699476D01*
X13758571Y-16709000D01*
X13768095Y-16718524D01*
X13777619Y-16737571D01*
X13787143Y-16775667D01*
X13787143Y-16823286D01*
X13777619Y-16861381D01*
X13768095Y-16880429D01*
X13758571Y-16889952D01*
X13739524Y-16899476D01*
X13720476Y-16899476D01*
X13701428Y-16889952D01*
X13691905Y-16880429D01*
X13682381Y-16861381D01*
X13672857Y-16823286D01*
X13672857Y-16775667D01*
X13682381Y-16737571D01*
X13691905Y-16718524D01*
X13701428Y-16709000D01*
X13720476Y-16699476D01*
X13872857Y-16880429D02*
X13882381Y-16889952D01*
X13872857Y-16899476D01*
X13863333Y-16889952D01*
X13872857Y-16880429D01*
X13872857Y-16899476D01*
X14006190Y-16699476D02*
X14025238Y-16699476D01*
X14044286Y-16709000D01*
X14053809Y-16718524D01*
X14063333Y-16737571D01*
X14072857Y-16775667D01*
X14072857Y-16823286D01*
X14063333Y-16861381D01*
X14053809Y-16880429D01*
X14044286Y-16889952D01*
X14025238Y-16899476D01*
X14006190Y-16899476D01*
X13987143Y-16889952D01*
X13977619Y-16880429D01*
X13968095Y-16861381D01*
X13958571Y-16823286D01*
X13958571Y-16775667D01*
X13968095Y-16737571D01*
X13977619Y-16718524D01*
X13987143Y-16709000D01*
X14006190Y-16699476D01*
X14168095Y-16899476D02*
X14206190Y-16899476D01*
X14225238Y-16889952D01*
X14234762Y-16880429D01*
X14253809Y-16851857D01*
X14263333Y-16813762D01*
X14263333Y-16737571D01*
X14253809Y-16718524D01*
X14244286Y-16709000D01*
X14225238Y-16699476D01*
X14187143Y-16699476D01*
X14168095Y-16709000D01*
X14158571Y-16718524D01*
X14149048Y-16737571D01*
X14149048Y-16785190D01*
X14158571Y-16804238D01*
X14168095Y-16813762D01*
X14187143Y-16823286D01*
X14225238Y-16823286D01*
X14244286Y-16813762D01*
X14253809Y-16804238D01*
X14263333Y-16785190D01*
X14377619Y-16785190D02*
X14358571Y-16775667D01*
X14349048Y-16766143D01*
X14339524Y-16747095D01*
X14339524Y-16737571D01*
X14349048Y-16718524D01*
X14358571Y-16709000D01*
X14377619Y-16699476D01*
X14415714Y-16699476D01*
X14434762Y-16709000D01*
X14444286Y-16718524D01*
X14453809Y-16737571D01*
X14453809Y-16747095D01*
X14444286Y-16766143D01*
X14434762Y-16775667D01*
X14415714Y-16785190D01*
X14377619Y-16785190D01*
X14358571Y-16794714D01*
X14349048Y-16804238D01*
X14339524Y-16823286D01*
X14339524Y-16861381D01*
X14349048Y-16880429D01*
X14358571Y-16889952D01*
X14377619Y-16899476D01*
X14415714Y-16899476D01*
X14434762Y-16889952D01*
X14444286Y-16880429D01*
X14453809Y-16861381D01*
X14453809Y-16823286D01*
X14444286Y-16804238D01*
X14434762Y-16794714D01*
X14415714Y-16785190D01*
X14625238Y-16766143D02*
X14625238Y-16899476D01*
X14577619Y-16689952D02*
X14530000Y-16832810D01*
X14653809Y-16832810D01*
X14720476Y-16699476D02*
X14720476Y-16737571D01*
X14796667Y-16699476D02*
X14796667Y-16737571D01*
X15091905Y-16975667D02*
X15082381Y-16966143D01*
X15063333Y-16937571D01*
X15053809Y-16918524D01*
X15044286Y-16889952D01*
X15034762Y-16842333D01*
X15034762Y-16804238D01*
X15044286Y-16756619D01*
X15053809Y-16728048D01*
X15063333Y-16709000D01*
X15082381Y-16680428D01*
X15091905Y-16670905D01*
X15272857Y-16899476D02*
X15158571Y-16899476D01*
X15215714Y-16899476D02*
X15215714Y-16699476D01*
X15196667Y-16728048D01*
X15177619Y-16747095D01*
X15158571Y-16756619D01*
X15396667Y-16699476D02*
X15415714Y-16699476D01*
X15434762Y-16709000D01*
X15444286Y-16718524D01*
X15453809Y-16737571D01*
X15463333Y-16775667D01*
X15463333Y-16823286D01*
X15453809Y-16861381D01*
X15444286Y-16880429D01*
X15434762Y-16889952D01*
X15415714Y-16899476D01*
X15396667Y-16899476D01*
X15377619Y-16889952D01*
X15368095Y-16880429D01*
X15358571Y-16861381D01*
X15349048Y-16823286D01*
X15349048Y-16775667D01*
X15358571Y-16737571D01*
X15368095Y-16718524D01*
X15377619Y-16709000D01*
X15396667Y-16699476D01*
X15701428Y-16899476D02*
X15701428Y-16699476D01*
X15787143Y-16899476D02*
X15787143Y-16794714D01*
X15777619Y-16775667D01*
X15758571Y-16766143D01*
X15730000Y-16766143D01*
X15710952Y-16775667D01*
X15701428Y-16785190D01*
X15910952Y-16899476D02*
X15891905Y-16889952D01*
X15882381Y-16880429D01*
X15872857Y-16861381D01*
X15872857Y-16804238D01*
X15882381Y-16785190D01*
X15891905Y-16775667D01*
X15910952Y-16766143D01*
X15939524Y-16766143D01*
X15958571Y-16775667D01*
X15968095Y-16785190D01*
X15977619Y-16804238D01*
X15977619Y-16861381D01*
X15968095Y-16880429D01*
X15958571Y-16889952D01*
X15939524Y-16899476D01*
X15910952Y-16899476D01*
X16091905Y-16899476D02*
X16072857Y-16889952D01*
X16063333Y-16870905D01*
X16063333Y-16699476D01*
X16244286Y-16889952D02*
X16225238Y-16899476D01*
X16187143Y-16899476D01*
X16168095Y-16889952D01*
X16158571Y-16870905D01*
X16158571Y-16794714D01*
X16168095Y-16775667D01*
X16187143Y-16766143D01*
X16225238Y-16766143D01*
X16244286Y-16775667D01*
X16253809Y-16794714D01*
X16253809Y-16813762D01*
X16158571Y-16832810D01*
X16330000Y-16889952D02*
X16349048Y-16899476D01*
X16387143Y-16899476D01*
X16406190Y-16889952D01*
X16415714Y-16870905D01*
X16415714Y-16861381D01*
X16406190Y-16842333D01*
X16387143Y-16832810D01*
X16358571Y-16832810D01*
X16339524Y-16823286D01*
X16330000Y-16804238D01*
X16330000Y-16794714D01*
X16339524Y-16775667D01*
X16358571Y-16766143D01*
X16387143Y-16766143D01*
X16406190Y-16775667D01*
X16482381Y-16975667D02*
X16491905Y-16966143D01*
X16510952Y-16937571D01*
X16520476Y-16918524D01*
X16530000Y-16889952D01*
X16539524Y-16842333D01*
X16539524Y-16804238D01*
X16530000Y-16756619D01*
X16520476Y-16728048D01*
X16510952Y-16709000D01*
X16491905Y-16680428D01*
X16482381Y-16670905D01*
X16844286Y-16975667D02*
X16834762Y-16966143D01*
X16815714Y-16937571D01*
X16806190Y-16918524D01*
X16796667Y-16889952D01*
X16787143Y-16842333D01*
X16787143Y-16804238D01*
X16796667Y-16756619D01*
X16806190Y-16728048D01*
X16815714Y-16709000D01*
X16834762Y-16680428D01*
X16844286Y-16670905D01*
X16920476Y-16766143D02*
X16920476Y-16899476D01*
X16920476Y-16785190D02*
X16930000Y-16775667D01*
X16949048Y-16766143D01*
X16977619Y-16766143D01*
X16996667Y-16775667D01*
X17006190Y-16794714D01*
X17006190Y-16899476D01*
X17130000Y-16899476D02*
X17110952Y-16889952D01*
X17101429Y-16880429D01*
X17091905Y-16861381D01*
X17091905Y-16804238D01*
X17101429Y-16785190D01*
X17110952Y-16775667D01*
X17130000Y-16766143D01*
X17158571Y-16766143D01*
X17177619Y-16775667D01*
X17187143Y-16785190D01*
X17196667Y-16804238D01*
X17196667Y-16861381D01*
X17187143Y-16880429D01*
X17177619Y-16889952D01*
X17158571Y-16899476D01*
X17130000Y-16899476D01*
X17253810Y-16766143D02*
X17330000Y-16766143D01*
X17282381Y-16699476D02*
X17282381Y-16870905D01*
X17291905Y-16889952D01*
X17310952Y-16899476D01*
X17330000Y-16899476D01*
X17549048Y-16766143D02*
X17549048Y-16966143D01*
X17549048Y-16775667D02*
X17568095Y-16766143D01*
X17606190Y-16766143D01*
X17625238Y-16775667D01*
X17634762Y-16785190D01*
X17644286Y-16804238D01*
X17644286Y-16861381D01*
X17634762Y-16880429D01*
X17625238Y-16889952D01*
X17606190Y-16899476D01*
X17568095Y-16899476D01*
X17549048Y-16889952D01*
X17758571Y-16899476D02*
X17739524Y-16889952D01*
X17730000Y-16870905D01*
X17730000Y-16699476D01*
X17920476Y-16899476D02*
X17920476Y-16794714D01*
X17910952Y-16775667D01*
X17891905Y-16766143D01*
X17853810Y-16766143D01*
X17834762Y-16775667D01*
X17920476Y-16889952D02*
X17901429Y-16899476D01*
X17853810Y-16899476D01*
X17834762Y-16889952D01*
X17825238Y-16870905D01*
X17825238Y-16851857D01*
X17834762Y-16832810D01*
X17853810Y-16823286D01*
X17901429Y-16823286D01*
X17920476Y-16813762D01*
X17987143Y-16766143D02*
X18063333Y-16766143D01*
X18015714Y-16699476D02*
X18015714Y-16870905D01*
X18025238Y-16889952D01*
X18044286Y-16899476D01*
X18063333Y-16899476D01*
X18206190Y-16889952D02*
X18187143Y-16899476D01*
X18149048Y-16899476D01*
X18130000Y-16889952D01*
X18120476Y-16870905D01*
X18120476Y-16794714D01*
X18130000Y-16775667D01*
X18149048Y-16766143D01*
X18187143Y-16766143D01*
X18206190Y-16775667D01*
X18215714Y-16794714D01*
X18215714Y-16813762D01*
X18120476Y-16832810D01*
X18387143Y-16899476D02*
X18387143Y-16699476D01*
X18387143Y-16889952D02*
X18368095Y-16899476D01*
X18330000Y-16899476D01*
X18310952Y-16889952D01*
X18301429Y-16880429D01*
X18291905Y-16861381D01*
X18291905Y-16804238D01*
X18301429Y-16785190D01*
X18310952Y-16775667D01*
X18330000Y-16766143D01*
X18368095Y-16766143D01*
X18387143Y-16775667D01*
X18463333Y-16975667D02*
X18472857Y-16966143D01*
X18491905Y-16937571D01*
X18501429Y-16918524D01*
X18510952Y-16889952D01*
X18520476Y-16842333D01*
X18520476Y-16804238D01*
X18510952Y-16756619D01*
X18501429Y-16728048D01*
X18491905Y-16709000D01*
X18472857Y-16680428D01*
X18463333Y-16670905D01*
X11420000Y-17029000D02*
X11420000Y-17229000D01*
X11320000Y-17129000D02*
X11520000Y-17129000D01*
X11758571Y-17019476D02*
X11882381Y-17019476D01*
X11815714Y-17095667D01*
X11844286Y-17095667D01*
X11863333Y-17105190D01*
X11872857Y-17114714D01*
X11882381Y-17133762D01*
X11882381Y-17181381D01*
X11872857Y-17200429D01*
X11863333Y-17209952D01*
X11844286Y-17219476D01*
X11787143Y-17219476D01*
X11768095Y-17209952D01*
X11758571Y-17200429D01*
X11968095Y-17200429D02*
X11977619Y-17209952D01*
X11968095Y-17219476D01*
X11958571Y-17209952D01*
X11968095Y-17200429D01*
X11968095Y-17219476D01*
X12053809Y-17038524D02*
X12063333Y-17029000D01*
X12082381Y-17019476D01*
X12130000Y-17019476D01*
X12149048Y-17029000D01*
X12158571Y-17038524D01*
X12168095Y-17057571D01*
X12168095Y-17076619D01*
X12158571Y-17105190D01*
X12044286Y-17219476D01*
X12168095Y-17219476D01*
X12291905Y-17019476D02*
X12310952Y-17019476D01*
X12330000Y-17029000D01*
X12339524Y-17038524D01*
X12349048Y-17057571D01*
X12358571Y-17095667D01*
X12358571Y-17143286D01*
X12349048Y-17181381D01*
X12339524Y-17200429D01*
X12330000Y-17209952D01*
X12310952Y-17219476D01*
X12291905Y-17219476D01*
X12272857Y-17209952D01*
X12263333Y-17200429D01*
X12253809Y-17181381D01*
X12244286Y-17143286D01*
X12244286Y-17095667D01*
X12253809Y-17057571D01*
X12263333Y-17038524D01*
X12272857Y-17029000D01*
X12291905Y-17019476D01*
X12482381Y-17019476D02*
X12501428Y-17019476D01*
X12520476Y-17029000D01*
X12530000Y-17038524D01*
X12539524Y-17057571D01*
X12549048Y-17095667D01*
X12549048Y-17143286D01*
X12539524Y-17181381D01*
X12530000Y-17200429D01*
X12520476Y-17209952D01*
X12501428Y-17219476D01*
X12482381Y-17219476D01*
X12463333Y-17209952D01*
X12453809Y-17200429D01*
X12444286Y-17181381D01*
X12434762Y-17143286D01*
X12434762Y-17095667D01*
X12444286Y-17057571D01*
X12453809Y-17038524D01*
X12463333Y-17029000D01*
X12482381Y-17019476D01*
X12634762Y-17219476D02*
X12634762Y-17086143D01*
X12634762Y-17105190D02*
X12644286Y-17095667D01*
X12663333Y-17086143D01*
X12691905Y-17086143D01*
X12710952Y-17095667D01*
X12720476Y-17114714D01*
X12720476Y-17219476D01*
X12720476Y-17114714D02*
X12730000Y-17095667D01*
X12749048Y-17086143D01*
X12777619Y-17086143D01*
X12796667Y-17095667D01*
X12806190Y-17114714D01*
X12806190Y-17219476D01*
X12901428Y-17219476D02*
X12901428Y-17086143D01*
X12901428Y-17105190D02*
X12910952Y-17095667D01*
X12930000Y-17086143D01*
X12958571Y-17086143D01*
X12977619Y-17095667D01*
X12987143Y-17114714D01*
X12987143Y-17219476D01*
X12987143Y-17114714D02*
X12996667Y-17095667D01*
X13015714Y-17086143D01*
X13044286Y-17086143D01*
X13063333Y-17095667D01*
X13072857Y-17114714D01*
X13072857Y-17219476D01*
X13463333Y-17009952D02*
X13291905Y-17267095D01*
X13720476Y-17019476D02*
X13739524Y-17019476D01*
X13758571Y-17029000D01*
X13768095Y-17038524D01*
X13777619Y-17057571D01*
X13787143Y-17095667D01*
X13787143Y-17143286D01*
X13777619Y-17181381D01*
X13768095Y-17200429D01*
X13758571Y-17209952D01*
X13739524Y-17219476D01*
X13720476Y-17219476D01*
X13701428Y-17209952D01*
X13691905Y-17200429D01*
X13682381Y-17181381D01*
X13672857Y-17143286D01*
X13672857Y-17095667D01*
X13682381Y-17057571D01*
X13691905Y-17038524D01*
X13701428Y-17029000D01*
X13720476Y-17019476D01*
X13872857Y-17200429D02*
X13882381Y-17209952D01*
X13872857Y-17219476D01*
X13863333Y-17209952D01*
X13872857Y-17200429D01*
X13872857Y-17219476D01*
X14072857Y-17219476D02*
X13958571Y-17219476D01*
X14015714Y-17219476D02*
X14015714Y-17019476D01*
X13996667Y-17048048D01*
X13977619Y-17067095D01*
X13958571Y-17076619D01*
X14149048Y-17038524D02*
X14158571Y-17029000D01*
X14177619Y-17019476D01*
X14225238Y-17019476D01*
X14244286Y-17029000D01*
X14253809Y-17038524D01*
X14263333Y-17057571D01*
X14263333Y-17076619D01*
X14253809Y-17105190D01*
X14139524Y-17219476D01*
X14263333Y-17219476D01*
X14434762Y-17019476D02*
X14396667Y-17019476D01*
X14377619Y-17029000D01*
X14368095Y-17038524D01*
X14349048Y-17067095D01*
X14339524Y-17105190D01*
X14339524Y-17181381D01*
X14349048Y-17200429D01*
X14358571Y-17209952D01*
X14377619Y-17219476D01*
X14415714Y-17219476D01*
X14434762Y-17209952D01*
X14444286Y-17200429D01*
X14453809Y-17181381D01*
X14453809Y-17133762D01*
X14444286Y-17114714D01*
X14434762Y-17105190D01*
X14415714Y-17095667D01*
X14377619Y-17095667D01*
X14358571Y-17105190D01*
X14349048Y-17114714D01*
X14339524Y-17133762D01*
X14577619Y-17019476D02*
X14596667Y-17019476D01*
X14615714Y-17029000D01*
X14625238Y-17038524D01*
X14634762Y-17057571D01*
X14644286Y-17095667D01*
X14644286Y-17143286D01*
X14634762Y-17181381D01*
X14625238Y-17200429D01*
X14615714Y-17209952D01*
X14596667Y-17219476D01*
X14577619Y-17219476D01*
X14558571Y-17209952D01*
X14549048Y-17200429D01*
X14539524Y-17181381D01*
X14530000Y-17143286D01*
X14530000Y-17095667D01*
X14539524Y-17057571D01*
X14549048Y-17038524D01*
X14558571Y-17029000D01*
X14577619Y-17019476D01*
X14720476Y-17019476D02*
X14720476Y-17057571D01*
X14796667Y-17019476D02*
X14796667Y-17057571D01*
X15091905Y-17295667D02*
X15082381Y-17286143D01*
X15063333Y-17257571D01*
X15053809Y-17238524D01*
X15044286Y-17209952D01*
X15034762Y-17162333D01*
X15034762Y-17124238D01*
X15044286Y-17076619D01*
X15053809Y-17048048D01*
X15063333Y-17029000D01*
X15082381Y-17000429D01*
X15091905Y-16990905D01*
X15158571Y-17038524D02*
X15168095Y-17029000D01*
X15187143Y-17019476D01*
X15234762Y-17019476D01*
X15253809Y-17029000D01*
X15263333Y-17038524D01*
X15272857Y-17057571D01*
X15272857Y-17076619D01*
X15263333Y-17105190D01*
X15149048Y-17219476D01*
X15272857Y-17219476D01*
X15510952Y-17219476D02*
X15510952Y-17019476D01*
X15596667Y-17219476D02*
X15596667Y-17114714D01*
X15587143Y-17095667D01*
X15568095Y-17086143D01*
X15539524Y-17086143D01*
X15520476Y-17095667D01*
X15510952Y-17105190D01*
X15720476Y-17219476D02*
X15701428Y-17209952D01*
X15691905Y-17200429D01*
X15682381Y-17181381D01*
X15682381Y-17124238D01*
X15691905Y-17105190D01*
X15701428Y-17095667D01*
X15720476Y-17086143D01*
X15749048Y-17086143D01*
X15768095Y-17095667D01*
X15777619Y-17105190D01*
X15787143Y-17124238D01*
X15787143Y-17181381D01*
X15777619Y-17200429D01*
X15768095Y-17209952D01*
X15749048Y-17219476D01*
X15720476Y-17219476D01*
X15901428Y-17219476D02*
X15882381Y-17209952D01*
X15872857Y-17190905D01*
X15872857Y-17019476D01*
X16053809Y-17209952D02*
X16034762Y-17219476D01*
X15996667Y-17219476D01*
X15977619Y-17209952D01*
X15968095Y-17190905D01*
X15968095Y-17114714D01*
X15977619Y-17095667D01*
X15996667Y-17086143D01*
X16034762Y-17086143D01*
X16053809Y-17095667D01*
X16063333Y-17114714D01*
X16063333Y-17133762D01*
X15968095Y-17152810D01*
X16139524Y-17209952D02*
X16158571Y-17219476D01*
X16196667Y-17219476D01*
X16215714Y-17209952D01*
X16225238Y-17190905D01*
X16225238Y-17181381D01*
X16215714Y-17162333D01*
X16196667Y-17152810D01*
X16168095Y-17152810D01*
X16149048Y-17143286D01*
X16139524Y-17124238D01*
X16139524Y-17114714D01*
X16149048Y-17095667D01*
X16168095Y-17086143D01*
X16196667Y-17086143D01*
X16215714Y-17095667D01*
X16291905Y-17295667D02*
X16301428Y-17286143D01*
X16320476Y-17257571D01*
X16330000Y-17238524D01*
X16339524Y-17209952D01*
X16349048Y-17162333D01*
X16349048Y-17124238D01*
X16339524Y-17076619D01*
X16330000Y-17048048D01*
X16320476Y-17029000D01*
X16301428Y-17000429D01*
X16291905Y-16990905D01*
X16653809Y-17295667D02*
X16644286Y-17286143D01*
X16625238Y-17257571D01*
X16615714Y-17238524D01*
X16606190Y-17209952D01*
X16596667Y-17162333D01*
X16596667Y-17124238D01*
X16606190Y-17076619D01*
X16615714Y-17048048D01*
X16625238Y-17029000D01*
X16644286Y-17000429D01*
X16653809Y-16990905D01*
X16730000Y-17086143D02*
X16730000Y-17219476D01*
X16730000Y-17105190D02*
X16739524Y-17095667D01*
X16758571Y-17086143D01*
X16787143Y-17086143D01*
X16806190Y-17095667D01*
X16815714Y-17114714D01*
X16815714Y-17219476D01*
X16939524Y-17219476D02*
X16920476Y-17209952D01*
X16910952Y-17200429D01*
X16901429Y-17181381D01*
X16901429Y-17124238D01*
X16910952Y-17105190D01*
X16920476Y-17095667D01*
X16939524Y-17086143D01*
X16968095Y-17086143D01*
X16987143Y-17095667D01*
X16996667Y-17105190D01*
X17006190Y-17124238D01*
X17006190Y-17181381D01*
X16996667Y-17200429D01*
X16987143Y-17209952D01*
X16968095Y-17219476D01*
X16939524Y-17219476D01*
X17063333Y-17086143D02*
X17139524Y-17086143D01*
X17091905Y-17019476D02*
X17091905Y-17190905D01*
X17101429Y-17209952D01*
X17120476Y-17219476D01*
X17139524Y-17219476D01*
X17358571Y-17086143D02*
X17358571Y-17286143D01*
X17358571Y-17095667D02*
X17377619Y-17086143D01*
X17415714Y-17086143D01*
X17434762Y-17095667D01*
X17444286Y-17105190D01*
X17453810Y-17124238D01*
X17453810Y-17181381D01*
X17444286Y-17200429D01*
X17434762Y-17209952D01*
X17415714Y-17219476D01*
X17377619Y-17219476D01*
X17358571Y-17209952D01*
X17568095Y-17219476D02*
X17549048Y-17209952D01*
X17539524Y-17190905D01*
X17539524Y-17019476D01*
X17730000Y-17219476D02*
X17730000Y-17114714D01*
X17720476Y-17095667D01*
X17701429Y-17086143D01*
X17663333Y-17086143D01*
X17644286Y-17095667D01*
X17730000Y-17209952D02*
X17710952Y-17219476D01*
X17663333Y-17219476D01*
X17644286Y-17209952D01*
X17634762Y-17190905D01*
X17634762Y-17171857D01*
X17644286Y-17152810D01*
X17663333Y-17143286D01*
X17710952Y-17143286D01*
X17730000Y-17133762D01*
X17796667Y-17086143D02*
X17872857Y-17086143D01*
X17825238Y-17019476D02*
X17825238Y-17190905D01*
X17834762Y-17209952D01*
X17853810Y-17219476D01*
X17872857Y-17219476D01*
X18015714Y-17209952D02*
X17996667Y-17219476D01*
X17958571Y-17219476D01*
X17939524Y-17209952D01*
X17930000Y-17190905D01*
X17930000Y-17114714D01*
X17939524Y-17095667D01*
X17958571Y-17086143D01*
X17996667Y-17086143D01*
X18015714Y-17095667D01*
X18025238Y-17114714D01*
X18025238Y-17133762D01*
X17930000Y-17152810D01*
X18196667Y-17219476D02*
X18196667Y-17019476D01*
X18196667Y-17209952D02*
X18177619Y-17219476D01*
X18139524Y-17219476D01*
X18120476Y-17209952D01*
X18110952Y-17200429D01*
X18101429Y-17181381D01*
X18101429Y-17124238D01*
X18110952Y-17105190D01*
X18120476Y-17095667D01*
X18139524Y-17086143D01*
X18177619Y-17086143D01*
X18196667Y-17095667D01*
X18272857Y-17295667D02*
X18282381Y-17286143D01*
X18301429Y-17257571D01*
X18310952Y-17238524D01*
X18320476Y-17209952D01*
X18330000Y-17162333D01*
X18330000Y-17124238D01*
X18320476Y-17076619D01*
X18310952Y-17048048D01*
X18301429Y-17029000D01*
X18282381Y-17000429D01*
X18272857Y-16990905D01*
M02*
